<?xml version="1.0" encoding="UTF-8"?><svg id="uuid-b1cd8310-5bc0-48e7-8c92-8a3d45b91b69" xmlns="http://www.w3.org/2000/svg" viewBox="0 0 580 469.14"><defs><style>.uuid-04bfbe29-70c7-4276-ac66-50974a8fb845{fill:#0081ff;}.uuid-393df70d-044b-42d4-b47b-16702724db4f{fill:#d5ebf7;opacity:.5;}.uuid-61f0bb1d-afe0-4c07-afbe-bcf841e3af86{fill:#bfabff;}.uuid-e51521f0-0978-46bb-859a-5d5774584097{fill:#e6f3fc;}.uuid-3f842619-03a3-42fa-ace9-8bae702bd460{fill:#fff;}.uuid-8e874559-b0f5-4169-aa1e-95236be4cfb4{fill:#0b135e;}.uuid-e058b13c-ff7a-445a-89d9-5139e76d824f{fill:#ff452d;}.uuid-5af4cf67-a28b-45af-a0dd-0b53a1d62f40{fill:#dbd2ff;}.uuid-67ae54e3-be41-4fbd-8023-816d0b7bd8c6{fill:#ffcc3d;}</style></defs><path class="uuid-3f842619-03a3-42fa-ace9-8bae702bd460" d="M406.13,349.03l23.17,24.9,35.22-45.58,39.06,20.6-40.72,75.58c-5.46,9.66-15.03,16.28-25.99,17.98h0c-12.75,1.98-25.6-2.97-33.72-13l-46.89-57.89"/><path class="uuid-8e874559-b0f5-4169-aa1e-95236be4cfb4" d="M431.36,444.03c-11.16,0-21.92-5.03-29.05-13.83l-46.89-57.89c-.38-.47-.31-1.15.16-1.53.47-.38,1.15-.31,1.53.16l46.89,57.89c7.85,9.69,20.38,14.52,32.71,12.61,10.7-1.66,19.89-8.02,25.22-17.44l40.19-74.6-37.28-19.67-34.67,44.85c-.2.25-.49.41-.81.42-.33.01-.63-.11-.84-.34l-23.17-24.9c-.41-.44-.38-1.13.06-1.53.44-.41,1.13-.38,1.53.06l22.3,23.97,34.44-44.56c.32-.42.9-.54,1.37-.3l39.06,20.6c.26.14.45.37.53.64.08.28.05.58-.08.83l-40.72,75.58c-5.67,10.02-15.42,16.78-26.78,18.54-1.89.29-3.79.44-5.68.44Z"/><path class="uuid-3f842619-03a3-42fa-ace9-8bae702bd460" d="M121.04,315.04l.13-.15,39.91,27.97,53-23.55,27.65,46.43-50.74,30.24c-6.64,3.96-14.21,6.02-21.91,6.02-.85,0-1.7-.03-2.56-.08-9.26-.56-18.09-4.13-25.15-10.15l-50.2-41.5"/><path class="uuid-8e874559-b0f5-4169-aa1e-95236be4cfb4" d="M169.08,403.08c-.87,0-1.75-.03-2.63-.08-9.44-.57-18.6-4.27-25.79-10.41l-50.19-41.49c-.46-.38-.53-1.07-.15-1.53.38-.46,1.07-.53,1.53-.14l50.2,41.5c6.85,5.84,15.56,9.36,24.53,9.9,8.46.5,16.71-1.53,23.85-5.8l49.81-29.69-26.6-44.67-52.12,23.16c-.35.15-.75.12-1.06-.1l-39.41-27.62h0c-.25,0-.49-.08-.7-.25-.46-.39-.52-1.07-.13-1.53l.13-.15c.36-.43.99-.51,1.46-.19l39.41,27.62,52.44-23.3c.5-.22,1.09-.04,1.37.44l27.65,46.43c.31.52.14,1.18-.38,1.49l-50.74,30.24c-6.77,4.04-14.54,6.18-22.47,6.18Z"/><path class="uuid-61f0bb1d-afe0-4c07-afbe-bcf841e3af86" d="M274.63,353.46l-63.95,35.39s-28-59.84-28-61.15c0-.94,23.1-11.9,36.19-18.03,5.72-2.69,12.05-3.77,18.32-3.13l28.46,2.88,8.98,44.03Z"/><path class="uuid-3f842619-03a3-42fa-ace9-8bae702bd460" d="M198.43,363.63c-.6,0-1.09-.49-1.09-1.09,0-.45.27-.84.66-1,3.3-1.83,5.34-5.29,5.34-9.07,0-5.71-4.65-10.36-10.37-10.36-1.29,0-2.54.23-3.72.68-.55.21-1.19-.06-1.4-.62-.21-.56.07-1.19.62-1.4,1.43-.55,2.95-.83,4.5-.83,6.92,0,12.54,5.62,12.54,12.53,0,4.61-2.52,8.84-6.57,11.03-.16.09-.34.13-.52.13Z"/><path class="uuid-8e874559-b0f5-4169-aa1e-95236be4cfb4" d="M210.68,389.93c-.11,0-.23-.02-.34-.05-.29-.09-.52-.3-.65-.57-12.82-27.4-28.11-60.33-28.11-61.61,0-.95,0-1.78,36.81-19.01.54-.26,1.19-.02,1.45.52.25.54.02,1.19-.52,1.44-23.01,10.77-33.21,15.95-35.4,17.38,1.89,4.82,16.85,37.08,27.24,59.3l62.93-34.83c.53-.29,1.19-.1,1.48.42.29.52.1,1.19-.42,1.48l-63.95,35.39c-.16.09-.34.14-.53.14ZM183.53,328.33h0Z"/><path class="uuid-8e874559-b0f5-4169-aa1e-95236be4cfb4" d="M331.75,295.66c-7.12-19.24-30.62-52.25-30.62-52.25l-28.7-52.72s-23.59,37.12-27.08,64.17c-1.42,11-1.1,23.44,12.93,28.9,11.9,7.72,43.65,9.52,73.47,11.9Z"/><polygon class="uuid-8e874559-b0f5-4169-aa1e-95236be4cfb4" points="343.93 468.66 227.03 439.94 222.83 468.66 343.93 468.66"/><path class="uuid-61f0bb1d-afe0-4c07-afbe-bcf841e3af86" d="M362.77,468.66l2.74-127.37c.02-12.55-9.51-23.07-22-24.29l-86.45-8.44c-13.24-1.29-25.07,8.27-26.58,21.49l-15.67,137.04,20.78,1.57h127.19Z"/><path class="uuid-3f842619-03a3-42fa-ace9-8bae702bd460" d="M219.19,442.56c-.72,0-1.44-.05-2.16-.15-.59-.08-1.01-.63-.93-1.22.08-.59.62-1.01,1.22-.93.97.13,1.96.16,2.94.08,7.74-.62,13.53-7.42,12.92-15.16-.52-6.57-5.64-11.97-12.16-12.84-.59-.08-1.01-.62-.93-1.22.08-.6.62-1.01,1.22-.93,7.53,1,13.43,7.23,14.04,14.82.71,8.94-5.97,16.79-14.91,17.5-.42.03-.83.05-1.25.05Z"/><path class="uuid-8e874559-b0f5-4169-aa1e-95236be4cfb4" d="M215.69,460.24s-.09,0-.14,0c-.6-.08-1.01-.62-.94-1.22,2.72-20.84,4.85-41.47,6.9-61.42,1.84-17.87,3.74-36.34,6.06-54.8.08-.6.6-1.02,1.21-.94.6.07,1.02.62.94,1.21-2.31,18.44-4.22,36.9-6.05,54.75-2.06,19.96-4.18,40.61-6.91,61.48-.07.55-.54.95-1.08.95Z"/><path class="uuid-3f842619-03a3-42fa-ace9-8bae702bd460" d="M285.85,276.14l-4.73,34.51s-18.75,23.42,3.86,27.55c22.61,4.13,35.27-22.21,35.27-22.21l3.57-54.46-37.97,14.62Z"/><path class="uuid-8e874559-b0f5-4169-aa1e-95236be4cfb4" d="M289.71,339.72c-1.59,0-3.23-.14-4.92-.45-6.06-1.11-9.88-3.68-11.37-7.65-3.08-8.25,5.25-19.57,6.67-21.41l4.69-34.22c.05-.39.32-.72.69-.87l37.97-14.62c.34-.13.73-.08,1.03.14.3.22.46.58.44.95l-3.57,54.46c0,.14-.04.27-.1.4-.12.25-11.44,23.26-31.53,23.26ZM286.84,276.92l-4.64,33.87c-.03.19-.11.38-.23.53-.09.12-9.38,11.87-6.51,19.53,1.2,3.2,4.47,5.31,9.72,6.27,20.57,3.76,32.84-19.15,34.01-21.43l3.44-52.55-35.79,13.78ZM281.13,310.65h.01-.01Z"/><path class="uuid-3f842619-03a3-42fa-ace9-8bae702bd460" d="M323.23,266.56c1.6-1.74,3.09-3.6,4.44-5.6,6.05-8.94,10.45-19.5,16.69-30.11l-59.14-38.53c-1.14.67-19.51,15.98-27.7,49.38-5.63,22.94,5.08,36.42,21.95,39.47,9.96,1.8,20.05.36,28.9-3.77"/><path class="uuid-8e874559-b0f5-4169-aa1e-95236be4cfb4" d="M288.03,283.04c-2.92,0-5.85-.26-8.77-.79-8.79-1.59-15.65-5.84-19.83-12.28-4.74-7.3-5.77-17.16-2.99-28.52,8.59-35.01,28.02-49.95,28.21-50.06.35-.21.8-.2,1.14.03l59.14,38.53c.49.32.64.96.34,1.46-2.6,4.44-4.9,8.89-7.12,13.19-3.12,6.04-6.06,11.74-9.6,16.98-1.36,2.01-2.89,3.94-4.54,5.73-.41.44-1.1.47-1.53.06-.44-.41-.47-1.09-.06-1.54,1.58-1.71,3.04-3.55,4.34-5.47,3.47-5.13,6.38-10.78,9.47-16.76,2.09-4.04,4.24-8.21,6.66-12.4l-57.62-37.55c-3.02,2.54-19.12,17.36-26.71,48.31-2.64,10.76-1.71,20.03,2.7,26.82,3.85,5.93,10.21,9.84,18.39,11.33,9.6,1.74,19.37.46,28.24-3.68.54-.25,1.19-.02,1.44.52.25.54.02,1.19-.52,1.44-6.59,3.08-13.65,4.64-20.78,4.64Z"/><path class="uuid-8e874559-b0f5-4169-aa1e-95236be4cfb4" d="M318.21,246.07l5.14,20.61-3.66,33.4,13.71,1.71c17.62,3.15,32.22-8.39,29.74-26.12-4.26-30.5-14.81-70.5-30.42-83.32-22.93-18.82-74.26-10.05-66.07,14.51,6.28,18.84,42.5,18.67,42.5,18.67-.51,11.83,6.34,23.84,6.34,23.84l2.72-3.3Z"/><path class="uuid-3f842619-03a3-42fa-ace9-8bae702bd460" d="M314.4,262.68s5.21,4.49,13.17,4.36c7.96-.13,16.05-21.54,10.38-25.38-5.67-3.84-19.74,4.41-19.74,4.41"/><path class="uuid-8e874559-b0f5-4169-aa1e-95236be4cfb4" d="M327.22,268.13c-8.07,0-13.31-4.44-13.53-4.63-.45-.39-.5-1.08-.11-1.53.39-.45,1.08-.5,1.53-.12.05.04,5,4.26,12.44,4.1,3.95-.07,8.3-6.78,10.21-13.22,1.46-4.92,1.29-9.01-.42-10.17-4.19-2.83-14.83,2.25-18.58,4.45-.52.3-1.18.13-1.49-.39-.3-.52-.13-1.18.39-1.49,1.5-.88,14.84-8.47,20.9-4.37,2.62,1.77,3.11,6.48,1.29,12.59-2.16,7.28-7.07,14.69-12.26,14.78-.12,0-.25,0-.37,0Z"/><path class="uuid-3f842619-03a3-42fa-ace9-8bae702bd460" d="M324.71,249.67c.95-1.01,2.12-1.83,3.4-2.37.8-.34,1.67-.58,2.54-.52.87.06,1.75.45,2.25,1.16.71,1.01.54,2.39.2,3.58-.62,2.17-1.68,4.21-3.11,5.95"/><path class="uuid-8e874559-b0f5-4169-aa1e-95236be4cfb4" d="M330,258.56c-.24,0-.48-.08-.69-.24-.46-.38-.53-1.06-.15-1.53,1.33-1.62,2.33-3.55,2.9-5.56.35-1.23.34-2.12-.04-2.66-.28-.39-.83-.66-1.44-.71-.58-.04-1.26.1-2.04.44-1.14.48-2.19,1.22-3.04,2.12-.41.44-1.1.46-1.53.05-.44-.41-.46-1.1-.05-1.54,1.05-1.12,2.35-2.03,3.77-2.63,1.11-.47,2.11-.67,3.04-.6,1.27.09,2.41.69,3.06,1.62.78,1.11.9,2.58.35,4.5-.65,2.3-1.8,4.49-3.31,6.34-.21.26-.53.4-.84.4Z"/><path class="uuid-8e874559-b0f5-4169-aa1e-95236be4cfb4" d="M268.99,235.87c-.69,1.96-.19,3.92,1.12,4.39,1.31.46,2.94-.75,3.63-2.7.69-1.96.19-3.92-1.12-4.39-1.31-.46-2.94.75-3.63,2.7Z"/><path class="uuid-3f842619-03a3-42fa-ace9-8bae702bd460" d="M278.16,231.83c-1.15-2.37-3.79-3.79-6.7-3.6"/><path class="uuid-8e874559-b0f5-4169-aa1e-95236be4cfb4" d="M278.16,232.92c-.4,0-.79-.22-.98-.61-.96-1.98-3.16-3.16-5.65-2.99-.54.03-1.11-.42-1.15-1.01-.04-.6.41-1.12,1.01-1.15,3.33-.22,6.39,1.44,7.74,4.21.26.54.04,1.19-.5,1.45-.15.07-.32.11-.47.11Z"/><path class="uuid-8e874559-b0f5-4169-aa1e-95236be4cfb4" d="M287.11,243.45c-.69,1.96-.19,3.92,1.12,4.39s2.94-.74,3.63-2.7c.69-1.96.19-3.92-1.12-4.39-1.31-.46-2.94.74-3.63,2.7Z"/><path class="uuid-3f842619-03a3-42fa-ace9-8bae702bd460" d="M296.28,239.42c-1.15-2.37-3.79-3.79-6.7-3.6"/><path class="uuid-8e874559-b0f5-4169-aa1e-95236be4cfb4" d="M296.28,240.5c-.4,0-.79-.22-.98-.61-.96-1.98-3.18-3.16-5.65-2.99-.55.04-1.11-.41-1.15-1.01-.04-.6.41-1.12,1.01-1.15,3.34-.22,6.39,1.44,7.74,4.21.26.54.04,1.19-.5,1.45-.15.07-.32.11-.47.11Z"/><path class="uuid-8e874559-b0f5-4169-aa1e-95236be4cfb4" d="M283.15,267.81c-.86,0-1.72-.13-2.53-.39-.57-.18-.88-.8-.7-1.37.19-.57.79-.88,1.37-.7,1.6.52,3.44.34,4.9-.49,1.47-.83,2.57-2.3,2.96-3.94.14-.59.72-.94,1.31-.81.58.14.95.72.81,1.3-.52,2.22-2.02,4.22-4,5.34-1.24.7-2.68,1.06-4.11,1.06Z"/><path class="uuid-8e874559-b0f5-4169-aa1e-95236be4cfb4" d="M272.59,260.91c-.1,0-.2-.01-.29-.04-2.48-.7-4.15-3.42-3.64-5.96.25-1.26.99-2.47,2.2-3.62.54-.51,1.12-.96,1.67-1.4.39-.31.78-.62,1.16-.94,1.78-1.55,3.14-3.55,3.93-5.77.2-.56.83-.86,1.39-.66.57.2.86.82.66,1.39-.92,2.57-2.49,4.88-4.55,6.68-.4.35-.83.68-1.25,1.02-.54.42-1.05.82-1.52,1.27-.87.83-1.4,1.66-1.56,2.47-.28,1.41.72,3.04,2.1,3.43.58.16.91.76.75,1.34-.13.48-.57.79-1.05.79Z"/><path class="uuid-3f842619-03a3-42fa-ace9-8bae702bd460" d="M265.64,404.95c-5.7,0-10.34-4.64-10.34-10.34s4.64-10.34,10.34-10.34,10.34,4.64,10.34,10.34-4.64,10.34-10.34,10.34ZM265.64,386.44c-4.5,0-8.17,3.66-8.17,8.17s3.66,8.17,8.17,8.17,8.17-3.66,8.17-8.17-3.66-8.17-8.17-8.17Z"/><path class="uuid-3f842619-03a3-42fa-ace9-8bae702bd460" d="M335.77,425.12c-5.7,0-10.34-4.64-10.34-10.34s4.64-10.34,10.34-10.34,10.34,4.64,10.34,10.34-4.64,10.34-10.34,10.34ZM335.77,406.62c-4.5,0-8.17,3.66-8.17,8.17s3.66,8.17,8.17,8.17,8.17-3.66,8.17-8.17-3.66-8.17-8.17-8.17Z"/><path class="uuid-3f842619-03a3-42fa-ace9-8bae702bd460" d="M284.05,443.73c-5.65,0-10.24-4.6-10.24-10.24s4.6-10.24,10.24-10.24,10.24,4.6,10.24,10.24-4.6,10.24-10.24,10.24ZM284.05,425.41c-4.45,0-8.07,3.62-8.07,8.07s3.62,8.07,8.07,8.07,8.07-3.62,8.07-8.07-3.62-8.07-8.07-8.07Z"/><path class="uuid-3f842619-03a3-42fa-ace9-8bae702bd460" d="M307.18,406.62c-2.62,0-4.76-2.13-4.76-4.76s2.14-4.76,4.76-4.76,4.76,2.14,4.76,4.76-2.14,4.76-4.76,4.76ZM307.18,399.27c-1.43,0-2.59,1.16-2.59,2.59s1.16,2.59,2.59,2.59,2.59-1.16,2.59-2.59-1.16-2.59-2.59-2.59Z"/><path class="uuid-3f842619-03a3-42fa-ace9-8bae702bd460" d="M265.64,357.23c-2.62,0-4.76-2.14-4.76-4.76s2.14-4.76,4.76-4.76,4.76,2.13,4.76,4.76-2.14,4.76-4.76,4.76ZM265.64,349.89c-1.43,0-2.59,1.16-2.59,2.59s1.16,2.59,2.59,2.59,2.59-1.16,2.59-2.59-1.16-2.59-2.59-2.59Z"/><path class="uuid-3f842619-03a3-42fa-ace9-8bae702bd460" d="M307.18,373.23c-3.3,0-5.99-2.69-5.99-5.99s2.69-5.99,5.99-5.99,5.99,2.69,5.99,5.99-2.69,5.99-5.99,5.99ZM307.18,363.42c-2.11,0-3.82,1.71-3.82,3.82s1.71,3.82,3.82,3.82,3.82-1.71,3.82-3.82-1.71-3.82-3.82-3.82Z"/><path class="uuid-3f842619-03a3-42fa-ace9-8bae702bd460" d="M253.24,450.98c-2.33,0-4.23-1.9-4.23-4.23s1.9-4.23,4.23-4.23,4.23,1.9,4.23,4.23-1.9,4.23-4.23,4.23ZM253.24,444.68c-1.14,0-2.06.92-2.06,2.06s.92,2.06,2.06,2.06,2.06-.92,2.06-2.06-.92-2.06-2.06-2.06Z"/><path class="uuid-3f842619-03a3-42fa-ace9-8bae702bd460" d="M321.46,450.98c-3.34,0-6.06-2.72-6.06-6.06s2.72-6.06,6.06-6.06,6.06,2.72,6.06,6.06-2.72,6.06-6.06,6.06ZM321.46,441.02c-2.15,0-3.89,1.75-3.89,3.89s1.75,3.89,3.89,3.89,3.89-1.75,3.89-3.89-1.75-3.89-3.89-3.89Z"/><path class="uuid-3f842619-03a3-42fa-ace9-8bae702bd460" d="M91.16,350.26l-9.29-8.24s-2.72-1.44-8.3-3.81c-5.57-2.38-5.96-7.82-5.96-7.82l-9.94-.35c-2.42-.09-4.7-1.11-6.37-2.88-6.6-6.98-23.19-25.08-20.89-27.6,2.88-3.13,10.66,1.19,10.66,1.19,6.27-6.69,13.88,3.02,13.88,3.02,4.73-2.32,11.58,3.91,11.58,3.91l18.82-3.7-14.74-9.39c-2.02-1.29-3.14-3.45-3.2-5.66-.04-1.44.36-2.9,1.24-4.16,1.91-2.73,5.51-3.73,8.56-2.35l24.64,11.16c2.72,1.23,5.05,3.17,6.77,5.6l12.42,15.85"/><path class="uuid-8e874559-b0f5-4169-aa1e-95236be4cfb4" d="M91.16,351.35c-.26,0-.51-.09-.72-.27l-9.19-8.15c-.57-.29-3.26-1.65-8.11-3.71-4.69-2.01-6.07-5.93-6.46-7.76l-9.05-.32c-2.73-.1-5.26-1.25-7.12-3.22-24.13-25.54-21.78-28.11-20.9-29.08,2.9-3.15,9.06-.51,11.26.59,1.62-1.48,3.44-2.19,5.46-2.1,4.09.18,7.63,3.69,8.94,5.16,4.53-1.45,10.01,2.74,11.57,4.04l15.64-3.08-12.45-7.93c-2.24-1.43-3.63-3.88-3.7-6.55-.05-1.74.45-3.4,1.44-4.82,2.22-3.17,6.38-4.31,9.9-2.71l24.64,11.16c2.88,1.3,5.37,3.37,7.21,5.96l12.38,15.81c.37.47.29,1.15-.19,1.52-.48.37-1.16.29-1.53-.19l-12.42-15.85c-1.64-2.32-3.83-4.13-6.36-5.28l-24.64-11.16c-2.57-1.16-5.6-.33-7.22,1.98-.72,1.03-1.08,2.25-1.05,3.51.06,1.95,1.07,3.73,2.7,4.78l14.74,9.39c.37.24.57.68.48,1.12-.08.44-.42.78-.86.86l-18.82,3.7c-.33.06-.68-.03-.94-.26-1.76-1.59-7.04-5.37-10.38-3.74-.46.23-1.02.1-1.33-.3-.04-.05-3.81-4.78-7.87-4.96-1.66-.07-3.04.59-4.36,2-.34.36-.89.45-1.32.21-1.83-1.01-7.46-3.44-9.34-1.41-.28,1.54,6.07,10.46,20.88,26.12,1.47,1.56,3.47,2.46,5.62,2.54l9.94.35c.55.02,1.01.45,1.04,1.01.02.19.44,4.81,5.3,6.89,5.56,2.36,8.27,3.78,8.38,3.84.08.04.15.09.21.15l9.29,8.24c.45.4.49,1.08.09,1.53-.21.24-.51.37-.81.37Z"/><path class="uuid-3f842619-03a3-42fa-ace9-8bae702bd460" d="M102.03,321.9s-14.22-3.67-24.04,2.48c0,0-18.57-22.35-21.15-12.9-.44,1.6-.09,3.31.81,4.69l9.95,14.22"/><path class="uuid-8e874559-b0f5-4169-aa1e-95236be4cfb4" d="M67.6,331.48c-.34,0-.68-.16-.89-.46l-9.95-14.22c-1.13-1.72-1.48-3.76-.97-5.6.58-2.13,1.86-2.83,2.83-3.04,5.49-1.19,16.28,10.91,19.61,14.83,10.02-5.65,23.49-2.27,24.07-2.12.58.15.93.74.78,1.32-.15.58-.74.93-1.32.78-.14-.04-13.9-3.48-23.19,2.35-.46.29-1.06.19-1.41-.23-5.1-6.13-14.5-15.57-18.07-14.8-.23.05-.84.18-1.19,1.49-.34,1.25-.1,2.64.67,3.81l9.93,14.19c.34.49.22,1.17-.27,1.51-.19.13-.41.2-.62.2Z"/><path class="uuid-8e874559-b0f5-4169-aa1e-95236be4cfb4" d="M52.08,329c-.35,0-.69-.17-.9-.47-3.71-5.44-12.23-18.41-11.17-21.36.46-1.29,1.74-2.19,3.42-2.42,1.63-.22,7.52-.16,14.62,9.9.35.49.23,1.17-.26,1.51-.49.35-1.17.23-1.51-.26-5.08-7.2-9.81-9.36-12.55-9-.85.12-1.49.5-1.67,1-.28,1.66,5.45,11.37,10.92,19.4.34.5.21,1.17-.28,1.51-.19.13-.4.19-.61.19Z"/><path class="uuid-61f0bb1d-afe0-4c07-afbe-bcf841e3af86" d="M336.76,316.04l32.91,3.43c9.63,1.01,18.57,5.5,25.12,12.63l25.02,27.25s-47.71,49.86-47.71,49.27c0-.41-15.56-19.97-25.02-31.81-4.61-5.78-7.33-12.83-7.79-20.21l-2.54-40.57Z"/><path class="uuid-3f842619-03a3-42fa-ace9-8bae702bd460" d="M388.76,392.76c-.2,0-.41-.06-.59-.18-5.31-3.48-8.49-9.35-8.49-15.71,0-10.39,8.44-18.83,18.82-18.83,6.06,0,11.79,2.94,15.31,7.87.35.49.24,1.17-.25,1.52-.49.35-1.17.24-1.52-.25-3.12-4.36-8.18-6.97-13.55-6.97-9.18,0-16.65,7.47-16.65,16.66,0,5.62,2.81,10.82,7.5,13.89.5.33.64,1,.32,1.5-.21.32-.56.49-.91.49Z"/><path class="uuid-8e874559-b0f5-4169-aa1e-95236be4cfb4" d="M372.01,409.71c-.11,0-.2-.04-.3-.08-.27-.11-.48-.32-.59-.58-.39-.62-3.7-5.04-24.87-31.56-.37-.47-.3-1.15.17-1.53.47-.37,1.15-.3,1.53.17,16.9,21.16,22.49,28.3,24.34,30.88,4.77-4.66,29.15-30.02,46.05-47.68l-24.34-26.5c-.41-.44-.38-1.13.07-1.53.44-.4,1.13-.38,1.53.06l25.02,27.25c.39.42.38,1.07-.02,1.49,0,0-11.83,12.36-23.7,24.7-21.63,22.47-23.97,24.91-24.89,24.91Z"/><path class="uuid-3f842619-03a3-42fa-ace9-8bae702bd460" d="M362.76,373.23c-4.19,0-7.59-3.41-7.59-7.59s3.41-7.59,7.59-7.59,7.59,3.41,7.59,7.59-3.41,7.59-7.59,7.59ZM362.76,360.21c-2.99,0-5.42,2.43-5.42,5.42s2.43,5.42,5.42,5.42,5.42-2.43,5.42-5.42-2.43-5.42-5.42-5.42Z"/><path class="uuid-3f842619-03a3-42fa-ace9-8bae702bd460" d="M374.26,348.69c-4.19,0-7.59-3.41-7.59-7.59s3.41-7.59,7.59-7.59,7.59,3.41,7.59,7.59-3.41,7.59-7.59,7.59ZM374.26,335.68c-2.99,0-5.42,2.43-5.42,5.42s2.43,5.42,5.42,5.42,5.42-2.43,5.42-5.42-2.43-5.42-5.42-5.42Z"/><path class="uuid-3f842619-03a3-42fa-ace9-8bae702bd460" d="M501.37,353.29l9.29-8.24s2.72-1.44,8.3-3.81c5.57-2.38,5.96-7.82,5.96-7.82l9.94-.35c2.42-.09,4.7-1.11,6.37-2.88,6.6-6.98,21.76-19.32,20.19-24.36-1.27-4.06-10.35-.42-10.35-.42-6.27-6.69-13.49,1.39-13.49,1.39-4.73-2.32-11.58,3.91-11.58,3.91l-18.82-3.7,14.74-9.39c2.02-1.29,3.14-3.45,3.2-5.66.04-1.44-.36-2.9-1.24-4.16-1.91-2.73-5.51-3.73-8.56-2.34l-24.64,11.16c-2.72,1.23-5.05,3.17-6.77,5.6l-20.02,27.33"/><path class="uuid-8e874559-b0f5-4169-aa1e-95236be4cfb4" d="M501.37,354.38c-.3,0-.6-.12-.81-.37-.4-.45-.36-1.13.09-1.53l9.29-8.24c.06-.06.14-.11.21-.15.11-.06,2.82-1.48,8.39-3.85,4.86-2.08,5.28-6.7,5.3-6.9.04-.55.49-.98,1.05-1l9.94-.35c2.15-.08,4.15-.98,5.62-2.54,1.64-1.74,3.79-3.79,6.07-5.96,5.92-5.64,14.86-14.17,13.87-17.32-.12-.39-.36-.65-.76-.84-1.78-.85-5.95.23-8.16,1.11-.41.17-.89.06-1.19-.27-1.46-1.55-3.12-2.31-4.82-2.31-3.78.04-7.04,3.64-7.07,3.68-.32.36-.85.47-1.29.25-3.33-1.63-8.62,2.14-10.38,3.74-.25.23-.61.32-.94.26l-18.82-3.7c-.44-.09-.77-.43-.86-.86-.08-.44.11-.88.48-1.12l14.74-9.39c1.63-1.05,2.65-2.83,2.7-4.78.03-1.26-.33-2.48-1.05-3.51-1.62-2.31-4.65-3.14-7.22-1.98l-24.64,11.16c-2.53,1.15-4.72,2.96-6.33,5.24l-20.03,27.34c-.36.48-1.03.59-1.52.23-.48-.35-.59-1.03-.23-1.52l20.02-27.33c1.82-2.58,4.31-4.64,7.2-5.95l24.64-11.16c3.52-1.6,7.68-.46,9.9,2.71.99,1.42,1.48,3.08,1.44,4.82-.08,2.67-1.46,5.12-3.7,6.55l-12.45,7.94,15.64,3.08c1.56-1.31,7.09-5.53,11.63-4.02,1.23-1.18,4.38-3.8,8.12-3.85,2.18,0,4.15.81,5.91,2.47,1.81-.65,6.5-2.09,9.22-.8.94.45,1.6,1.19,1.9,2.16,1.29,4.12-5.18,10.7-14.45,19.54-2.26,2.15-4.39,4.19-5.99,5.88-1.86,1.98-4.39,3.12-7.12,3.22l-9.05.32c-.4,1.83-1.77,5.76-6.46,7.76-4.85,2.06-7.55,3.42-8.11,3.71l-9.19,8.15c-.21.18-.47.27-.72.27Z"/><path class="uuid-3f842619-03a3-42fa-ace9-8bae702bd460" d="M490.5,324.93s14.22-3.67,24.04,2.48c0,0,18.57-22.35,21.15-12.9.44,1.6.09,3.31-.81,4.69l-9.95,14.22"/><path class="uuid-8e874559-b0f5-4169-aa1e-95236be4cfb4" d="M524.93,334.51c-.21,0-.43-.06-.62-.2-.49-.34-.61-1.02-.27-1.51l9.95-14.22c.75-1.15,1-2.54.65-3.79-.36-1.31-.97-1.44-1.19-1.49-3.6-.8-12.98,8.67-18.07,14.8-.35.42-.95.51-1.41.23-9.29-5.82-23.05-2.38-23.19-2.35-.59.15-1.17-.2-1.32-.78-.15-.58.2-1.17.78-1.32.58-.15,14.05-3.53,24.07,2.12,3.32-3.92,14.11-16.01,19.61-14.83.97.21,2.25.91,2.83,3.04.5,1.85.16,3.88-.95,5.58l-9.97,14.25c-.21.3-.55.46-.89.46Z"/><path class="uuid-8e874559-b0f5-4169-aa1e-95236be4cfb4" d="M540.45,332.03c-.21,0-.42-.06-.61-.19-.49-.34-.62-1.01-.28-1.51,5.48-8.03,11.2-17.74,10.91-19.43-.17-.47-.81-.85-1.66-.97-2.73-.36-7.47,1.8-12.55,9-.35.49-1.02.61-1.51.26-.49-.35-.61-1.02-.26-1.51,7.1-10.06,12.99-10.12,14.62-9.9,1.68.23,2.96,1.13,3.42,2.42,1.06,2.95-7.46,15.92-11.17,21.36-.21.31-.55.47-.9.47Z"/><path class="uuid-3f842619-03a3-42fa-ace9-8bae702bd460" d="M214.8,339.12c-3.24,0-5.87-2.63-5.87-5.87s2.63-5.87,5.87-5.87,5.87,2.63,5.87,5.87-2.63,5.87-5.87,5.87ZM214.8,329.55c-2.04,0-3.7,1.66-3.7,3.7s1.66,3.7,3.7,3.7,3.7-1.66,3.7-3.7-1.66-3.7-3.7-3.7Z"/><path class="uuid-3f842619-03a3-42fa-ace9-8bae702bd460" d="M214.12,369.8c-3.24,0-5.87-2.63-5.87-5.87s2.63-5.87,5.87-5.87,5.87,2.63,5.87,5.87-2.63,5.87-5.87,5.87ZM214.12,360.23c-2.04,0-3.7,1.66-3.7,3.7s1.66,3.7,3.7,3.7,3.7-1.66,3.7-3.7-1.66-3.7-3.7-3.7Z"/><path class="uuid-3f842619-03a3-42fa-ace9-8bae702bd460" d="M383.46,102.39v180.48c0,8.4,6.81,15.2,15.2,15.2h157.35c8.4,0,15.22-6.81,15.22-15.2V102.39h-187.77Z"/><path class="uuid-8e874559-b0f5-4169-aa1e-95236be4cfb4" d="M556.01,299.16h-157.35c-8.98,0-16.29-7.31-16.29-16.29V102.39c0-.6.49-1.09,1.09-1.09h187.77c.6,0,1.09.49,1.09,1.09v180.48c0,8.98-7.31,16.29-16.3,16.29ZM384.55,103.47v179.39c0,7.78,6.33,14.12,14.12,14.12h157.35c7.79,0,14.13-6.33,14.13-14.12V103.47h-185.6Z"/><path class="uuid-e51521f0-0978-46bb-859a-5d5774584097" d="M571.23,97.21v8.02h-187.77v-8.02c0-8.4,6.81-15.22,15.2-15.22h157.35c8.4,0,15.22,6.82,15.22,15.22Z"/><path class="uuid-8e874559-b0f5-4169-aa1e-95236be4cfb4" d="M571.23,106.32h-187.77c-.6,0-1.09-.49-1.09-1.09v-8.02c0-8.99,7.31-16.3,16.29-16.3h157.35c8.99,0,16.3,7.31,16.3,16.3v8.02c0,.6-.49,1.09-1.09,1.09ZM384.55,104.14h185.6v-6.94c0-7.79-6.34-14.13-14.13-14.13h-157.35c-7.78,0-14.12,6.34-14.12,14.13v6.94Z"/><path class="uuid-8e874559-b0f5-4169-aa1e-95236be4cfb4" d="M401.89,94.43c0,1.67-1.34,3.01-3,3.01s-3.01-1.34-3.01-3.01,1.34-3,3.01-3,3,1.34,3,3Z"/><path class="uuid-8e874559-b0f5-4169-aa1e-95236be4cfb4" d="M411.78,94.43c0,1.67-1.34,3.01-3,3.01s-3.01-1.34-3.01-3.01,1.34-3,3.01-3,3,1.34,3,3Z"/><path class="uuid-8e874559-b0f5-4169-aa1e-95236be4cfb4" d="M421.67,94.43c0,1.67-1.34,3.01-3,3.01s-3.01-1.34-3.01-3.01,1.34-3,3.01-3,3,1.34,3,3Z"/><rect class="uuid-61f0bb1d-afe0-4c07-afbe-bcf841e3af86" x="395.88" y="121.12" width="78.6" height="18.36" rx="9.18" ry="9.18"/><path class="uuid-8e874559-b0f5-4169-aa1e-95236be4cfb4" d="M553.37,153.51h-152.05c-.6,0-1.09-.49-1.09-1.09s.49-1.09,1.09-1.09h152.05c.6,0,1.09.49,1.09,1.09s-.49,1.09-1.09,1.09Z"/><path class="uuid-8e874559-b0f5-4169-aa1e-95236be4cfb4" d="M553.37,165.34h-152.05c-.6,0-1.09-.49-1.09-1.09s.49-1.09,1.09-1.09h152.05c.6,0,1.09.49,1.09,1.09s-.49,1.09-1.09,1.09Z"/><path class="uuid-8e874559-b0f5-4169-aa1e-95236be4cfb4" d="M553.37,177.17h-152.05c-.6,0-1.09-.49-1.09-1.09s.49-1.09,1.09-1.09h152.05c.6,0,1.09.49,1.09,1.09s-.49,1.09-1.09,1.09Z"/><rect class="uuid-04bfbe29-70c7-4276-ac66-50974a8fb845" x="405.77" y="187.92" width="62.57" height="51.36" rx="21.78" ry="21.78"/><rect class="uuid-e058b13c-ff7a-445a-89d9-5139e76d824f" x="486.35" y="187.92" width="62.57" height="51.36" rx="21.78" ry="21.78"/><path class="uuid-67ae54e3-be41-4fbd-8023-816d0b7bd8c6" d="M536.72,277.61h-118.75c-6.74,0-12.2-5.46-12.2-12.2h0c0-6.74,5.46-12.2,12.2-12.2h118.75c6.74,0,12.2,5.46,12.2,12.2h0c0,6.74-5.46,12.2-12.2,12.2Z"/><path class="uuid-3f842619-03a3-42fa-ace9-8bae702bd460" d="M540.89,228.75h-42.61s7.2-15.34,12.08-15.34c2.44,0,3.6,7.67,6.04,7.67,3.73,0,5.5-11.72,9.22-11.72,6.17,0,15.27,19.39,15.27,19.39Z"/><circle class="uuid-3f842619-03a3-42fa-ace9-8bae702bd460" cx="516.73" cy="205.88" r="4.36" transform="translate(5.76 425.69) rotate(-45)"/><path class="uuid-3f842619-03a3-42fa-ace9-8bae702bd460" d="M456.49,228.75h-42.61s7.2-15.34,12.08-15.34c2.44,0,3.6,7.67,6.04,7.67,3.73,0,5.5-11.72,9.22-11.72,6.17,0,15.27,19.39,15.27,19.39Z"/><circle class="uuid-3f842619-03a3-42fa-ace9-8bae702bd460" cx="432.33" cy="205.88" r="4.36" transform="translate(-35.74 104.84) rotate(-13.28)"/><path class="uuid-3f842619-03a3-42fa-ace9-8bae702bd460" d="M1.09,97.21v180.48c0,8.4,6.81,15.2,15.2,15.2h157.35c8.4,0,15.22-6.81,15.22-15.2V97.21H1.09Z"/><path class="uuid-8e874559-b0f5-4169-aa1e-95236be4cfb4" d="M173.64,293.98H16.29c-8.98,0-16.29-7.31-16.29-16.29V97.21c0-.6.49-1.09,1.09-1.09h187.77c.6,0,1.09.49,1.09,1.09v180.48c0,8.98-7.31,16.29-16.3,16.29ZM2.17,98.3v179.39c0,7.78,6.33,14.12,14.12,14.12h157.35c7.79,0,14.13-6.33,14.13-14.12V98.3H2.17Z"/><path class="uuid-e51521f0-0978-46bb-859a-5d5774584097" d="M188.86,92.03v8.02H1.09v-8.02c0-8.4,6.81-15.22,15.2-15.22h157.35c8.4,0,15.22,6.82,15.22,15.22Z"/><path class="uuid-8e874559-b0f5-4169-aa1e-95236be4cfb4" d="M188.86,101.14H1.09c-.6,0-1.09-.49-1.09-1.09v-8.02c0-8.99,7.31-16.3,16.29-16.3h157.35c8.99,0,16.3,7.31,16.3,16.3v8.02c0,.6-.49,1.09-1.09,1.09ZM2.17,98.97h185.6v-6.94c0-7.79-6.34-14.13-14.13-14.13H16.29c-7.78,0-14.12,6.34-14.12,14.13v6.94Z"/><path class="uuid-8e874559-b0f5-4169-aa1e-95236be4cfb4" d="M19.52,89.26c0,1.67-1.34,3.01-3,3.01s-3.01-1.34-3.01-3.01,1.34-3,3.01-3,3,1.34,3,3Z"/><path class="uuid-8e874559-b0f5-4169-aa1e-95236be4cfb4" d="M29.41,89.26c0,1.67-1.34,3.01-3,3.01s-3.01-1.34-3.01-3.01,1.34-3,3.01-3,3,1.34,3,3Z"/><path class="uuid-8e874559-b0f5-4169-aa1e-95236be4cfb4" d="M39.3,89.26c0,1.67-1.34,3.01-3,3.01s-3.01-1.34-3.01-3.01,1.34-3,3.01-3,3,1.34,3,3Z"/><path class="uuid-e058b13c-ff7a-445a-89d9-5139e76d824f" d="M41.5,118.21h99.24c10.05,0,18.21,8.16,18.21,18.21v21.47c0,10.05-8.16,18.21-18.21,18.21H41.5c-10.05,0-18.21-8.16-18.21-18.21v-21.47c0-10.05,8.16-18.21,18.21-18.21Z"/><path class="uuid-04bfbe29-70c7-4276-ac66-50974a8fb845" d="M83.11,202.42H31.44c-4.35,0-7.88-3.53-7.88-7.88h0c0-4.35,3.53-7.88,7.88-7.88h51.68c4.35,0,7.88,3.53,7.88,7.88h0c0,4.35-3.53,7.88-7.88,7.88Z"/><path class="uuid-8e874559-b0f5-4169-aa1e-95236be4cfb4" d="M169.66,214.61H28.22c-.6,0-1.09-.49-1.09-1.09s.49-1.09,1.09-1.09h141.44c.6,0,1.09.49,1.09,1.09s-.49,1.09-1.09,1.09Z"/><path class="uuid-8e874559-b0f5-4169-aa1e-95236be4cfb4" d="M169.66,224.76H28.22c-.6,0-1.09-.49-1.09-1.09s.49-1.09,1.09-1.09h141.44c.6,0,1.09.49,1.09,1.09s-.49,1.09-1.09,1.09Z"/><path class="uuid-8e874559-b0f5-4169-aa1e-95236be4cfb4" d="M127.19,234.91H28.22c-.6,0-1.09-.49-1.09-1.09s.49-1.09,1.09-1.09h98.97c.6,0,1.09.49,1.09,1.09s-.49,1.09-1.09,1.09Z"/><rect class="uuid-67ae54e3-be41-4fbd-8023-816d0b7bd8c6" x="28.74" y="246.08" width="132.47" height="26.01" rx="13.01" ry="13.01"/><path class="uuid-3f842619-03a3-42fa-ace9-8bae702bd460" d="M123.87,167.11H59.62s10.85-18.6,18.21-18.6c3.68,0,5.42,9.3,9.1,9.3,5.62,0,8.29-14.21,13.91-14.21,9.3,0,23.02,23.51,23.02,23.51Z"/><path class="uuid-3f842619-03a3-42fa-ace9-8bae702bd460" d="M83,139.39c0,2.92,2.37,5.29,5.29,5.29s5.29-2.37,5.29-5.29-2.37-5.29-5.29-5.29-5.29,2.37-5.29,5.29Z"/><path class="uuid-393df70d-044b-42d4-b47b-16702724db4f" d="M275.16,80.32v-9.78s-18.78,0-18.78,0v9.78c-5.58,1.17-10.78,3.37-15.4,6.39l-6.92-6.93-13.27,13.27,6.92,6.93c-3.01,4.63-5.22,9.83-6.39,15.4h-9.78v18.77h9.78c1.17,5.59,3.38,10.79,6.39,15.4l-6.92,6.93,13.27,13.27,6.92-6.93c4.63,3.02,9.83,5.22,15.4,6.39v9.79h18.78v-9.79c5.58-1.17,10.78-3.37,15.4-6.39l6.92,6.93,13.27-13.27-6.92-6.93c3.01-4.62,5.22-9.82,6.39-15.4h9.78v-18.77h-9.78c-1.17-5.58-3.38-10.78-6.39-15.4l6.92-6.93-13.27-13.27-6.92,6.93M268.48,147.33c-14.87,1.71-27.23-10.92-25.2-25.76,1.38-10.11,9.65-18.2,19.8-19.36,14.88-1.7,27.23,10.93,25.19,25.77-1.39,10.11-9.65,18.19-19.79,19.35Z"/><path class="uuid-5af4cf67-a28b-45af-a0dd-0b53a1d62f40" d="M331.06,7.53V0s-14.46,0-14.46,0v7.53c-4.3.9-8.3,2.6-11.86,4.92l-5.33-5.33-10.22,10.22,5.33,5.33c-2.32,3.56-4.02,7.57-4.92,11.86h-7.53v14.45h7.53c.9,4.3,2.6,8.31,4.92,11.86l-5.33,5.33,10.22,10.22,5.33-5.33c3.56,2.33,7.57,4.02,11.86,4.92v7.54h14.46v-7.54c4.3-.9,8.3-2.6,11.86-4.92l5.33,5.33,10.22-10.22-5.33-5.33c2.32-3.56,4.02-7.56,4.92-11.86h7.53v-14.45h-7.53c-.9-4.3-2.6-8.3-4.92-11.86l5.33-5.33-10.22-10.22-5.33,5.33M325.91,59.14c-11.46,1.32-20.97-8.41-19.41-19.84,1.07-7.79,7.43-14.02,15.24-14.91,11.46-1.31,20.97,8.42,19.4,19.84-1.07,7.78-7.43,14.01-15.24,14.9Z"/><path class="uuid-8e874559-b0f5-4169-aa1e-95236be4cfb4" d="M578.91,469.14H43.13c-.6,0-1.09-.49-1.09-1.09s.49-1.09,1.09-1.09h535.78c.6,0,1.09.49,1.09,1.09s-.49,1.09-1.09,1.09Z"/><path class="uuid-67ae54e3-be41-4fbd-8023-816d0b7bd8c6" d="M528.7,386.26l-6.76,4.26c-3.17,1.98-7.35,1.03-9.33-2.12l-4.26-6.76c-1.98-3.15-1.04-7.32,2.12-9.31l6.77-4.28c3.15-1.98,7.32-1.04,9.33,2.12l4.25,6.79c1.98,3.15,1.04,7.32-2.12,9.31Z"/><path class="uuid-67ae54e3-be41-4fbd-8023-816d0b7bd8c6" d="M361.59,178.36l-4.61,2.9c-2.16,1.35-5.01.7-6.36-1.45l-2.9-4.61c-1.35-2.15-.71-4.99,1.44-6.34l4.61-2.92c2.15-1.35,4.99-.71,6.36,1.45l2.9,4.62c1.35,2.15.71,4.99-1.44,6.34Z"/><path class="uuid-67ae54e3-be41-4fbd-8023-816d0b7bd8c6" d="M108.24,416.03l-4.61,2.9c-2.16,1.35-5.01.7-6.36-1.45l-2.9-4.61c-1.35-2.15-.71-4.99,1.44-6.34l4.61-2.92c2.15-1.35,4.99-.71,6.36,1.45l2.9,4.62c1.35,2.15.71,4.99-1.44,6.34Z"/><path class="uuid-67ae54e3-be41-4fbd-8023-816d0b7bd8c6" d="M215.55,57.87l-4.61,2.9c-2.16,1.35-5.01.7-6.36-1.45l-2.9-4.61c-1.35-2.15-.71-4.99,1.44-6.34l4.61-2.92c2.15-1.35,4.99-.71,6.36,1.45l2.9,4.62c1.35,2.15.71,4.99-1.44,6.34Z"/><path class="uuid-67ae54e3-be41-4fbd-8023-816d0b7bd8c6" d="M395.34,29.03l-4.61,2.9c-2.16,1.35-5.01.7-6.36-1.45l-2.9-4.61c-1.35-2.15-.71-4.99,1.44-6.34l4.61-2.92c2.15-1.35,4.99-.71,6.36,1.45l2.9,4.62c1.35,2.15.71,4.99-1.44,6.34Z"/></svg>