<?xml version="1.0" encoding="UTF-8"?><svg id="uuid-c9810dde-0095-49e8-bf3e-856da1ddd306" xmlns="http://www.w3.org/2000/svg" viewBox="0 0 580 527.74"><defs><style>.uuid-4be76ef7-ebe9-4106-a375-7334ae086477{fill:#0081ff;}.uuid-a8f18141-1153-4ba3-bff5-0938496db68c{fill:#fff;}.uuid-0dff09ec-6764-4db8-8775-cb6c1b64e3c1{fill:#0b135e;}.uuid-0f1b91c7-a090-4597-9285-0fbaecf9dfee{opacity:.3;}.uuid-30fc2a1b-3b4e-4b6f-8e51-0ed87b8638d5{fill:#ffcc3d;}</style></defs><path class="uuid-0dff09ec-6764-4db8-8775-cb6c1b64e3c1" d="M578.88,527.74H26.7c-.62,0-1.12-.5-1.12-1.12s.5-1.12,1.12-1.12h552.18c.62,0,1.12.5,1.12,1.12s-.5,1.12-1.12,1.12Z"/><path class="uuid-0dff09ec-6764-4db8-8775-cb6c1b64e3c1" d="M26.49,158.22l21.55,168.49c.68,5.52,5.03,9.66,10.17,9.66h262.08c6.21,0,11-5.94,10.17-12.62l-21.54-168.49c-.69-5.53-5.03-9.66-10.17-9.66H36.65c-6.2,0-10.99,5.93-10.17,12.62Z"/><path class="uuid-0dff09ec-6764-4db8-8775-cb6c1b64e3c1" d="M320.29,337.48H58.21c-5.69,0-10.54-4.57-11.28-10.64l-21.55-168.48h0c-.45-3.71.66-7.38,3.05-10.08,2.17-2.45,5.09-3.8,8.23-3.8h262.09c5.68,0,10.53,4.57,11.28,10.64l21.54,168.48c.46,3.7-.65,7.37-3.04,10.07-2.17,2.45-5.09,3.8-8.24,3.8ZM27.6,158.08l21.55,168.49c.61,4.95,4.5,8.68,9.06,8.68h262.08c2.5,0,4.83-1.08,6.56-3.05,1.96-2.22,2.87-5.25,2.49-8.31l-21.54-168.48c-.61-4.95-4.51-8.68-9.06-8.68H36.65c-2.49,0-4.82,1.08-6.55,3.04-1.97,2.22-2.88,5.25-2.5,8.32h0Z"/><path class="uuid-a8f18141-1153-4ba3-bff5-0938496db68c" d="M33.55,158.8l19.7,159.54c.68,5.52,5.03,9.66,10.17,9.66h255.04c6.21,0,11-5.94,10.17-12.62l-19.69-159.54c-.69-5.53-5.03-9.66-10.17-9.66H43.71c-6.2,0-10.99,5.93-10.17,12.62Z"/><path class="uuid-0dff09ec-6764-4db8-8775-cb6c1b64e3c1" d="M318.45,329.11H63.41c-5.69,0-10.53-4.57-11.28-10.64l-19.7-159.54h0c-.45-3.7.66-7.38,3.05-10.08,2.17-2.45,5.09-3.79,8.23-3.79h255.05c5.68,0,10.53,4.57,11.28,10.64l19.69,159.54c.46,3.7-.65,7.37-3.04,10.07-2.17,2.45-5.09,3.8-8.24,3.8ZM34.66,158.66l19.7,159.54c.61,4.95,4.5,8.67,9.06,8.67h255.04c2.5,0,4.83-1.08,6.56-3.05,1.96-2.22,2.87-5.25,2.49-8.31l-19.69-159.54c-.61-4.95-4.51-8.67-9.06-8.67H43.71c-2.49,0-4.82,1.08-6.55,3.04-1.97,2.22-2.88,5.25-2.5,8.32h0Z"/><path class="uuid-4be76ef7-ebe9-4106-a375-7334ae086477" d="M110.72,276.89c-18.65,0-40.97-24.29-41.96-25.37-1.39-1.52-1.27-3.88.25-5.27,1.52-1.39,3.88-1.28,5.27.25,6.35,6.96,25.58,24.64,38.23,22.81,9.08-1.32,14-16.51,19.21-32.59,7.43-22.96,15.86-48.98,40.61-49.77,26.03-.84,45.86,18.67,61.74,34.33,8.89,8.77,17.29,17.05,23.94,18.53,5.56,1.23,9.66.96,12.18-.83,2.73-1.94,4.33-5.99,5.19-13.14,1.72-14.41,12.81-18.99,13.28-19.18,1.92-.77,4.09.17,4.85,2.08.76,1.9-.16,4.06-2.05,4.84-.38.16-7.49,3.32-8.67,13.15-.76,6.35-2.39,14.17-8.28,18.35-4.37,3.1-10.3,3.76-18.11,2.02-8.75-1.95-17.47-10.55-27.56-20.51-15.64-15.43-33.31-32.88-56.26-32.18-19.5.62-26.74,22.98-33.74,44.61-5.94,18.35-11.55,35.69-25.23,37.67-.94.14-1.9.2-2.86.2Z"/><path class="uuid-0dff09ec-6764-4db8-8775-cb6c1b64e3c1" d="M116.86,211.22c0,6.03-4.89,10.92-10.92,10.92s-10.92-4.89-10.92-10.92,4.89-10.92,10.92-10.92,10.92,4.89,10.92,10.92Z"/><path class="uuid-30fc2a1b-3b4e-4b6f-8e51-0ed87b8638d5" d="M178.28,277.61c0,6.03-4.89,10.92-10.92,10.92s-10.92-4.89-10.92-10.92,4.89-10.92,10.92-10.92,10.92,4.89,10.92,10.92Z"/><circle class="uuid-4be76ef7-ebe9-4106-a375-7334ae086477" cx="244.5" cy="198.57" r="10.92"/><path class="uuid-0dff09ec-6764-4db8-8775-cb6c1b64e3c1" d="M300.56,282.93h-32.76c-.62,0-1.12-.5-1.12-1.12s.5-1.12,1.12-1.12h32.76c.62,0,1.12.5,1.12,1.12s-.5,1.12-1.12,1.12Z"/><path class="uuid-0dff09ec-6764-4db8-8775-cb6c1b64e3c1" d="M302.15,293.17h-52.67c-.62,0-1.12-.5-1.12-1.12s.5-1.12,1.12-1.12h52.67c.62,0,1.12.5,1.12,1.12s-.5,1.12-1.12,1.12Z"/><path class="uuid-0dff09ec-6764-4db8-8775-cb6c1b64e3c1" d="M303.74,303.4h-57.79c-.62,0-1.12-.5-1.12-1.12s.5-1.12,1.12-1.12h57.79c.62,0,1.12.5,1.12,1.12s-.5,1.12-1.12,1.12Z"/><polygon class="uuid-0dff09ec-6764-4db8-8775-cb6c1b64e3c1" points="405.93 468.48 401 527.74 542.64 527.74 536.06 468.48 405.93 468.48"/><path class="uuid-30fc2a1b-3b4e-4b6f-8e51-0ed87b8638d5" d="M421.15,303.26l-11.55,2.34c-9,1.82-16.6,7.83-20.44,16.18l-28.01,57.94-21.19-23.95-29.29,21.39,32.89,47c5.6,7.8,14.88,12.08,24.44,11.27h0c8.96-.76,16.98-5.88,21.42-13.71l39.69-69.87-7.97-48.61Z"/><path class="uuid-0dff09ec-6764-4db8-8775-cb6c1b64e3c1" d="M343.56,425.29c-.35,0-.69-.16-.91-.46l-33.68-46.62c-.36-.5-.25-1.2.25-1.56l29.3-21.39c.46-.34,1.09-.27,1.48.14l21.98,23.56c.42.45.4,1.16-.06,1.58-.45.42-1.16.4-1.58-.06l-21.3-22.84-27.59,20.15,33.03,45.72c.36.5.25,1.2-.25,1.56-.2.14-.43.21-.65.21Z"/><path class="uuid-30fc2a1b-3b4e-4b6f-8e51-0ed87b8638d5" d="M460.23,299.47c13.09-.45,42.04.45,61.15,6.18,10.75,3.23,17.97,13.3,17.54,24.52l2.73,145.13-141.75,2.95v-149.77c-.16-10.42,6.25-19.81,16.01-23.44,14.43-5.37,34.71-5.24,44.32-5.57Z"/><path class="uuid-0dff09ec-6764-4db8-8775-cb6c1b64e3c1" d="M399.9,479.37h0c-.62,0-1.12-.5-1.12-1.12v-149.77c0-.62.5-1.12,1.12-1.12h0c.62,0,1.12.5,1.12,1.12v149.77c0,.62-.5,1.12-1.12,1.12Z"/><path class="uuid-0dff09ec-6764-4db8-8775-cb6c1b64e3c1" d="M468.92,444.04l-7.83,8.87c-4.44,5.02-12.3,5.49-17.33,1l-129.9-115.71c6.02-5.25,11.57-11,16.58-17.19l136.85,106.26c5.33,4.13,6.06,11.73,1.63,16.76Z"/><g class="uuid-0f1b91c7-a090-4597-9285-0fbaecf9dfee"><path class="uuid-a8f18141-1153-4ba3-bff5-0938496db68c" d="M223.59,96.84c-75.96,0-137.55,61.59-137.55,137.56s61.59,137.55,137.55,137.55,137.56-61.59,137.56-137.55-61.59-137.56-137.56-137.56Z"/></g><path class="uuid-0dff09ec-6764-4db8-8775-cb6c1b64e3c1" d="M223.59,373.07c-76.46,0-138.67-62.21-138.67-138.67s62.21-138.68,138.67-138.68,138.68,62.21,138.68,138.68-62.21,138.67-138.68,138.67ZM223.59,97.96c-75.23,0-136.43,61.21-136.43,136.44s61.2,136.43,136.43,136.43,136.44-61.2,136.44-136.43-61.21-136.44-136.44-136.44Z"/><path class="uuid-a8f18141-1153-4ba3-bff5-0938496db68c" d="M336.16,357.93l-10.4-7.67-1.02-11.24c.11-1.91-1.2-3.7-3.1-3.94-1-.13-2.15.15-3.31,1.29l.47-4.22c.19-1.7-.76-3.37-2.38-3.95-1.5-.53-3.35-.54-4.73,1.58,0,0-.23-6.24-2.87-6.92-2.64-.68-4.11,4.05-4.11,4.05,0,0-5.24-7.64-6.98-.94-1.32,5.08-.32,18.74.87,24.96.4,2.09,1.31,4.05,2.64,5.72l13.16,17.91,21.75-16.62Z"/><path class="uuid-0dff09ec-6764-4db8-8775-cb6c1b64e3c1" d="M314.41,375.68c-.05,0-.11,0-.16-.01-.3-.04-.57-.2-.74-.44l-13.16-17.91c-1.42-1.77-2.4-3.92-2.83-6.17-1.12-5.84-2.29-19.94-.85-25.45.55-2.11,1.53-3.3,2.91-3.54,1.82-.31,3.66,1.26,4.85,2.59.95-1.79,2.55-3.49,4.68-2.95,2.21.56,3.11,3.43,3.47,5.61,1.21-.7,2.65-.79,4.23-.23,2.06.73,3.37,2.88,3.12,5.12l-.21,1.91c.79-.27,1.52-.29,2.08-.22,2.4.3,4.18,2.51,4.08,5.03l.97,10.67,9.99,7.37c.28.21.45.54.45.89,0,.35-.16.68-.44.9l-21.75,16.62c-.2.15-.43.23-.68.23ZM300.08,324.34s-.08,0-.12.01c-.42.07-.84.79-1.13,1.9-1.25,4.79-.32,18.14.88,24.46.36,1.9,1.2,3.71,2.41,5.23l12.51,17.03,19.66-15.03-9.2-6.79c-.26-.19-.42-.48-.45-.8l-1.02-11.24c0-.05,0-.11,0-.16.08-1.37-.87-2.61-2.12-2.77-.83-.1-1.61.21-2.39.98-.34.33-.85.42-1.27.21-.43-.21-.67-.66-.62-1.13l.47-4.22c.14-1.22-.55-2.38-1.64-2.77-1.49-.53-2.57-.16-3.42,1.14-.27.41-.77.6-1.24.47-.47-.13-.8-.55-.82-1.04-.09-2.27-.84-5.57-2.03-5.88-1.19-.3-2.4,2.14-2.76,3.3-.13.41-.48.71-.9.77-.42.06-.85-.12-1.09-.47-.95-1.39-2.73-3.21-3.72-3.21Z"/><path class="uuid-a8f18141-1153-4ba3-bff5-0938496db68c" d="M318.34,336.36l-.12.33c-1.27,3.45-1.59,7.18-.92,10.79l1.04,5.56"/><path class="uuid-0dff09ec-6764-4db8-8775-cb6c1b64e3c1" d="M318.34,354.16c-.53,0-1-.38-1.1-.91l-1.04-5.56c-.71-3.81-.38-7.74.97-11.38l.12-.33c.21-.58.86-.88,1.44-.67.58.21.88.85.67,1.44l-.12.33c-1.21,3.26-1.5,6.79-.87,10.2l1.04,5.56c.11.61-.29,1.19-.89,1.31-.07.01-.14.02-.21.02Z"/><path class="uuid-a8f18141-1153-4ba3-bff5-0938496db68c" d="M311.7,329.78l-.29.81c-1.64,4.57-2.06,9.5-1.22,14.29l1.13,6.37"/><path class="uuid-0dff09ec-6764-4db8-8775-cb6c1b64e3c1" d="M311.32,352.36c-.53,0-1-.38-1.1-.92l-1.13-6.37c-.88-4.97-.44-10.11,1.26-14.86l.29-.81c.21-.58.85-.89,1.43-.67.58.21.88.85.67,1.43l-.29.81c-1.58,4.38-1.98,9.12-1.17,13.71l1.13,6.37c.11.61-.3,1.19-.91,1.3-.07.01-.13.02-.2.02Z"/><path class="uuid-a8f18141-1153-4ba3-bff5-0938496db68c" d="M304.72,326.91l-.71,6.24c-.16,1.37-.18,2.75-.06,4.12l1.01,12"/><path class="uuid-0dff09ec-6764-4db8-8775-cb6c1b64e3c1" d="M304.96,350.4c-.58,0-1.07-.44-1.11-1.03l-1.01-12c-.12-1.44-.1-2.9.06-4.34l.71-6.24c.07-.61.61-1.05,1.24-.99.61.07,1.06.62.99,1.24l-.71,6.24c-.15,1.29-.16,2.6-.06,3.9l1.01,12c.05.62-.41,1.16-1.02,1.21-.03,0-.06,0-.09,0Z"/><path class="uuid-a8f18141-1153-4ba3-bff5-0938496db68c" d="M453.8,440.92l-42.32-2.09c-1.31-.26-2.34-1.29-2.91-2.4-.39-.75-.57-1.59-.45-2.47.27-2.23,2.27-3.97,4.51-3.78l7.66.38-14.23-.77c-1.63-.08-3.16-.96-3.93-2.42,0-.01,0-.02-.02-.03-.39-.75-.57-1.59-.45-2.47.27-2.23,2.27-3.97,4.51-3.77l14.54.72-21.72-1.14c-1.31-.26-2.34-1.29-2.91-2.4-.39-.75-.57-1.59-.45-2.47.27-2.23,2.26-3.84,4.51-3.65l21,.84-15.27-.75c-1.31-.26-2.34-1.29-2.91-2.4-.39-.75-.57-1.59-.45-2.47.27-2.23,2.26-3.84,4.51-3.65l26.09,1.09-9.97-5.62c-.65-.44-1.14-1-1.49-1.67-.61-1.18-.69-2.64-.12-3.93,1.1-2.57,4.2-3.56,6.61-2.14l27.72,7.6"/><path class="uuid-0dff09ec-6764-4db8-8775-cb6c1b64e3c1" d="M453.8,442.04s-.04,0-.06,0l-42.32-2.09c-.06,0-.11-.01-.16-.02-1.5-.3-2.87-1.41-3.69-2.98-.52-.99-.71-2.08-.56-3.15.13-1.05.56-2,1.19-2.78l-2.2-.12c-2.06-.1-3.92-1.25-4.85-3,0-.02-.02-.03-.03-.05-.52-.99-.71-2.08-.56-3.15.13-1.05.56-2,1.19-2.78l-2.81-.15c-.06,0-.11-.01-.16-.02-1.5-.3-2.87-1.41-3.69-2.98-.52-.98-.71-2.07-.56-3.15.34-2.82,2.84-4.85,5.71-4.61l2.21.09c-.17-.24-.33-.5-.47-.77-.52-.99-.71-2.08-.56-3.15.34-2.81,2.82-4.86,5.71-4.61l21.38.89-5.91-3.33c-.86-.58-1.48-1.28-1.93-2.12-.79-1.51-.84-3.34-.17-4.91.65-1.51,1.92-2.67,3.48-3.18,1.52-.5,3.18-.33,4.58.45l27.58,7.56c.6.16.95.78.78,1.38-.16.6-.78.94-1.38.78l-27.72-7.6c-.1-.03-.19-.07-.28-.12-.87-.52-1.92-.63-2.88-.32-.96.31-1.72,1-2.12,1.94-.42.96-.38,2.07.09,2.98.28.51.65.93,1.13,1.26l9.89,5.57c.45.25.67.78.53,1.28-.14.5-.59.87-1.12.81l-26.09-1.09c-1.72-.13-3.15,1.03-3.35,2.66-.09.63.02,1.24.33,1.82.49.94,1.26,1.61,2.07,1.8l15.17.75c.61.03,1.09.55,1.06,1.17-.03.62-.57,1.1-1.16,1.07l-21.01-.84c-1.7-.14-3.15,1.03-3.35,2.66-.09.64.02,1.24.33,1.82.49.94,1.26,1.61,2.07,1.8l21.63,1.14c.62.03,1.09.56,1.06,1.17-.03.62-.59,1.1-1.17,1.06l-14.54-.72c-1.64-.14-3.14,1.11-3.35,2.79-.09.63.02,1.23.32,1.8,0,0,0,0,0,.01,0,.01.01.02.02.03.56,1.06,1.71,1.76,2.99,1.82l14.23.77c.62.03,1.09.56,1.06,1.18-.03.62-.58,1.08-1.17,1.06l-7.66-.38c-1.67-.13-3.14,1.11-3.35,2.79-.09.64.02,1.24.33,1.82.49.94,1.26,1.61,2.07,1.8l42.23,2.08c.62.03,1.09.56,1.06,1.17-.03.6-.52,1.06-1.12,1.06Z"/><path class="uuid-30fc2a1b-3b4e-4b6f-8e51-0ed87b8638d5" d="M512.36,303.26l4.91.44c11.45,1.02,22,6.61,29.27,15.51h0c5.77,7.07,9.12,15.81,9.56,24.92l3.88,80.78c.46,9.61-3.2,18.96-10.06,25.7h0c-7.87,7.74-19.03,11.14-29.88,9.12l-72.3-13.52,2.78-51.96,65.2,9.73-3.36-100.73Z"/><path class="uuid-0dff09ec-6764-4db8-8775-cb6c1b64e3c1" d="M526.24,461.43c-2.13,0-4.27-.2-6.4-.59l-72.3-13.52c-.55-.1-.94-.6-.91-1.16l2.78-51.96c.02-.31.17-.61.41-.81.24-.2.57-.28.87-.24l63.88,9.53-2.12-63.59c-.02-.62.46-1.14,1.08-1.16h.04c.6,0,1.1.48,1.12,1.08l2.17,64.94c.01.33-.13.65-.37.87-.25.22-.59.32-.91.27l-63.99-9.55-2.66,49.75,71.34,13.34c10.48,1.96,21.29-1.33,28.89-8.81.44-.43,1.15-.43,1.58.01.43.44.43,1.15-.01,1.58-6.58,6.47-15.4,10.01-24.47,10.01Z"/><path class="uuid-0dff09ec-6764-4db8-8775-cb6c1b64e3c1" d="M529.21,405.11h-13.5c-.62,0-1.12-.5-1.12-1.12s.5-1.12,1.12-1.12h13.5c.62,0,1.12.5,1.12,1.12s-.5,1.12-1.12,1.12Z"/><path class="uuid-0dff09ec-6764-4db8-8775-cb6c1b64e3c1" d="M456.52,182.25c-4.64.35-9.33,1.01-13.61,2.85-4.28,1.84-8.15,4.98-10.06,9.22-1.91,4.25-1.55,9.64,1.55,13.12,1.57,1.76,3.93,3.41,3.68,5.76-.31,2.92-4.52,4.19-4.83,7.11-.24,2.26,2.03,3.97,4.17,4.75,5.59,2.04,12.18,1.08,16.96-2.47,4.78-3.55,7.59-9.59,7.25-15.53l-5.1-24.81Z"/><path class="uuid-a8f18141-1153-4ba3-bff5-0938496db68c" d="M494.4,255.12l-3.2,45.91c-21.76,26.55-43.32-.55-43.35-.6l9.45-39.51,37.09-5.8Z"/><path class="uuid-0dff09ec-6764-4db8-8775-cb6c1b64e3c1" d="M470.59,313.8c-.78,0-1.57-.04-2.36-.13-12.52-1.32-21.31-12.63-21.37-12.74-.12-.24-.16-.51-.09-.77l9.45-39.51c.11-.44.47-.78.92-.85l37.09-5.8c.34-.05.68.05.93.28.25.23.38.56.36.9l-3.2,45.91c-.02.23-.1.45-.25.63-6.57,8.02-13.79,12.07-21.48,12.07ZM449.08,300.14c1.76,2.03,10.37,11.29,21.25,11.42,7.02.12,13.66-3.6,19.79-10.97l3.07-44.15-34.97,5.47-9.14,38.23ZM447.86,300.43h.01-.01Z"/><path class="uuid-a8f18141-1153-4ba3-bff5-0938496db68c" d="M493.75,264.37c12.1-17.22,12.52-38.26,12.52-38.26l-41.26-24c-1.04.69-32.11,9.2-37.89,41.17-4.29,23.74,7.11,48.12,47.39,41"/><path class="uuid-0dff09ec-6764-4db8-8775-cb6c1b64e3c1" d="M461.31,286.64c-11.57,0-20.78-3.21-27.05-9.5-7.74-7.77-10.74-20.19-8.23-34.06,3.46-19.12,16.81-33.91,37.6-41.62.42-.16.71-.26.84-.32.35-.23.74-.21,1.11,0l41.26,24c.35.2.56.58.56.99-.02.87-.56,21.58-12.72,38.88-.35.5-1.05.63-1.56.27-.51-.36-.63-1.05-.27-1.56,10.58-15.06,12.09-33.34,12.29-36.99l-40.19-23.38c-.15.06-.32.12-.54.2-20.01,7.43-32.86,21.61-36.17,39.92-2.38,13.14.4,24.83,7.61,32.08,7.99,8.02,21.3,10.66,38.47,7.62.63-.1,1.19.3,1.3.91.11.61-.3,1.19-.91,1.3-4.75.84-9.23,1.26-13.4,1.26Z"/><path class="uuid-0dff09ec-6764-4db8-8775-cb6c1b64e3c1" d="M441.66,198.79c.54,5.34,3.24,10.26,6.58,14.49,3.4,4.3,7.55,8.06,12.38,10.63,4.85,2.58,10.69,3.29,16.16,2.78-.93,2.53-1.88,5.16-1.64,7.85.24,2.68,2.02,5.43,4.68,5.87,1.82.3,3.95-.46,5.39.7,1.18.93,1.26,2.7.97,4.17-.29,1.48-.85,2.96-.6,4.45.26,1.48,1.83,2.88,3.2,2.25,2.07-.95,1.02-3.94,2.47-5.27,1.31-1.2,3.21.8,4.45,1.61,2.67,1.73,5.33,3.48,7.98,5.21,0,0,20.49-17.79,14.85-30.68-5.22-11.96-15.31-11.24-16.74-11.07,3.09-4.55,9.24-6.74,11.62-11.77,1.25-2.64,1.22-5.87-.07-8.48-2.01-4.05-6.64-6.24-11.15-6.55-4.5-.31-8.94.93-13.28,2.18,1.58-3.64.68-8.08-1.79-11.16-2.48-3.09-6.34-4.88-10.28-5.37-3.94-.47-7.93.27-11.67,1.59-3.71,1.31-7.29,3.23-9.93,6.14-1.18,1.31-2.15,2.83-2.81,4.47-1.73.2-3.43.8-4.86,1.78-4.43,3.04-6.43,8.84-5.9,14.2Z"/><path class="uuid-0dff09ec-6764-4db8-8775-cb6c1b64e3c1" d="M445.02,240.47c-.84,1.76-2.48,2.74-3.67,2.17-1.18-.56-1.46-2.45-.62-4.22s2.48-2.74,3.67-2.17c1.18.56,1.46,2.45.62,4.22Z"/><path class="uuid-a8f18141-1153-4ba3-bff5-0938496db68c" d="M443.39,232.13c2.52-.06,4.89,1.55,6.01,4.1"/><path class="uuid-0dff09ec-6764-4db8-8775-cb6c1b64e3c1" d="M449.4,237.35c-.43,0-.84-.25-1.02-.67-.92-2.1-2.81-3.43-4.84-3.43-.05,0-.1,0-.15,0-.6,0-1.1-.48-1.12-1.09-.02-.62.47-1.13,1.09-1.15,3.02-.05,5.76,1.8,7.06,4.77.25.57,0,1.23-.57,1.47-.15.06-.3.09-.45.09Z"/><path class="uuid-0dff09ec-6764-4db8-8775-cb6c1b64e3c1" d="M463.65,249.32c-.84,1.76-2.48,2.74-3.67,2.17-1.18-.56-1.46-2.45-.62-4.22.84-1.76,2.48-2.74,3.67-2.17,1.18.56,1.46,2.45.62,4.22Z"/><path class="uuid-a8f18141-1153-4ba3-bff5-0938496db68c" d="M462.02,240.99c2.52-.06,4.89,1.55,6.01,4.1"/><path class="uuid-0dff09ec-6764-4db8-8775-cb6c1b64e3c1" d="M468.03,246.21c-.43,0-.84-.25-1.02-.67-.94-2.14-2.87-3.49-4.96-3.43-.58.06-1.13-.47-1.15-1.09-.01-.62.47-1.13,1.09-1.15,2.98-.09,5.75,1.8,7.06,4.77.25.57,0,1.23-.57,1.47-.15.06-.3.09-.45.09Z"/><path class="uuid-a8f18141-1153-4ba3-bff5-0938496db68c" d="M491.21,245.98s12.81-8.56,18.37-5.25c5.56,3.31-.89,23.94-8.38,24.51-7.5.56-12.66-3.39-12.66-3.39"/><path class="uuid-0dff09ec-6764-4db8-8775-cb6c1b64e3c1" d="M499.71,266.41c-6.98,0-11.65-3.51-11.86-3.67-.49-.38-.58-1.08-.21-1.57.37-.49,1.08-.58,1.57-.21.05.04,4.94,3.69,11.89,3.16,3.63-.27,7.4-6.94,8.82-12.96,1.1-4.68.73-8.49-.92-9.47-4.07-2.41-13.78,2.95-17.18,5.22-.52.34-1.21.2-1.55-.31-.34-.51-.2-1.21.31-1.55,1.37-.92,13.56-8.85,19.56-5.28,2.61,1.55,3.34,6,1.96,11.9-1.65,7.02-5.89,14.31-10.83,14.68-.53.04-1.06.06-1.56.06Z"/><path class="uuid-0dff09ec-6764-4db8-8775-cb6c1b64e3c1" d="M502.3,256.24c-.23,0-.46-.07-.65-.21-.5-.36-.61-1.06-.25-1.56.76-1.05,1.31-2.28,1.59-3.54.15-.66.13-1.14-.05-1.36-.12-.15-.38-.25-.64-.24-.31,0-.67.1-1.1.31-.66.33-1.27.8-1.74,1.37-.4.47-1.1.54-1.58.14-.47-.4-.54-1.1-.14-1.58.67-.8,1.53-1.48,2.47-1.94.76-.37,1.42-.58,2.13-.55.94,0,1.82.41,2.36,1.09.63.8.79,1.85.48,3.24-.35,1.56-1.02,3.07-1.96,4.37-.22.3-.56.46-.91.46Z"/><path class="uuid-a8f18141-1153-4ba3-bff5-0938496db68c" d="M451.98,243.28c-1.2,2.56-4.63,9.44-5.82,12-.72,1.54-1.46,3.15-1.32,4.8.14,1.65,1.42,3.36,3.39,3.66"/><path class="uuid-0dff09ec-6764-4db8-8775-cb6c1b64e3c1" d="M448.23,264.85c-.06,0-.11,0-.17-.01-2.62-.4-4.17-2.66-4.34-4.67-.17-1.98.71-3.86,1.42-5.37.6-1.28,1.76-3.65,2.92-6.01,1.15-2.35,2.31-4.71,2.9-5.98.26-.56.93-.8,1.49-.54.56.26.8.93.54,1.49-.6,1.28-1.76,3.65-2.92,6.01-1.15,2.35-2.31,4.71-2.9,5.98-.62,1.33-1.33,2.84-1.22,4.23.09,1.12.99,2.42,2.45,2.65.61.09,1.03.67.94,1.28-.08.55-.56.95-1.1.95Z"/><path class="uuid-0dff09ec-6764-4db8-8775-cb6c1b64e3c1" d="M455.9,274.54c-2.6,0-5.15-.97-7.09-2.71-.46-.41-.5-1.12-.08-1.58.42-.46,1.12-.5,1.58-.08,1.62,1.46,3.78,2.23,5.98,2.13,2.18-.11,4.27-1.09,5.74-2.7.42-.46,1.13-.49,1.58-.07.46.42.49,1.13.07,1.58-1.87,2.04-4.52,3.29-7.29,3.43-.17,0-.34.01-.5.01Z"/><path class="uuid-0dff09ec-6764-4db8-8775-cb6c1b64e3c1" d="M134.04,471.6h-8.95c-.62,0-1.12-.5-1.12-1.12s.5-1.12,1.12-1.12h8.95c.62,0,1.12.5,1.12,1.12s-.5,1.12-1.12,1.12ZM116.13,471.6h-8.95c-.62,0-1.12-.5-1.12-1.12s.5-1.12,1.12-1.12h8.95c.62,0,1.12.5,1.12,1.12s-.5,1.12-1.12,1.12ZM98.22,471.6h-8.95c-.62,0-1.12-.5-1.12-1.12s.5-1.12,1.12-1.12h8.95c.62,0,1.12.5,1.12,1.12s-.5,1.12-1.12,1.12ZM80.51,470.21c-.16,0-.31-.03-.46-.1-2.94-1.34-5.4-3.5-7.12-6.24-.33-.52-.17-1.21.35-1.54.52-.33,1.21-.17,1.54.35,1.49,2.37,3.62,4.23,6.16,5.4.56.26.81.92.55,1.48-.19.41-.59.65-1.02.65ZM71.51,455.89c-.62,0-1.12-.5-1.12-1.12v-8.95c0-.62.5-1.12,1.12-1.12s1.12.5,1.12,1.12v8.95c0,.62-.5,1.12-1.12,1.12ZM71.51,437.98c-.62,0-1.12-.5-1.12-1.12v-8.95c0-.62.5-1.12,1.12-1.12s1.12.5,1.12,1.12v8.95c0,.62-.5,1.12-1.12,1.12ZM71.51,420.07c-.62,0-1.12-.5-1.12-1.12v-8.95c0-.62.5-1.12,1.12-1.12s1.12.5,1.12,1.12v8.95c0,.62-.5,1.12-1.12,1.12ZM71.84,402.19c-.08,0-.15,0-.23-.02-.6-.13-.99-.72-.87-1.32.66-3.16,2.22-6.04,4.51-8.33.44-.44,1.15-.44,1.58,0,.44.44.44,1.15,0,1.58-1.99,1.98-3.33,4.47-3.9,7.2-.11.53-.58.89-1.09.89ZM83.81,390.24c-.52,0-.99-.37-1.1-.9-.12-.6.27-1.2.87-1.32,1.09-.22,2.21-.33,3.32-.33h5.83c.62,0,1.12.5,1.12,1.12s-.5,1.12-1.12,1.12h-5.83c-.97,0-1.93.1-2.88.29-.07.01-.15.02-.22.02ZM146.47,389.93h-8.95c-.62,0-1.12-.5-1.12-1.12s.5-1.12,1.12-1.12h8.95c.62,0,1.12.5,1.12,1.12s-.5,1.12-1.12,1.12ZM128.56,389.93h-8.95c-.62,0-1.12-.5-1.12-1.12s.5-1.12,1.12-1.12h8.95c.62,0,1.12.5,1.12,1.12s-.5,1.12-1.12,1.12ZM110.65,389.93h-8.95c-.62,0-1.12-.5-1.12-1.12s.5-1.12,1.12-1.12h8.95c.62,0,1.12.5,1.12,1.12s-.5,1.12-1.12,1.12ZM155.39,389.55c-.51,0-.97-.35-1.09-.87-.14-.6.24-1.2.84-1.34,2.72-.62,5.18-2.02,7.12-4.04.43-.45,1.14-.46,1.58-.03.45.43.46,1.14.03,1.58-2.24,2.34-5.09,3.96-8.24,4.67-.08.02-.17.03-.25.03ZM167.1,377.34c-.07,0-.14,0-.2-.02-.61-.11-1.01-.7-.9-1.3.16-.85.24-1.73.24-2.6v-6.13c0-.62.5-1.12,1.12-1.12s1.12.5,1.12,1.12v6.13c0,1.01-.09,2.02-.27,3.01-.1.54-.57.92-1.1.92ZM167.36,359.45c-.62,0-1.12-.5-1.12-1.12v-8.95c0-.62.5-1.12,1.12-1.12s1.12.5,1.12,1.12v8.95c0,.62-.5,1.12-1.12,1.12ZM167.36,341.54c-.62,0-1.12-.5-1.12-1.12v-8.95c0-.62.5-1.12,1.12-1.12s1.12.5,1.12,1.12v8.95c0,.62-.5,1.12-1.12,1.12ZM167.36,323.63c-.62,0-1.12-.5-1.12-1.12v-8.95c0-.62.5-1.12,1.12-1.12s1.12.5,1.12,1.12v8.95c0,.62-.5,1.12-1.12,1.12ZM167.36,305.72c-.62,0-1.12-.5-1.12-1.12v-8.95c0-.62.5-1.12,1.12-1.12s1.12.5,1.12,1.12v8.95c0,.62-.5,1.12-1.12,1.12Z"/><path class="uuid-a8f18141-1153-4ba3-bff5-0938496db68c" d="M260.65,507.02h-115.99c-5.57,0-10.56-4.74-11.15-10.58l-7.38-73.56c-.59-5.84,3.45-10.58,9.02-10.58h115.99c5.57,0,10.56,4.74,11.15,10.58l7.38,73.56c.59,5.84-3.45,10.58-9.02,10.58Z"/><path class="uuid-0dff09ec-6764-4db8-8775-cb6c1b64e3c1" d="M260.65,508.14h-115.99c-6.12,0-11.62-5.2-12.26-11.59l-7.38-73.56c-.33-3.25.62-6.28,2.66-8.54,1.91-2.11,4.56-3.27,7.48-3.27h115.99c6.12,0,11.62,5.2,12.26,11.59l7.38,73.56c.33,3.25-.62,6.28-2.66,8.54-1.91,2.11-4.56,3.27-7.48,3.27ZM135.16,413.42c-2.27,0-4.34.9-5.82,2.53-1.61,1.78-2.36,4.2-2.09,6.81l7.38,73.56c.53,5.28,5.03,9.57,10.03,9.57h115.99c2.27,0,4.34-.9,5.82-2.53,1.61-1.78,2.35-4.2,2.09-6.81l-7.38-73.56c-.53-5.28-5.03-9.57-10.03-9.57h-115.99Z"/><polygon class="uuid-4be76ef7-ebe9-4106-a375-7334ae086477" points="172.28 493.35 154.3 493.35 150.91 457.69 168.89 457.69 172.28 493.35"/><polygon class="uuid-30fc2a1b-3b4e-4b6f-8e51-0ed87b8638d5" points="199.04 493.35 181.06 493.35 176.11 441.29 194.09 441.29 199.04 493.35"/><polygon class="uuid-4be76ef7-ebe9-4106-a375-7334ae086477" points="225.8 493.35 207.82 493.35 205.99 474.09 223.97 474.09 225.8 493.35"/><polygon class="uuid-30fc2a1b-3b4e-4b6f-8e51-0ed87b8638d5" points="252.56 493.35 234.58 493.35 227.85 422.58 245.83 422.58 252.56 493.35"/><path class="uuid-0dff09ec-6764-4db8-8775-cb6c1b64e3c1" d="M244.49,177.48c-.62,0-1.12-.5-1.12-1.12v-8.95c0-.62.5-1.12,1.12-1.12s1.12.5,1.12,1.12v8.95c0,.62-.5,1.12-1.12,1.12ZM244.49,159.57c-.62,0-1.12-.5-1.12-1.12v-8.95c0-.62.5-1.12,1.12-1.12s1.12.5,1.12,1.12v8.95c0,.62-.5,1.12-1.12,1.12ZM244.49,141.66c-.62,0-1.12-.5-1.12-1.12v-8.95c0-.62.5-1.12,1.12-1.12s1.12.5,1.12,1.12v8.95c0,.62-.5,1.12-1.12,1.12ZM244.49,123.75c-.62,0-1.12-.5-1.12-1.12v-8.95c0-.62.5-1.12,1.12-1.12s1.12.5,1.12,1.12v8.95c0,.62-.5,1.12-1.12,1.12ZM244.49,105.84c-.62,0-1.12-.5-1.12-1.12v-6.95c0-.71.04-1.42.12-2.13.07-.62.64-1.04,1.24-.98.61.07,1.06.63.98,1.24-.07.62-.11,1.25-.11,1.87v6.95c0,.62-.5,1.12-1.12,1.12ZM247.85,88.66c-.23,0-.46-.07-.66-.22-.5-.37-.6-1.07-.24-1.57,1.89-2.57,4.43-4.62,7.34-5.91.56-.25,1.23,0,1.48.57.25.56,0,1.23-.57,1.48-2.55,1.14-4.78,2.94-6.45,5.2-.22.3-.56.46-.9.46ZM361.98,81.61h-8.95c-.62,0-1.12-.5-1.12-1.12s.5-1.12,1.12-1.12h8.95c.62,0,1.12.5,1.12,1.12s-.5,1.12-1.12,1.12ZM344.07,81.61h-8.95c-.62,0-1.12-.5-1.12-1.12s.5-1.12,1.12-1.12h8.95c.62,0,1.12.5,1.12,1.12s-.5,1.12-1.12,1.12ZM326.16,81.61h-8.95c-.62,0-1.12-.5-1.12-1.12s.5-1.12,1.12-1.12h8.95c.62,0,1.12.5,1.12,1.12s-.5,1.12-1.12,1.12ZM308.25,81.61h-8.95c-.62,0-1.12-.5-1.12-1.12s.5-1.12,1.12-1.12h8.95c.62,0,1.12.5,1.12,1.12s-.5,1.12-1.12,1.12ZM290.35,81.61h-8.95c-.62,0-1.12-.5-1.12-1.12s.5-1.12,1.12-1.12h8.95c.62,0,1.12.5,1.12,1.12s-.5,1.12-1.12,1.12ZM272.44,81.61h-8.95c-.62,0-1.12-.5-1.12-1.12s.5-1.12,1.12-1.12h8.95c.62,0,1.12.5,1.12,1.12s-.5,1.12-1.12,1.12Z"/><rect class="uuid-a8f18141-1153-4ba3-bff5-0938496db68c" x="375.51" y="39.8" width="104.88" height="95.02" rx="10.01" ry="10.01"/><path class="uuid-0dff09ec-6764-4db8-8775-cb6c1b64e3c1" d="M470.38,135.94h-84.87c-6.13,0-11.13-4.99-11.13-11.13V49.8c0-6.13,4.99-11.12,11.13-11.12h84.87c6.13,0,11.13,4.99,11.13,11.13v75.01c0,6.13-4.99,11.13-11.13,11.13ZM385.51,40.92c-4.9,0-8.89,3.99-8.89,8.89v75.01c0,4.9,3.99,8.89,8.89,8.89h84.87c4.9,0,8.89-3.99,8.89-8.89V49.81c0-4.9-3.99-8.89-8.89-8.89h-84.87Z"/><path class="uuid-30fc2a1b-3b4e-4b6f-8e51-0ed87b8638d5" d="M458.69,88.37c0,17.57-14.23,31.81-31.79,31.81s-31.81-14.24-31.81-31.81,14.23-31.81,31.81-31.81,31.79,14.24,31.79,31.81Z"/><path class="uuid-0dff09ec-6764-4db8-8775-cb6c1b64e3c1" d="M426.9,121.3c-18.16,0-32.93-14.77-32.93-32.93s14.77-32.93,32.93-32.93,32.91,14.77,32.91,32.93-14.76,32.93-32.91,32.93ZM426.9,57.68c-16.92,0-30.69,13.77-30.69,30.69s13.77,30.69,30.69,30.69,30.67-13.77,30.67-30.69-13.76-30.69-30.67-30.69Z"/><path class="uuid-4be76ef7-ebe9-4106-a375-7334ae086477" d="M468.95,88.37h-42.05v-42.07c23.23,0,42.05,18.84,42.05,42.07Z"/><path class="uuid-0dff09ec-6764-4db8-8775-cb6c1b64e3c1" d="M468.95,89.49h-42.05c-.62,0-1.12-.5-1.12-1.12v-42.07c0-.62.5-1.12,1.12-1.12,23.8,0,43.17,19.37,43.17,43.19,0,.62-.5,1.12-1.12,1.12ZM428.02,87.25h39.8c-.59-21.69-18.12-39.23-39.8-39.81v39.81Z"/><path class="uuid-0dff09ec-6764-4db8-8775-cb6c1b64e3c1" d="M108.39,191.77s-.03,0-.05,0c-.62-.02-1.1-.54-1.07-1.16l.35-8.95c.02-.6.52-1.08,1.12-1.08.02,0,.03,0,.05,0,.62.02,1.1.54,1.07,1.16l-.35,8.95c-.02.6-.52,1.08-1.12,1.08ZM109.09,173.88s-.03,0-.05,0c-.62-.02-1.1-.54-1.07-1.16l.35-8.95c.02-.62.6-1.1,1.16-1.07.62.02,1.1.54,1.07,1.16l-.35,8.95c-.02.6-.52,1.08-1.12,1.08ZM109.8,155.98s-.03,0-.05,0c-.62-.02-1.1-.54-1.07-1.16l.35-8.95c.02-.62.62-1.11,1.16-1.07.62.02,1.1.54,1.07,1.16l-.35,8.95c-.02.6-.52,1.08-1.12,1.08ZM110.51,138.09s-.03,0-.05,0c-.62-.02-1.1-.54-1.07-1.16l.34-8.54v-.32c-.03-.62.46-1.14,1.07-1.16.63.03,1.14.47,1.16,1.08v.44s-.33,8.59-.33,8.59c-.02.6-.52,1.08-1.12,1.08ZM107.36,121.11c-.29,0-.57-.11-.79-.33-1.94-1.95-4.51-3.08-7.26-3.19-.62-.02-1.1-.54-1.07-1.16.02-.6.52-1.08,1.12-1.08.02,0,.03,0,.05,0,3.31.13,6.42,1.49,8.76,3.84.44.44.43,1.15,0,1.58-.22.22-.5.33-.79.33ZM90.4,117.59h-8.95c-.62,0-1.12-.5-1.12-1.12s.5-1.12,1.12-1.12h8.95c.62,0,1.12.5,1.12,1.12s-.5,1.12-1.12,1.12ZM72.5,117.59h-8.95c-.62,0-1.12-.5-1.12-1.12s.5-1.12,1.12-1.12h8.95c.62,0,1.12.5,1.12,1.12s-.5,1.12-1.12,1.12ZM54.6,117.44c-.06,0-.12,0-.18-.01-3.26-.52-6.18-2.26-8.23-4.88-.38-.49-.29-1.19.2-1.57.49-.38,1.19-.29,1.57.2,1.69,2.17,4.11,3.61,6.82,4.04.61.1,1.03.67.93,1.28-.09.55-.56.94-1.1.94ZM44.55,104.59c-.62,0-1.12-.5-1.12-1.12v-8.95c0-.62.5-1.12,1.12-1.12s1.12.5,1.12,1.12v8.95c0,.62-.5,1.12-1.12,1.12ZM44.55,86.68c-.62,0-1.12-.5-1.12-1.12v-8.95c0-.62.5-1.12,1.12-1.12s1.12.5,1.12,1.12v8.95c0,.62-.5,1.12-1.12,1.12Z"/><path class="uuid-30fc2a1b-3b4e-4b6f-8e51-0ed87b8638d5" d="M79.57,18.91c13.13,17.96,10.72,43.08-6.13,56.7-17.74,14.35-44.5,10.56-58.91-9.15C.12,46.75,4.63,20.1,23.68,7.55c18.1-11.92,42.76-6.6,55.89,11.36Z"/><path class="uuid-0dff09ec-6764-4db8-8775-cb6c1b64e3c1" d="M48.89,85.4c-1.81,0-3.64-.12-5.48-.36-11.9-1.55-22.48-7.91-29.79-17.91-7.31-10-10.16-22.01-8.03-33.82C7.6,22.2,13.8,12.72,23.06,6.62,41.57-5.58,66.79-.47,80.47,18.25h0c13.68,18.72,10.91,44.3-6.33,58.23-7.21,5.83-16.02,8.91-25.26,8.91ZM45.23,2.24c-7.27,0-14.53,2.02-20.93,6.25-8.75,5.76-14.61,14.72-16.5,25.22-2.02,11.2.69,22.6,7.64,32.1,6.94,9.5,16.99,15.54,28.27,17.01,10.58,1.37,20.89-1.49,29.03-8.07,16.3-13.18,18.91-37.42,5.93-55.17h0C70.43,8.32,57.82,2.24,45.23,2.24Z"/><path class="uuid-0dff09ec-6764-4db8-8775-cb6c1b64e3c1" d="M18.77,11.58C-.28,24.13-4.79,50.78,9.62,70.49c14.41,19.71,41.18,23.5,58.91,9.15l4.9-4.03c-17.74,14.35-44.5,10.56-58.91-9.15C.12,46.75,4.63,20.1,23.68,7.55l-4.9,4.03Z"/><path class="uuid-0dff09ec-6764-4db8-8775-cb6c1b64e3c1" d="M43.99,89.43c-1.81,0-3.64-.12-5.48-.36-11.9-1.55-22.48-7.91-29.79-17.91C1.41,61.16-1.44,49.15.69,37.34c1.94-10.75,7.81-19.97,16.58-26.09,1.77-1.7,3.71-3.26,5.8-4.63.5-.33,1.16-.21,1.52.27.35.48.27,1.15-.19,1.53l-4.91,4.03s-.06.05-.09.07c-.23.15-.47.31-.7.47-5.65,5.5-9.44,12.65-10.9,20.72-2.02,11.2.69,22.6,7.64,32.1,6.94,9.5,16.99,15.54,28.27,17.01,10.58,1.37,20.89-1.49,29.03-8.07.48-.38,1.18-.31,1.57.16.39.48.32,1.18-.16,1.57l-4.9,4.03c-7.22,5.84-16.03,8.91-25.26,8.91ZM9.01,22.7c-3.03,4.43-5.12,9.52-6.12,15.04-2.02,11.2.69,22.6,7.64,32.1,6.94,9.5,16.98,15.54,28.27,17.01,7.03.92,13.94-.04,20.17-2.72-4.98,1.28-10.23,1.6-15.56.91-11.9-1.55-22.48-7.91-29.79-17.91-7.31-10-10.16-22.01-8.03-33.82.67-3.74,1.83-7.3,3.41-10.61Z"/><path class="uuid-a8f18141-1153-4ba3-bff5-0938496db68c" d="M61.46,48.15c.14,3.19-.99,5.9-3.39,8.11-1.97,1.81-4.66,3.19-8.07,4.12l.28,6.34c.08,1.81-.77,2.75-2.55,2.83-.78.04-1.39-.26-1.86-.88-.36-.51-.56-1.09-.59-1.73l-.25-5.6c-.6.06-1.19.1-1.77.13-3.12.14-5.56-.21-7.34-1.04-1.6-.74-2.43-1.75-2.49-3.02-.11-2.42,1.06-3.68,3.52-3.79.64-.03,1.72.17,3.27.61,1.54.43,2.54.63,2.99.61.42-.02.93-.08,1.53-.2l-.5-11.18c-2.72-.07-5.06-.59-7.02-1.57-2.56-1.27-3.89-3.14-4-5.59-.13-2.79.88-5.41,3.01-7.86,1.89-2.18,4.27-3.84,7.12-4.97l-.19-4.19c-.09-1.98.72-3.01,2.43-3.08,1.63-.07,2.49.88,2.58,2.86l.15,3.35c1.76.04,3.65.38,5.69,1.02,2.6.8,3.93,1.79,3.98,2.97.04.96-.24,1.8-.84,2.5-.61.7-1.35,1.08-2.23,1.12-.74.03-1.79-.08-3.14-.34-1.43-.26-2.47-.39-3.14-.39l.35,7.78c.22,0,.39,0,.51,0,3.44.13,6.19,1.06,8.26,2.78,2.32,1.93,3.57,4.69,3.73,8.3ZM43.66,30.59c-2.5,1.16-3.71,2.52-3.64,4.07.06,1.34,1.37,2.12,3.93,2.37l-.29-6.44ZM49.67,53.14c3.34-1.43,4.97-3.11,4.88-5.02-.13-2.88-1.9-4.43-5.31-4.67l.43,9.69Z"/><path class="uuid-30fc2a1b-3b4e-4b6f-8e51-0ed87b8638d5" d="M557.02,279.42l-8.79,5.53c-4.13,2.57-9.55,1.34-12.13-2.76l-5.54-8.79c-2.58-4.1-1.35-9.52,2.75-12.1l8.8-5.56c4.1-2.58,9.52-1.35,12.13,2.76l5.53,8.82c2.58,4.1,1.35,9.52-2.75,12.1Z"/><path class="uuid-30fc2a1b-3b4e-4b6f-8e51-0ed87b8638d5" d="M404.27,272.35l-3.78,2.38c-1.77,1.1-4.1.58-5.21-1.18l-2.38-3.78c-1.11-1.76-.58-4.09,1.18-5.2l3.78-2.39c1.76-1.11,4.09-.58,5.21,1.18l2.37,3.79c1.11,1.76.58,4.09-1.18,5.2Z"/><path class="uuid-30fc2a1b-3b4e-4b6f-8e51-0ed87b8638d5" d="M537.29,163.2l-3.78,2.38c-1.77,1.1-4.1.58-5.21-1.18l-2.38-3.77c-1.11-1.76-.58-4.09,1.18-5.2l3.78-2.39c1.76-1.11,4.09-.58,5.21,1.18l2.37,3.79c1.11,1.76.58,4.09-1.18,5.2Z"/><path class="uuid-30fc2a1b-3b4e-4b6f-8e51-0ed87b8638d5" d="M381.83,180.25l-3.78,2.38c-1.77,1.1-4.1.58-5.21-1.18l-2.38-3.77c-1.11-1.76-.58-4.09,1.18-5.2l3.78-2.39c1.76-1.11,4.09-.58,5.21,1.18l2.37,3.79c1.11,1.76.58,4.09-1.18,5.2Z"/><path class="uuid-30fc2a1b-3b4e-4b6f-8e51-0ed87b8638d5" d="M292.41,445.19l-3.78,2.38c-1.77,1.1-4.1.58-5.21-1.18l-2.38-3.78c-1.11-1.76-.58-4.09,1.18-5.2l3.78-2.39c1.76-1.11,4.09-.58,5.21,1.18l2.37,3.79c1.11,1.76.58,4.09-1.18,5.2Z"/><path class="uuid-30fc2a1b-3b4e-4b6f-8e51-0ed87b8638d5" d="M177.37,84.39l-3.78,2.38c-1.77,1.1-4.1.58-5.21-1.18l-2.38-3.77c-1.11-1.76-.58-4.09,1.18-5.2l3.78-2.39c1.76-1.11,4.09-.58,5.21,1.18l2.37,3.79c1.11,1.76.58,4.09-1.18,5.2Z"/></svg>