<svg id="uuid-482e37b3-9e64-481a-a3cd-e24a411c9bb6" xmlns="http://www.w3.org/2000/svg" viewBox="0 0 580 518.57"><defs><style>.uuid-5ef2b605-400e-46de-93e5-ab5dd427fa7c{fill:#e6f2fb;}.uuid-a90ed923-dfdd-4bbd-8c1d-82259a0371dc{fill:#1d1dff;}.uuid-8d86f9d8-9e71-4ccb-ad4e-8f12e10352ab{fill:#3c46f0;}.uuid-aea83887-4b9a-4def-b0f7-d50dfc0d12e3{fill:#e6f3fc;}.uuid-b9823eb7-5a36-45e8-a4d6-c4827c96ef7e{fill:#06b6d4;}.uuid-f0c0d2d2-479e-4fc0-8141-5c93791fa75c{fill:#fff;}.uuid-3be0b464-e1da-4e8b-b08b-f777799cc983{fill:#0b135e;}.uuid-c57da571-e6ee-459d-8772-409ebb04805a{opacity:.4;}.uuid-9c075c0a-c9df-4e82-b822-7248c24bf649{fill:#7be4ef;}.uuid-b5f3c9af-3e90-4730-b117-9cf95dde7847{fill:#ffcc3d;}</style></defs><path class="uuid-5ef2b605-400e-46de-93e5-ab5dd427fa7c" d="M294.84,130.29l7.65-23.3-12.14-3.99c.82-7.4.2-14.76-1.65-21.73l11.41-5.78-11.07-21.89-11.41,5.78c-4.51-5.64-10.07-10.49-16.52-14.22l3.99-12.14-23.31-7.66-3.99,12.14c-7.4-.82-14.76-.21-21.73,1.65l-5.76-11.42-21.89,11.07,5.76,11.42c-5.62,4.52-10.49,10.07-14.22,16.52l-12.14-3.99-7.65,23.3,12.14,3.99c-.82,7.42-.2,14.77,1.65,21.73l-11.41,5.78,11.07,21.89,11.41-5.78c4.51,5.64,10.07,10.49,16.52,14.22l-3.99,12.15,23.31,7.66,3.99-12.15c7.4.82,14.76.21,21.73-1.65l5.76,11.42,21.89-11.07-5.76-11.42c5.62-4.51,10.48-10.06,14.22-16.52l12.14,3.99ZM224.36,128.41c-20.24-4.49-31.22-26.19-22.84-45.17,6.2-14.04,21.79-21.93,36.77-18.59,20.25,4.51,31.21,26.21,22.83,45.17-6.2,14.03-21.79,21.91-36.76,18.59Z"/><g class="uuid-c57da571-e6ee-459d-8772-409ebb04805a"><path class="uuid-5ef2b605-400e-46de-93e5-ab5dd427fa7c" d="M507.44,182.07l7.15-21.77-11.35-3.73c.76-6.92.18-13.79-1.55-20.31l10.66-5.4-10.34-20.45-10.66,5.4c-4.22-5.27-9.41-9.8-15.44-13.28l3.73-11.35-21.78-7.15-3.73,11.35c-6.92-.76-13.79-.2-20.31,1.55l-5.39-10.67-20.45,10.34,5.39,10.67c-5.26,4.22-9.8,9.41-13.28,15.44l-11.35-3.73-7.15,21.77,11.35,3.73c-.77,6.93-.19,13.8,1.55,20.31l-10.66,5.4,10.34,20.45,10.66-5.4c4.22,5.27,9.41,9.8,15.44,13.28l-3.73,11.36,21.78,7.15,3.73-11.36c6.92.76,13.79.2,20.31-1.55l5.39,10.67,20.45-10.34-5.39-10.67c5.25-4.21,9.79-9.4,13.28-15.44l11.35,3.73ZM441.59,180.32c-18.91-4.19-29.17-24.47-21.34-42.2,5.79-13.12,20.36-20.49,34.36-17.37,18.92,4.21,29.16,24.49,21.33,42.21-5.8,13.11-20.36,20.47-34.35,17.37Z"/></g><path class="uuid-3be0b464-e1da-4e8b-b08b-f777799cc983" d="M554.44,518.41H56.07c-.56,0-1.01-.45-1.01-1.01s.45-1.01,1.01-1.01h498.37c.56,0,1.01.45,1.01,1.01s-.45,1.01-1.01,1.01Z"/><path class="uuid-3be0b464-e1da-4e8b-b08b-f777799cc983" d="M351.01,61.64l-15.51-3.09c-4.5-.9-7.42-5.27-6.53-9.77l8.27-41.52,31.81,6.34-8.27,41.52c-.9,4.5-5.27,7.42-9.77,6.53Z"/><path class="uuid-9c075c0a-c9df-4e82-b822-7248c24bf649" d="M381.36,16.04c.6,6.87-12.81,10.89-29.97,8.76-17.16-2.13-30.68-9.5-30.22-16.24.45-6.51,13.86-10,29.98-8,16.11,2,29.63,8.84,30.21,15.47Z"/><path class="uuid-a90ed923-dfdd-4bbd-8c1d-82259a0371dc" d="M319.03,17.76c-.52,7.07,13.32,14.77,30.91,16.96,17.6,2.19,31.36-2.08,30.75-9.29l.66-9.39c.6,6.87-12.81,10.89-29.97,8.76-17.16-2.13-30.68-9.5-30.22-16.24l-2.14,9.2Z"/><path class="uuid-9c075c0a-c9df-4e82-b822-7248c24bf649" d="M437.63,139.43c15.17,65.78-25.07,131.91-89.9,147.72-64.82,15.81-129.68-24.69-144.85-90.46-15.18-65.76,25.07-131.91,89.89-147.72,64.83-15.81,129.69,24.7,144.87,90.46Z"/><path class="uuid-3be0b464-e1da-4e8b-b08b-f777799cc983" d="M347.72,287.14c64.83-15.81,105.08-81.94,89.9-147.72-15.18-65.76-80.04-106.27-144.87-90.46l17.69-4.32c64.83-15.81,129.69,24.7,144.87,90.46,15.17,65.78-25.07,131.91-89.9,147.72l-17.69,4.32Z"/><path class="uuid-f0c0d2d2-479e-4fc0-8141-5c93791fa75c" d="M340.9,261.78c-24.41,5.95-49.53,1.95-70.73-11.27-21.25-13.25-36.11-34.22-41.83-59.05-12.02-52.07,19.94-104.61,71.25-117.12,24.41-5.95,49.53-1.95,70.73,11.26,21.25,13.25,36.12,34.22,41.85,59.06,12.01,52.07-19.96,104.61-71.26,117.12Z"/><path class="uuid-b5f3c9af-3e90-4730-b117-9cf95dde7847" d="M397.03,148.51c6.32,27.39-1.93,54.94-19.62,74.19-5.18,5.64-14.27,4.55-18.03-2.13-5.6-9.93-13.56-18.31-23.4-24.45-15.55-9.68-33.96-12.63-51.86-8.26-8.24,2.01-15.8,5.43-22.48,9.95-6.37,4.3-15.03,1.27-17.13-6.11-.38-1.35-.73-2.71-1.05-4.08-10.04-43.51,16.66-87.4,59.51-97.85,20.4-4.98,41.38-1.63,59.1,9.41,17.76,11.07,30.17,28.59,34.95,49.35Z"/><path class="uuid-f0c0d2d2-479e-4fc0-8141-5c93791fa75c" d="M334.72,318.74c-.48,1.87-1.36,3.87-2.76,5.98-4.15,6.24-10.96,23.79-13.19,28.97l-23.83,68.7c-5.67,15.49-20.41,25.67-36.72,25.67-.86,0-1.74-.03-2.6-.08-14.55-.96-27.37-9.94-33.24-23.29l-26.6-60.41,48.84-20.8,15.83,29.11,18.65-40.93,27.08-67.31c1.35-2.76,4.15-4.28,7-4.16,1.2.04,2.38.39,3.5,1.04,2.87,1.72,4.24,5.13,3.35,8.35l-6.55,23.79s6.56-.36,8.59,5.54c0,0,.04-.01.15-.03.88-.17,5.54-.67,7.92,6.14,1.51.08,6.75,5.55,4.57,13.71Z"/><path class="uuid-3be0b464-e1da-4e8b-b08b-f777799cc983" d="M258.23,449.08c-.88,0-1.78-.03-2.66-.08-14.99-.99-28.05-10.14-34.11-23.89l-26.6-60.41c-.11-.25-.11-.53-.01-.78.1-.25.29-.45.54-.56l48.84-20.8c.48-.2,1.03-.01,1.28.45l14.86,27.33,17.81-39.08,27.06-67.27c1.5-3.08,4.65-4.92,7.98-4.79,1.36.05,2.7.44,3.96,1.17,3.26,1.96,4.83,5.86,3.82,9.49l-6.2,22.55c2.56.26,6.23,1.58,7.93,5.4,1.64-.1,5.85.29,8.19,6.39.99.42,2.02,1.49,2.75,2.49,1.17,1.61,3.7,6.02,2.02,12.31-.54,2.08-1.52,4.2-2.9,6.28-3.28,4.94-8.31,17.19-11.32,24.52-.73,1.79-1.35,3.28-1.78,4.3l-23.8,68.64c-5.77,15.77-20.91,26.35-37.67,26.35ZM197.12,364.81l26.19,59.48c5.75,13.06,18.15,21.75,32.38,22.69.84.05,1.69.08,2.53.08,15.92,0,30.29-10.05,35.77-25.01l23.82-68.69c.46-1.08,1.07-2.56,1.8-4.33,3.03-7.39,8.11-19.77,11.51-24.87,1.26-1.9,2.14-3.81,2.62-5.67,0,0,0,0,0,0,1.28-4.77-.23-8.26-1.24-9.91-1.07-1.74-2.17-2.48-2.43-2.53-.41-.02-.73-.29-.87-.67-2.13-6.08-6.01-5.64-6.77-5.49-.26.12-.51.1-.78,0-.26-.11-.43-.36-.52-.63-1.75-5.09-7.34-4.87-7.59-4.86-.29.02-.64-.12-.84-.38-.2-.25-.27-.59-.19-.9l6.55-23.79c.76-2.76-.43-5.73-2.9-7.22-.96-.56-1.98-.86-3.02-.89-2.56-.09-4.94,1.3-6.06,3.6l-27.05,67.25-18.66,40.97c-.16.35-.5.58-.88.59-.38.03-.74-.19-.92-.53l-15.39-28.3-47.06,20.04Z"/><path class="uuid-f0c0d2d2-479e-4fc0-8141-5c93791fa75c" d="M306.48,316.69c.06-.02.12-.03.16-.05,5.59-1.8,15.44-17.74,15.44-17.74-2.03-5.9-8.59-5.54-8.59-5.54l-12.25,15.41c-3,3.77.6,9.29,5.23,7.91Z"/><path class="uuid-3be0b464-e1da-4e8b-b08b-f777799cc983" d="M305.05,317.91c-1.92,0-3.71-.94-4.85-2.64-1.51-2.24-1.41-5.04.26-7.13l12.24-15.41c.18-.23.45-.36.74-.38,2.52-.14,7.8.98,9.6,6.22.1.29.06.6-.1.86-1.03,1.66-10.21,16.31-15.99,18.17-.02,0-.12.04-.14.04l-.34-.95.29.97c-.57.17-1.15.25-1.72.25ZM306.48,316.69h.01-.01ZM313.98,294.37l-11.94,15.03c-1.34,1.69-.93,3.61-.17,4.74.78,1.15,2.32,2.17,4.32,1.58h0s.08-.02.1-.03c4.2-1.36,11.76-12.28,14.67-16.9-1.62-3.92-5.64-4.38-6.98-4.42Z"/><path class="uuid-f0c0d2d2-479e-4fc0-8141-5c93791fa75c" d="M311.12,322.76c7.34,3.16,19.04-17.74,19.04-17.74-2.38-6.82-7.04-6.32-7.92-6.15,0,0-18.39,20.76-11.12,23.89Z"/><path class="uuid-3be0b464-e1da-4e8b-b08b-f777799cc983" d="M312.7,324.09c-.68,0-1.34-.13-1.98-.4h0c-1.17-.5-1.93-1.41-2.2-2.63-1.43-6.39,11.48-21.19,12.96-22.85.15-.17.35-.28.57-.32.64-.12,6.35-.98,9.07,6.81.1.27.07.57-.07.83-1.14,2.04-10.64,18.57-18.34,18.57ZM322.75,299.82c-3.97,4.54-13.25,16.33-12.25,20.8.13.59.45.97,1.02,1.22h0c4.66,2,13.11-9.14,17.53-16.9-1.92-5.03-5.13-5.23-6.3-5.11Z"/><path class="uuid-f0c0d2d2-479e-4fc0-8141-5c93791fa75c" d="M277.37,337.69l-1.57-34.11c-.05-5.24,4.05-9.59,9.29-9.84l17.29-.83c1.77-.08,3.21,1.42,3.04,3.18h0c-.41,4.3-3.7,7.75-7.97,8.37l-8.48,1.23,2.31,4.39c4.27,3.97,4.52,8.4,3.07,14.75"/><path class="uuid-3be0b464-e1da-4e8b-b08b-f777799cc983" d="M277.37,338.7c-.54,0-.98-.42-1.01-.96l-1.57-34.11c-.06-5.85,4.44-10.62,10.25-10.9l17.29-.83c1.15-.06,2.24.39,3.02,1.21.79.82,1.17,1.95,1.07,3.08-.45,4.77-4.09,8.59-8.83,9.28l-7.06,1.02,1.57,2.97c4.63,4.39,4.65,9.42,3.24,15.6-.12.54-.67.88-1.21.76-.54-.12-.88-.67-.76-1.21,1.56-6.83.83-10.44-2.77-13.79-.08-.08-.15-.17-.21-.27l-2.31-4.39c-.15-.29-.16-.64,0-.93.15-.29.43-.49.76-.54l8.48-1.23c3.82-.55,6.75-3.63,7.11-7.47.05-.55-.14-1.09-.52-1.49-.38-.4-.92-.61-1.47-.59l-17.29.83c-4.72.23-8.38,4.1-8.33,8.82l1.57,34.08c.03.56-.41,1.03-.96,1.06-.02,0-.03,0-.05,0Z"/><path class="uuid-b5f3c9af-3e90-4730-b117-9cf95dde7847" d="M166.54,309.39l43.67,4.04c10.05-1.13,19.81,3.81,24.86,12.56l22.29,32.13-52.7,43.81-38.11-92.54Z"/><g class="uuid-c57da571-e6ee-459d-8772-409ebb04805a"><path class="uuid-f0c0d2d2-479e-4fc0-8141-5c93791fa75c" d="M221.39,389.03c-.29,0-.57-.12-.77-.36-2.13-2.51-3.31-5.7-3.31-8.98,0-7.64,6.21-13.85,13.85-13.85,4.19,0,8.11,1.86,10.75,5.11.35.43.29,1.07-.15,1.42-.43.35-1.07.29-1.42-.15-2.26-2.78-5.61-4.37-9.18-4.37-6.52,0-11.83,5.31-11.83,11.83,0,2.8,1,5.52,2.83,7.67.36.42.31,1.06-.12,1.42-.19.16-.42.24-.65.24Z"/></g><path class="uuid-3be0b464-e1da-4e8b-b08b-f777799cc983" d="M204.65,402.94c-.08,0-.15,0-.23-.03-.31-.07-.57-.28-.69-.57l-28.52-64.05c-.23-.51,0-1.11.51-1.33.51-.23,1.11,0,1.33.51l27.98,62.83,50.96-42.36-21.76-31.37c-.32-.46-.2-1.09.25-1.41.46-.32,1.09-.2,1.41.25l22.29,32.13c.3.43.22,1.02-.18,1.35l-52.7,43.81c-.18.15-.41.23-.65.23Z"/><polygon class="uuid-3be0b464-e1da-4e8b-b08b-f777799cc983" points="84.44 518.57 81.49 451.65 209.59 460.02 219.34 518.57 84.44 518.57"/><path class="uuid-b5f3c9af-3e90-4730-b117-9cf95dde7847" d="M146,306.95c-12.79-.32-50.94,4.86-50.94,4.86-7.67,1.38-13.38,7.86-13.79,15.64l-2.58,141.72,135.62-1.24-10.45-139.26c-.6-7.97-6.74-14.42-14.67-15.4,0,0-32.29-6.04-43.2-6.31Z"/><g class="uuid-c57da571-e6ee-459d-8772-409ebb04805a"><path class="uuid-f0c0d2d2-479e-4fc0-8141-5c93791fa75c" d="M212.38,443.15c-.06,0-.12,0-.19-.02-4.65-.87-8.03-4.94-8.03-9.68,0-4.19,2.66-7.92,6.61-9.28.63-.22,1.35.29,1.35.96,0,.47-.32.87-.76.98-3.1,1.1-5.17,4.04-5.17,7.34,0,3.77,2.68,7,6.38,7.69.55.1.91.63.81,1.18-.09.49-.52.82-.99.82Z"/></g><path class="uuid-3be0b464-e1da-4e8b-b08b-f777799cc983" d="M214.32,468.94c-.52,0-.97-.4-1.01-.93l-9.14-121.9c-.04-.56.38-1.04.93-1.08.56-.04,1.04.38,1.08.93l9.14,121.9c.04.56-.38,1.04-.93,1.08-.03,0-.05,0-.08,0Z"/><path class="uuid-f0c0d2d2-479e-4fc0-8141-5c93791fa75c" d="M3.34,427.39c1.47,4.15,3.57,8.01,6.21,11.45,2.65,3.44,5.85,6.47,9.49,8.93l67.58,44.63,30.56,23.86c1.36.79,3.06.7,4.41.17.93-.35,1.75-.95,2.32-1.82,1.5-2.18,1.12-5.26-1.02-6.85l-6.99-5.63,13.08,10.41c1.48,1.19,3.51,1.62,5.32.95.03-.01.04-.03.04-.03.93-.35,1.76-.95,2.33-1.82,1.49-2.17,1.09-5.25-1.02-6.82l-13.32-10.71,19.94,15.92c1.37.79,3.06.69,4.42.17.93-.34,1.74-.96,2.32-1.82,1.5-2.18,1.01-5.13-1.1-6.72l-19.09-15.64,13.98,11.23c1.36.8,3.06.7,4.43.17.91-.34,1.74-.95,2.31-1.82,1.49-2.17,1-5.13-1.1-6.7l-23.73-19.37,13.11,2.84c.91.1,1.78-.01,2.62-.31,1.44-.56,2.65-1.78,3.18-3.36,1.02-3.1-.92-6.38-4.14-7.02l-28.94-11.93h0s-51.41-35.49-51.41-35.49l22.98-28.71-33.35-37.38-36.09,37.03c-10.87,11.14-14.47,27.46-9.34,42.15Z"/><path class="uuid-3be0b464-e1da-4e8b-b08b-f777799cc983" d="M119.48,517.85c-1.01,0-1.98-.24-2.8-.72-.04-.02-.08-.05-.11-.08l-30.56-23.86-67.51-44.58c-3.72-2.51-6.99-5.59-9.74-9.16-2.72-3.54-4.86-7.48-6.36-11.73,0,0,0,0,0,0-5.3-15.16-1.64-31.71,9.57-43.19l36.08-37.03c.2-.2.49-.3.75-.31.28,0,.54.13.73.34l33.35,37.38c.33.37.34.92.04,1.3l-22.3,27.86,50.48,34.83,28.71,11.83c1.79.38,3.33,1.5,4.25,3.07.92,1.59,1.13,3.49.55,5.23-.61,1.82-2.02,3.3-3.77,3.98-1.04.37-2.08.49-3.1.37l-9.1-1.97,20.47,16.71c2.52,1.88,3.1,5.43,1.3,8.06-.65.99-1.62,1.75-2.79,2.19-.53.2-1.06.34-1.59.42l2.55,2.09c2.52,1.89,3.11,5.45,1.29,8.07-.7,1.02-1.67,1.78-2.81,2.19-1.84.7-3.77.62-5.27-.24-.04-.02-.09-.05-.13-.09l-3.08-2.46c.08,1.32-.26,2.68-1.07,3.85-.62.95-1.56,1.7-2.71,2.15-.01,0-.03.01-.04.02-2.18.82-4.59.4-6.4-1.06l-2.53-2.01c.08,1.32-.27,2.69-1.07,3.86-.64.98-1.61,1.74-2.8,2.19-.81.32-1.65.48-2.47.48ZM117.75,515.42c.95.53,2.25.55,3.48.07.81-.3,1.42-.78,1.85-1.43,1.24-1.8.89-4.25-.78-5.48l-7.02-5.65c-.43-.35-.5-.98-.16-1.42.35-.43.99-.51,1.42-.16l13.08,10.41c1.24,1,2.85,1.3,4.25.82.04-.02.08-.04.12-.06.79-.3,1.43-.79,1.84-1.42,1.23-1.79.87-4.23-.78-5.46l-13.35-10.73c-.43-.35-.5-.98-.16-1.42.35-.44.99-.5,1.42-.16h0s19.88,15.87,19.88,15.87c.95.52,2.25.54,3.49.07.76-.27,1.39-.77,1.85-1.44,1.2-1.73.81-4.08-.87-5.34l-19.12-15.66c-.43-.35-.49-.99-.14-1.42.35-.43.98-.5,1.42-.15l13.92,11.18c.94.52,2.24.55,3.5.06.77-.29,1.4-.78,1.83-1.43,1.2-1.75.82-4.08-.86-5.34l-23.76-19.4c-.36-.3-.47-.8-.27-1.22.2-.42.66-.65,1.12-.55l13.11,2.84c.63.07,1.34-.02,2.07-.28,1.17-.45,2.14-1.48,2.56-2.73.4-1.2.26-2.47-.38-3.58-.64-1.1-1.74-1.88-3-2.13-.06-.01-.13-.03-.19-.06l-28.94-11.93c-.11-.05-.21-.11-.3-.19l-51.3-35.4c-.23-.16-.39-.41-.43-.68-.04-.28.04-.56.21-.78l22.44-28.04-32.06-35.94-35.33,36.26c-10.66,10.93-14.15,26.68-9.11,41.11,1.43,4.04,3.46,7.8,6.06,11.17,2.61,3.4,5.73,6.33,9.26,8.71l67.57,44.62,30.57,23.86Z"/><path class="uuid-b5f3c9af-3e90-4730-b117-9cf95dde7847" d="M99.1,311.08l-15.35,2.88c-5.95,1.12-11.39,4.12-15.5,8.57l-28.94,31.31,38,43.94,38-36.39-16.2-50.3Z"/><path class="uuid-3be0b464-e1da-4e8b-b08b-f777799cc983" d="M77.3,398.79s-.03,0-.05,0c-.28-.01-.54-.14-.72-.35l-37.99-43.94c-.34-.39-.33-.97.02-1.35l28.94-31.31c.38-.41,1.02-.43,1.43-.06.41.38.44,1.02.06,1.43l-28.33,30.65,36.71,42.45,28.36-27.16c.4-.39,1.04-.37,1.43.03.39.4.37,1.04-.03,1.43l-29.13,27.9c-.19.18-.44.28-.7.28Z"/><line class="uuid-f0c0d2d2-479e-4fc0-8141-5c93791fa75c" x1="260.33" y1="373.02" x2="257.35" y2="382.67"/><path class="uuid-3be0b464-e1da-4e8b-b08b-f777799cc983" d="M257.35,383.68c-.1,0-.2-.01-.3-.04-.53-.16-.83-.73-.67-1.26l2.98-9.65c.17-.53.73-.83,1.26-.67.53.17.83.73.67,1.26l-2.98,9.65c-.13.43-.53.71-.97.71Z"/><path class="uuid-f0c0d2d2-479e-4fc0-8141-5c93791fa75c" d="M128.61,270.77v36.32c23.53,28.71,48.13,4.8,48.16,4.74l-11.5-48.12-36.66,7.05Z"/><path class="uuid-3be0b464-e1da-4e8b-b08b-f777799cc983" d="M154.13,322.24c-9.57,0-18.4-4.87-26.3-14.5-.15-.18-.23-.41-.23-.64v-36.32c0-.48.34-.9.82-.99l36.66-7.05c.53-.1,1.05.23,1.17.76l11.51,48.12c.06.23.03.48-.08.69-.26.52-8.82,8.5-20.39,9.77-1.06.12-2.11.17-3.16.17ZM129.62,306.73c7.07,8.52,14.92,13.05,23.32,13.45,11.6.57,20.74-6.93,22.71-8.69l-11.14-46.6-34.89,6.71v35.12Z"/><path class="uuid-f0c0d2d2-479e-4fc0-8141-5c93791fa75c" d="M129.47,275.3c-13.09-18.62-17.16-49.23-17.16-49.23l44.62-25.95c1.12.75,32.26,9.44,37.07,44.24,4.29,31-3.79,52.32-47.34,44.62"/><path class="uuid-3be0b464-e1da-4e8b-b08b-f777799cc983" d="M162.92,291.59c-4.9,0-10.37-.54-16.43-1.61-.55-.1-.92-.62-.82-1.17.1-.55.61-.91,1.17-.82,18.81,3.32,31.61,1.42,39.12-5.81,7.28-7.01,9.58-19.33,7.04-37.68-2.77-20.05-15.36-35.33-35.45-43.03-.23-.09-.41-.16-.56-.21l-43.58,25.35c.69,4.55,5.15,31.42,16.89,48.12.32.46.21,1.09-.24,1.41-.46.32-1.09.21-1.41-.25-13.08-18.61-17.29-49.37-17.33-49.68-.05-.4.14-.8.49-1.01l44.62-25.95c.33-.19.75-.18,1.07.03.08.04.36.14.78.3,20.81,7.97,33.85,23.83,36.73,44.64,2.63,19.03.13,31.92-7.64,39.41-5.52,5.32-13.59,7.96-24.45,7.96Z"/><path class="uuid-3be0b464-e1da-4e8b-b08b-f777799cc983" d="M138.26,192.47s-14.69-5.79-21.78-.31c-7.09,5.48.87,18.42.87,18.42,0,0-12.2-1.99-18.3,11.95-6.1,13.94,16.06,33.18,16.06,33.18,0,0,12.76-8.33,12.84-8.38-.25.16.74.8.82.83,1.14.42,3.12-1.41,3.69-2.18,1.05-1.41,1.29-3.47,1.99-5.11.83-1.95,1.87-3.81,3.08-5.55,4.75-6.77,12.25-11.69,20.49-12.85,4.85-.69,9.83-.18,14.65-1.09,6.02-1.13,11.58-4.54,15.33-9.38,3.75-4.84,5.65-11.08,5.23-17.19-.24-3.56-1.31-7.19-3.74-9.8-3.47-3.73-8.91-4.7-13.95-5.46-7.35-1.11-14.92-2.21-22.13-.43-7.21,1.78-14.06,7.18-15.19,14.52"/><path class="uuid-3be0b464-e1da-4e8b-b08b-f777799cc983" d="M178.55,241.6c.91,1.91,2.68,2.96,3.96,2.35,1.28-.61,1.58-2.65.67-4.56-.91-1.91-2.68-2.96-3.96-2.35-1.28.61-1.58,2.65-.67,4.56Z"/><path class="uuid-f0c0d2d2-479e-4fc0-8141-5c93791fa75c" d="M180.31,232.59c-2.72-.07-5.29,1.68-6.5,4.43"/><path class="uuid-3be0b464-e1da-4e8b-b08b-f777799cc983" d="M173.82,238.03c-.14,0-.27-.03-.41-.09-.51-.22-.74-.82-.52-1.33,1.38-3.14,4.29-5.13,7.45-5.04.56.01,1,.48.99,1.04-.01.56-.45.98-1.04.98-2.28-.07-4.5,1.44-5.55,3.83-.17.38-.54.6-.92.6Z"/><path class="uuid-3be0b464-e1da-4e8b-b08b-f777799cc983" d="M158.41,251.18c.91,1.91,2.68,2.96,3.96,2.35,1.28-.61,1.58-2.65.67-4.56-.91-1.91-2.68-2.96-3.96-2.35-1.28.61-1.58,2.65-.67,4.56Z"/><path class="uuid-f0c0d2d2-479e-4fc0-8141-5c93791fa75c" d="M160.16,242.16c-2.72-.07-5.28,1.68-6.5,4.43"/><path class="uuid-3be0b464-e1da-4e8b-b08b-f777799cc983" d="M153.67,247.61c-.14,0-.27-.03-.41-.09-.51-.22-.74-.82-.52-1.33,1.38-3.14,4.27-5.1,7.45-5.04.56.01,1,.48.99,1.04-.01.56-.47.98-1.04.98-2.33-.07-4.5,1.45-5.55,3.83-.17.38-.54.6-.92.6Z"/><path class="uuid-f0c0d2d2-479e-4fc0-8141-5c93791fa75c" d="M128.61,247.56s-13.85-9.25-19.86-5.68c-6.02,3.57.96,25.89,9.07,26.5,8.11.61,13.69-3.66,13.69-3.66"/><path class="uuid-3be0b464-e1da-4e8b-b08b-f777799cc983" d="M119.41,269.46c-.55,0-1.11-.02-1.68-.06-5.24-.39-9.76-8.21-11.53-15.72-1.48-6.3-.72-11.03,2.02-12.66,6.48-3.86,20.35,5.31,20.94,5.71.46.31.59.94.28,1.4-.31.46-.93.59-1.4.28-3.71-2.47-14.31-8.31-18.79-5.65-1.89,1.12-2.31,5.23-1.09,10.46,1.58,6.72,5.64,13.86,9.71,14.17,7.61.57,12.94-3.42,13-3.46.44-.34,1.08-.25,1.42.19.34.44.25,1.08-.19,1.41-.22.17-5.22,3.93-12.7,3.93Z"/><path class="uuid-3be0b464-e1da-4e8b-b08b-f777799cc983" d="M116.61,258.45c-.31,0-.62-.14-.82-.42-1-1.38-1.72-2.99-2.09-4.65-.32-1.44-.16-2.52.48-3.33.54-.68,1.44-1.09,2.4-1.1.66,0,1.42.18,2.21.57.99.49,1.89,1.2,2.6,2.05.36.43.3,1.07-.13,1.42-.43.36-1.07.3-1.42-.13-.53-.64-1.2-1.17-1.95-1.53-.49-.24-.91-.36-1.27-.36h-.02c-.35,0-.67.14-.83.34-.23.3-.26.85-.09,1.64.31,1.39.92,2.74,1.75,3.9.33.45.23,1.08-.23,1.41-.18.13-.39.19-.59.19Z"/><path class="uuid-f0c0d2d2-479e-4fc0-8141-5c93791fa75c" d="M171.02,244.65c1.3,2.77,5,10.21,6.3,12.97.78,1.67,1.58,3.4,1.42,5.19-.15,1.78-1.54,3.63-3.67,3.96"/><path class="uuid-3be0b464-e1da-4e8b-b08b-f777799cc983" d="M175.08,267.77c-.49,0-.92-.36-1-.86-.09-.55.29-1.07.84-1.15,1.68-.26,2.71-1.76,2.82-3.05.13-1.55-.65-3.21-1.33-4.67-.65-1.38-1.89-3.93-3.14-6.47-1.25-2.56-2.51-5.12-3.16-6.5-.24-.51-.02-1.11.49-1.34.5-.24,1.11-.02,1.34.49.65,1.38,1.89,3.93,3.14,6.47,1.25,2.56,2.51,5.12,3.16,6.5.79,1.69,1.69,3.61,1.52,5.7-.18,2.1-1.79,4.45-4.52,4.87-.05,0-.1.01-.16.01Z"/><path class="uuid-3be0b464-e1da-4e8b-b08b-f777799cc983" d="M166.52,274.34c-1.85,0-3.7-.45-5.34-1.33-2.59-1.39-4.57-3.81-5.42-6.62-.16-.53.14-1.1.67-1.26.53-.16,1.1.14,1.26.67.7,2.31,2.32,4.28,4.45,5.43,2.12,1.14,4.66,1.4,6.98.72.54-.16,1.1.15,1.25.68.16.54-.15,1.1-.68,1.26-1.03.31-2.1.46-3.17.46Z"/><g class="uuid-c57da571-e6ee-459d-8772-409ebb04805a"><path class="uuid-f0c0d2d2-479e-4fc0-8141-5c93791fa75c" d="M78.7,374.26c-4.08,0-7.41-3.32-7.41-7.41s3.32-7.41,7.41-7.41,7.41,3.32,7.41,7.41-3.32,7.41-7.41,7.41ZM78.7,361.47c-2.97,0-5.39,2.42-5.39,5.39s2.42,5.39,5.39,5.39,5.39-2.42,5.39-5.39-2.42-5.39-5.39-5.39Z"/></g><g class="uuid-c57da571-e6ee-459d-8772-409ebb04805a"><path class="uuid-f0c0d2d2-479e-4fc0-8141-5c93791fa75c" d="M82.02,349.14c-5.7,0-10.33-4.64-10.33-10.33s4.64-10.33,10.33-10.33,10.33,4.64,10.33,10.33-4.64,10.33-10.33,10.33ZM82.02,330.49c-4.58,0-8.31,3.73-8.31,8.31s3.73,8.31,8.31,8.31,8.31-3.73,8.31-8.31-3.73-8.31-8.31-8.31Z"/></g><g class="uuid-c57da571-e6ee-459d-8772-409ebb04805a"><path class="uuid-f0c0d2d2-479e-4fc0-8141-5c93791fa75c" d="M123.03,362.34c-5.23,0-9.48-4.25-9.48-9.48s4.25-9.48,9.48-9.48,9.48,4.25,9.48,9.48-4.25,9.48-9.48,9.48ZM123.03,345.4c-4.11,0-7.46,3.35-7.46,7.46s3.35,7.46,7.46,7.46,7.46-3.35,7.46-7.46-3.35-7.46-7.46-7.46Z"/></g><g class="uuid-c57da571-e6ee-459d-8772-409ebb04805a"><path class="uuid-f0c0d2d2-479e-4fc0-8141-5c93791fa75c" d="M129.6,426.14c-2.21,0-4.33-.76-6.05-2.19-1.95-1.62-3.15-3.9-3.38-6.42-.23-2.52.53-4.98,2.15-6.93,1.62-1.95,3.9-3.15,6.42-3.38,2.51-.23,4.98.53,6.93,2.15,1.95,1.62,3.15,3.9,3.38,6.42h0c.48,5.21-3.37,9.83-8.58,10.31-.29.03-.59.04-.88.04ZM129.63,409.2c-.23,0-.46.01-.69.03-1.98.18-3.78,1.13-5.05,2.66-1.27,1.53-1.88,3.47-1.69,5.45.18,1.98,1.12,3.78,2.66,5.05,1.53,1.27,3.47,1.88,5.45,1.69,4.1-.37,7.12-4.01,6.75-8.11-.18-1.98-1.13-3.78-2.66-5.05-1.35-1.12-3.02-1.73-4.76-1.73Z"/></g><g class="uuid-c57da571-e6ee-459d-8772-409ebb04805a"><path class="uuid-f0c0d2d2-479e-4fc0-8141-5c93791fa75c" d="M173.27,402.94c-5.04,0-9.15-4.1-9.15-9.15s4.1-9.15,9.15-9.15,9.15,4.1,9.15,9.15-4.1,9.15-9.15,9.15ZM173.27,386.66c-3.93,0-7.13,3.2-7.13,7.13s3.2,7.13,7.13,7.13,7.13-3.2,7.13-7.13-3.2-7.13-7.13-7.13Z"/></g><g class="uuid-c57da571-e6ee-459d-8772-409ebb04805a"><path class="uuid-f0c0d2d2-479e-4fc0-8141-5c93791fa75c" d="M177.13,446.26c-2.8,0-5.08-2.28-5.08-5.08s2.28-5.08,5.08-5.08,5.08,2.28,5.08,5.08-2.28,5.08-5.08,5.08ZM177.13,438.12c-1.69,0-3.06,1.37-3.06,3.06s1.37,3.06,3.06,3.06,3.06-1.37,3.06-3.06-1.37-3.06-3.06-3.06Z"/></g><g class="uuid-c57da571-e6ee-459d-8772-409ebb04805a"><path class="uuid-f0c0d2d2-479e-4fc0-8141-5c93791fa75c" d="M83.97,427.01c-1.71,0-3.41-.4-4.92-1.16-.5-.25-.7-.86-.45-1.36.25-.5.86-.7,1.35-.45,1.25.63,2.61.94,4.02.94,5.01,0,9.08-4.07,9.08-9.08s-4.07-9.08-9.08-9.08c-1.32,0-2.56.27-3.71.81-.51.24-1.11.02-1.34-.49-.24-.51-.02-1.11.49-1.34,1.41-.66,2.95-1,4.56-1,6.12,0,11.1,4.98,11.1,11.1s-4.98,11.1-11.1,11.1Z"/></g><g class="uuid-c57da571-e6ee-459d-8772-409ebb04805a"><path class="uuid-f0c0d2d2-479e-4fc0-8141-5c93791fa75c" d="M227.26,350.42c-3.33,0-6.04-2.71-6.04-6.03s2.71-6.04,6.04-6.04,6.03,2.71,6.03,6.04-2.71,6.03-6.03,6.03ZM227.26,340.37c-2.21,0-4.01,1.8-4.01,4.01s1.8,4.01,4.01,4.01,4.01-1.8,4.01-4.01-1.8-4.01-4.01-4.01Z"/></g><g class="uuid-c57da571-e6ee-459d-8772-409ebb04805a"><path class="uuid-f0c0d2d2-479e-4fc0-8141-5c93791fa75c" d="M155.3,378.86c-3.25,0-5.9-2.65-5.9-5.9s2.65-5.9,5.9-5.9,5.9,2.65,5.9,5.9-2.65,5.9-5.9,5.9ZM155.3,369.08c-2.14,0-3.88,1.74-3.88,3.88s1.74,3.88,3.88,3.88,3.88-1.74,3.88-3.88-1.74-3.88-3.88-3.88Z"/></g><g class="uuid-c57da571-e6ee-459d-8772-409ebb04805a"><path class="uuid-f0c0d2d2-479e-4fc0-8141-5c93791fa75c" d="M173.06,349.26c-4.15,0-7.53-3.38-7.53-7.53s3.38-7.53,7.53-7.53,7.53,3.38,7.53,7.53-3.38,7.53-7.53,7.53ZM173.06,336.22c-3.04,0-5.51,2.47-5.51,5.51s2.47,5.51,5.51,5.51,5.51-2.47,5.51-5.51-2.47-5.51-5.51-5.51Z"/></g><g class="uuid-c57da571-e6ee-459d-8772-409ebb04805a"><path class="uuid-f0c0d2d2-479e-4fc0-8141-5c93791fa75c" d="M150.41,450.84c-3.09,0-5.6-2.51-5.6-5.6s2.51-5.6,5.6-5.6,5.6,2.51,5.6,5.6-2.51,5.6-5.6,5.6ZM150.41,441.67c-1.97,0-3.58,1.6-3.58,3.58s1.6,3.58,3.58,3.58,3.58-1.6,3.58-3.58-1.6-3.58-3.58-3.58Z"/></g><path class="uuid-3be0b464-e1da-4e8b-b08b-f777799cc983" d="M384.78,517.42l76.08-.6c.19-4.2-1.34-8.01-3.98-10.74-2.64-2.73-6.37-4.41-10.58-4.37l-45.58.36c-8.42.07-15.57,6.94-15.95,15.36Z"/><polygon class="uuid-3be0b464-e1da-4e8b-b08b-f777799cc983" points="410.6 507.72 460.85 517.03 457.01 468.64 416.81 463.49 410.6 507.72"/><path class="uuid-3be0b464-e1da-4e8b-b08b-f777799cc983" d="M370.68,286.92c-6.33-.81-12.55,3.78-14.26,10.52l-39.78,157.51c-1.91,7.52,2.52,14.68,9.59,15.52l200.69,23.69c6.32.75,12.49-3.87,14.16-10.6l38.5-155.62c1.86-7.46-2.51-14.55-9.5-15.44"/><path class="uuid-f0c0d2d2-479e-4fc0-8141-5c93791fa75c" d="M528.62,463.32l32.84-131.85c1.55-6.21-2.49-12.14-8.8-12.95l-181.31-23.25c-3.29-.42-6.48,1.76-7.31,4.99l-34.97,137.47,199.54,25.59Z"/><path class="uuid-aea83887-4b9a-4def-b0f7-d50dfc0d12e3" d="M361.74,309.31l198.89,25.51.83-3.35c1.55-6.21-2.49-12.14-8.8-12.95l-181.31-23.26"/><path class="uuid-3be0b464-e1da-4e8b-b08b-f777799cc983" d="M542.17,325.48c-.21,1.16.56,2.21,1.72,2.36,1.16.15,2.28-.67,2.49-1.82.21-1.16-.56-2.21-1.72-2.36-1.16-.15-2.28.67-2.49,1.82Z"/><path class="uuid-3be0b464-e1da-4e8b-b08b-f777799cc983" d="M536.56,324.76c-.21,1.16.56,2.21,1.72,2.36s2.28-.67,2.49-1.82c.21-1.16-.56-2.21-1.72-2.36-1.16-.15-2.28.67-2.49,1.82Z"/><path class="uuid-3be0b464-e1da-4e8b-b08b-f777799cc983" d="M530.95,324.05c-.21,1.16.56,2.21,1.72,2.36s2.28-.67,2.49-1.82c.21-1.16-.56-2.21-1.72-2.36-1.16-.15-2.28.67-2.49,1.82Z"/><path class="uuid-f0c0d2d2-479e-4fc0-8141-5c93791fa75c" d="M430.16,465.2c-.51,2.8-3.22,4.78-6.04,4.42-2.82-.36-4.69-2.93-4.18-5.73.51-2.8,3.22-4.78,6.04-4.42,2.82.36,4.69,2.93,4.18,5.73Z"/><path class="uuid-3be0b464-e1da-4e8b-b08b-f777799cc983" d="M354.37,436.09c-.11,0-.21-.02-.32-.05-.53-.18-.81-.75-.64-1.28l51.36-153.53c.18-.53.75-.81,1.28-.64.53.18.81.75.64,1.28l-51.36,153.53c-.14.42-.54.69-.96.69Z"/><path class="uuid-3be0b464-e1da-4e8b-b08b-f777799cc983" d="M507.18,442.56c-.05,0-.1,0-.16-.01l-167.62-25.81c-.55-.08-.93-.6-.84-1.15.08-.55.6-.93,1.15-.84l167.62,25.81c.55.08.93.6.84,1.15-.08.5-.51.86-1,.86Z"/><path class="uuid-3be0b464-e1da-4e8b-b08b-f777799cc983" d="M516.98,445.66l-11.97,4.91c-2.34.97-4.54-.86-3.89-3.19l3.6-12.98c.65-2.34,3.64-3.35,5.27-1.78l8.37,8.05c1.51,1.45.77,4.11-1.39,4.99Z"/><path class="uuid-3be0b464-e1da-4e8b-b08b-f777799cc983" d="M414.84,282.62c.72,2.17-1.42,4.55-3.79,4.19l-13.03-2.01c-2.37-.36-3.07-3.18-1.25-4.97l9.32-9.11c1.68-1.63,4.37-1.21,5.02.77l3.72,11.12Z"/><path class="uuid-b9823eb7-5a36-45e8-a4d6-c4827c96ef7e" d="M372.56,409.02s6.58-31.5,23.48-36.29c16.89-4.8,24.66,12.05,34.01,12.63,9.35.58,15.7-36.63,27.31-37.94s5.96,17.78,15.44,17.86c9.74.09,8.46-26.74,31.34-26.31,22.88.43-6.8,89.27-6.8,89.27l-124.78-19.21Z"/><path class="uuid-f0c0d2d2-479e-4fc0-8141-5c93791fa75c" d="M394.56,407.04c-.53,0-1.06-.21-1.46-.62-.77-.81-.74-2.09.06-2.86,1.25-1.19,2.68-3.04,4.2-4.99,3.61-4.64,7.69-9.9,12.39-10.52,5.71-.74,9.3,3.69,12.48,7.6,2.71,3.33,5.28,6.44,8.64,6.36,5.39-.17,9.53-6.86,13.53-13.33,3.66-5.91,7.11-11.49,11.89-12.44,5.08-1.02,8.34,4.93,11.49,10.68,2.22,4.05,4.97,9.1,7.17,8.7,6.47-1.16,10.99-13.01,14.97-23.47,1.9-4.98,3.86-10.13,6.03-14.24.52-.99,1.74-1.36,2.73-.84.99.52,1.36,1.74.84,2.73-2.06,3.89-3.89,8.7-5.83,13.79-4.58,12.02-9.31,24.45-18.04,26.01-5.03.9-8.29-5.02-11.42-10.74-2.22-4.05-5.01-9.08-7.16-8.66-3.06.61-6.2,5.69-9.25,10.61-4.35,7.03-9.28,15-16.84,15.24-5.37.19-8.85-4.09-11.91-7.85-3.34-4.1-5.6-6.57-8.82-6.14-3.05.4-6.75,5.16-9.72,8.99-1.61,2.08-3.14,4.04-4.6,5.44-.39.37-.89.56-1.4.56Z"/><path class="uuid-3be0b464-e1da-4e8b-b08b-f777799cc983" d="M465.38,347.5c-.98,3.53-4.65,5.95-8.2,5.4-3.55-.55-5.63-3.85-4.65-7.38.98-3.53,4.65-5.95,8.2-5.4,3.55.55,5.63,3.85,4.65,7.38Z"/><path class="uuid-3be0b464-e1da-4e8b-b08b-f777799cc983" d="M415.37,375.63c-.98,3.53-4.65,5.95-8.2,5.4-3.55-.55-5.63-3.85-4.65-7.38.98-3.53,4.65-5.95,8.2-5.4,3.55.55,5.63,3.85,4.65,7.38Z"/><path class="uuid-3be0b464-e1da-4e8b-b08b-f777799cc983" d="M509.57,340.42c-.98,3.53-4.65,5.95-8.2,5.4-3.55-.55-5.63-3.85-4.65-7.38.98-3.53,4.65-5.95,8.2-5.4,3.55.55,5.63,3.85,4.65,7.38Z"/><path class="uuid-3be0b464-e1da-4e8b-b08b-f777799cc983" d="M324.69,107.85c-.19,0-.37-.03-.56-.08-1.07-.31-1.69-1.43-1.38-2.5l1.6-5.57c.31-1.07,1.43-1.69,2.5-1.38,1.07.31,1.69,1.43,1.38,2.5l-1.6,5.57c-.25.89-1.06,1.46-1.94,1.46Z"/><path class="uuid-3be0b464-e1da-4e8b-b08b-f777799cc983" d="M292.72,113.2c-.91,0-1.73-.61-1.96-1.53l-1.4-5.63c-.27-1.08.39-2.18,1.47-2.45,1.08-.27,2.18.39,2.45,1.47l1.4,5.63c.27,1.08-.39,2.18-1.47,2.45-.16.04-.33.06-.49.06Z"/><path class="uuid-3be0b464-e1da-4e8b-b08b-f777799cc983" d="M267.72,133.82c-.53,0-1.06-.21-1.45-.62l-4.03-4.17c-.77-.8-.75-2.08.05-2.86.8-.77,2.08-.75,2.86.05l4.03,4.17c.77.8.75,2.08-.05,2.86-.39.38-.9.57-1.4.57Z"/><path class="uuid-3be0b464-e1da-4e8b-b08b-f777799cc983" d="M256.38,164.18c-.19,0-.37-.03-.56-.08l-5.57-1.6c-1.07-.31-1.69-1.43-1.38-2.5.31-1.07,1.44-1.69,2.5-1.38l5.57,1.6c1.07.31,1.69,1.43,1.38,2.5-.25.89-1.06,1.46-1.94,1.46Z"/><path class="uuid-3be0b464-e1da-4e8b-b08b-f777799cc983" d="M373.7,210.69c-.53,0-1.06-.21-1.45-.62l-4.03-4.17c-.77-.8-.75-2.08.05-2.86.8-.77,2.08-.75,2.86.05l4.03,4.17c.77.8.75,2.08-.05,2.86-.39.38-.9.57-1.4.57Z"/><path class="uuid-3be0b464-e1da-4e8b-b08b-f777799cc983" d="M386.6,177.76c-.19,0-.37-.03-.56-.08l-5.57-1.6c-1.07-.31-1.69-1.43-1.38-2.5.31-1.07,1.43-1.69,2.5-1.38l5.57,1.6c1.07.31,1.69,1.43,1.38,2.5-.25.89-1.06,1.46-1.94,1.46Z"/><path class="uuid-3be0b464-e1da-4e8b-b08b-f777799cc983" d="M375.67,144.19c-.91,0-1.73-.61-1.96-1.53-.27-1.08.39-2.18,1.47-2.45l5.63-1.4c1.09-.27,2.18.39,2.45,1.47.27,1.08-.39,2.18-1.47,2.45l-5.63,1.4c-.16.04-.33.06-.49.06Z"/><path class="uuid-3be0b464-e1da-4e8b-b08b-f777799cc983" d="M355.05,119.19c-.53,0-1.06-.21-1.45-.62-.77-.8-.75-2.08.05-2.86l4.17-4.03c.8-.77,2.08-.75,2.86.05.77.8.75,2.08-.05,2.86l-4.17,4.03c-.39.38-.9.57-1.4.57Z"/><path class="uuid-b9823eb7-5a36-45e8-a4d6-c4827c96ef7e" d="M336.76,224.07c-1.14,4.71-4.82,8.16-9.23,9.24-1.88.46-3.92.48-5.94,0l-33.56-8.15c-6.75-1.63-10.89-8.42-9.24-15.16,1.15-4.73,4.81-8.18,9.24-9.25,1.88-.46,3.92-.48,5.94,0l33.56,8.15c6.73,1.63,10.87,8.43,9.23,15.18Z"/><path class="uuid-8d86f9d8-9e71-4ccb-ad4e-8f12e10352ab" d="M335.57,166.33c-2,10.02-11.74,16.53-21.77,14.54-10.02-2-16.53-11.74-14.54-21.77,2-10.02,25.35-32.52,25.35-32.52,0,0,12.95,29.72,10.95,39.75Z"/><path class="uuid-f0c0d2d2-479e-4fc0-8141-5c93791fa75c" d="M322.08,162.24c.76,3.12-1.15,6.26-4.27,7.02-3.12.76-6.26-1.15-7.02-4.27-.76-3.12,1.15-6.26,4.27-7.02,3.12-.76,6.26,1.15,7.02,4.27Z"/><circle class="uuid-8d86f9d8-9e71-4ccb-ad4e-8f12e10352ab" cx="47.93" cy="247.64" r="38.44"/><polygon class="uuid-f0c0d2d2-479e-4fc0-8141-5c93791fa75c" points="41.45 266.28 29.17 254 34.89 248.28 41.45 254.85 60.98 235.32 66.69 241.04 41.45 266.28"/><path class="uuid-b5f3c9af-3e90-4730-b117-9cf95dde7847" d="M518.56,251.14l-6.29,3.96c-2.95,1.84-6.83.96-8.68-1.97l-3.96-6.29c-1.85-2.93-.96-6.81,1.97-8.66l6.3-3.98c2.93-1.85,6.81-.96,8.68,1.97l3.96,6.31c1.85,2.93.96,6.81-1.97,8.66Z"/><path class="uuid-b5f3c9af-3e90-4730-b117-9cf95dde7847" d="M94.59,146.75l-5.79,3.64c-2.72,1.69-6.29.88-7.99-1.82l-3.64-5.79c-1.7-2.7-.89-6.27,1.81-7.97l5.79-3.66c2.7-1.7,6.27-.89,7.99,1.82l3.64,5.81c1.7,2.7.89,6.27-1.81,7.97Z"/><path class="uuid-b5f3c9af-3e90-4730-b117-9cf95dde7847" d="M537.95,105.38l-3.69,2.33c-1.73,1.08-4.01.56-5.1-1.16l-2.33-3.69c-1.08-1.72-.57-4,1.16-5.09l3.7-2.34c1.72-1.08,4-.57,5.1,1.16l2.32,3.71c1.08,1.72.57,4-1.16,5.09Z"/><path class="uuid-b5f3c9af-3e90-4730-b117-9cf95dde7847" d="M258.57,10.52l-3.7,2.33c-1.73,1.08-4.01.56-5.1-1.16l-2.33-3.69c-1.08-1.72-.57-4,1.16-5.09l3.7-2.34c1.72-1.08,4-.57,5.1,1.16l2.32,3.71c1.08,1.72.57,4-1.16,5.09Z"/></svg>