<?xml version="1.0" encoding="UTF-8"?><svg id="uuid-adff6f48-44ce-46f0-b4c1-8d82439da1f6" xmlns="http://www.w3.org/2000/svg" viewBox="0 0 580 526.9"><defs><style>.uuid-f4f43d48-e68c-4b0b-91c6-2c52dc8fd05b{fill:#2dc874;}.uuid-3b7f7556-64df-498e-890a-f4b3b1e21bda{fill:#0081ff;}.uuid-ee8e7796-0ab6-4c57-8866-0cd0adbb68ab{fill:#c0eed5;}.uuid-ba097b7e-4e45-4bb7-bcc7-f2e7e70380e0{fill:#fff;}.uuid-2b775f6c-d273-4a7b-8397-b0203ae0cba8{fill:#cddbf9;}.uuid-70bf79c4-dc96-407d-aa55-82aedd239241{fill:#ffa58d;}.uuid-2fc62ead-a6cf-449d-ab99-ae9ebee60663{fill:#0b135e;}.uuid-3a720049-6419-47be-b36b-08d06b1bacba{opacity:.6;}.uuid-56d0ae70-7854-4dc2-a6b4-6aeb6709d2cd{fill:#ebf0fe;}.uuid-34f8a05a-fa99-42b7-95bf-80851c8110c0{fill:#4970fa;}.uuid-b37c793d-c417-46af-aab8-e292f4bcbf58{fill:#ffcc3d;}.uuid-2a244dcb-dfc3-4b72-8d61-6a0aef941b11{fill:#ff4301;}</style></defs><rect class="uuid-ba097b7e-4e45-4bb7-bcc7-f2e7e70380e0" x=".77" y=".77" width="354.69" height="349.37"/><path class="uuid-2fc62ead-a6cf-449d-ab99-ae9ebee60663" d="M355.46,350.9H.77c-.42,0-.77-.34-.77-.77V.77c0-.42.34-.77.77-.77h354.69c.42,0,.77.34.77.77v349.37c0,.42-.34.77-.77.77ZM1.53,349.37h353.16V1.53H1.53v347.84Z"/><rect class="uuid-56d0ae70-7854-4dc2-a6b4-6aeb6709d2cd" x="178.48" y="270.21" width="47.43" height="43.65"/><rect class="uuid-56d0ae70-7854-4dc2-a6b4-6aeb6709d2cd" x="234.03" y="270.21" width="47.43" height="43.65"/><rect class="uuid-56d0ae70-7854-4dc2-a6b4-6aeb6709d2cd" x="289.58" y="270.21" width="47.43" height="43.65"/><rect class="uuid-56d0ae70-7854-4dc2-a6b4-6aeb6709d2cd" x="178.48" y="213.15" width="158.52" height="42.9"/><rect class="uuid-2fc62ead-a6cf-449d-ab99-ae9ebee60663" x=".77" y=".77" width="354.69" height="40.91"/><path class="uuid-2fc62ead-a6cf-449d-ab99-ae9ebee60663" d="M355.46,42.44H.77c-.42,0-.77-.34-.77-.77V.77C0,.34.34,0,.77,0h354.69c.42,0,.77.34.77.77v40.91c0,.42-.34.77-.77.77ZM1.53,40.91h353.16V1.53H1.53v39.38Z"/><path class="uuid-b37c793d-c417-46af-aab8-e292f4bcbf58" d="M23.9,22.73c0,3.01-2.43,5.45-5.45,5.45s-5.45-2.44-5.45-5.45,2.44-5.46,5.45-5.46,5.45,2.44,5.45,5.46Z"/><path class="uuid-3b7f7556-64df-498e-890a-f4b3b1e21bda" d="M57.4,22.73c0,3.01-2.43,5.45-5.45,5.45s-5.45-2.44-5.45-5.45,2.44-5.46,5.45-5.46,5.45,2.44,5.45,5.46Z"/><path class="uuid-2a244dcb-dfc3-4b72-8d61-6a0aef941b11" d="M40.65,22.73c0,3.01-2.43,5.45-5.45,5.45s-5.45-2.44-5.45-5.45,2.44-5.46,5.45-5.46,5.45,2.44,5.45,5.46Z"/><path class="uuid-ba097b7e-4e45-4bb7-bcc7-f2e7e70380e0" d="M115.63,519.98c6.42-2.49,72.17-29.04-8.42-66.55,0,0-6.94,6.98-8.25,25.87-1.32,18.89,2.5,38.29,16.67,40.68Z"/><path class="uuid-2fc62ead-a6cf-449d-ab99-ae9ebee60663" d="M115.63,520.74s-.09,0-.13-.01c-12.5-2.11-18.97-17.62-17.3-41.49,1.31-18.96,8.18-26.06,8.47-26.36.23-.23.57-.29.86-.15,27.09,12.61,40.62,25.4,40.2,38-.56,16.99-26.61,27.94-31.83,29.96-.09.03-.18.05-.28.05ZM107.41,454.36c-1.39,1.71-6.58,9.08-7.68,24.99-.6,8.58-1.21,36.73,15.83,39.84,5.49-2.15,30.13-12.67,30.66-28.51.39-11.85-12.66-24.07-38.8-36.32Z"/><path class="uuid-3b7f7556-64df-498e-890a-f4b3b1e21bda" d="M62.37,526.13c-1.67-.13-3.07-1.34-3.41-3l-17.3-85.88c-.45-2.21,1.15-4.3,3.39-4.47l2.84-.19,2.13-.16,1.7-.12c3.22-.22,6.38,1.11,8.48,3.6l13.37,19.89,1.26,1.86,2.41,3.58,1.25,1.86,2.59,3.85,1.23,1.83,4.83,7.18,2.47-.52,8.97,42.72-29.21,6.42-2.07.46-4.93,1.09Z"/><path class="uuid-2fc62ead-a6cf-449d-ab99-ae9ebee60663" d="M62.37,526.9s-.04,0-.06,0c-2.01-.15-3.7-1.64-4.1-3.61l-17.3-85.88c-.26-1.26.04-2.58.82-3.61.78-1.03,1.97-1.68,3.26-1.78l6.67-.47c3.46-.26,6.87,1.21,9.12,3.87l26.7,39.68,1.96-.41c.41-.08.82.18.91.59l8.97,42.72c.09.41-.18.81-.58.9l-36.2,7.96c-.05.01-.11.02-.16.02ZM52.42,433.06c-.22,0-.43,0-.64.02l-6.67.47c-.85.06-1.63.49-2.15,1.18-.51.68-.71,1.55-.54,2.38l17.3,85.88c.26,1.27,1.32,2.23,2.61,2.37l35.35-7.78-8.65-41.23-1.72.36c-.31.07-.62-.06-.79-.32l-26.93-40.05c-1.74-2.07-4.39-3.29-7.15-3.29Z"/><path class="uuid-2fc62ead-a6cf-449d-ab99-ae9ebee60663" d="M62.37,526.13c-1.67-.13-3.07-1.34-3.41-3l-17.3-85.88c-.45-2.21,1.15-4.3,3.39-4.47l4.97-.35,19.34,92.15-2.07.46-4.93,1.09Z"/><path class="uuid-ba097b7e-4e45-4bb7-bcc7-f2e7e70380e0" d="M96.24,518.79l-9.1-42.83,41.84-8.78c2.62,5.51,4.99,12.4,6.63,20.19,1.68,8.01,2.4,15.81,2.35,22.47-5.82,1.11-36.05,7.57-41.72,8.94Z"/><path class="uuid-2fc62ead-a6cf-449d-ab99-ae9ebee60663" d="M96.24,519.56c-.14,0-.28-.04-.41-.12-.18-.11-.3-.29-.34-.49l-9.1-42.83c-.04-.2,0-.41.11-.58.11-.17.29-.29.48-.33l41.84-8.78c.35-.07.7.1.85.42,2.83,5.96,5.14,13,6.69,20.36,1.6,7.63,2.42,15.45,2.37,22.64,0,.36-.26.68-.62.75-5.81,1.11-35.92,7.54-41.68,8.94-.06.01-.12.02-.18.02ZM88.04,476.55l8.78,41.32c7.04-1.65,33.57-7.32,40.37-8.65,0-6.9-.81-14.39-2.34-21.69-1.47-7.02-3.65-13.74-6.31-19.48l-40.49,8.5Z"/><polygon class="uuid-2fc62ead-a6cf-449d-ab99-ae9ebee60663" points="77.77 476 76.06 474.94 81.08 466.96 82.31 468.79 77.77 476"/><polygon class="uuid-2fc62ead-a6cf-449d-ab99-ae9ebee60663" points="74.14 470.52 72.4 469.5 77.24 461.25 78.49 463.11 74.14 470.52"/><polygon class="uuid-2fc62ead-a6cf-449d-ab99-ae9ebee60663" points="70.5 465.05 68.76 464.03 73.57 455.81 74.83 457.67 70.5 465.05"/><path class="uuid-ba097b7e-4e45-4bb7-bcc7-f2e7e70380e0" d="M411.39,411.83s6.87,5.33,0,0c-29.83-23.15-114.97-107.66-160.32-99.53-45.35,8.13-105.82,180.78-105.82,180.78l72.26,7.9,54.27-105.08,89.38,71.45c29-11.13,43.48-31,50.23-55.53Z"/><path class="uuid-2fc62ead-a6cf-449d-ab99-ae9ebee60663" d="M217.51,501.75s-.05,0-.08,0l-72.26-7.9c-.23-.02-.44-.15-.56-.35-.12-.2-.15-.44-.07-.66.15-.43,15.37-43.71,35.93-87.41,27.7-58.87,51.41-90.45,70.47-93.87,37.11-6.65,100.69,48.2,138.67,80.97,8.91,7.69,16.61,14.33,22.25,18.71,0,0,0,0,0,0l3.05,2.37c.19.15.3.38.3.6,0,.16-.05.33-.16.47-.26.34-.74.39-1.07.14l-2.15-1.67c-7.7,26.9-24.19,44.88-50.38,54.94-.25.1-.54.05-.75-.12l-88.66-70.87-53.84,104.25c-.13.26-.4.41-.68.41ZM146.29,492.43l70.78,7.74,54.03-104.61c.1-.2.3-.35.52-.4.23-.04.46,0,.64.15l89.04,71.18c25.66-9.98,41.77-27.77,49.22-54.37-5.63-4.4-13.19-10.92-21.91-18.45-37.78-32.59-101.02-87.15-137.4-80.62-42.71,7.66-100.08,165.84-104.91,179.37Z"/><line class="uuid-ba097b7e-4e45-4bb7-bcc7-f2e7e70380e0" x1="271.78" y1="395.91" x2="279.85" y2="377.73"/><path class="uuid-2fc62ead-a6cf-449d-ab99-ae9ebee60663" d="M271.78,396.67c-.1,0-.21-.02-.31-.07-.39-.17-.56-.62-.39-1.01l8.07-18.17c.17-.39.62-.56,1.01-.39.39.17.56.62.39,1.01l-8.07,18.17c-.13.28-.41.45-.7.45Z"/><path class="uuid-ba097b7e-4e45-4bb7-bcc7-f2e7e70380e0" d="M115.63,519.98l168.76-16.24s140.34,21.26,184.12,12.7c43.78-8.55,43.91-76.28,43.91-76.28l-100.72-28.32-16.64,18.29s-70.56-6.34-94.1-5.28c-48.91,2.21-193.76,28.58-193.76,28.58,29.39,42.48,9.94,64.07,8.42,66.55Z"/><path class="uuid-2fc62ead-a6cf-449d-ab99-ae9ebee60663" d="M115.63,520.74c-.26,0-.51-.13-.65-.36-.15-.25-.16-.56,0-.8.1-.16.27-.41.51-.73,11.84-16.5,8.68-39.58-8.9-64.99-.15-.21-.18-.49-.08-.73.1-.24.31-.41.57-.46,1.45-.26,145.46-26.4,193.86-28.59,22.44-1.01,88.2,4.75,93.82,5.24l16.38-18.01c.2-.21.49-.3.77-.22l100.72,28.32c.33.09.56.39.56.74,0,.17-.1,17.25-5.57,35.15-7.29,23.84-20.76,38.32-38.96,41.87-42.94,8.4-179.97-12.03-184.29-12.68l-168.67,16.23s-.05,0-.07,0ZM108.51,453.97c17.15,25.25,20.22,48.29,8.7,65.09l167.11-16.09c.06,0,.12,0,.19,0,1.4.21,140.71,21.14,183.86,12.7,40.52-7.91,43.12-68.35,43.28-74.95l-99.69-28.03-16.32,17.94c-.16.18-.41.27-.63.25-.71-.06-70.78-6.32-93.99-5.27-45.99,2.08-178.64,25.86-192.49,28.36Z"/><path class="uuid-3b7f7556-64df-498e-890a-f4b3b1e21bda" d="M273.53,213.15s-1.27-6.15-16.55-1.47c-15.28,4.68-27.7,25.12-20.73,31.74s25.84,7.64,25.84,7.64l8.77-14.84,5.45-13.81-2.77-9.27Z"/><path class="uuid-2fc62ead-a6cf-449d-ab99-ae9ebee60663" d="M262.08,251.84s-.03,0-.04,0c-.78-.04-19.23-1.11-26.32-7.85-2.12-2.02-2.74-5.21-1.8-9.22,2.06-8.75,11.73-20.41,22.84-23.81,7.14-2.19,12.3-2.38,15.34-.58,1.71,1.01,2.11,2.3,2.17,2.59l2.76,9.24c.05.16.04.34-.02.5l-5.45,13.81s-.03.07-.05.11l-8.77,14.84c-.14.23-.39.38-.66.38ZM266.69,210.69c-2.25,0-5.32.45-9.49,1.73-10.6,3.25-19.83,14.36-21.79,22.7-.57,2.41-.79,5.71,1.36,7.76,6.09,5.79,21.98,7.19,24.89,7.4l8.5-14.38,5.33-13.51-2.69-9.01s0-.03-.01-.05c-.01-.06-.26-.95-1.55-1.68-.91-.52-2.34-.95-4.55-.95Z"/><path class="uuid-ba097b7e-4e45-4bb7-bcc7-f2e7e70380e0" d="M268.69,209.29c.83,4.08,1.28,7.28,1.28,7.28l8.19,11.16c-2.06,3.84-1.12,13.61-5.4,17.26-5.11,4.36-6.87,9.52-12.05,11.06l-18.57-19.9s-1.51-1.19-3.8-3.1c-6.74-5.63-20.14-17.49-20.95-23.35-.98-7.23,7.03-2.74,8.65-1.74-1.43-1.01-7.21-5.32-6.13-10.54,1.18-5.59,9.23.67,9.59.96-.28-.36-7.84-10.18-3.47-14.34,3.32-3.17,9.17,5.54,9.53,6.09-.18-.53-2.97-8.93,1.08-11.19,6.31-3.5,18.83,23.78,19.14,24.47"/><path class="uuid-2fc62ead-a6cf-449d-ab99-ae9ebee60663" d="M260.72,256.82c-.21,0-.41-.09-.56-.24l-18.53-19.85c-.27-.21-1.71-1.35-3.77-3.07-7.57-6.33-20.39-17.83-21.22-23.83-.29-2.17.14-3.65,1.3-4.4,1.04-.67,2.48-.59,3.9-.2-1.81-2.09-3.3-4.86-2.66-7.94.37-1.75,1.35-2.45,2.1-2.72,1.61-.58,3.73.19,5.49,1.12-2.09-3.52-4.5-9.08-1.24-12.18.72-.69,1.63-.99,2.6-.88,2.05.23,4.23,2.26,5.84,4.12-.49-2.97-.49-6.88,2.33-8.46.85-.47,1.8-.53,2.83-.19,6.81,2.24,16.31,22.69,17.38,25.01.18.38,0,.84-.38,1.01-.38.18-.84,0-1.01-.38-3.49-7.64-11.42-22.54-16.46-24.2-.62-.2-1.15-.18-1.61.08-2.81,1.57-1.7,7.41-.72,10.27.12.36-.04.76-.39.93-.34.17-.76.06-.98-.26-1.4-2.11-4.66-6.16-6.99-6.42-.54-.06-.97.09-1.37.47-3.85,3.66,3.46,13.21,3.54,13.31.24.3.22.74-.06,1.02-.28.27-.71.3-1.02.06-1.26-1-5.28-3.7-7.25-2.99-.57.2-.94.73-1.12,1.59-.92,4.44,3.76,8.3,5.82,9.75.34.24.42.7.2,1.05-.23.34-.69.45-1.04.23-2.44-1.5-5.63-2.73-6.88-1.92-.77.5-.76,1.86-.61,2.91.56,4.01,8.09,12.34,20.68,22.86,2.28,1.89,3.78,3.08,3.79,3.08.03.02.06.05.08.08l18.24,19.54c2.7-.96,4.43-3.08,6.42-5.51,1.35-1.65,2.88-3.52,4.91-5.25,2.4-2.05,3.05-6.46,3.62-10.36.35-2.38.68-4.64,1.39-6.24l-7.92-10.79c-.07-.1-.12-.22-.14-.34,0-.03-.46-3.23-1.27-7.23-.08-.41.18-.82.6-.9.41-.08.82.18.9.6.71,3.49,1.15,6.38,1.26,7.13l8.08,11.01c.17.24.2.55.06.81-.73,1.37-1.08,3.71-1.44,6.18-.61,4.16-1.3,8.88-4.14,11.3-1.92,1.64-3.34,3.38-4.72,5.06-2.16,2.64-4.2,5.14-7.61,6.16-.07.02-.15.03-.22.03Z"/><path class="uuid-2fc62ead-a6cf-449d-ab99-ae9ebee60663" d="M242.97,202.75c-.26,0-.51-.13-.65-.36l-7.38-11.81c-.22-.36-.12-.83.24-1.05.36-.22.83-.12,1.05.24l7.38,11.81c.22.36.12.83-.24,1.05-.13.08-.27.12-.4.12Z"/><path class="uuid-2fc62ead-a6cf-449d-ab99-ae9ebee60663" d="M236.98,207.21c-.21,0-.41-.08-.56-.24l-7.46-8.03c-.29-.31-.27-.79.04-1.08.31-.29.79-.27,1.08.04l7.46,8.03c.29.31.27.79-.04,1.08-.15.14-.33.2-.52.2Z"/><path class="uuid-2fc62ead-a6cf-449d-ab99-ae9ebee60663" d="M232.86,214.25c-.17,0-.34-.06-.48-.17l-6.7-5.44c-.33-.27-.38-.75-.11-1.08.27-.33.75-.38,1.08-.11l6.7,5.44c.33.27.38.75.11,1.08-.15.19-.37.28-.59.28Z"/><path class="uuid-2fc62ead-a6cf-449d-ab99-ae9ebee60663" d="M249.56,218.26c-.39,0-.72-.29-.76-.68-.49-4.59,5-7,6.87-7.69l-.63-6.37c-.04-.42.27-.8.69-.84.42-.05.8.27.84.69l.7,6.97c.04.36-.19.7-.54.81-.07.02-6.83,2.11-6.39,6.26.04.42-.26.8-.68.84-.03,0-.05,0-.08,0Z"/><path class="uuid-3b7f7556-64df-498e-890a-f4b3b1e21bda" d="M431.01,255.79s-23.15-7.92-47.47-4.38c-13.04,1.9-58.02,34.88-60.33,35.15l-49.67-73.4c.27,21.52-17.26,29.07-37.29,30.28,0,0,49.47,100.56,70.63,106.23,22.33,5.99,96.03-39.99,96.03-39.99l28.1-53.88Z"/><path class="uuid-2fc62ead-a6cf-449d-ab99-ae9ebee60663" d="M311.5,350.96c-1.79,0-3.4-.18-4.83-.56-21.25-5.7-69.09-102.52-71.12-106.63-.11-.23-.1-.5.02-.72.13-.22.36-.36.62-.38,16.84-1.01,36.85-6.96,36.57-29.5,0-.34.21-.64.54-.74.32-.1.67.02.86.3l49.33,72.9c1.46-.77,6.11-3.88,11-7.14,14.83-9.91,39.66-26.48,48.93-27.83,24.23-3.53,47.6,4.33,47.83,4.41.21.07.38.23.46.44s.07.44-.03.64l-28.1,53.88c-.06.12-.16.22-.27.3-2.83,1.76-65.47,40.64-91.81,40.64ZM237.44,244.12c5.29,10.62,50.18,99.59,69.64,104.81,21.21,5.7,91.22-37.29,95.25-39.79l27.58-52.89c-4.38-1.35-25-7.17-46.26-4.08-8.93,1.3-33.58,17.76-48.3,27.59-8.91,5.95-11.26,7.47-12.05,7.56-.29.03-.56-.1-.72-.33l-48.32-71.4c-.88,17.01-13.55,26.85-36.81,28.54Z"/><line class="uuid-34f8a05a-fa99-42b7-95bf-80851c8110c0" x1="323.2" y1="286.56" x2="331.23" y2="301.48"/><path class="uuid-2fc62ead-a6cf-449d-ab99-ae9ebee60663" d="M331.23,302.25c-.27,0-.54-.15-.67-.4l-8.02-14.93c-.2-.37-.06-.84.31-1.04.38-.2.84-.06,1.04.31l8.02,14.93c.2.37.06.84-.31,1.04-.12.06-.24.09-.36.09Z"/><path class="uuid-3b7f7556-64df-498e-890a-f4b3b1e21bda" d="M282.51,228.14s-3.1,28.33-37.47,32.72"/><path class="uuid-2fc62ead-a6cf-449d-ab99-ae9ebee60663" d="M245.04,261.63c-.38,0-.71-.28-.76-.67-.05-.42.24-.8.66-.86,33.38-4.26,36.77-31.77,36.8-32.05.05-.42.42-.74.84-.68.42.05.72.42.68.84-.03.29-3.57,28.98-38.13,33.4-.03,0-.07,0-.1,0Z"/><line class="uuid-34f8a05a-fa99-42b7-95bf-80851c8110c0" x1="278.06" y1="240.6" x2="269.91" y2="228.09"/><path class="uuid-2fc62ead-a6cf-449d-ab99-ae9ebee60663" d="M278.06,241.36c-.25,0-.5-.12-.64-.35l-8.14-12.51c-.23-.35-.13-.83.22-1.06.36-.23.83-.13,1.06.22l8.14,12.51c.23.35.13.83-.22,1.06-.13.08-.27.12-.42.12Z"/><line class="uuid-34f8a05a-fa99-42b7-95bf-80851c8110c0" x1="252.69" y1="240.58" x2="261.99" y2="255.85"/><path class="uuid-2fc62ead-a6cf-449d-ab99-ae9ebee60663" d="M261.99,256.62c-.26,0-.51-.13-.65-.37l-9.3-15.27c-.22-.36-.11-.83.26-1.05.36-.22.83-.11,1.05.26l9.3,15.27c.22.36.11.83-.26,1.05-.12.08-.26.11-.4.11Z"/><path class="uuid-3b7f7556-64df-498e-890a-f4b3b1e21bda" d="M379.94,384.08c12.28,13.86,50.11,59.4,133.8,59.71,9.08-28.91,13.53-130.05,12.27-153.67-1.13-21.22-30.43-34.34-47.83-32.52-16.36,5.98-30.05,4.87-30.05,4.87,0,0-7.24-3.09-18.11-6.7-6.84-2.27-31.61.91-38.4,18.18-4.98,12.68-5.77,59.89-5.77,59.89-3.56,38.04-5.91,50.23-5.91,50.23Z"/><path class="uuid-2fc62ead-a6cf-449d-ab99-ae9ebee60663" d="M513.74,444.56h0c-34.92-.13-65.98-8.15-92.32-23.83-21.45-12.77-34.17-27.21-41.01-34.96l-1.04-1.18c-.16-.18-.22-.42-.18-.65.02-.12,2.39-12.61,5.9-50.16,0-.3.64-36.36,4.11-53.76.08-.41.49-.68.9-.6.41.08.68.49.6.9-3.44,17.26-4.07,53.18-4.08,53.54-3.2,34.16-5.45,47.66-5.86,49.99l.8.9c12.61,14.3,50.9,57.76,131.62,58.27,9.09-30,13.27-130.43,12.07-152.86-.38-7.1-4.11-13.86-10.78-19.56-9.67-8.25-24.85-13.4-36.11-12.25-16.3,5.93-30.14,4.89-30.29,4.88-.08,0-.16-.03-.24-.06-.07-.03-7.33-3.12-18.05-6.67-.4-.13-.62-.57-.49-.97.13-.4.56-.62.97-.49,10.02,3.32,17.05,6.25,18.05,6.67,1.37.09,14.4.72,29.61-4.84.06-.02.12-.04.18-.04,11.65-1.22,27.37,4.08,37.36,12.6,7,5.97,10.91,13.11,11.31,20.64,1.21,22.63-3.05,124.48-12.3,153.94-.1.32-.4.54-.73.54Z"/><path class="uuid-ba097b7e-4e45-4bb7-bcc7-f2e7e70380e0" d="M462.87,281.27c-12.74-.93-17.14-11.83-17.14-11.83,0,0-16.3,10.11-23.4,4.86-7.09-5.26,7.7-18.51,7.7-18.51l17.17,1.42,30.99.4s-.41,24.75-15.31,23.66Z"/><path class="uuid-2fc62ead-a6cf-449d-ab99-ae9ebee60663" d="M463.81,282.07c-.33,0-.66-.01-1-.04h0c-11.01-.8-16.06-8.9-17.41-11.51-3.33,1.94-16.9,9.29-23.53,4.39-1.4-1.04-2.15-2.42-2.23-4.12-.29-6.4,9.45-15.21,9.87-15.58.16-.14.36-.21.57-.19l17.17,1.42,30.94.4c.2,0,.4.09.54.23.14.15.22.34.22.55,0,.61-.33,15-7.35,21.43-2.19,2-4.8,3.01-7.78,3.01ZM445.73,268.67c.08,0,.16.01.24.04.21.07.39.23.47.44.04.1,4.39,10.47,16.49,11.36h0c2.96.22,5.52-.65,7.63-2.58,5.66-5.18,6.66-16.51,6.83-19.56l-30.2-.39-16.89-1.4c-1.49,1.39-9.36,8.98-9.12,14.15.06,1.23.58,2.19,1.61,2.96,6.6,4.89,22.39-4.8,22.54-4.89.12-.08.26-.11.4-.11Z"/><polygon class="uuid-2fc62ead-a6cf-449d-ab99-ae9ebee60663" points="483.91 430.25 411.98 414.72 398.84 422.91 483.91 430.25"/><path class="uuid-2fc62ead-a6cf-449d-ab99-ae9ebee60663" d="M483.91,431.01s-.04,0-.07,0l-85.07-7.34c-.33-.03-.6-.26-.68-.58-.08-.32.06-.65.34-.83l13.14-8.18c.17-.1.37-.14.57-.1l71.93,15.53c.39.09.66.46.59.86-.06.38-.38.65-.76.65ZM401.19,422.34l70.74,6.11-59.82-12.91-10.93,6.81Z"/><rect class="uuid-2fc62ead-a6cf-449d-ab99-ae9ebee60663" x="396.6" y="426.49" width="87.17" height="7.07" transform="translate(841.75 896.3) rotate(-175.07)"/><path class="uuid-2fc62ead-a6cf-449d-ab99-ae9ebee60663" d="M483.3,438.06s-.04,0-.07,0l-86.85-7.5c-.42-.04-.73-.41-.7-.83l.61-7.04c.02-.2.11-.39.27-.52.16-.13.36-.19.56-.18l86.85,7.5c.42.04.73.41.7.83l-.61,7.04c-.02.2-.11.39-.27.52-.14.12-.31.18-.49.18ZM397.28,429.1l85.32,7.36.48-5.52-85.32-7.36-.48,5.52Z"/><polygon class="uuid-ba097b7e-4e45-4bb7-bcc7-f2e7e70380e0" points="281.46 326.34 294.03 420.96 406.96 430.7 393.97 333.03 281.46 326.34"/><path class="uuid-2fc62ead-a6cf-449d-ab99-ae9ebee60663" d="M406.96,431.47s-.04,0-.07,0l-112.93-9.75c-.36-.03-.65-.31-.69-.66l-12.57-94.62c-.03-.23.04-.45.2-.62.15-.17.37-.26.61-.24l112.52,6.7c.37.02.66.3.71.66l12.98,97.67c.03.23-.04.46-.21.63-.14.15-.34.24-.55.24ZM294.71,420.25l111.36,9.61-12.78-96.1-110.96-6.6,12.37,93.09Z"/><polygon class="uuid-2b775f6c-d273-4a7b-8397-b0203ae0cba8" points="393.97 333.03 406.96 430.7 417.71 431.63 404.72 333.96 393.97 333.03"/><path class="uuid-2fc62ead-a6cf-449d-ab99-ae9ebee60663" d="M417.71,432.39s-.04,0-.07,0l-10.75-.93c-.36-.03-.65-.31-.69-.66l-12.98-97.67c-.03-.23.04-.46.21-.63.16-.17.39-.25.62-.23l10.75.93c.36.03.65.31.69.66l12.98,97.67c.03.23-.04.46-.21.63-.14.15-.34.24-.55.24ZM407.64,429.99l9.19.79-12.78-96.11-9.19-.79,12.78,96.11Z"/><path class="uuid-2b775f6c-d273-4a7b-8397-b0203ae0cba8" d="M334.2,381.31c.39,5.57,5.16,10.46,10.65,10.94,5.49.47,9.63-3.65,9.24-9.22-.39-5.57-5.16-10.46-10.65-10.94-5.49-.47-9.63,3.65-9.24,9.22Z"/><path class="uuid-2fc62ead-a6cf-449d-ab99-ae9ebee60663" d="M345.71,393.05c-.31,0-.61-.01-.93-.04-5.84-.5-10.93-5.73-11.35-11.65h0c-.21-2.94.75-5.61,2.68-7.52,1.9-1.87,4.53-2.77,7.39-2.52,5.84.5,10.93,5.73,11.35,11.65.21,2.94-.75,5.61-2.68,7.52-1.7,1.67-3.96,2.56-6.46,2.56ZM334.96,381.26c.37,5.2,4.83,9.79,9.96,10.23,2.41.21,4.6-.53,6.18-2.09,1.61-1.59,2.4-3.83,2.23-6.32-.36-5.2-4.83-9.79-9.95-10.23-2.42-.21-4.6.53-6.18,2.09-1.61,1.59-2.4,3.83-2.23,6.32h0Z"/><line class="uuid-ba097b7e-4e45-4bb7-bcc7-f2e7e70380e0" x1="284.39" y1="503.73" x2="303.67" y2="494.7"/><path class="uuid-2fc62ead-a6cf-449d-ab99-ae9ebee60663" d="M284.4,504.5c-.29,0-.56-.16-.69-.44-.18-.38-.01-.84.37-1.02l19.27-9.03c.38-.18.84-.02,1.02.37.18.38.01.84-.37,1.02l-19.27,9.03c-.1.05-.22.07-.32.07Z"/><path class="uuid-3b7f7556-64df-498e-890a-f4b3b1e21bda" d="M467.64,407.68s21.95-38.71-3.78-60.37c0,0-8.63,2.96-9.49,26.9-.85,23.94,8.58,30.93,13.27,33.47Z"/><path class="uuid-2fc62ead-a6cf-449d-ab99-ae9ebee60663" d="M467.64,408.44c-.12,0-.25-.03-.36-.09-9.69-5.25-14.29-16.74-13.67-34.16.87-24.19,9.64-27.47,10.01-27.6.25-.08.53-.03.74.14,25.92,21.82,4.18,60.94,3.95,61.33-.14.25-.4.39-.67.39ZM463.74,348.22c-1.59.93-7.89,5.89-8.61,26.02-.58,16.38,3.52,27.27,12.2,32.39,2.7-5.18,18.96-38.9-3.59-58.41Z"/><path class="uuid-ba097b7e-4e45-4bb7-bcc7-f2e7e70380e0" d="M406.5,368.8c.55-4.21,13.22-1.52,13.92-1.38-.62-.25-10.88-4.47-9.3-8.43,2.47-6.12,26.42,3.94,27.32,4.31-.43-.46-6.07-6.48-2.98-10.74,3.21-4.41,18.32,6.31,24.41,8.72,5.4,2.13,22.58,4.78,22.58,4.78l-8.13,37.41-24.45-4.74c-5.22-.33-29.92-2.13-34.68-6.58-4.79-4.51,6.33-6.16,8.61-6.46-2.15.11-11.75.45-13.92-3.8-2.4-4.67,10.36-5.04,10.98-5.07-.71-.11-15.07-2.59-14.36-8.05Z"/><path class="uuid-2fc62ead-a6cf-449d-ab99-ae9ebee60663" d="M474.32,404.24s-.1,0-.15-.01l-24.45-4.74c-6.93-.43-30.21-2.24-35.05-6.77-1.23-1.16-1.67-2.3-1.31-3.4.44-1.35,2.11-2.33,4.11-3.02-3.44-.41-6.96-1.48-8.27-4.04-.63-1.23-.37-2.18-.03-2.75.97-1.67,3.92-2.53,6.76-2.97-4.59-1.27-10.71-3.75-10.18-7.83h0c.1-.77.51-1.43,1.18-1.91,1.78-1.27,5.38-1.26,8.61-.92-3.06-1.8-6.22-4.41-5.12-7.16.35-.86,1.02-1.5,2-1.91,4.94-2.06,17.6,2.37,23.61,4.71-2.09-3.06-3.18-6.65-1.18-9.39,2.7-3.72,11.14.92,18.58,5.02,2.6,1.43,5.06,2.78,6.73,3.44,5.25,2.07,22.24,4.71,22.41,4.74.21.03.39.15.51.32.12.17.16.39.12.6l-8.13,37.41c-.08.36-.39.6-.75.6ZM423.8,384.94c.39,0,.72.3.76.7.04.41-.26.78-.66.83-5,.65-8.65,1.99-9.09,3.33-.16.49.15,1.1.9,1.81,3.55,3.32,20.65,5.51,34.2,6.37l23.82,4.6,7.8-35.88c-3.5-.56-17.13-2.8-21.94-4.7-1.76-.69-4.14-2-6.9-3.52-5.85-3.22-14.7-8.08-16.61-5.46-2.57,3.52,1.97,8.74,2.9,9.75.24.26.28.67.07.97-.21.29-.58.41-.91.28-7.27-3.03-20.71-7.65-25.14-5.8-.6.25-.98.6-1.17,1.07-.97,2.43,4.78,5.77,8.88,7.43.37.15.56.55.45.93-.11.38-.5.6-.88.53-4.57-.94-10.52-1.52-12.46-.14-.33.24-.51.51-.55.86h0c-.53,4.03,9.99,6.61,13.72,7.19.39.06.67.41.64.8-.02.39-.34.7-.73.72-4.53.17-9.46,1.06-10.4,2.67-.14.23-.28.61.07,1.28,1.5,2.93,7.8,3.66,13.2,3.38.01,0,.03,0,.04,0ZM406.5,368.8h0,0Z"/><path class="uuid-2fc62ead-a6cf-449d-ab99-ae9ebee60663" d="M432.76,370.93c-.05,0-.11,0-.17-.02l-12.3-2.73c-.41-.09-.67-.5-.58-.91.09-.41.5-.67.91-.58l12.3,2.73c.41.09.67.5.58.91-.08.36-.4.6-.75.6Z"/><path class="uuid-2fc62ead-a6cf-449d-ab99-ae9ebee60663" d="M430.88,379.03s-.07,0-.11,0l-9.99-1.42c-.42-.06-.71-.45-.65-.86.06-.42.44-.72.86-.65l9.99,1.42c.42.06.71.45.65.86-.05.38-.38.66-.76.66Z"/><path class="uuid-2fc62ead-a6cf-449d-ab99-ae9ebee60663" d="M432.78,387.15s-.04,0-.06,0l-8.71-.7c-.42-.03-.74-.4-.7-.82.03-.42.41-.72.82-.7l8.71.7c.42.03.74.4.7.82-.03.4-.37.7-.76.7Z"/><path class="uuid-3b7f7556-64df-498e-890a-f4b3b1e21bda" d="M491.72,307.81l20.9,50.09-48.77-10.59c25.73,21.66,3.78,60.37,3.78,60.37.01,0,.02.01.04.02,1.86,1.05,75.38,42.24,94.95,20.96,25.95-28.2-19.1-139.24-29.07-153.73-16.99-24.65-55.37-17.32-55.37-17.32"/><path class="uuid-2fc62ead-a6cf-449d-ab99-ae9ebee60663" d="M544.91,435.48c-29.01,0-75.17-25.74-77.62-27.12-.18-.1-.32-.28-.38-.47-.05-.2-.05-.42.05-.59.22-.38,21.34-38.41-3.61-59.4-.27-.23-.35-.61-.19-.92.15-.31.5-.48.85-.41l47.33,10.28-20.34-48.74c-.16-.39.02-.84.41-1,.39-.16.84.02,1,.41l20.9,50.09c.11.26.06.57-.12.79-.18.22-.47.32-.75.26l-45.98-9.99c20.85,20.46,4.87,53.56,2.18,58.71,8.05,4.45,75.09,40.66,93.4,20.76,25.91-28.15-20.09-139.64-29.14-152.77-16.5-23.95-54.22-17.07-54.6-17-.42.08-.82-.19-.89-.61-.08-.42.19-.82.61-.89.39-.08,39.07-7.14,56.15,17.63,4.69,6.8,18.48,37.51,28.12,71.95,8.2,29.28,15,67.39.89,82.73-4.15,4.51-10.62,6.31-18.28,6.31Z"/><path class="uuid-3b7f7556-64df-498e-890a-f4b3b1e21bda" d="M488.7,352.71s9.22,20.04,8.2,36.21c-1.02,16.17-12.72,27.26-12.72,27.26"/><path class="uuid-2fc62ead-a6cf-449d-ab99-ae9ebee60663" d="M484.18,416.94c-.2,0-.4-.08-.55-.24-.29-.31-.28-.79.03-1.08.12-.11,11.49-11.08,12.48-26.75,1-15.79-8.04-35.64-8.13-35.84-.18-.38,0-.84.38-1.02.38-.18.84,0,1.02.38.38.83,9.29,20.4,8.26,36.58-1.03,16.29-12.47,27.3-12.95,27.76-.15.14-.34.21-.53.21Z"/><line class="uuid-2a244dcb-dfc3-4b72-8d61-6a0aef941b11" x1="472.54" y1="396.37" x2="493.79" y2="401.71"/><path class="uuid-2fc62ead-a6cf-449d-ab99-ae9ebee60663" d="M493.79,402.48c-.06,0-.12,0-.19-.02l-21.25-5.34c-.41-.1-.66-.52-.56-.93.1-.41.52-.66.93-.56l21.25,5.34c.41.1.66.52.56.93-.09.35-.4.58-.74.58Z"/><line class="uuid-2a244dcb-dfc3-4b72-8d61-6a0aef941b11" x1="476.36" y1="376.27" x2="496.47" y2="379.2"/><path class="uuid-2fc62ead-a6cf-449d-ab99-ae9ebee60663" d="M496.47,379.96s-.07,0-.11,0l-20.11-2.93c-.42-.06-.71-.45-.65-.87.06-.42.45-.7.87-.65l20.11,2.93c.42.06.71.45.65.87-.06.38-.38.65-.76.65Z"/><line class="uuid-2a244dcb-dfc3-4b72-8d61-6a0aef941b11" x1="472.86" y1="358.86" x2="491.72" y2="360.35"/><path class="uuid-2fc62ead-a6cf-449d-ab99-ae9ebee60663" d="M491.72,361.12s-.04,0-.06,0l-18.86-1.49c-.42-.03-.74-.4-.7-.82.03-.42.39-.72.82-.7l18.86,1.49c.42.03.74.4.7.82-.03.4-.37.7-.76.7Z"/><line class="uuid-2a244dcb-dfc3-4b72-8d61-6a0aef941b11" x1="512.62" y1="357.9" x2="534.33" y2="363.01"/><path class="uuid-2fc62ead-a6cf-449d-ab99-ae9ebee60663" d="M534.33,363.78c-.06,0-.12,0-.18-.02l-21.7-5.11c-.41-.1-.67-.51-.57-.92.1-.41.52-.66.92-.57l21.7,5.11c.41.1.67.51.57.92-.08.35-.4.59-.74.59Z"/><path class="uuid-ba097b7e-4e45-4bb7-bcc7-f2e7e70380e0" d="M474.49,225.17s-7.9,24.7-4.92,31.55l-25.3,13.01-8.9-12.37,4.2-23.65,34.92-8.55Z"/><path class="uuid-2fc62ead-a6cf-449d-ab99-ae9ebee60663" d="M444.27,270.49c-.24,0-.47-.11-.62-.32l-8.9-12.37c-.12-.17-.17-.38-.13-.58l4.2-23.65c.05-.3.28-.54.57-.61l34.92-8.55c.27-.07.55.02.74.22.19.2.25.49.17.76-.08.24-7.78,24.51-4.95,31.02.16.37,0,.8-.35.99l-25.3,13.01c-.11.06-.23.08-.35.08ZM436.18,257.17l8.32,11.57,24.12-12.4c-2.07-6.81,3.19-25.04,4.73-30.12l-33.12,8.11-4.06,22.84Z"/><path class="uuid-ba097b7e-4e45-4bb7-bcc7-f2e7e70380e0" d="M453.99,237.24c-8.29,2.53-16.85,2.57-23.89-1.05-17.26-8.87-19.51-27.23-10.41-44.93,9.1-17.7,33.2-30.17,51.95-17.57,16.73,11.24,17.35,31.5,1.14,55.4"/><path class="uuid-2fc62ead-a6cf-449d-ab99-ae9ebee60663" d="M442.62,239.79c-4.71,0-9.09-.97-12.87-2.91-8.42-4.33-13.78-11.14-15.49-19.68-1.6-8.02.04-17.11,4.75-26.28,5.46-10.63,15.93-19.06,27.31-21.99,9.26-2.39,18.16-.96,25.75,4.14,6.98,4.69,11.26,10.89,12.72,18.43,2.1,10.82-1.83,23.97-11.37,38.03-.24.35-.71.44-1.06.2-.35-.24-.44-.71-.2-1.06,9.31-13.71,13.16-26.47,11.14-36.88-1.38-7.13-5.44-13-12.07-17.45-7.21-4.84-15.68-6.2-24.51-3.92-10.97,2.83-21.06,10.95-26.33,21.21-4.55,8.86-6.15,17.6-4.61,25.28,1.61,8.07,6.69,14.51,14.69,18.62,6.38,3.28,14.66,3.63,23.31.99.41-.12.83.11.96.51.12.4-.1.83-.51.96-3.98,1.21-7.89,1.82-11.59,1.82Z"/><path class="uuid-2fc62ead-a6cf-449d-ab99-ae9ebee60663" d="M475.8,212.29c-2.57-.92-5.31.77-7.82,2.01-2.51,1.24-7,4.4-8.54,2.07-1.63-2.47,9.43-12.99,11.05-15.57-4.34.87-9.01-.83-11.82-4.3s-3.67-8.59-2.17-12.97c-13.9,2.33-32.08-2.79-39.62-14.96-3.03-4.89-1.41-13.01,1.32-18.26,1.66-3.19,4.75-5.32,7.94-6.72,10.9-4.79,24.3-1.79,32.05,7.18,4.19-1.65,8.51-3.29,12.95-3.25,4.44.04,9.08,2.11,11.02,6.24,1.88,3.99.89,8.82-.13,13.21,7.9-2.37,16.73,1.78,20.92,8.99s3.98,16.84.31,24.59c-3.68,7.75-10.49,13.64-18.1,16.96-5.77,2.52-13.04,3.39-17.51-.97"/><path class="uuid-ba097b7e-4e45-4bb7-bcc7-f2e7e70380e0" d="M466.72,213.99c2.32-1.15,7.11-2.03,9.68-1.77,2.57.26,5.12,1.7,6.22,4.03,1.13,2.38.42,5.28-1.13,7.41-4.97,6.82-12.33,5.42-14.67,4.2"/><path class="uuid-2fc62ead-a6cf-449d-ab99-ae9ebee60663" d="M471.54,229.63c-2.11,0-3.94-.5-5.07-1.09-.37-.2-.52-.66-.32-1.03.2-.37.66-.52,1.03-.32,1.65.86,8.83,2.71,13.7-3.97,1.55-2.12,1.96-4.73,1.06-6.63-.92-1.93-3.12-3.35-5.61-3.6-2.42-.24-7.09.61-9.26,1.69-.38.19-.84.03-1.03-.34-.19-.38-.03-.84.34-1.03,2.46-1.22,7.36-2.12,10.1-1.84,3.06.31,5.68,2.02,6.84,4.47,1.16,2.44.69,5.58-1.21,8.19-3.09,4.24-7.19,5.52-10.57,5.52Z"/><path class="uuid-2fc62ead-a6cf-449d-ab99-ae9ebee60663" d="M433.7,212.23c-.09,0-.18-.01-.26-.05-.42-.15-4.15-1.56-5.45-3.6-.22-.34-.62-.97-.57-1.71.05-.78.56-1.35.91-1.73l8.81-9.79c.28-.31.77-.34,1.08-.06.31.28.34.77.06,1.08l-8.8,9.79c-.21.24-.5.56-.52.81-.01.22.16.52.33.78.87,1.37,3.68,2.62,4.69,2.99.4.14.6.58.46.98-.11.31-.41.5-.72.5Z"/><path class="uuid-2fc62ead-a6cf-449d-ab99-ae9ebee60663" d="M446.73,203.18c-.61,1.4-2.13,2.08-3.4,1.53-1.27-.55-1.81-2.13-1.2-3.53.61-1.4,2.13-2.08,3.4-1.53,1.27.55,1.81,2.13,1.2,3.53Z"/><path class="uuid-2fc62ead-a6cf-449d-ab99-ae9ebee60663" d="M429.81,196.77c-.61,1.4-2.13,2.08-3.4,1.53-1.27-.55-1.81-2.13-1.2-3.53.61-1.4,2.13-2.08,3.4-1.53,1.27.55,1.81,2.14,1.2,3.53Z"/><path class="uuid-2fc62ead-a6cf-449d-ab99-ae9ebee60663" d="M435.81,224.44c-2.35,0-4.52-.98-5.79-2.64-.26-.34-.19-.82.15-1.07.34-.26.82-.19,1.07.15,1.07,1.41,3.04,2.18,5.11,2.02,1.76-.14,3.59-.87,5.58-2.25.35-.24.83-.15,1.06.19.24.35.15.82-.19,1.07-2.22,1.54-4.29,2.36-6.33,2.52-.22.02-.44.03-.66.03Z"/><path class="uuid-2fc62ead-a6cf-449d-ab99-ae9ebee60663" d="M450.77,200.4c-.28,0-.54-.15-.68-.41-1.17-2.23-3.76-3.71-6.26-3.56-.42.04-.78-.3-.81-.72-.02-.42.3-.78.72-.8,3.16-.17,6.23,1.6,7.69,4.38.2.37.05.84-.32,1.03-.11.06-.23.09-.35.09Z"/><path class="uuid-2fc62ead-a6cf-449d-ab99-ae9ebee60663" d="M434.85,193.88c-.28,0-.54-.15-.68-.41-1.17-2.23-3.76-3.69-6.26-3.56-.43.02-.78-.3-.81-.72-.02-.42.3-.78.72-.81,3.14-.16,6.23,1.59,7.69,4.38.2.37.05.84-.32,1.03-.11.06-.23.09-.35.09Z"/><g class="uuid-3a720049-6419-47be-b36b-08d06b1bacba"><rect class="uuid-70bf79c4-dc96-407d-aa55-82aedd239241" x="25.27" y="65.04" width="128" height="252.16"/></g><path class="uuid-2fc62ead-a6cf-449d-ab99-ae9ebee60663" d="M134.41,175.17H44.13c-.42,0-.77-.34-.77-.77v-87.56c0-.42.34-.77.77-.77h90.28c.42,0,.77.34.77.77v87.56c0,.42-.34.77-.77.77ZM44.89,173.64h88.75v-86.03H44.89v86.03Z"/><rect class="uuid-2fc62ead-a6cf-449d-ab99-ae9ebee60663" x="130.02" y="82.45" width="8.77" height="8.78"/><path class="uuid-2fc62ead-a6cf-449d-ab99-ae9ebee60663" d="M138.8,91.99h-8.77c-.42,0-.77-.34-.77-.77v-8.78c0-.42.34-.77.77-.77h8.77c.42,0,.77.34.77.77v8.78c0,.42-.34.77-.77.77ZM130.79,90.46h7.24v-7.25h-7.24v7.25Z"/><rect class="uuid-2fc62ead-a6cf-449d-ab99-ae9ebee60663" x="39.74" y="82.45" width="8.77" height="8.78"/><path class="uuid-2fc62ead-a6cf-449d-ab99-ae9ebee60663" d="M48.51,91.99h-8.77c-.42,0-.77-.34-.77-.77v-8.78c0-.42.34-.77.77-.77h8.77c.42,0,.77.34.77.77v8.78c0,.42-.34.77-.77.77ZM40.51,90.46h7.24v-7.25h-7.24v7.25Z"/><rect class="uuid-2fc62ead-a6cf-449d-ab99-ae9ebee60663" x="130.02" y="170.01" width="8.77" height="8.78"/><path class="uuid-2fc62ead-a6cf-449d-ab99-ae9ebee60663" d="M138.8,179.56h-8.77c-.42,0-.77-.34-.77-.77v-8.78c0-.42.34-.77.77-.77h8.77c.42,0,.77.34.77.77v8.78c0,.42-.34.77-.77.77ZM130.79,178.03h7.24v-7.25h-7.24v7.25Z"/><rect class="uuid-2fc62ead-a6cf-449d-ab99-ae9ebee60663" x="39.74" y="170.01" width="8.77" height="8.78"/><path class="uuid-2fc62ead-a6cf-449d-ab99-ae9ebee60663" d="M48.51,179.56h-8.77c-.42,0-.77-.34-.77-.77v-8.78c0-.42.34-.77.77-.77h8.77c.42,0,.77.34.77.77v8.78c0,.42-.34.77-.77.77ZM40.51,178.03h7.24v-7.25h-7.24v7.25Z"/><path class="uuid-2a244dcb-dfc3-4b72-8d61-6a0aef941b11" d="M84.53,108.9h-17.06v-6.16h41.52v6.16h-17.14v49.92h-7.32v-49.92Z"/><rect class="uuid-2a244dcb-dfc3-4b72-8d61-6a0aef941b11" x="38.77" y="195.6" width="40.58" height="6.62"/><rect class="uuid-2a244dcb-dfc3-4b72-8d61-6a0aef941b11" x="38.77" y="210.67" width="53.13" height="6.62"/><rect class="uuid-2a244dcb-dfc3-4b72-8d61-6a0aef941b11" x="104.62" y="210.67" width="19.52" height="6.62"/><rect class="uuid-ba097b7e-4e45-4bb7-bcc7-f2e7e70380e0" x="178.48" y="77.81" width="158.52" height="124.6"/><path class="uuid-2fc62ead-a6cf-449d-ab99-ae9ebee60663" d="M337.01,203.17h-158.52c-.42,0-.77-.34-.77-.77v-124.6c0-.42.34-.77.77-.77h158.52c.42,0,.77.34.77.77v124.6c0,.42-.34.77-.77.77ZM179.25,201.64h156.99v-123.07h-156.99v123.07Z"/><rect class="uuid-ee8e7796-0ab6-4c57-8866-0cd0adbb68ab" x="209.4" y="76.01" width="96.7" height="130.25" transform="translate(398.87 -116.61) rotate(90)"/><path class="uuid-f4f43d48-e68c-4b0b-91c6-2c52dc8fd05b" d="M201.38,172.22s11.66-51.99,29.29-56.15c17.63-4.16,23.24,41.86,35.49,37.35,12.25-4.51,15.69-17.71,27.65-15.63,11.95,2.08,21.74,34.43,21.74,34.43h-114.16Z"/><circle class="uuid-2a244dcb-dfc3-4b72-8d61-6a0aef941b11" cx="269.47" cy="128.07" r="8.86"/><path class="uuid-ba097b7e-4e45-4bb7-bcc7-f2e7e70380e0" d="M255.79,203.43c-.04-.46-.4-12.82,5.36-12.3,4.84.44,6,10.68,7.54,18.16"/><path class="uuid-2fc62ead-a6cf-449d-ab99-ae9ebee60663" d="M268.69,210.05c-.36,0-.67-.25-.75-.61-.22-1.05-.43-2.16-.64-3.28-1.24-6.54-2.64-13.95-6.22-14.27-.82-.08-1.51.18-2.11.76-2.44,2.39-2.5,9.51-2.42,10.72.03.42-.28.79-.7.82-.41.04-.79-.28-.82-.7,0-.08-.42-8.68,2.85-11.92.93-.92,2.06-1.33,3.33-1.21,4.74.43,6.19,8.1,7.59,15.51.21,1.12.42,2.21.63,3.26.09.41-.18.82-.59.9-.05.01-.1.02-.16.02Z"/><rect class="uuid-70bf79c4-dc96-407d-aa55-82aedd239241" x="38.55" y="234.35" width="106.7" height="69.7" rx="14.92" ry="14.92"/><path class="uuid-2a244dcb-dfc3-4b72-8d61-6a0aef941b11" d="M61.85,275.46c2.52,0,2.88-1.39,2.88-2.63,0-.99-.14-1.99-.28-2.98-.14-.99-.28-1.95-.28-2.95,0-3.27,2.13-4.65,5.15-4.65h.75v1.95h-.64c-2.1,0-2.81,1.14-2.81,3.05,0,.82.11,1.67.25,2.52.14.89.25,1.74.25,2.7.04,2.27-.96,3.41-2.56,3.84v.07c1.6.39,2.59,1.6,2.56,3.87,0,.96-.11,1.85-.25,2.7-.14.89-.25,1.71-.25,2.56,0,1.99.82,3.09,2.81,3.09h.64v1.95h-.75c-2.95,0-5.15-1.28-5.15-4.87,0-.96.14-1.95.28-2.91.14-.96.28-1.92.28-2.88,0-1.1-.36-2.63-2.88-2.63v-1.81Z"/><path class="uuid-2a244dcb-dfc3-4b72-8d61-6a0aef941b11" d="M72.8,284.73c0-1.31.89-2.24,2.13-2.24s2.1.92,2.1,2.24-.82,2.24-2.13,2.24c-1.24,0-2.1-.96-2.1-2.24Z"/><path class="uuid-2a244dcb-dfc3-4b72-8d61-6a0aef941b11" d="M80.15,284.73c0-1.31.89-2.24,2.13-2.24s2.1.92,2.1,2.24-.82,2.24-2.13,2.24c-1.24,0-2.1-.96-2.1-2.24Z"/><path class="uuid-2a244dcb-dfc3-4b72-8d61-6a0aef941b11" d="M87.5,284.73c0-1.31.89-2.24,2.13-2.24s2.1.92,2.1,2.24-.82,2.24-2.13,2.24c-1.24,0-2.1-.96-2.1-2.24Z"/><path class="uuid-2a244dcb-dfc3-4b72-8d61-6a0aef941b11" d="M102.1,277.27c-2.52,0-2.88,1.53-2.88,2.63,0,.96.14,1.92.28,2.88.14.96.28,1.95.28,2.91,0,3.59-2.24,4.87-5.15,4.87h-.75v-1.95h.6c1.99-.03,2.84-1.1,2.84-3.09,0-.85-.14-1.67-.25-2.56-.14-.85-.28-1.74-.28-2.7,0-2.27,1-3.48,2.56-3.87v-.07c-1.56-.43-2.56-1.56-2.56-3.84,0-.96.14-1.81.28-2.7.11-.85.25-1.71.25-2.52,0-1.92-.75-3.02-2.81-3.05h-.64v-1.95h.71c3.02,0,5.19,1.39,5.19,4.65,0,1-.14,1.95-.28,2.95-.14.99-.28,1.99-.28,2.98,0,1.24.35,2.63,2.88,2.63v1.81Z"/><path class="uuid-2fc62ead-a6cf-449d-ab99-ae9ebee60663" d="M577.46,230.16c-2.91,8.5-9,15.02-16.49,18.68-7.49,3.67-16.37,4.47-24.87,1.56-17.01-5.83-26.07-24.34-20.24-41.35,2.92-8.51,9-15.03,16.49-18.69,7.48-3.67,16.36-4.48,24.86-1.56,8.5,2.91,15.02,9,18.69,16.49,3.67,7.48,4.48,16.36,1.56,24.87Z"/><path class="uuid-2fc62ead-a6cf-449d-ab99-ae9ebee60663" d="M546.68,252.94c-3.64,0-7.29-.6-10.83-1.82-17.38-5.96-26.67-24.94-20.72-42.32,2.89-8.43,8.88-15.22,16.88-19.13,7.99-3.92,17.02-4.48,25.45-1.6,8.42,2.89,15.21,8.88,19.13,16.88,3.92,7.99,4.48,17.03,1.6,25.46h0c-2.89,8.42-8.88,15.22-16.87,19.12-4.63,2.27-9.62,3.41-14.63,3.41ZM546.63,187.79c-4.78,0-9.53,1.09-13.95,3.26-7.63,3.73-13.34,10.21-16.1,18.25-5.68,16.58,3.18,34.7,19.77,40.38,8.03,2.75,16.66,2.21,24.29-1.52,7.63-3.73,13.34-10.2,16.1-18.24,2.76-8.04,2.22-16.67-1.52-24.29-3.74-7.63-10.22-13.35-18.25-16.1-3.38-1.16-6.86-1.73-10.33-1.73ZM577.46,230.16h0,0Z"/><path class="uuid-ba097b7e-4e45-4bb7-bcc7-f2e7e70380e0" d="M527.17,213.79l15.45-2.26-.67,1.95-12.97,1.75-.02.06,9.17,9.34-.67,1.95-10.82-11.27.52-1.53Z"/><path class="uuid-ba097b7e-4e45-4bb7-bcc7-f2e7e70380e0" d="M538.91,228.34l14.93-17.81,1.92.66-14.96,17.8-1.9-.65Z"/><path class="uuid-ba097b7e-4e45-4bb7-bcc7-f2e7e70380e0" d="M566.34,228.95l-15.44,2.24.67-1.95,13.05-1.73.02-.06-9.25-9.37.67-1.95,10.83,11.24-.54,1.59Z"/><path class="uuid-ba097b7e-4e45-4bb7-bcc7-f2e7e70380e0" d="M388.48,121.98c-1.05,6.95,3.53,13.57,10.5,14.95,6.97,1.38,13.72-3,15.39-9.84l-25.89-5.11Z"/><path class="uuid-2fc62ead-a6cf-449d-ab99-ae9ebee60663" d="M401.57,137.94c-.9,0-1.82-.09-2.73-.27-7.35-1.45-12.23-8.39-11.11-15.81.03-.21.15-.39.32-.51.17-.12.38-.17.59-.12l25.89,5.11c.2.04.38.16.5.34.11.18.15.39.1.59-1.56,6.38-7.23,10.67-13.55,10.67ZM389.14,122.89c-.55,6.3,3.7,12.04,9.99,13.28,6.28,1.24,12.4-2.46,14.28-8.49l-24.27-4.79Z"/><path class="uuid-b37c793d-c417-46af-aab8-e292f4bcbf58" d="M388.83,101.16c.75,3.25,1.02,6.6.8,9.96l28.6,5.64c2.53-7.65,7.62-14.27,14.57-18.5,9.03-5.5,15.71-14.8,17.51-26.18,3.09-19.66-10.07-38.53-29.58-42.46-20.32-4.1-40.09,9.11-44.1,29.43-2.08,10.55.49,20.93,6.28,29.03,2.84,3.97,4.86,8.42,5.91,13.07Z"/><path class="uuid-2fc62ead-a6cf-449d-ab99-ae9ebee60663" d="M418.23,117.53s-.1,0-.15-.01l-28.6-5.65c-.38-.07-.64-.42-.61-.8.22-3.28-.05-6.56-.79-9.74,0,0,0,0,0,0-1.04-4.58-2.99-8.88-5.79-12.79-6.2-8.67-8.47-19.19-6.41-29.62,1.98-10.03,7.76-18.69,16.27-24.37,8.51-5.68,18.71-7.69,28.74-5.67,19.77,3.98,33.31,23.42,30.18,43.33-1.76,11.13-8.27,20.87-17.87,26.71-6.67,4.06-11.73,10.48-14.24,18.08-.1.32-.4.53-.73.53ZM390.44,110.5l27.29,5.39c2.69-7.66,7.89-14.13,14.68-18.27,9.21-5.61,15.47-14.96,17.15-25.65,3-19.11-9.99-37.77-28.97-41.59-9.62-1.94-19.42,0-27.59,5.44-8.17,5.45-13.71,13.76-15.61,23.39-1.98,10.02.21,20.12,6.16,28.44,2.92,4.08,4.95,8.56,6.04,13.34h0c.72,3.11,1.01,6.3.86,9.51Z"/><path class="uuid-2fc62ead-a6cf-449d-ab99-ae9ebee60663" d="M407.47,115.41c-.08,0-.16-.01-.23-.04-.4-.13-.63-.56-.5-.96l11.58-36.34-10.14-2c-.41-.08-.68-.48-.6-.9.08-.42.5-.68.9-.6l10.31,2.03,1.75-5.51c.57-1.79,1.92-3.14,3.7-3.72,1.78-.58,3.67-.28,5.18.83l1.66,1.22c2.02,1.48,2.85,4.08,2.06,6.45-.91,2.74-3.74,4.38-6.57,3.83l-6.74-1.33-11.63,36.51c-.1.33-.4.53-.73.53ZM420.29,76.9l6.56,1.3c2.08.41,4.15-.8,4.82-2.81.58-1.75-.02-3.65-1.51-4.74l-1.66-1.22c-1.11-.81-2.5-1.04-3.8-.61-1.31.43-2.3,1.42-2.71,2.73l-1.7,5.34Z"/><path class="uuid-2fc62ead-a6cf-449d-ab99-ae9ebee60663" d="M399.62,113.86s-.04,0-.06,0c-.42-.03-.74-.4-.7-.82l3.11-38.19-6.73-1.33c-2.83-.56-4.82-3.15-4.62-6.03.17-2.5,1.92-4.59,4.35-5.19l1.99-.5c1.82-.45,3.68-.01,5.11,1.2,1.43,1.21,2.16,2.98,2.01,4.85l-.47,5.76,10.31,2.04c.41.08.68.48.6.9-.08.42-.49.69-.9.6l-10.13-2-3.1,38.02c-.03.4-.37.7-.76.7ZM398.36,63.15c-.34,0-.69.04-1.03.13l-1.99.5c-1.79.44-3.07,1.97-3.2,3.81-.14,2.12,1.32,4.02,3.39,4.43l6.56,1.3.46-5.59c.11-1.37-.43-2.67-1.47-3.56-.78-.66-1.73-1.01-2.72-1.01Z"/><rect class="uuid-2fc62ead-a6cf-449d-ab99-ae9ebee60663" x="381.5" y="113.84" width="42.72" height="11.2" rx="4.69" ry="4.69" transform="translate(30.75 -75.75) rotate(11.17)"/><path class="uuid-2fc62ead-a6cf-449d-ab99-ae9ebee60663" d="M418.96,129c-.35,0-.72-.03-1.08-.11l-32.52-6.42c-1.45-.29-2.71-1.12-3.54-2.35-.82-1.23-1.12-2.71-.84-4.17l.32-1.59c.29-1.45,1.12-2.71,2.36-3.54,1.23-.83,2.71-1.12,4.17-.83l32.52,6.42c1.45.29,2.71,1.12,3.54,2.35s1.12,2.71.83,4.17l-.31,1.59c-.52,2.64-2.85,4.48-5.45,4.48ZM386.75,111.41c-.79,0-1.56.23-2.23.68-.89.6-1.5,1.51-1.71,2.56l-.31,1.59c-.43,2.18.99,4.29,3.17,4.72l32.52,6.42h0c1.05.21,2.13,0,3.02-.61.89-.6,1.5-1.51,1.71-2.56l.31-1.59c.21-1.05,0-2.13-.6-3.02-.6-.89-1.51-1.5-2.56-1.7l-32.52-6.42c-.26-.05-.53-.08-.79-.08Z"/></svg>