<svg id="uuid-70201728-2a6f-4900-9ff7-e285b4a9310a" xmlns="http://www.w3.org/2000/svg" viewBox="0 0 580 422.59"><defs><style>.uuid-b7b92939-49f6-4790-b93a-8b61ebee81b1{fill:#0081ff;}.uuid-622ad21d-3416-40c6-a774-401daf09cdce{fill:#e6f3fc;}.uuid-44715cd1-d3d6-4735-b1fd-ac31a24650c2{fill:#fff;}.uuid-529527b0-3487-4286-98f6-0a960a295dee{fill:#0b135e;}.uuid-c0c38b2a-ffaf-4a93-91db-111ee3a46f6e{opacity:.4;}.uuid-5aac6623-1714-4ebe-a522-599ba60204a8{fill:#ffcc3d;}</style></defs><path class="uuid-529527b0-3487-4286-98f6-0a960a295dee" d="M535.83,422.59H49.97c-.54,0-.98-.44-.98-.98s.44-.98.98-.98h485.86c.54,0,.98.44.98.98s-.44.98-.98.98Z"/><polygon class="uuid-622ad21d-3416-40c6-a774-401daf09cdce" points="518.76 351.91 529.75 28.81 297.01 28.81 286.01 351.91 518.76 351.91"/><polygon class="uuid-529527b0-3487-4286-98f6-0a960a295dee" points="211.85 421.33 208.28 342.29 82.76 357.67 77.95 421.33 211.85 421.33"/><path class="uuid-44715cd1-d3d6-4735-b1fd-ac31a24650c2" d="M198.21,268.22l9.87,71.61c2.52,18.26,17.29,32.38,35.64,34.07h0c12.23,1.13,24.29-3.47,32.66-12.46l21.31-37.19-38.23-28.86-12.65,30.19-.3-60.68-48.3,3.32Z"/><path class="uuid-529527b0-3487-4286-98f6-0a960a295dee" d="M247.3,375.04c-1.22,0-2.44-.06-3.66-.17-18.91-1.74-33.93-16.1-36.53-34.92l-9.87-71.61c-.04-.27.04-.54.21-.76.17-.21.42-.34.7-.36l48.3-3.32c.27-.02.54.08.74.26.2.19.31.44.31.72l.28,55.84,10.78-25.73c.12-.28.36-.49.65-.57.29-.08.61-.02.85.16l38.23,28.86c.4.3.51.85.26,1.28l-21.31,37.19c-.04.07-.08.13-.13.18-7.68,8.25-18.61,12.94-29.81,12.94ZM199.33,269.13l9.73,70.56c2.47,17.9,16.76,31.57,34.75,33.22,11.81,1.09,23.67-3.42,31.77-12.07l20.82-36.33-36.52-27.57-12.16,29.02c-.18.43-.64.68-1.1.59-.46-.09-.79-.49-.79-.96l-.3-59.63-46.2,3.18Z"/><path class="uuid-b7b92939-49f6-4790-b93a-8b61ebee81b1" d="M189.98,280.33l2.17-76.38,32.37,7c10.32,2.48,18.56,10.22,21.68,20.36l9.82,46.61-66.04,2.41Z"/><path class="uuid-529527b0-3487-4286-98f6-0a960a295dee" d="M189.98,281.31c-.26,0-.51-.1-.69-.29-.19-.19-.3-.46-.29-.73l1.39-49.01c.01-.54.47-.97,1.01-.96.54.02.97.47.96,1.01l-1.36,47.96,63.82-2.33-9.58-45.46c-.11-.53.23-1.05.76-1.17.53-.11,1.05.23,1.17.76l9.83,46.61c.06.28,0,.58-.19.81-.18.23-.45.37-.74.38l-66.04,2.41s-.02,0-.04,0Z"/><path class="uuid-b7b92939-49f6-4790-b93a-8b61ebee81b1" d="M156.47,198.65c-15.7-.63-54.18,3.16-54.18,3.16-7.41.96-18.7,8.17-18.93,15.64l-4.81,156.62h135.37l4.6-151.89c.22-7.36-4.86-13.82-12.06-15.34,0,0-35.42-7.61-49.98-8.19Z"/><g class="uuid-c0c38b2a-ffaf-4a93-91db-111ee3a46f6e"><path class="uuid-b7b92939-49f6-4790-b93a-8b61ebee81b1" d="M156.53,248.02c0,2.21-1.79,4-4,4s-4-1.79-4-4,1.79-4,4-4,4,1.79,4,4Z"/><path class="uuid-44715cd1-d3d6-4735-b1fd-ac31a24650c2" d="M152.53,253c-2.75,0-4.99-2.24-4.99-4.99s2.24-4.99,4.99-4.99,4.99,2.24,4.99,4.99-2.24,4.99-4.99,4.99ZM152.53,245c-1.66,0-3.02,1.35-3.02,3.02s1.35,3.02,3.02,3.02,3.02-1.35,3.02-3.02-1.35-3.02-3.02-3.02Z"/></g><g class="uuid-c0c38b2a-ffaf-4a93-91db-111ee3a46f6e"><path class="uuid-b7b92939-49f6-4790-b93a-8b61ebee81b1" d="M138.1,231.7c0,4.28-3.47,7.76-7.76,7.76s-7.76-3.47-7.76-7.76,3.47-7.76,7.76-7.76,7.76,3.47,7.76,7.76Z"/><path class="uuid-44715cd1-d3d6-4735-b1fd-ac31a24650c2" d="M130.35,240.44c-4.82,0-8.74-3.92-8.74-8.74s3.92-8.74,8.74-8.74,8.74,3.92,8.74,8.74-3.92,8.74-8.74,8.74ZM130.35,224.93c-3.73,0-6.77,3.04-6.77,6.77s3.04,6.77,6.77,6.77,6.77-3.04,6.77-6.77-3.04-6.77-6.77-6.77Z"/></g><g class="uuid-c0c38b2a-ffaf-4a93-91db-111ee3a46f6e"><circle class="uuid-b7b92939-49f6-4790-b93a-8b61ebee81b1" cx="180.19" cy="232.57" r="5.04" transform="translate(-111.68 195.53) rotate(-45)"/><path class="uuid-44715cd1-d3d6-4735-b1fd-ac31a24650c2" d="M180.19,238.6c-3.32,0-6.03-2.7-6.03-6.03s2.7-6.03,6.03-6.03,6.03,2.7,6.03,6.03-2.7,6.03-6.03,6.03ZM180.19,228.51c-2.24,0-4.06,1.82-4.06,4.06s1.82,4.06,4.06,4.06,4.06-1.82,4.06-4.06-1.82-4.06-4.06-4.06Z"/></g><g class="uuid-c0c38b2a-ffaf-4a93-91db-111ee3a46f6e"><path class="uuid-b7b92939-49f6-4790-b93a-8b61ebee81b1" d="M155.75,283.87c0,4.87-3.95,8.82-8.82,8.82s-8.82-3.95-8.82-8.82,3.95-8.82,8.82-8.82,8.82,3.95,8.82,8.82Z"/><path class="uuid-44715cd1-d3d6-4735-b1fd-ac31a24650c2" d="M146.93,293.68c-5.41,0-9.81-4.4-9.81-9.81s4.4-9.81,9.81-9.81,9.81,4.4,9.81,9.81-4.4,9.81-9.81,9.81ZM146.93,276.03c-4.32,0-7.84,3.52-7.84,7.84s3.52,7.84,7.84,7.84,7.84-3.52,7.84-7.84-3.52-7.84-7.84-7.84Z"/></g><g class="uuid-c0c38b2a-ffaf-4a93-91db-111ee3a46f6e"><circle class="uuid-b7b92939-49f6-4790-b93a-8b61ebee81b1" cx="194.61" cy="267.42" r="6.08"/><path class="uuid-44715cd1-d3d6-4735-b1fd-ac31a24650c2" d="M194.61,274.48c-3.89,0-7.06-3.17-7.06-7.06s3.17-7.06,7.06-7.06,7.06,3.17,7.06,7.06-3.17,7.06-7.06,7.06ZM194.61,262.33c-2.81,0-5.09,2.28-5.09,5.09s2.28,5.09,5.09,5.09,5.09-2.28,5.09-5.09-2.28-5.09-5.09-5.09Z"/></g><g class="uuid-c0c38b2a-ffaf-4a93-91db-111ee3a46f6e"><path class="uuid-b7b92939-49f6-4790-b93a-8b61ebee81b1" d="M120.07,330.35c0,3.37,2.74,6.11,6.11,6.11s6.11-2.74,6.11-6.11-2.74-6.11-6.11-6.11-6.11,2.74-6.11,6.11Z"/><path class="uuid-44715cd1-d3d6-4735-b1fd-ac31a24650c2" d="M126.18,337.45c-3.91,0-7.09-3.18-7.09-7.09s3.18-7.09,7.09-7.09,7.09,3.18,7.09,7.09-3.18,7.09-7.09,7.09ZM126.18,325.23c-2.83,0-5.12,2.3-5.12,5.12s2.3,5.12,5.12,5.12,5.12-2.3,5.12-5.12-2.3-5.12-5.12-5.12Z"/></g><g class="uuid-c0c38b2a-ffaf-4a93-91db-111ee3a46f6e"><circle class="uuid-b7b92939-49f6-4790-b93a-8b61ebee81b1" cx="183.84" cy="340.43" r="12.45" transform="translate(-189.72 441.14) rotate(-76.72)"/><path class="uuid-44715cd1-d3d6-4735-b1fd-ac31a24650c2" d="M183.84,353.86c-7.41,0-13.43-6.03-13.43-13.43s6.03-13.43,13.43-13.43,13.43,6.03,13.43,13.43-6.03,13.43-13.43,13.43ZM183.84,328.97c-6.32,0-11.46,5.14-11.46,11.46s5.14,11.46,11.46,11.46,11.46-5.14,11.46-11.46-5.14-11.46-11.46-11.46Z"/></g><g class="uuid-c0c38b2a-ffaf-4a93-91db-111ee3a46f6e"><path class="uuid-b7b92939-49f6-4790-b93a-8b61ebee81b1" d="M145.86,358.48c0,1.87-1.52,3.39-3.39,3.39s-3.39-1.52-3.39-3.39,1.52-3.39,3.39-3.39,3.39,1.52,3.39,3.39Z"/><path class="uuid-44715cd1-d3d6-4735-b1fd-ac31a24650c2" d="M142.47,362.85c-2.41,0-4.38-1.96-4.38-4.38s1.96-4.38,4.38-4.38,4.38,1.96,4.38,4.38-1.96,4.38-4.38,4.38ZM142.47,356.07c-1.33,0-2.41,1.08-2.41,2.41s1.08,2.41,2.41,2.41,2.41-1.08,2.41-2.41-1.08-2.41-2.41-2.41Z"/></g><g class="uuid-c0c38b2a-ffaf-4a93-91db-111ee3a46f6e"><path class="uuid-b7b92939-49f6-4790-b93a-8b61ebee81b1" d="M113.65,299.71c0,2.57,2.08,4.66,4.66,4.66s4.66-2.08,4.66-4.66-2.08-4.66-4.66-4.66-4.66,2.08-4.66,4.66Z"/><path class="uuid-44715cd1-d3d6-4735-b1fd-ac31a24650c2" d="M118.31,305.35c-3.11,0-5.64-2.53-5.64-5.64s2.53-5.64,5.64-5.64,5.64,2.53,5.64,5.64-2.53,5.64-5.64,5.64ZM118.31,296.04c-2.02,0-3.67,1.65-3.67,3.67s1.65,3.67,3.67,3.67,3.67-1.65,3.67-3.67-1.65-3.67-3.67-3.67Z"/></g><g class="uuid-c0c38b2a-ffaf-4a93-91db-111ee3a46f6e"><path class="uuid-b7b92939-49f6-4790-b93a-8b61ebee81b1" d="M237.68,231.88c0,1.95-1.58,3.53-3.53,3.53s-3.53-1.58-3.53-3.53,1.58-3.53,3.53-3.53,3.53,1.58,3.53,3.53Z"/><path class="uuid-44715cd1-d3d6-4735-b1fd-ac31a24650c2" d="M234.15,236.39c-2.49,0-4.51-2.02-4.51-4.51s2.02-4.51,4.51-4.51,4.51,2.02,4.51,4.51-2.02,4.51-4.51,4.51ZM234.15,229.34c-1.4,0-2.54,1.14-2.54,2.54s1.14,2.54,2.54,2.54,2.54-1.14,2.54-2.54-1.14-2.54-2.54-2.54Z"/></g><g class="uuid-c0c38b2a-ffaf-4a93-91db-111ee3a46f6e"><circle class="uuid-b7b92939-49f6-4790-b93a-8b61ebee81b1" cx="234.34" cy="263.19" r="4.23"/><path class="uuid-44715cd1-d3d6-4735-b1fd-ac31a24650c2" d="M234.34,268.41c-2.88,0-5.22-2.34-5.22-5.22s2.34-5.22,5.22-5.22,5.22,2.34,5.22,5.22-2.34,5.22-5.22,5.22ZM234.34,259.94c-1.79,0-3.25,1.46-3.25,3.25s1.46,3.25,3.25,3.25,3.25-1.46,3.25-3.25-1.46-3.25-3.25-3.25Z"/></g><path class="uuid-529527b0-3487-4286-98f6-0a960a295dee" d="M213.91,370.68s-.02,0-.03,0c-.54-.02-.97-.47-.95-1.01l4.05-136.43c.02-.54.47-.98,1.01-.96.54.02.97.47.95,1.01l-4.05,136.43c-.02.53-.45.96-.98.96Z"/><path class="uuid-5aac6623-1714-4ebe-a522-599ba60204a8" d="M198.42,345.64h90.05c4.19,0,7.91-3.5,8.79-8.26l12.49-67.56c1.11-6-2.68-11.46-7.95-11.46h-90.05c-4.19,0-7.91,3.5-8.79,8.26l-12.49,67.56c-1.11,6,2.68,11.46,7.95,11.46Z"/><path class="uuid-529527b0-3487-4286-98f6-0a960a295dee" d="M288.47,346.63h-90.05c-2.57,0-4.93-1.14-6.65-3.21-2.05-2.47-2.9-5.99-2.27-9.42l12.49-67.56c.97-5.25,5.07-9.07,9.76-9.07h90.05c2.57,0,4.93,1.14,6.65,3.21,2.05,2.47,2.9,5.99,2.27,9.42l-12.49,67.56c-.97,5.25-5.07,9.07-9.76,9.07ZM198.42,344.66h90.05c3.73,0,7.02-3.14,7.82-7.45l12.49-67.56c.53-2.86-.16-5.77-1.85-7.8-1.34-1.61-3.17-2.5-5.14-2.5h-90.05c-3.73,0-7.02,3.14-7.82,7.45l-12.49,67.56c-.53,2.86.16,5.77,1.85,7.8,1.34,1.61,3.17,2.5,5.14,2.5h0Z"/><path class="uuid-44715cd1-d3d6-4735-b1fd-ac31a24650c2" d="M248.41,299.76c-.65,5.49,3.32,9.95,8.85,9.95s10.55-4.45,11.19-9.95c.65-5.49-3.32-9.95-8.85-9.95s-10.55,4.45-11.19,9.95Z"/><path class="uuid-44715cd1-d3d6-4735-b1fd-ac31a24650c2" d="M52.82,374.23c7.17,6.62,16.49,10.16,26,10.16,3.57,0,7.17-.51,10.69-1.53l96.94-29.97s9.62-2.31,27.17-10.48c18-8.38,23.21-20.65,28.41-31.07,5.21-10.41-3.39-12.9-3.39-12.9,4.98-10.76-2.95-12-2.95-12,.03-.08.05-.15.07-.23,1.51-5.19-5.09-8.83-8.74-4.84l-4.22,4.62,2.15-5.88c.19-.52.28-1.06.28-1.59,0-1.3-.53-2.56-1.53-3.47-2.03-1.84-5.22-1.54-6.87.64l-20.69,25.05,2.1-12.79-10.52.96c-4.82.23-9.32,2.52-12.33,6.28l-6.24,7.78-70.5,17.1,5.35-37.1-57.47-4.1-6.02,65.54c-.48,11.27,4.03,22.17,12.33,29.81Z"/><path class="uuid-529527b0-3487-4286-98f6-0a960a295dee" d="M78.83,385.38c-9.91,0-19.38-3.7-26.67-10.43h0c-8.53-7.86-13.13-19-12.65-30.58l6.03-65.59c.05-.53.52-.93,1.05-.89l57.47,4.1c.27.02.53.15.7.36.17.21.25.49.21.76l-5.14,35.65,68.76-16.67,6.03-7.52c3.19-3.98,7.94-6.41,13.05-6.65l10.48-.96c.3-.03.6.09.81.31.21.22.3.53.25.83l-1.51,9.19,18.37-22.24c.93-1.23,2.39-2.04,3.97-2.18,1.58-.15,3.16.38,4.33,1.44,1.18,1.07,1.85,2.6,1.85,4.2,0,.67-.11,1.32-.34,1.93l-.44,1.2.86-.95c2.27-2.48,5.43-2.39,7.55-1.19,1.93,1.09,3.53,3.39,3.04,6.24,1.04.38,2.63,1.23,3.59,3.03,1.23,2.29,1.05,5.36-.51,9.13,1.18.57,3.08,1.79,4.08,4.09,1.17,2.67.79,5.96-1.12,9.78l-.91,1.84c-5.02,10.15-10.7,21.65-27.96,29.68-17.44,8.12-26.96,10.45-27.36,10.54l-96.88,29.95c-3.6,1.04-7.29,1.57-10.98,1.57ZM47.41,279.93l-5.93,64.58c-.46,10.95,3.92,21.53,12.01,29,0,0,0,0,0,0,6.92,6.39,15.92,9.9,25.33,9.9,3.51,0,7.01-.5,10.41-1.49l96.92-29.96c.16-.04,9.81-2.41,27.05-10.43,16.63-7.74,22.16-18.91,27.03-28.77l.92-1.85c1.63-3.26,2-5.99,1.08-8.09-1.11-2.57-3.85-3.41-3.87-3.42-.27-.08-.5-.28-.62-.54-.12-.26-.12-.56,0-.82,1.64-3.54,1.98-6.41.99-8.3-1.02-1.93-3.18-2.32-3.2-2.32-.29-.05-.54-.22-.69-.48-.15-.25-.18-.56-.07-.84.02-.04.02-.09.04-.13.68-2.33-.62-4.01-1.93-4.74-1.34-.75-3.48-.99-5.13.81l-4.22,4.62c-.32.35-.84.42-1.24.18-.4-.24-.58-.74-.41-1.18l2.15-5.88c.14-.4.22-.82.22-1.25,0-1.04-.44-2.04-1.2-2.74-.77-.7-1.77-1.03-2.82-.94-1.05.1-1.97.61-2.61,1.44l-20.72,25.08c-.28.34-.76.45-1.17.27-.41-.18-.64-.62-.56-1.06l1.89-11.53-9.26.84c-4.58.22-8.81,2.37-11.65,5.92l-6.24,7.78c-.14.17-.33.29-.54.34l-70.5,17.1c-.32.08-.65,0-.9-.23-.24-.22-.36-.55-.31-.87l5.2-36.05-55.45-3.96Z"/><path class="uuid-44715cd1-d3d6-4735-b1fd-ac31a24650c2" d="M223,285.35s-4.92,13.98-11.15,19.02"/><path class="uuid-529527b0-3487-4286-98f6-0a960a295dee" d="M211.85,305.35c-.29,0-.57-.12-.77-.37-.34-.42-.28-1.04.15-1.38,5.94-4.8,10.79-18.44,10.84-18.58.18-.51.74-.78,1.26-.6.51.18.78.74.6,1.26-.21.58-5.09,14.3-11.46,19.46-.18.15-.4.22-.62.22Z"/><path class="uuid-44715cd1-d3d6-4735-b1fd-ac31a24650c2" d="M235.56,286.49s-2.6,13.7-16.07,24.79"/><path class="uuid-529527b0-3487-4286-98f6-0a960a295dee" d="M219.48,312.26c-.28,0-.57-.12-.76-.36-.35-.42-.29-1.04.13-1.39,13.01-10.72,15.71-24.08,15.73-24.22.1-.53.62-.88,1.15-.78.53.1.88.62.78,1.15-.11.57-2.83,14.18-16.42,25.37-.18.15-.4.22-.63.22Z"/><path class="uuid-44715cd1-d3d6-4735-b1fd-ac31a24650c2" d="M238.32,298.83s-1.96,11.84-12.91,19.41"/><path class="uuid-529527b0-3487-4286-98f6-0a960a295dee" d="M225.42,319.23c-.31,0-.62-.15-.81-.42-.31-.45-.2-1.06.25-1.37,10.48-7.26,12.47-18.65,12.49-18.77.09-.54.59-.9,1.13-.81.54.09.9.6.81,1.13-.08.5-2.15,12.34-13.32,20.06-.17.12-.37.18-.56.18Z"/><path class="uuid-b7b92939-49f6-4790-b93a-8b61ebee81b1" d="M102.29,201.8l-22.72,3.6c-12.27,1.94-22.24,10.94-25.42,22.95l-13.67,51.62,67.44,8.2,3.06-39.07c.85-6.89.36-13.88-1.46-20.57l-7.24-26.72Z"/><g class="uuid-c0c38b2a-ffaf-4a93-91db-111ee3a46f6e"><circle class="uuid-b7b92939-49f6-4790-b93a-8b61ebee81b1" cx="95.63" cy="247.7" r="4.65"/><path class="uuid-44715cd1-d3d6-4735-b1fd-ac31a24650c2" d="M95.63,253.34c-3.11,0-5.64-2.53-5.64-5.64s2.53-5.64,5.64-5.64,5.64,2.53,5.64,5.64-2.53,5.64-5.64,5.64ZM95.63,244.03c-2.02,0-3.67,1.65-3.67,3.67s1.65,3.67,3.67,3.67,3.67-1.65,3.67-3.67-1.65-3.67-3.67-3.67Z"/></g><g class="uuid-c0c38b2a-ffaf-4a93-91db-111ee3a46f6e"><circle class="uuid-b7b92939-49f6-4790-b93a-8b61ebee81b1" cx="80.98" cy="226.46" r="7.66" transform="translate(-122.26 97.87) rotate(-38)"/><path class="uuid-44715cd1-d3d6-4735-b1fd-ac31a24650c2" d="M80.98,235.11c-4.77,0-8.65-3.88-8.65-8.65s3.88-8.65,8.65-8.65,8.65,3.88,8.65,8.65-3.88,8.65-8.65,8.65ZM80.98,219.79c-3.68,0-6.68,3-6.68,6.68s2.99,6.68,6.68,6.68,6.68-2.99,6.68-6.68-2.99-6.68-6.68-6.68Z"/></g><path class="uuid-529527b0-3487-4286-98f6-0a960a295dee" d="M107.93,289.15s-.08,0-.12,0l-67.44-8.2c-.28-.03-.54-.19-.7-.43-.16-.24-.21-.53-.14-.8l13.67-51.62c.14-.53.68-.84,1.2-.7.53.14.84.68.7,1.2l-13.38,50.52,65.3,7.94,2.98-38.04c.04-.54.52-.95,1.06-.91.54.04.95.52.9,1.06l-3.06,39.07c-.02.27-.15.52-.36.69-.18.14-.4.22-.62.22Z"/><line class="uuid-44715cd1-d3d6-4735-b1fd-ac31a24650c2" x1="99.38" y1="319.97" x2="84.8" y2="324.25"/><path class="uuid-529527b0-3487-4286-98f6-0a960a295dee" d="M84.8,325.23c-.43,0-.82-.28-.94-.71-.15-.52.15-1.07.67-1.22l14.58-4.28c.52-.15,1.07.15,1.22.67.15.52-.15,1.07-.67,1.22l-14.58,4.28c-.09.03-.19.04-.28.04Z"/><path class="uuid-44715cd1-d3d6-4735-b1fd-ac31a24650c2" d="M133.03,198.2l-1.68-45.93,43,4.84s1.17,43.29,1.13,43.33c-8.07,20.59-25.13,19.61-42.45-2.23Z"/><path class="uuid-529527b0-3487-4286-98f6-0a960a295dee" d="M158.58,216.24c-8.09,0-17.34-6.09-26.32-17.43-.13-.16-.2-.37-.21-.58l-1.68-45.93c-.01-.29.1-.56.31-.76.21-.19.49-.29.78-.26l43,4.84c.49.05.86.46.87.95.98,36.54,1.15,42.52,1,43.69l.07.03c-3.53,9-8.9,14.29-15.53,15.28-.75.11-1.52.17-2.29.17ZM134,197.84c9.32,11.67,18.75,17.45,26.58,16.28,5.85-.87,10.66-5.67,13.91-13.87-.04-2.36-.72-27.92-1.11-42.26l-41.01-4.61,1.63,44.46Z"/><path class="uuid-44715cd1-d3d6-4735-b1fd-ac31a24650c2" d="M131.34,152.27c-9.27-19.3-11.59-43.89-11.59-43.89l46.92-24.95c1.12.81,32.82,10.98,36.4,46.97,3.2,32.05-5.95,53.67-50.45,44.05"/><path class="uuid-529527b0-3487-4286-98f6-0a960a295dee" d="M171.72,177.77c-5.66,0-12.08-.78-19.31-2.35-.53-.11-.87-.64-.75-1.17.11-.53.64-.87,1.17-.75,19.24,4.16,32.5,2.7,40.53-4.46,7.77-6.94,10.63-19.54,8.74-38.53-2.07-20.76-14.44-36.99-34.82-45.7-.25-.11-.44-.19-.59-.25l-45.89,24.4c.45,4.01,3.17,25.72,11.43,42.9.24.49.03,1.08-.46,1.31-.49.24-1.08.03-1.31-.46-9.24-19.24-11.66-43.97-11.68-44.22-.04-.4.17-.78.52-.96l46.92-24.95c.33-.18.73-.15,1.04.07.08.04.38.16.8.35,21.07,9.01,33.86,25.81,36,47.32,1.96,19.66-1.11,32.81-9.39,40.2-5.43,4.85-13.02,7.26-22.95,7.26Z"/><path class="uuid-529527b0-3487-4286-98f6-0a960a295dee" d="M204.22,79.38c.18,6.3-2.02,12.65-6.06,17.48-4.05,4.84-9.9,8.12-16.14,9.05-4.99.75-10.1.03-15.11.55-8.52.88-16.43,5.64-21.58,12.42-1.32,1.74-2.47,3.61-3.4,5.58-.77,1.67,6.12,13.7,2.95,16.4-1.52,1.29-7.58-3.27-7.29-3.27-.59.09-16.12,1.39-16.12,1.39,0,0-22.04-20.66-15.21-34.75,6.81-14.11,19.29-11.58,19.29-11.58,0,0-7.69-13.63-.18-18.98,7.52-5.36,22.4,1.17,22.4,1.17l-.1,1.19c1.46-7.51,8.71-12.8,16.19-14.33,7.5-1.55,15.25-.13,22.76,1.3,5.15.98,10.71,2.19,14.14,6.16,2.39,2.78,3.35,6.56,3.46,10.23Z"/><path class="uuid-529527b0-3487-4286-98f6-0a960a295dee" d="M187.29,126.96c.86,2,2.64,3.15,3.99,2.57s1.73-2.67.87-4.66c-.86-2-2.64-3.15-3.99-2.57-1.34.58-1.73,2.67-.87,4.66Z"/><path class="uuid-44715cd1-d3d6-4735-b1fd-ac31a24650c2" d="M189.45,117.76c-2.8-.18-5.5,1.52-6.86,4.31"/><path class="uuid-529527b0-3487-4286-98f6-0a960a295dee" d="M182.59,123.05c-.14,0-.29-.03-.43-.1-.49-.24-.69-.83-.46-1.32,1.53-3.15,4.59-5.06,7.8-4.86.54.03.95.5.92,1.04-.03.54-.49.95-1.05.92-2.4-.15-4.73,1.32-5.91,3.75-.17.35-.52.55-.89.55Z"/><path class="uuid-529527b0-3487-4286-98f6-0a960a295dee" d="M166.19,136.03c.86,2,2.64,3.15,3.99,2.57,1.34-.58,1.73-2.67.87-4.66-.86-2-2.64-3.15-3.99-2.57-1.34.58-1.73,2.67-.87,4.66Z"/><path class="uuid-44715cd1-d3d6-4735-b1fd-ac31a24650c2" d="M168.35,126.82c-2.8-.18-5.5,1.52-6.86,4.31"/><path class="uuid-529527b0-3487-4286-98f6-0a960a295dee" d="M161.49,132.11c-.14,0-.29-.03-.43-.1-.49-.24-.69-.83-.46-1.32,1.53-3.15,4.59-5.06,7.8-4.86.54.03.95.5.92,1.05-.03.54-.49.95-1.05.92-2.39-.15-4.73,1.32-5.91,3.75-.17.35-.52.55-.89.55Z"/><path class="uuid-44715cd1-d3d6-4735-b1fd-ac31a24650c2" d="M137.51,137.13s-13.88-10.06-20.21-6.62c-6.33,3.44-.03,26.67,8.29,27.62,8.32.95,14.22-3.23,14.22-3.23"/><path class="uuid-529527b0-3487-4286-98f6-0a960a295dee" d="M128.07,159.26c-.83,0-1.7-.05-2.59-.15-5.35-.61-9.68-8.8-11.19-16.58-1.27-6.51-.32-11.33,2.55-12.88,6.8-3.69,20.67,6.26,21.26,6.69.44.32.54.93.22,1.38-.32.44-.94.54-1.38.22-3.72-2.7-14.42-9.13-19.16-6.55-2.01,1.09-2.62,5.32-1.55,10.78,1.36,7,5.28,14.52,9.48,15,7.82.89,13.49-3.02,13.55-3.06.44-.31,1.06-.21,1.37.24.31.44.21,1.06-.24,1.37-.23.16-5.12,3.55-12.31,3.55Z"/><path class="uuid-529527b0-3487-4286-98f6-0a960a295dee" d="M124.79,147.82c-.32,0-.63-.15-.82-.44-.97-1.45-1.65-3.13-1.96-4.84-.27-1.47-.07-2.57.61-3.36.57-.67,1.47-1.05,2.46-1.02.71.02,1.44.24,2.22.67.99.54,1.89,1.3,2.58,2.19.33.43.25,1.05-.18,1.38-.43.33-1.05.25-1.38-.18-.53-.68-1.2-1.26-1.96-1.67-.51-.28-.95-.42-1.34-.43-.38-.01-.73.12-.91.33-.26.31-.32.89-.17,1.73.27,1.45.84,2.87,1.66,4.1.3.45.18,1.06-.27,1.37-.17.11-.36.17-.55.17Z"/><path class="uuid-44715cd1-d3d6-4735-b1fd-ac31a24650c2" d="M179.42,129.8c1.22,2.9,4.75,10.7,5.97,13.59.74,1.75,1.49,3.56,1.26,5.39-.23,1.83-1.72,3.67-3.93,3.93"/><path class="uuid-529527b0-3487-4286-98f6-0a960a295dee" d="M182.72,153.69c-.49,0-.92-.37-.98-.87-.06-.54.33-1.03.87-1.09,1.77-.2,2.9-1.73,3.06-3.07.2-1.6-.54-3.35-1.19-4.89-.61-1.44-1.79-4.11-2.98-6.78-1.19-2.68-2.38-5.36-2.99-6.81-.21-.5.02-1.08.52-1.29.5-.21,1.08.02,1.29.52.61,1.44,1.79,4.11,2.98,6.78,1.19,2.68,2.38,5.36,2.99,6.81.75,1.77,1.59,3.77,1.33,5.9-.26,2.13-2,4.46-4.79,4.79-.04,0-.08,0-.11,0Z"/><path class="uuid-529527b0-3487-4286-98f6-0a960a295dee" d="M172.96,163.81c-2.04,0-4.08-.54-5.85-1.58-2.6-1.53-4.53-4.07-5.29-6.99-.14-.53.18-1.06.7-1.2.53-.14,1.06.18,1.2.7.64,2.41,2.24,4.53,4.39,5.79,2.15,1.27,4.77,1.64,7.19,1.02.52-.13,1.06.18,1.2.71.13.53-.18,1.06-.71,1.2-.93.24-1.88.35-2.83.35Z"/><g class="uuid-c0c38b2a-ffaf-4a93-91db-111ee3a46f6e"><path class="uuid-b7b92939-49f6-4790-b93a-8b61ebee81b1" d="M64.01,263.57c0,2.57,2.08,4.66,4.66,4.66s4.66-2.08,4.66-4.66-2.08-4.66-4.66-4.66-4.66,2.08-4.66,4.66Z"/><path class="uuid-44715cd1-d3d6-4735-b1fd-ac31a24650c2" d="M68.67,269.21c-3.11,0-5.64-2.53-5.64-5.64s2.53-5.64,5.64-5.64,5.64,2.53,5.64,5.64-2.53,5.64-5.64,5.64ZM68.67,259.9c-2.02,0-3.67,1.65-3.67,3.67s1.65,3.67,3.67,3.67,3.67-1.65,3.67-3.67-1.65-3.67-3.67-3.67Z"/></g><circle class="uuid-b7b92939-49f6-4790-b93a-8b61ebee81b1" cx="407.88" cy="96.62" r="33.38" transform="translate(247.18 483.76) rotate(-80.78)"/><circle class="uuid-b7b92939-49f6-4790-b93a-8b61ebee81b1" cx="402.07" cy="274.64" r="33.38" transform="translate(49.95 610.94) rotate(-78.02)"/><rect class="uuid-5aac6623-1714-4ebe-a522-599ba60204a8" x="376.11" y="156.76" width="57.73" height="57.73" transform="translate(-12.64 340.73) rotate(-45)"/><path class="uuid-529527b0-3487-4286-98f6-0a960a295dee" d="M351.41,286.8c-.06,0-.13,0-.19-.02-15.32-3.03-28.86-13.85-35.35-28.23-6.38-14.14-5.71-31.49,1.74-45.29,7.44-13.77,21.15-23.77,36.7-26.75.53-.1,1.05.25,1.15.78.1.53-.25,1.05-.78,1.15-14.97,2.87-28.18,12.49-35.33,25.75-7.17,13.27-7.81,29.96-1.67,43.55,6.23,13.81,19.24,24.2,33.94,27.11.53.11.88.62.78,1.16-.09.47-.5.79-.97.79Z"/><path class="uuid-529527b0-3487-4286-98f6-0a960a295dee" d="M341.47,289.21l4.05-13.27c.76-2.48,4-3.07,5.58-1.01l7.25,9.46c1.33,1.73.56,4.26-1.51,4.96l-11.3,3.81c-2.46.83-4.83-1.47-4.07-3.95Z"/><path class="uuid-529527b0-3487-4286-98f6-0a960a295dee" d="M341.47,289.21l4.05-13.27c.76-2.48,4-3.07,5.58-1.01l7.25,9.46c1.33,1.73.56,4.26-1.51,4.96l-11.3,3.81c-2.46.83-4.83-1.47-4.07-3.95Z"/><path class="uuid-529527b0-3487-4286-98f6-0a960a295dee" d="M465.72,186.72c-.46,0-.87-.32-.96-.79-.11-.53.24-1.05.78-1.16,14.7-2.91,27.71-13.3,33.94-27.11,6.13-13.59,5.49-30.28-1.68-43.55-7.16-13.25-20.36-22.88-35.33-25.75-.53-.1-.88-.62-.78-1.15.1-.53.62-.88,1.15-.78,15.54,2.98,29.26,12.98,36.7,26.75,7.45,13.8,8.12,31.15,1.74,45.29-6.49,14.38-20.03,25.2-35.35,28.23-.06.01-.13.02-.19.02Z"/><path class="uuid-529527b0-3487-4286-98f6-0a960a295dee" d="M475.66,189.13l-4.05-13.27c-.76-2.48-4-3.07-5.58-1.01l-7.25,9.46c-1.33,1.74-.56,4.26,1.51,4.96l11.3,3.81c2.46.83,4.83-1.47,4.07-3.95Z"/><path class="uuid-529527b0-3487-4286-98f6-0a960a295dee" d="M352.49,113.7c0,7.42-3.01,14.13-7.87,18.99-4.85,4.86-11.57,7.87-18.97,7.87h-68.18c-14.83,0-26.85-12.01-26.85-26.85,0-7.42,3.01-14.12,7.87-18.97,4.86-4.86,11.58-7.87,18.99-7.87h68.18c14.83,0,26.84,12.01,26.84,26.84Z"/><circle class="uuid-44715cd1-d3d6-4735-b1fd-ac31a24650c2" cx="260.9" cy="112.98" r="16.08" transform="translate(-17.77 56.62) rotate(-11.98)"/><polyline class="uuid-44715cd1-d3d6-4735-b1fd-ac31a24650c2" points="252.93 114.59 257.65 119.31 268.86 108.11"/><polygon class="uuid-529527b0-3487-4286-98f6-0a960a295dee" points="257.65 122.1 251.54 115.99 254.32 113.2 257.65 116.53 267.47 106.71 270.25 109.5 257.65 122.1"/><rect class="uuid-44715cd1-d3d6-4735-b1fd-ac31a24650c2" x="284.33" y="100.81" width="17.67" height="8.35"/><rect class="uuid-44715cd1-d3d6-4735-b1fd-ac31a24650c2" x="284.33" y="114.24" width="53.24" height="3.51"/><rect class="uuid-44715cd1-d3d6-4735-b1fd-ac31a24650c2" x="284.33" y="121.62" width="21.18" height="3.51"/><path class="uuid-b7b92939-49f6-4790-b93a-8b61ebee81b1" d="M580,250.51c0,7.42-3.01,14.13-7.87,18.99-4.86,4.86-11.57,7.87-18.99,7.87h-68.18c-14.83,0-26.85-12.03-26.85-26.85,0-7.42,3.01-14.12,7.87-18.97,4.86-4.86,11.57-7.87,18.99-7.87h68.18c14.83,0,26.85,12.01,26.85,26.84Z"/><circle class="uuid-44715cd1-d3d6-4735-b1fd-ac31a24650c2" cx="488.4" cy="249.78" r="16.08" transform="translate(-33.57 418.51) rotate(-45)"/><polyline class="uuid-44715cd1-d3d6-4735-b1fd-ac31a24650c2" points="480.43 251.39 485.15 256.11 496.36 244.9"/><polygon class="uuid-529527b0-3487-4286-98f6-0a960a295dee" points="485.15 258.9 479.04 252.79 481.82 250 485.15 253.33 494.97 243.51 497.75 246.3 485.15 258.9"/><rect class="uuid-44715cd1-d3d6-4735-b1fd-ac31a24650c2" x="511.83" y="237.61" width="17.67" height="8.35"/><rect class="uuid-44715cd1-d3d6-4735-b1fd-ac31a24650c2" x="511.83" y="251.04" width="53.24" height="3.51"/><rect class="uuid-44715cd1-d3d6-4735-b1fd-ac31a24650c2" x="511.83" y="258.42" width="21.18" height="3.51"/><path class="uuid-5aac6623-1714-4ebe-a522-599ba60204a8" d="M470.56,53.69c-14.83,0-26.85-12.03-26.85-26.85,0-7.41,3.01-14.13,7.87-18.97,4.86-4.86,11.58-7.87,18.99-7.87h68.18c14.83,0,26.85,12.01,26.85,26.84,0,7.41-3.01,14.13-7.87,18.99-4.86,4.86-11.58,7.87-18.99,7.87h-68.18Z"/><circle class="uuid-44715cd1-d3d6-4735-b1fd-ac31a24650c2" cx="473.99" cy="26.12" r="16.08" transform="translate(6.68 109.6) rotate(-13.28)"/><polyline class="uuid-44715cd1-d3d6-4735-b1fd-ac31a24650c2" points="466.03 27.73 470.75 32.45 481.96 21.24"/><polygon class="uuid-529527b0-3487-4286-98f6-0a960a295dee" points="470.75 35.23 464.64 29.12 467.42 26.34 470.75 29.66 480.56 19.85 483.35 22.63 470.75 35.23"/><rect class="uuid-44715cd1-d3d6-4735-b1fd-ac31a24650c2" x="497.42" y="13.95" width="17.67" height="8.35"/><rect class="uuid-44715cd1-d3d6-4735-b1fd-ac31a24650c2" x="497.42" y="27.38" width="53.24" height="3.51"/><rect class="uuid-44715cd1-d3d6-4735-b1fd-ac31a24650c2" x="497.42" y="34.76" width="21.18" height="3.51"/><path class="uuid-529527b0-3487-4286-98f6-0a960a295dee" d="M89.24,149.29c2.64,4.37,1.23,10.06-3.15,12.69-4.37,2.64-10.06,1.23-12.69-3.15-2.64-4.37-1.23-10.06,3.15-12.69,4.37-2.64,10.06-1.23,12.69,3.15Z"/><path class="uuid-5aac6623-1714-4ebe-a522-599ba60204a8" d="M85.45,116.25c-2.81,6.26-2.36,13.5,1.17,19.37l.45.74-24.1,14.52-.45-.74c-3.6-5.97-9.94-9.61-16.9-10.11-12.69-.92-24.76-7.78-31.83-19.51-12.03-19.96-4.85-46.15,16.23-56.99,18.25-9.39,41.02-3.38,52.29,13.76,7.98,12.12,8.6,26.8,3.12,38.97Z"/><path class="uuid-44715cd1-d3d6-4735-b1fd-ac31a24650c2" d="M68.46,145.11c-.33,0-.64-.16-.83-.46l-18.06-28.46c-1.56.6-3.16,1.12-4.79,1.55l-6.22,1.63c-1.62.42-3.3.19-4.74-.67-1.44-.86-2.45-2.22-2.85-3.85-.45-1.82-.06-3.72,1.06-5.21,1.12-1.5,2.84-2.4,4.71-2.47,5.35-.22,10.47,2.29,13.58,6.6,3.54-1.52,6.85-3.52,9.85-5.94-2.35-4.77-2.18-10.46.52-15.09.94-1.62,2.54-2.71,4.39-3.01,1.85-.3,3.71.25,5.11,1.5,1.25,1.11,1.98,2.65,2.07,4.32.08,1.67-.49,3.27-1.62,4.51l-4.35,4.74c-1.14,1.24-2.34,2.41-3.6,3.51l16.71,29.27c.27.47.11,1.07-.37,1.34-.47.27-1.07.11-1.34-.37l-16.54-28.97c-2.98,2.36-6.24,4.33-9.72,5.86l17.88,28.16c.29.46.16,1.07-.3,1.36-.16.1-.35.15-.53.15ZM37.39,109.13c-.19,0-.38,0-.57.01-1.28.05-2.45.67-3.21,1.69-.77,1.02-1.03,2.32-.73,3.56.27,1.11.97,2.04,1.95,2.63.98.58,2.13.75,3.24.46l6.22-1.63c1.41-.37,2.79-.81,4.15-1.31-2.64-3.39-6.73-5.4-11.04-5.4ZM66.06,91.62c-.22,0-.45.02-.67.05-1.26.2-2.35.95-3,2.05-2.28,3.91-2.5,8.7-.66,12.78,1.08-.96,2.11-1.98,3.1-3.05l4.35-4.74c.77-.84,1.17-1.93,1.11-3.08-.06-1.14-.56-2.19-1.41-2.95-.78-.7-1.78-1.07-2.81-1.07Z"/><rect class="uuid-529527b0-3487-4286-98f6-0a960a295dee" x="58.88" y="139.23" width="36.12" height="15.14" rx="7.57" ry="7.57" transform="translate(-64.72 60.76) rotate(-31.07)"/><rect class="uuid-5aac6623-1714-4ebe-a522-599ba60204a8" x="20.31" y="53.07" width="3.33" height="6.85" transform="translate(-26 19.44) rotate(-31.07)"/><rect class="uuid-5aac6623-1714-4ebe-a522-599ba60204a8" x="2.14" y="71.93" width="3.33" height="6.85" transform="translate(-63.98 42.22) rotate(-61.07)"/><rect class="uuid-5aac6623-1714-4ebe-a522-599ba60204a8" x="45.47" y="45.82" width="3.33" height="6.85" transform="translate(-.91 .89) rotate(-1.07)"/><path class="uuid-5aac6623-1714-4ebe-a522-599ba60204a8" d="M235.86,41.14l-6.19,3.89c-2.9,1.81-6.72.94-8.53-1.94l-3.89-6.19c-1.81-2.88-.95-6.7,1.94-8.51l6.19-3.91c2.88-1.81,6.7-.95,8.53,1.94l3.89,6.21c1.81,2.88.95,6.7-1.94,8.51Z"/><path class="uuid-5aac6623-1714-4ebe-a522-599ba60204a8" d="M51.73,194.39l-3.86,2.43c-1.81,1.13-4.19.59-5.33-1.21l-2.43-3.86c-1.13-1.8-.59-4.18,1.21-5.32l3.87-2.44c1.8-1.13,4.18-.59,5.33,1.21l2.43,3.87c1.13,1.8.59,4.18-1.21,5.32Z"/><path class="uuid-5aac6623-1714-4ebe-a522-599ba60204a8" d="M126.7,33.12l-3.86,2.43c-1.81,1.13-4.19.59-5.33-1.21l-2.43-3.86c-1.13-1.8-.59-4.18,1.21-5.32l3.86-2.44c1.8-1.13,4.18-.59,5.33,1.21l2.43,3.87c1.13,1.8.59,4.18-1.21,5.32Z"/><path class="uuid-5aac6623-1714-4ebe-a522-599ba60204a8" d="M261.23,180.75l-3.86,2.43c-1.81,1.13-4.19.59-5.33-1.21l-2.43-3.86c-1.13-1.8-.59-4.18,1.21-5.32l3.86-2.44c1.8-1.13,4.18-.59,5.33,1.21l2.43,3.87c1.13,1.8.59,4.18-1.21,5.32Z"/></svg>