<?xml version="1.0" encoding="UTF-8"?><svg id="uuid-3ccd5c90-a944-4077-b81a-79c27446fad3" xmlns="http://www.w3.org/2000/svg" viewBox="0 0 580 436.23"><defs><style>.uuid-84ab1277-c67d-4524-b9ec-f6575e7caf4c{fill:#0081ff;}.uuid-abf55b3f-4826-413f-8505-048a20446024{fill:#191959;}.uuid-f046584f-a0d8-42f1-aac4-ace94d7ed176{fill:#fff;}.uuid-1199b4f3-cd95-498d-b544-975a5a351337{fill:#0b135e;}.uuid-8a06f4b2-5b64-422d-a5fe-ab476c9af5df{opacity:.4;}.uuid-0c01307f-9e25-48e2-9f08-01b931ad44c1{fill:#ffcc3d;}</style></defs><path class="uuid-1199b4f3-cd95-498d-b544-975a5a351337" d="M562.6,432.91H69.09c-.55,0-1-.45-1-1s.45-1,1-1h493.5c.55,0,1,.45,1,1s-.45,1-1,1Z"/><path class="uuid-1199b4f3-cd95-498d-b544-975a5a351337" d="M453.55,163.23s10.67,3.34,15.86,14.99c5.19,11.65,4.48,21.2,9.75,24.89,5.27,3.69,9.05,3.72,12.4,11.19,3.35,7.47-2.38,15.18.23,19.71,2.61,4.53,14.46,7.98,13.69,26.6-.77,18.62-10.23,32.77-25.15,38.42-14.91,5.64-56.03-23.99-56.03-23.99l20.23-87.56,9.01-24.25Z"/><path class="uuid-1199b4f3-cd95-498d-b544-975a5a351337" d="M483.89,187.09c-1.95-12.83-17.87-17.97-26.77-8.51-.1.11-.2.21-.3.32-9.84,10.76-11.7,21.09-19.34,23.4-7.64,2.31-12.38,1.2-18.72,8.09-6.34,6.89-1.39,16.79-5.95,20.8-4.56,4.01-20.38,4.06-24.76,24.01-4.38,19.95,3.38,37.8,20.41,48.29,17.03,10.49,76.96-8.41,76.96-8.41l-.14-98.83-1.39-9.15Z"/><path class="uuid-f046584f-a0d8-42f1-aac4-ace94d7ed176" d="M359.62,324.16l-15.98,35.34-38.15-86.47-14.68,7.34c-13.63,6.81-19.64,23.02-13.75,37.07l39.27,93.73c5.31,13.42,18.66,21.9,33.06,21h0c13.15-.82,24.58-9.3,29.18-21.64l29.77-72.11-48.72-14.26Z"/><path class="uuid-1199b4f3-cd95-498d-b544-975a5a351337" d="M347.29,433.24c-14.03,0-26.67-8.51-31.89-21.7l-39.27-93.71c-6.07-14.48.18-31.33,14.23-38.36l14.68-7.34c.25-.12.53-.14.79-.05.26.09.47.29.58.54l37.24,84.42,15.06-33.3c.21-.45.71-.69,1.19-.55l48.72,14.26c.27.08.5.27.62.53.12.26.13.55.02.81l-29.77,72.11c-4.71,12.67-16.51,21.42-30.04,22.26-.72.04-1.44.07-2.16.07ZM304.99,274.39l-13.74,6.87c-13.11,6.55-18.94,22.28-13.27,35.79l39.27,93.73c5.17,13.07,18.06,21.29,32.08,20.39,12.74-.79,23.85-9.03,28.3-21l29.36-71.11-46.82-13.7-15.62,34.55c-.16.36-.52.59-.91.59h0c-.39,0-.75-.24-.91-.6l-37.72-85.51Z"/><line class="uuid-f046584f-a0d8-42f1-aac4-ace94d7ed176" x1="343.63" y1="359.5" x2="347.38" y2="367.44"/><path class="uuid-1199b4f3-cd95-498d-b544-975a5a351337" d="M347.38,368.45c-.38,0-.73-.21-.91-.57l-3.75-7.95c-.24-.5-.02-1.1.48-1.33.5-.24,1.1-.02,1.33.48l3.75,7.95c.24.5.02,1.1-.48,1.33-.14.07-.28.1-.43.1Z"/><path class="uuid-0c01307f-9e25-48e2-9f08-01b931ad44c1" d="M405.89,277.47l-11.35,1.65c-10.55,1.53-19.65,8.2-24.29,17.79l-22.86,38.27,63.3,22.03,3.99-50.46-8.78-29.28Z"/><path class="uuid-1199b4f3-cd95-498d-b544-975a5a351337" d="M410.68,358.21c-.11,0-.22-.02-.33-.06l-63.3-22.03c-.28-.1-.51-.32-.61-.6-.1-.28-.07-.6.08-.85l22.86-38.27c.28-.48.9-.63,1.37-.35.47.28.63.9.35,1.37l-22.23,37.22,60.92,21.21,3.89-49.17c.04-.55.53-.96,1.08-.92.55.04.96.53.92,1.08l-3.99,50.47c-.02.31-.19.59-.45.76-.16.11-.35.16-.55.16Z"/><path class="uuid-0c01307f-9e25-48e2-9f08-01b931ad44c1" d="M442.15,270.5c30.07-.75,53.18,5.11,53.18,5.11,10.26,1.16,18.11,9.68,18.44,20l4.23,136.2h-133.64l2.5-133.75c.17-9.26,6.46-17.29,15.41-19.68,0,0,29.61-7.63,39.88-7.88Z"/><path class="uuid-f046584f-a0d8-42f1-aac4-ace94d7ed176" d="M423.96,272.94l3.07-35.79,34.4-7.17,2.11,40.45s-16.37,22.6-32.3,21.7c-12.81-.72-7.27-19.19-7.27-19.19Z"/><path class="uuid-1199b4f3-cd95-498d-b544-975a5a351337" d="M432.18,293.16c-.33,0-.66,0-1-.03-3.24-.18-5.69-1.44-7.3-3.72-3.92-5.59-1.25-15.47-.91-16.66l3.06-35.69c.04-.44.36-.8.79-.89l34.4-7.17c.29-.06.58,0,.81.19.23.18.37.45.39.74l2.11,40.44c.01.23-.05.45-.19.64-.67.92-16.22,22.14-32.17,22.14ZM427.96,237.98l-3,35.04c0,.07-.02.14-.04.2-.03.1-2.93,10.01.6,15.04,1.25,1.78,3.14,2.72,5.77,2.87.29.02.59.02.88.02,14.01,0,28.46-18.53,30.35-21.04l-2.03-38.92-32.53,6.78ZM423.96,272.94h.01-.01Z"/><path class="uuid-f046584f-a0d8-42f1-aac4-ace94d7ed176" d="M461.53,240.5c14.82-20.9,6.96-50.87,6.96-50.87l-54.54-14.86c-.86.91-18.29,19.33-17.46,51.7.68,26.67,27.82,38.18,53.5,24.75"/><path class="uuid-1199b4f3-cd95-498d-b544-975a5a351337" d="M428.27,257.87c-6.46,0-12.59-1.55-17.88-4.65-9.31-5.48-14.61-14.97-14.91-26.72-.81-31.73,15.82-50.38,17.72-52.4.25-.27.65-.39,1-.29l54.54,14.86c.35.09.61.36.7.71.08.3,7.81,30.67-7.11,51.7-.32.45-.95.56-1.4.24-.45-.32-.56-.94-.24-1.39,13.28-18.72,7.89-45.31,6.94-49.48l-53.38-14.55c-3.09,3.46-17.54,21.23-16.79,50.54.28,11.04,5.23,19.93,13.92,25.05,10.58,6.22,24.83,5.79,38.12-1.16.49-.26,1.09-.07,1.35.42.26.49.07,1.09-.42,1.35-7.33,3.84-14.97,5.77-22.18,5.77Z"/><path class="uuid-1199b4f3-cd95-498d-b544-975a5a351337" d="M454.17,216.68c3.82,1.22,5.72-5.75,5.72-5.75,5.32,10.55,9.18,21.06.66,31.17l.29,1.5h0c16.59-2.17,28.62-16.83,27.6-33.53-.56-9.23-1.39-17.42-3.56-22.9-9.2-23.17-40.64-32.29-67.73-24.23-17.08,5.08-18.87,17.12-14.41,27.93,5.07,12.28,32.38,7,46.93,13.27,2.39,1.03,2.65,11.96,4.5,12.55Z"/><path class="uuid-1199b4f3-cd95-498d-b544-975a5a351337" d="M412.64,211.99c-.36,1.93-1.7,3.31-3,3.07-1.3-.24-2.06-2-1.7-3.94.36-1.93,1.7-3.31,3-3.07,1.3.24,2.06,2,1.7,3.94Z"/><path class="uuid-f046584f-a0d8-42f1-aac4-ace94d7ed176" d="M407.99,204.54c2.32-1.02,5.14-.41,7.16,1.53"/><path class="uuid-1199b4f3-cd95-498d-b544-975a5a351337" d="M415.14,207.07c-.25,0-.5-.09-.69-.28-1.73-1.67-4.11-2.19-6.06-1.33-.51.22-1.1-.01-1.32-.52-.22-.51,0-1.1.52-1.32,2.7-1.18,5.94-.5,8.25,1.73.4.38.41,1.02.02,1.41-.2.2-.46.3-.72.3Z"/><path class="uuid-1199b4f3-cd95-498d-b544-975a5a351337" d="M434.17,217.92c-.05,1.97-1.16,3.53-2.48,3.5-1.32-.03-2.35-1.66-2.3-3.62.05-1.97,1.16-3.53,2.48-3.5,1.32.03,2.35,1.66,2.3,3.62Z"/><path class="uuid-f046584f-a0d8-42f1-aac4-ace94d7ed176" d="M429.26,210.92c2.29-1.09,5.13-.57,7.2,1.31"/><path class="uuid-1199b4f3-cd95-498d-b544-975a5a351337" d="M436.47,213.24c-.24,0-.48-.09-.67-.26-1.78-1.61-4.17-2.07-6.1-1.15-.5.23-1.1.02-1.33-.47-.24-.5-.03-1.1.47-1.33,2.66-1.27,5.92-.69,8.3,1.48.41.37.44,1,.07,1.41-.2.22-.47.33-.74.33Z"/><path class="uuid-f046584f-a0d8-42f1-aac4-ace94d7ed176" d="M458.25,212.55s10.6-11.31,16.81-9.34c6.21,1.97,4.59,23.67-2.63,25.94-7.22,2.26-13.18-.43-13.18-.43"/><path class="uuid-1199b4f3-cd95-498d-b544-975a5a351337" d="M466.46,231.06c-4.38,0-7.44-1.35-7.62-1.43-.5-.23-.73-.82-.5-1.32.23-.5.82-.73,1.32-.5.06.02,5.73,2.5,12.47.39,3.6-1.13,5.76-8.43,5.77-14.83,0-4.9-1.26-8.59-3.15-9.19-4.59-1.47-12.95,6.05-15.78,9.07-.38.41-1.01.42-1.41.05-.4-.38-.42-1.01-.05-1.41,1.13-1.2,11.22-11.7,17.84-9.61,2.86.91,4.55,5.06,4.54,11.11-.01,7.2-2.48,15.27-7.17,16.74-2.25.71-4.39.96-6.27.96Z"/><path class="uuid-1199b4f3-cd95-498d-b544-975a5a351337" d="M471.21,219.98c-.13,0-.26-.02-.39-.08-.51-.21-.75-.8-.53-1.31.51-1.22.78-2.56.76-3.88,0-.72-.15-1.21-.4-1.42-.17-.14-.48-.19-.78-.12-.33.07-.68.26-1.07.59-.59.48-1.08,1.1-1.42,1.78-.25.49-.85.69-1.34.44-.49-.25-.69-.85-.44-1.34.47-.93,1.14-1.77,1.94-2.43.64-.53,1.27-.85,1.91-1,.89-.2,1.81-.01,2.45.51.77.61,1.14,1.58,1.16,2.96.02,1.59-.3,3.21-.92,4.68-.16.38-.53.61-.92.61Z"/><path class="uuid-f046584f-a0d8-42f1-aac4-ace94d7ed176" d="M419.23,216.92c-1.19,2.58-2.39,5.16-3.58,7.74-.72,1.56-1.45,3.17-1.3,4.83.15,1.66,1.45,3.37,3.43,3.67"/><path class="uuid-1199b4f3-cd95-498d-b544-975a5a351337" d="M417.78,234.16s-.1,0-.15-.01c-2.58-.38-4.1-2.59-4.28-4.57-.18-1.96.66-3.76,1.39-5.34l3.58-7.74c.23-.5.83-.72,1.33-.49.5.23.72.83.49,1.33l-3.58,7.74c-.63,1.36-1.34,2.9-1.21,4.32.1,1.17,1.05,2.54,2.58,2.77.55.08.92.59.84,1.14-.07.5-.5.85-.99.85Z"/><path class="uuid-1199b4f3-cd95-498d-b544-975a5a351337" d="M425,243.73c-1.09,0-2.19-.17-3.24-.51-.52-.17-.81-.73-.64-1.26.17-.52.73-.82,1.26-.64,2.12.69,4.48.51,6.47-.5,1.99-1,3.53-2.79,4.24-4.91.17-.52.74-.8,1.26-.63.52.17.81.74.63,1.27-.87,2.61-2.78,4.82-5.23,6.06-1.47.75-3.11,1.12-4.75,1.12Z"/><line class="uuid-f046584f-a0d8-42f1-aac4-ace94d7ed176" x1="384.35" y1="431.81" x2="386.85" y2="298.06"/><path class="uuid-1199b4f3-cd95-498d-b544-975a5a351337" d="M384.35,432.81h-.02c-.55-.01-.99-.47-.98-1.02l2.5-133.75c.01-.55.5-.95,1.02-.98.55.01.99.47.98,1.02l-2.5,133.75c-.01.55-.46.98-1,.98Z"/><path class="uuid-1199b4f3-cd95-498d-b544-975a5a351337" d="M338.35,329.27l-32.18,2.59c-5.4.43-10.56-2.95-11.53-7.57l-11.58-55.21c-.97-4.62,2.62-8.71,8.03-9.15l32.18-2.59c5.4-.43,10.56,2.95,11.53,7.57l11.58,55.21c.97,4.62-2.62,8.71-8.03,9.15Z"/><path class="uuid-abf55b3f-4826-413f-8505-048a20446024" d="M341.01,328.71c.98-1.52,1.38-3.35.97-5.27l-11.59-55.22c-.96-4.61-6.12-8-11.52-7.57l-32.19,2.59c-.95.07-1.82.27-2.64.55,1.36-2.12,3.89-3.61,7.04-3.86l32.19-2.59c5.4-.44,10.56,2.95,11.53,7.57l11.58,55.21c.79,3.81-1.51,7.26-5.36,8.59Z"/><path class="uuid-f046584f-a0d8-42f1-aac4-ace94d7ed176" d="M288.03,292.44l23.51-2.25c4.05-.3,7.86,2.4,8.55,6.4.37,2.17-.14,4.67-2.64,7.22,0,0,4.6,1.96,4.29,6.62-.32,4.67-4.73,6.62-4.73,6.62,0,0,4.75,1.13,4.17,8.28-.39,4.84-9.78,10.18-28.45,8.1"/><path class="uuid-1199b4f3-cd95-498d-b544-975a5a351337" d="M300.67,334.9c-2.54,0-5.23-.15-8.05-.47-.55-.06-.95-.56-.88-1.1.06-.55.55-.95,1.11-.88,11.34,1.26,20.78-.18,25.25-3.87,1.28-1.06,2-2.21,2.1-3.32.5-6.22-3.36-7.21-3.4-7.22-.42-.1-.73-.45-.77-.88-.04-.43.2-.83.59-1.01.15-.07,3.87-1.79,4.14-5.78.26-3.88-3.52-5.57-3.68-5.63-.3-.13-.52-.4-.59-.73-.06-.32.04-.66.27-.89,1.95-1.99,2.75-4.13,2.37-6.35-.58-3.39-3.87-5.84-7.49-5.57l-23.49,2.25c-.55.03-1.04-.35-1.09-.9-.05-.55.35-1.04.9-1.09l23.51-2.25c4.64-.33,8.87,2.83,9.63,7.23.43,2.52-.25,4.91-2.05,7.13,1.53,1,3.96,3.2,3.71,6.95-.22,3.3-2.22,5.38-3.7,6.48,1.57,1.12,3.53,3.53,3.14,8.43-.14,1.67-1.11,3.3-2.82,4.7-3.79,3.13-10.4,4.78-18.69,4.78Z"/><path class="uuid-f046584f-a0d8-42f1-aac4-ace94d7ed176" d="M317.45,303.81s-2.96,2.21-9.27,2.65c-6.31.44-12.11,0-12.11,0"/><path class="uuid-1199b4f3-cd95-498d-b544-975a5a351337" d="M302.26,307.65c-3.61,0-6.23-.19-6.27-.2-.55-.04-.96-.52-.92-1.07.04-.55.52-.95,1.07-.92.06,0,5.81.43,11.97,0,5.88-.41,8.72-2.44,8.75-2.46.45-.32,1.07-.23,1.4.21.33.44.24,1.07-.21,1.39-.13.1-3.27,2.39-9.8,2.84-2.11.15-4.18.2-5.99.2Z"/><path class="uuid-f046584f-a0d8-42f1-aac4-ace94d7ed176" d="M317.01,317.05s-4.73,1.89-10.79,2.14c-6.06.25-7.38,0-7.38,0"/><path class="uuid-1199b4f3-cd95-498d-b544-975a5a351337" d="M301.62,320.31c-2.19,0-2.87-.11-2.97-.13-.54-.1-.9-.63-.8-1.17.1-.54.63-.91,1.17-.79.04,0,1.43.22,7.15-.02,5.82-.24,10.41-2.06,10.46-2.07.51-.2,1.09.05,1.3.56.21.51-.04,1.1-.56,1.3-.2.08-4.96,1.96-11.11,2.21-2.02.08-3.53.11-4.64.11Z"/><path class="uuid-f046584f-a0d8-42f1-aac4-ace94d7ed176" d="M530.23,432.64c-4.37,1.73-8.98,2.59-13.58,2.59-6.02,0-12.02-1.47-17.45-4.39l-80.69-46.67-1.99-1.15-.05-.03-9.35-6.11.4.41c1.32,1.25,1.63,3.23.79,4.86-.87,1.68-2.73,2.49-4.47,2.17-.53-.11-1.05-.31-1.53-.64l-19.1-12.86c-3.07-2.05-4.95-5.56-4.69-9.24.17-2.33,1.13-4.59,3.96-5.36,0,0-2.23-8.43,4.05-10.51,0,0-1.4-9.39,7.43-10.36l-22.83-15.07c-.44-.39-.81-.81-1.12-1.29-1.09-1.65-1.39-3.8-.67-5.72,1.32-3.56,5.42-5.23,8.8-3.57,7.56,3.68,46.7,23.54,57.99,29.05.09.04.19.08.27.12l65.46,29.53-6.19-30.74,42.81-16.15,14.31,69.38c3.61,17.55-5.9,35.17-22.57,41.76Z"/><path class="uuid-1199b4f3-cd95-498d-b544-975a5a351337" d="M516.66,436.23c-6.24,0-12.44-1.56-17.92-4.51l-82.71-47.83-6.26-4.08c.08.94-.11,1.91-.57,2.81-1.03,2-3.31,3.11-5.54,2.7-.72-.14-1.36-.41-1.92-.8l-19.09-12.85c-3.44-2.3-5.41-6.19-5.13-10.14.22-2.95,1.52-4.99,3.79-5.94-.6-3.26-.31-8.53,4.16-10.52-.08-1.51,0-4.81,2-7.39,1-1.3,2.33-2.23,3.96-2.78l-20.85-13.77s-.07-.05-.11-.08c-.52-.46-.95-.95-1.3-1.51-1.29-1.95-1.58-4.43-.76-6.61.73-1.97,2.27-3.55,4.22-4.33,1.93-.77,4.1-.7,5.96.21,3.46,1.68,13.66,6.82,24.46,12.26,12.84,6.47,27.4,13.8,33.54,16.79.1.04.2.08.28.12l63.65,28.71-5.8-28.83c-.1-.48.17-.96.63-1.13l42.81-16.15c.27-.1.58-.08.84.06.26.14.44.39.5.67l14.31,69.38c3.72,18.08-6.03,36.11-23.18,42.89-4.45,1.76-9.14,2.66-13.94,2.66ZM407.13,375.88c.19,0,.38.05.55.16l9.35,6.11,1.99,1.14,80.7,46.67c5.16,2.78,11.03,4.25,16.95,4.25,4.55,0,9-.85,13.21-2.52h0c16.25-6.42,25.48-23.51,21.96-40.63l-14.08-68.24-40.92,15.44,6.02,29.91c.07.37-.06.75-.36.98-.29.23-.69.28-1.03.13l-65.66-29.62c-6.24-3.04-20.8-10.37-33.65-16.84-10.79-5.44-20.99-10.57-24.43-12.25-1.37-.67-2.91-.72-4.34-.15-1.43.57-2.56,1.73-3.09,3.17-.6,1.59-.38,3.39.56,4.82.25.39.54.73.9,1.05l22.77,15.03c.35.23.52.66.42,1.07-.1.41-.44.71-.86.76-2.22.24-3.91,1.1-5.02,2.54-2.09,2.72-1.54,6.65-1.53,6.69.07.48-.21.94-.67,1.1-5.33,1.76-3.42,9.23-3.4,9.31.14.53-.17,1.08-.7,1.22-1.99.54-3.04,2-3.23,4.47-.22,3.23,1.41,6.43,4.25,8.34l19.1,12.86c.35.24.73.4,1.17.49,1.35.26,2.75-.43,3.38-1.65.65-1.25.41-2.72-.59-3.67l-.43-.44c-.35-.37-.38-.94-.05-1.33.2-.24.48-.36.77-.36Z"/><line class="uuid-f046584f-a0d8-42f1-aac4-ace94d7ed176" x1="501.86" y1="368.38" x2="514.62" y2="375.14"/><path class="uuid-1199b4f3-cd95-498d-b544-975a5a351337" d="M514.62,376.14c-.16,0-.32-.04-.47-.12l-12.76-6.76c-.49-.26-.67-.86-.42-1.35.26-.49.87-.67,1.35-.42l12.76,6.76c.49.26.67.86.42,1.35-.18.34-.53.53-.88.53Z"/><polygon class="uuid-f046584f-a0d8-42f1-aac4-ace94d7ed176" points="418.52 384.17 418.46 384.29 416.53 383.02 418.52 384.17"/><path class="uuid-1199b4f3-cd95-498d-b544-975a5a351337" d="M418.46,385.29c-.19,0-.38-.06-.55-.16l-1.93-1.27c-.45-.3-.59-.9-.3-1.36.28-.46.88-.61,1.35-.34l1.99,1.15c.44.26.62.8.41,1.27l-.05.12c-.12.27-.35.47-.63.55-.09.03-.19.04-.28.04Z"/><line class="uuid-f046584f-a0d8-42f1-aac4-ace94d7ed176" x1="407.12" y1="376.89" x2="399.09" y2="371.58"/><path class="uuid-1199b4f3-cd95-498d-b544-975a5a351337" d="M407.12,377.89c-.19,0-.38-.05-.55-.17l-8.04-5.31c-.46-.3-.59-.93-.28-1.39.3-.46.92-.59,1.39-.28l8.04,5.31c.46.3.59.93.28,1.39-.19.29-.51.45-.83.45Z"/><line class="uuid-f046584f-a0d8-42f1-aac4-ace94d7ed176" x1="386.54" y1="345.71" x2="400.5" y2="353.8"/><path class="uuid-1199b4f3-cd95-498d-b544-975a5a351337" d="M400.5,354.8c-.17,0-.34-.04-.5-.14l-13.96-8.09c-.48-.28-.64-.89-.36-1.37.28-.48.89-.64,1.37-.36l13.96,8.09c.48.28.64.89.36,1.37-.19.32-.52.5-.87.5Z"/><line class="uuid-f046584f-a0d8-42f1-aac4-ace94d7ed176" x1="382.47" y1="356.23" x2="394.94" y2="362.74"/><path class="uuid-1199b4f3-cd95-498d-b544-975a5a351337" d="M394.94,363.74c-.16,0-.31-.04-.46-.11l-12.47-6.51c-.49-.26-.68-.86-.42-1.35.26-.49.86-.68,1.35-.42l12.47,6.51c.49.26.68.86.42,1.35-.18.34-.53.54-.89.54Z"/><path class="uuid-1199b4f3-cd95-498d-b544-975a5a351337" d="M406.71,342.89c-.15,0-.31-.04-.46-.11l-12.75-6.54c-.49-.25-.69-.85-.43-1.35.25-.49.86-.69,1.35-.43l12.75,6.54c.49.25.69.85.43,1.35-.18.35-.53.54-.89.54Z"/><path class="uuid-0c01307f-9e25-48e2-9f08-01b931ad44c1" d="M486.9,273.88l19.69,2.77c12.26,1.72,22.71,9.77,27.51,21.19l19.67,43.13-59.72,7.67s-6.51-24.68-6.78-34.31c-.28-10.11-.37-40.45-.37-40.45Z"/><path class="uuid-1199b4f3-cd95-498d-b544-975a5a351337" d="M494.06,349.64c-.45,0-.85-.3-.97-.75-.27-1.01-6.55-24.9-6.81-34.54-.02-.55.42-1.01.97-1.03.55,0,1.01.42,1.03.97.24,8.41,5.39,28.81,6.53,33.23l57.5-7.39-19.11-41.9c-.23-.5,0-1.1.5-1.33.5-.23,1.1,0,1.33.49l19.67,43.13c.13.29.12.62-.04.9-.15.28-.43.47-.75.51l-59.72,7.67s-.09,0-.13,0Z"/><path class="uuid-f046584f-a0d8-42f1-aac4-ace94d7ed176" d="M246.11,210.42c0,54.79-35.96,101.19-85.56,116.87-11.67,3.7-24.1,5.69-37,5.69-23.23,0-44.96-6.47-63.47-17.7C24.66,293.8,1,254.87,1,210.42c0-67.68,54.86-122.55,122.55-122.55s122.56,54.87,122.56,122.55Z"/><path class="uuid-1199b4f3-cd95-498d-b544-975a5a351337" d="M123.55,333.98c-22.62,0-44.75-6.17-63.99-17.84C22.27,293.51,0,253.99,0,210.42c0-68.13,55.43-123.55,123.55-123.55s123.56,55.43,123.56,123.55c0,54.16-34.67,101.51-86.26,117.83-12,3.81-24.55,5.74-37.3,5.74ZM123.55,88.87C56.53,88.87,2,143.4,2,210.42c0,42.87,21.91,81.75,58.6,104.01,18.93,11.48,40.69,17.55,62.95,17.55,12.55,0,24.89-1.9,36.7-5.64,50.76-16.06,84.86-62.64,84.86-115.92,0-67.02-54.53-121.55-121.56-121.55Z"/><path class="uuid-1199b4f3-cd95-498d-b544-975a5a351337" d="M163.65,326.82c-12.65,4.01-26.11,6.16-40.09,6.16-25.17,0-48.72-7.01-68.78-19.18l1.61-21.24,105.14-12.88,2.13,47.14Z"/><path class="uuid-f046584f-a0d8-42f1-aac4-ace94d7ed176" d="M152.28,217.63l8.27,59.98c2.11,15.3,14.48,27.12,29.85,28.54h0c10.24.94,20.35-2.91,27.36-10.44l17.85-31.15-32.02-24.18-10.6,25.29-.25-50.83-40.46,2.78Z"/><path class="uuid-1199b4f3-cd95-498d-b544-975a5a351337" d="M193.39,307.29c-1.03,0-2.06-.05-3.09-.14-15.92-1.47-28.57-13.56-30.75-29.4l-8.27-59.98c-.04-.27.04-.55.21-.77.18-.22.43-.35.71-.37l40.46-2.78c.28-.02.55.08.75.26.2.19.32.45.32.73l.23,45.91,8.7-20.76c.12-.29.36-.5.66-.58.3-.08.62-.02.86.17l32.02,24.18c.4.3.52.86.27,1.3l-17.85,31.15c-.04.07-.08.13-.14.18-6.47,6.95-15.67,10.9-25.1,10.9ZM153.41,218.56l8.12,58.92c2.06,14.92,13.96,26.3,28.96,27.68,9.83.91,19.71-2.85,26.46-10.04l17.35-30.28-30.29-22.87-10.1,24.1c-.18.44-.65.69-1.12.59-.47-.09-.8-.5-.81-.98l-.25-49.76-38.33,2.64Z"/><path class="uuid-84ab1277-c67d-4524-b9ec-f6575e7caf4c" d="M145.38,227.78l1.81-63.98,27.12,5.86c8.64,2.08,15.54,8.56,18.16,17.06l8.23,39.04-55.32,2.02Z"/><path class="uuid-1199b4f3-cd95-498d-b544-975a5a351337" d="M145.38,228.78c-.26,0-.52-.1-.7-.29-.2-.19-.3-.46-.3-.74l1.16-41.05c.02-.55.47-.97,1.03-.97.55.02.99.48.97,1.03l-1.13,39.99,53.07-1.94-7.99-37.88c-.11-.54.23-1.07.77-1.18.54-.12,1.07.23,1.19.77l8.23,39.04c.06.29,0,.59-.19.82-.18.23-.46.37-.75.38l-55.32,2.02s-.02,0-.04,0Z"/><path class="uuid-84ab1277-c67d-4524-b9ec-f6575e7caf4c" d="M117.31,159.36c-13.15-.53-45.38,2.65-45.38,2.65-6.2.8-15.67,6.84-15.86,13.1l-4.03,131.2h113.39l3.85-127.23c.19-6.16-4.07-11.57-10.1-12.85,0,0-29.67-6.37-41.87-6.86Z"/><g class="uuid-8a06f4b2-5b64-422d-a5fe-ab476c9af5df"><path class="uuid-f046584f-a0d8-42f1-aac4-ace94d7ed176" d="M114.01,205.06c-2.4,0-4.35-1.95-4.35-4.35s1.95-4.35,4.35-4.35,4.35,1.95,4.35,4.35-1.95,4.35-4.35,4.35ZM114.01,198.36c-1.3,0-2.35,1.06-2.35,2.35s1.05,2.35,2.35,2.35,2.35-1.05,2.35-2.35-1.05-2.35-2.35-2.35Z"/></g><g class="uuid-8a06f4b2-5b64-422d-a5fe-ab476c9af5df"><path class="uuid-f046584f-a0d8-42f1-aac4-ace94d7ed176" d="M95.43,194.54c-4.13,0-7.5-3.36-7.5-7.5s3.36-7.5,7.5-7.5,7.5,3.36,7.5,7.5-3.36,7.5-7.5,7.5ZM95.43,181.55c-3.03,0-5.5,2.47-5.5,5.5s2.47,5.5,5.5,5.5,5.5-2.47,5.5-5.5-2.47-5.5-5.5-5.5Z"/></g><g class="uuid-8a06f4b2-5b64-422d-a5fe-ab476c9af5df"><path class="uuid-f046584f-a0d8-42f1-aac4-ace94d7ed176" d="M137.18,193c-2.88,0-5.22-2.34-5.22-5.22s2.34-5.22,5.22-5.22,5.22,2.34,5.22,5.22-2.34,5.22-5.22,5.22ZM137.18,184.55c-1.78,0-3.22,1.45-3.22,3.22s1.45,3.22,3.22,3.22,3.22-1.45,3.22-3.22-1.45-3.22-3.22-3.22Z"/></g><g class="uuid-8a06f4b2-5b64-422d-a5fe-ab476c9af5df"><path class="uuid-f046584f-a0d8-42f1-aac4-ace94d7ed176" d="M109.32,239.14c-4.63,0-8.39-3.76-8.39-8.39s3.76-8.39,8.39-8.39,8.39,3.76,8.39,8.39-3.76,8.39-8.39,8.39ZM109.32,224.36c-3.52,0-6.39,2.87-6.39,6.39s2.87,6.39,6.39,6.39,6.39-2.87,6.39-6.39-2.87-6.39-6.39-6.39Z"/></g><g class="uuid-8a06f4b2-5b64-422d-a5fe-ab476c9af5df"><path class="uuid-f046584f-a0d8-42f1-aac4-ace94d7ed176" d="M149.26,223.06c-3.36,0-6.09-2.73-6.09-6.09s2.73-6.09,6.09-6.09,6.09,2.73,6.09,6.09-2.73,6.09-6.09,6.09ZM149.26,212.88c-2.26,0-4.09,1.84-4.09,4.09s1.83,4.09,4.09,4.09,4.09-1.84,4.09-4.09-1.83-4.09-4.09-4.09Z"/></g><g class="uuid-8a06f4b2-5b64-422d-a5fe-ab476c9af5df"><path class="uuid-f046584f-a0d8-42f1-aac4-ace94d7ed176" d="M91.93,275.8c-3.37,0-6.12-2.74-6.12-6.12s2.74-6.12,6.12-6.12,6.12,2.74,6.12,6.12-2.74,6.12-6.12,6.12ZM91.93,265.57c-2.27,0-4.12,1.85-4.12,4.12s1.85,4.12,4.12,4.12,4.12-1.85,4.12-4.12-1.85-4.12-4.12-4.12Z"/></g><g class="uuid-8a06f4b2-5b64-422d-a5fe-ab476c9af5df"><path class="uuid-f046584f-a0d8-42f1-aac4-ace94d7ed176" d="M140.24,289.55c-6.3,0-11.43-5.13-11.43-11.43s5.13-11.43,11.43-11.43,11.43,5.13,11.43,11.43-5.13,11.43-11.43,11.43ZM140.24,268.7c-5.2,0-9.43,4.23-9.43,9.43s4.23,9.43,9.43,9.43,9.43-4.23,9.43-9.43-4.23-9.43-9.43-9.43Z"/></g><g class="uuid-8a06f4b2-5b64-422d-a5fe-ab476c9af5df"><path class="uuid-f046584f-a0d8-42f1-aac4-ace94d7ed176" d="M105.58,297.08c-2.12,0-3.84-1.72-3.84-3.84s1.72-3.84,3.84-3.84,3.84,1.72,3.84,3.84-1.72,3.84-3.84,3.84ZM105.58,291.4c-1.02,0-1.84.83-1.84,1.84s.83,1.84,1.84,1.84,1.84-.83,1.84-1.84-.83-1.84-1.84-1.84Z"/></g><g class="uuid-8a06f4b2-5b64-422d-a5fe-ab476c9af5df"><path class="uuid-f046584f-a0d8-42f1-aac4-ace94d7ed176" d="M85.35,248.92c-2.7,0-4.9-2.2-4.9-4.9s2.2-4.9,4.9-4.9,4.9,2.2,4.9,4.9-2.2,4.9-4.9,4.9ZM85.35,241.12c-1.6,0-2.9,1.3-2.9,2.9s1.3,2.9,2.9,2.9,2.9-1.3,2.9-2.9-1.3-2.9-2.9-2.9Z"/></g><g class="uuid-8a06f4b2-5b64-422d-a5fe-ab476c9af5df"><path class="uuid-f046584f-a0d8-42f1-aac4-ace94d7ed176" d="M182.38,191.15c-2.18,0-3.96-1.77-3.96-3.96s1.77-3.96,3.96-3.96,3.96,1.77,3.96,3.96-1.77,3.96-3.96,3.96ZM182.38,185.24c-1.08,0-1.96.88-1.96,1.96s.88,1.96,1.96,1.96,1.95-.88,1.95-1.96-.88-1.96-1.95-1.96Z"/></g><g class="uuid-8a06f4b2-5b64-422d-a5fe-ab476c9af5df"><path class="uuid-f046584f-a0d8-42f1-aac4-ace94d7ed176" d="M182.54,217.97c-2.51,0-4.55-2.04-4.55-4.55s2.04-4.55,4.55-4.55,4.55,2.04,4.55,4.55-2.04,4.55-4.55,4.55ZM182.54,210.87c-1.4,0-2.55,1.14-2.55,2.55s1.14,2.55,2.55,2.55,2.55-1.14,2.55-2.55-1.14-2.55-2.55-2.55Z"/></g><path class="uuid-1199b4f3-cd95-498d-b544-975a5a351337" d="M165.42,303.64h-.03c-.55-.02-.99-.48-.97-1.03l3.39-114.28c.02-.55.49-.98,1.03-.97.55.02.99.48.97,1.03l-3.39,114.28c-.02.54-.46.97-1,.97Z"/><path class="uuid-1199b4f3-cd95-498d-b544-975a5a351337" d="M153.16,282.49h83.33c3.87,0,7.32-2.93,8.13-6.92l11.56-56.59c1.03-5.03-2.48-9.6-7.36-9.6h-83.33c-3.87,0-7.32,2.93-8.13,6.92l-11.56,56.59c-1.03,5.03,2.48,9.6,7.36,9.6Z"/><path class="uuid-1199b4f3-cd95-498d-b544-975a5a351337" d="M236.49,283.49h-83.33c-2.54,0-4.92-1.13-6.53-3.1-1.72-2.11-2.38-4.92-1.82-7.7l11.56-56.59c.91-4.47,4.75-7.72,9.11-7.72h83.33c2.54,0,4.92,1.13,6.53,3.1,1.72,2.11,2.38,4.92,1.81,7.7l-11.56,56.59c-.91,4.47-4.75,7.72-9.11,7.72ZM165.49,210.38c-3.42,0-6.43,2.57-7.15,6.12l-11.56,56.59c-.45,2.19.06,4.39,1.4,6.04,1.24,1.52,3.01,2.36,4.98,2.36h83.33c3.42,0,6.43-2.57,7.15-6.12l11.56-56.59c.45-2.19-.06-4.39-1.4-6.04-1.24-1.52-3.01-2.36-4.98-2.36h-83.33Z"/><path class="uuid-f046584f-a0d8-42f1-aac4-ace94d7ed176" d="M194.32,244.05c-.54,4.6,2.78,8.33,7.42,8.33s8.84-3.73,9.38-8.33c.54-4.6-2.78-8.33-7.42-8.33s-8.84,3.73-9.38,8.33Z"/><path class="uuid-f046584f-a0d8-42f1-aac4-ace94d7ed176" d="M30.49,306.44c6.01,5.54,13.82,8.51,21.78,8.51,2.99,0,6.01-.42,8.95-1.28l81.2-25.1s8.06-1.93,22.76-8.78c15.08-7.02,19.44-17.3,23.8-26.03,4.36-8.72-2.84-10.81-2.84-10.81,4.17-9.01-2.47-10.06-2.47-10.06.02-.06.04-.13.06-.19,1.26-4.34-4.26-7.4-7.32-4.06l-3.54,3.87,1.8-4.93c.16-.44.23-.89.23-1.33,0-1.09-.45-2.15-1.28-2.91-1.7-1.54-4.37-1.29-5.76.54l-17.33,20.99,1.76-10.71-8.82.8c-4.04.19-7.8,2.11-10.33,5.26l-5.22,6.52-59.05,14.32,4.48-31.07-48.14-3.44-5.04,54.9c-.4,9.44,3.38,18.57,10.33,24.97Z"/><path class="uuid-1199b4f3-cd95-498d-b544-975a5a351337" d="M52.27,315.95c-8.35,0-16.32-3.12-22.46-8.78-7.18-6.62-11.06-16-10.65-25.75l5.05-54.95c.05-.54.52-.93,1.07-.91l48.14,3.44c.28.02.53.15.71.37.17.22.25.5.21.77l-4.27,29.61,57.29-13.89,5.01-6.25c2.7-3.38,6.73-5.43,11.06-5.64l8.77-.8c.31-.03.61.09.82.32.21.23.31.54.26.84l-1.16,7.06,14.98-18.13c.81-1.06,2.07-1.76,3.44-1.89,1.37-.13,2.74.33,3.76,1.25,1.02.94,1.61,2.26,1.61,3.65,0,.58-.1,1.14-.29,1.68l-.06.18.13-.14c1.97-2.15,4.7-2.07,6.54-1.04,1.94,1.09,2.95,3.14,2.65,5.27.9.35,2.18,1.09,2.97,2.57,1.04,1.94.91,4.51-.36,7.64,1.02.52,2.53,1.56,3.36,3.44,1,2.29.69,5.1-.94,8.34l-.77,1.54c-4.21,8.52-8.99,18.19-23.51,24.94-14.63,6.81-22.62,8.76-22.95,8.84l-81.14,25.09c-3.03.88-6.14,1.32-9.25,1.32ZM26.11,227.63l-4.95,53.92c-.38,9.11,3.26,17.93,10.01,24.15h0c5.76,5.32,13.26,8.25,21.1,8.25,2.92,0,5.84-.42,8.67-1.24l81.18-25.1c.14-.04,8.22-2.02,22.64-8.73,13.88-6.46,18.49-15.79,22.56-24.02l.77-1.55c1.35-2.69,1.65-4.93.9-6.65-.92-2.09-3.1-2.74-3.12-2.75-.28-.08-.51-.28-.63-.55-.12-.27-.12-.57,0-.84,1.36-2.93,1.64-5.28.83-6.81-.81-1.53-2.52-1.83-2.54-1.84-.3-.05-.55-.22-.71-.48-.15-.26-.18-.57-.08-.85.56-1.95-.47-3.28-1.51-3.87-1.06-.6-2.77-.79-4.08.64l-3.54,3.87c-.32.35-.85.43-1.26.18-.41-.25-.58-.75-.42-1.2l1.8-4.93c.11-.31.17-.64.17-.99,0-.82-.35-1.62-.95-2.17-.61-.55-1.4-.82-2.23-.74-.83.08-1.56.48-2.06,1.14l-17.36,21.02c-.29.35-.77.46-1.18.27-.41-.19-.65-.63-.57-1.07l1.55-9.43-7.53.69c-3.8.18-7.29,1.96-9.64,4.89l-5.23,6.52c-.14.17-.33.29-.54.35l-59.05,14.32c-.32.08-.66,0-.91-.23-.25-.22-.36-.55-.32-.88l4.33-30.01-46.09-3.29Z"/><path class="uuid-f046584f-a0d8-42f1-aac4-ace94d7ed176" d="M173.04,231.99s-4.12,11.71-9.34,15.93"/><path class="uuid-1199b4f3-cd95-498d-b544-975a5a351337" d="M163.7,248.92c-.29,0-.58-.13-.78-.37-.35-.43-.28-1.06.15-1.41,4.94-3.99,8.98-15.37,9.03-15.48.18-.52.75-.8,1.28-.61.52.18.8.75.61,1.28-.17.49-4.28,12.03-9.65,16.38-.19.15-.41.22-.63.22Z"/><path class="uuid-f046584f-a0d8-42f1-aac4-ace94d7ed176" d="M183.56,232.94s-2.18,11.47-13.47,20.77"/><path class="uuid-1199b4f3-cd95-498d-b544-975a5a351337" d="M170.09,254.71c-.29,0-.57-.12-.77-.36-.35-.43-.29-1.06.14-1.41,10.85-8.93,13.1-20.07,13.12-20.18.1-.54.63-.89,1.17-.79.54.1.9.63.8,1.17-.09.48-2.38,11.94-13.81,21.35-.19.15-.41.23-.64.23Z"/><path class="uuid-f046584f-a0d8-42f1-aac4-ace94d7ed176" d="M185.87,243.28s-1.64,9.91-10.81,16.26"/><path class="uuid-1199b4f3-cd95-498d-b544-975a5a351337" d="M175.06,260.54c-.32,0-.63-.15-.82-.43-.31-.45-.2-1.08.25-1.39,8.72-6.04,10.38-15.51,10.39-15.6.09-.54.6-.92,1.15-.82.55.09.91.61.82,1.15-.07.42-1.82,10.41-11.23,16.92-.17.12-.37.18-.57.18Z"/><path class="uuid-84ab1277-c67d-4524-b9ec-f6575e7caf4c" d="M71.92,162l-19.03,3.01c-10.28,1.63-18.63,9.17-21.29,19.23l-11.45,43.24,56.49,6.87,2.56-32.72c.71-5.77.3-11.62-1.22-17.23l-6.07-22.39Z"/><g class="uuid-8a06f4b2-5b64-422d-a5fe-ab476c9af5df"><path class="uuid-f046584f-a0d8-42f1-aac4-ace94d7ed176" d="M66.35,205.35c-2.7,0-4.9-2.2-4.9-4.9s2.2-4.9,4.9-4.9,4.9,2.2,4.9,4.9-2.2,4.9-4.9,4.9ZM66.35,197.55c-1.6,0-2.9,1.3-2.9,2.9s1.3,2.9,2.9,2.9,2.9-1.3,2.9-2.9-1.3-2.9-2.9-2.9Z"/></g><g class="uuid-8a06f4b2-5b64-422d-a5fe-ab476c9af5df"><path class="uuid-f046584f-a0d8-42f1-aac4-ace94d7ed176" d="M54.08,190.08c-4.09,0-7.42-3.33-7.42-7.42s3.33-7.42,7.42-7.42,7.42,3.33,7.42,7.42-3.33,7.42-7.42,7.42ZM54.08,177.24c-2.99,0-5.42,2.43-5.42,5.42s2.43,5.42,5.42,5.42,5.42-2.43,5.42-5.42-2.43-5.42-5.42-5.42Z"/></g><path class="uuid-1199b4f3-cd95-498d-b544-975a5a351337" d="M76.65,235.35s-.08,0-.12,0l-56.49-6.87c-.29-.03-.55-.19-.71-.43-.16-.24-.21-.54-.14-.82l11.45-43.24c.14-.53.69-.86,1.22-.71.53.14.85.69.71,1.22l-11.16,42.13,54.32,6.61,2.48-31.68c.04-.55.53-.95,1.08-.92.55.04.96.52.92,1.08l-2.56,32.72c-.02.27-.15.52-.36.7-.18.15-.4.23-.63.23Z"/><line class="uuid-f046584f-a0d8-42f1-aac4-ace94d7ed176" x1="69.48" y1="260.98" x2="57.27" y2="264.57"/><path class="uuid-1199b4f3-cd95-498d-b544-975a5a351337" d="M57.27,265.57c-.43,0-.83-.28-.96-.72-.16-.53.15-1.09.68-1.24l12.21-3.58c.53-.15,1.08.15,1.24.68.16.53-.15,1.09-.68,1.24l-12.21,3.58c-.09.03-.19.04-.28.04Z"/><path class="uuid-f046584f-a0d8-42f1-aac4-ace94d7ed176" d="M97.67,158.99l-1.41-38.47,36.02,4.05s.98,36.26.95,36.29c-6.76,17.25-21.05,16.43-35.56-1.87Z"/><path class="uuid-1199b4f3-cd95-498d-b544-975a5a351337" d="M119.08,174.27c-6.83,0-14.63-5.13-22.19-14.66-.13-.17-.21-.37-.22-.58l-1.41-38.47c-.01-.29.11-.57.32-.77.21-.2.5-.29.79-.26l36.02,4.05c.5.06.87.47.89.97.82,30.43.96,35.6.82,36.66l.06.02c-2.98,7.6-7.53,12.07-13.14,12.91-.64.09-1.29.14-1.94.14ZM98.66,158.62c7.76,9.7,15.58,14.49,22.06,13.53,4.82-.72,8.8-4.69,11.5-11.48-.04-2.16-.6-23.24-.92-35.21l-34-3.82,1.35,36.98Z"/><path class="uuid-f046584f-a0d8-42f1-aac4-ace94d7ed176" d="M96.75,117.15c-4.05-17.47-1.44-37.99-1.44-37.99l42.92-11.81c.77.87,24.82,14.98,21.17,45.05-3.25,26.79-14.69,42.78-49.3,26.78"/><path class="uuid-1199b4f3-cd95-498d-b544-975a5a351337" d="M133.69,146.58c-6.69,0-14.65-2.16-24.03-6.5-.5-.23-.72-.83-.49-1.33.23-.5.83-.72,1.33-.49,14.91,6.9,25.97,8.13,33.78,3.77,7.57-4.22,12.18-13.96,14.1-29.77,2.1-17.28-5.01-32.75-20.03-43.57-.15-.1-.27-.19-.37-.27l-41.78,11.49c-.39,3.64-2.06,21.63,1.5,36.98.13.54-.21,1.08-.75,1.2-.54.13-1.08-.21-1.2-.75-4.04-17.45-1.49-38.14-1.46-38.35.05-.4.34-.73.73-.84l42.92-11.81c.37-.1.76.02,1.01.3.05.04.26.19.56.41,15.63,11.26,23.03,27.39,20.84,45.43-2,16.49-6.95,26.72-15.12,31.27-3.34,1.86-7.18,2.79-11.57,2.79Z"/><path class="uuid-1199b4f3-cd95-498d-b544-975a5a351337" d="M169.65,70.9c-1,5.18-3.96,9.97-8.15,13.18-4.19,3.22-9.58,4.83-14.84,4.44-4.22-.3-8.26-1.82-12.45-2.32-7.13-.84-14.46,1.6-19.91,6.2-1.4,1.18-2.68,2.5-3.8,3.94-.94,1.23,2.49,12.32-.59,13.94-1.48.78-5.6-4.06-5.36-4.01-.5-.03-13.43-1.81-13.43-1.81,0,0-14.23-20.92-6.08-31.19,8.15-10.28,17.89-5.93,17.89-5.93,0,0-3.79-12.55,3.32-15.55,7.13-3,18.1,5.06,18.1,5.06l-.3.95c2.57-5.87,9.46-8.87,15.86-8.76,6.41.11,12.49,2.69,18.36,5.23,4.03,1.74,8.36,3.75,10.43,7.63,1.45,2.71,1.54,5.98.96,9Z"/><path class="uuid-1199b4f3-cd95-498d-b544-975a5a351337" d="M147.11,106.69c.34,1.79,1.59,3.06,2.79,2.83,1.2-.23,1.9-1.86,1.56-3.65-.34-1.79-1.59-3.06-2.79-2.83-1.2.23-1.9,1.86-1.56,3.65Z"/><path class="uuid-f046584f-a0d8-42f1-aac4-ace94d7ed176" d="M150.56,99.56c-2.26-.66-4.78.24-6.39,2.27"/><path class="uuid-1199b4f3-cd95-498d-b544-975a5a351337" d="M144.17,102.83c-.22,0-.44-.07-.62-.22-.43-.34-.5-.97-.16-1.41,1.88-2.36,4.8-3.38,7.46-2.6.53.15.83.71.68,1.24-.16.53-.71.83-1.24.68-1.87-.55-3.96.21-5.33,1.93-.2.25-.49.38-.78.38Z"/><path class="uuid-1199b4f3-cd95-498d-b544-975a5a351337" d="M128.2,110.24c.34,1.79,1.59,3.06,2.79,2.83,1.2-.23,1.9-1.86,1.56-3.65-.34-1.79-1.59-3.06-2.79-2.83-1.2.23-1.9,1.86-1.56,3.65Z"/><path class="uuid-f046584f-a0d8-42f1-aac4-ace94d7ed176" d="M131.65,103.11c-2.26-.66-4.78.24-6.39,2.27"/><path class="uuid-1199b4f3-cd95-498d-b544-975a5a351337" d="M125.26,106.38c-.22,0-.44-.07-.62-.22-.43-.35-.5-.97-.16-1.41,1.87-2.35,4.8-3.38,7.45-2.6.53.15.84.71.68,1.24-.15.53-.71.84-1.24.68-1.87-.54-3.96.21-5.33,1.93-.2.25-.49.38-.78.38Z"/><path class="uuid-f046584f-a0d8-42f1-aac4-ace94d7ed176" d="M104.56,105.9s-9.51-10.76-15.31-9.11c-5.8,1.66-4.9,21.8,1.72,24.09,6.63,2.29,12.22-.04,12.22-.04"/><path class="uuid-1199b4f3-cd95-498d-b544-975a5a351337" d="M97.04,122.9c-1.89,0-4.08-.27-6.39-1.07-4.34-1.5-6.42-9.07-6.23-15.77.16-5.63,1.86-9.46,4.57-10.23,6.23-1.77,15.32,8.26,16.33,9.41.37.41.33,1.05-.09,1.41-.41.37-1.05.33-1.41-.09-2.53-2.86-10.02-10.02-14.29-8.81-1.74.49-2.99,3.86-3.11,8.36-.16,5.91,1.62,12.69,4.89,13.82,6.19,2.15,11.45,0,11.51-.02.51-.21,1.1.03,1.31.54.21.51-.03,1.1-.54,1.31-.16.07-2.77,1.13-6.54,1.13Z"/><path class="uuid-1199b4f3-cd95-498d-b544-975a5a351337" d="M92.38,112.5c-.4,0-.78-.24-.93-.64-.53-1.39-.79-2.9-.73-4.39.05-1.31.44-2.21,1.19-2.77.63-.47,1.51-.62,2.35-.41.6.15,1.18.48,1.77.99.73.64,1.34,1.44,1.75,2.32.23.5.02,1.1-.48,1.33-.5.23-1.1.02-1.33-.48-.3-.63-.73-1.21-1.25-1.66-.34-.3-.65-.48-.94-.56-.25-.07-.51-.04-.66.08-.16.12-.35.43-.38,1.25-.05,1.21.16,2.45.59,3.59.2.52-.06,1.09-.57,1.29-.12.05-.24.07-.36.07Z"/><path class="uuid-f046584f-a0d8-42f1-aac4-ace94d7ed176" d="M140.16,107.57c.47,2.59,1.92,9.61,2.39,12.2.28,1.56.56,3.18.05,4.64-.52,1.45-2.08,2.69-3.93,2.49"/><path class="uuid-1199b4f3-cd95-498d-b544-975a5a351337" d="M139.07,127.93c-.16,0-.33,0-.5-.03-.55-.06-.95-.55-.89-1.1.06-.55.56-.94,1.1-.89,1.4.16,2.53-.83,2.88-1.83.44-1.23.16-2.77-.09-4.12-.23-1.29-.71-3.67-1.19-6.06-.48-2.42-.97-4.84-1.2-6.14-.1-.54.26-1.06.8-1.16.54-.09,1.06.26,1.16.81.24,1.3.72,3.7,1.2,6.11.48,2.4.96,4.8,1.2,6.09.29,1.6.62,3.42,0,5.15-.58,1.64-2.28,3.18-4.47,3.18Z"/><path class="uuid-1199b4f3-cd95-498d-b544-975a5a351337" d="M130.75,134.6c-2.47,0-4.9-.95-6.71-2.64-1.88-1.75-3.01-4.23-3.1-6.8-.02-.55.41-1.02.96-1.04.54-.04,1.02.41,1.04.96.08,2.04.98,4.02,2.47,5.42,1.49,1.4,3.52,2.16,5.57,2.1.54,0,1.01.42,1.03.97.02.55-.42,1.01-.97,1.03-.1,0-.19,0-.29,0Z"/><g class="uuid-8a06f4b2-5b64-422d-a5fe-ab476c9af5df"><path class="uuid-f046584f-a0d8-42f1-aac4-ace94d7ed176" d="M43.76,218.65c-2.7,0-4.9-2.2-4.9-4.9s2.2-4.9,4.9-4.9,4.9,2.2,4.9,4.9-2.2,4.9-4.9,4.9ZM43.76,210.85c-1.6,0-2.9,1.3-2.9,2.9s1.3,2.9,2.9,2.9,2.9-1.3,2.9-2.9-1.3-2.9-2.9-2.9Z"/></g><path class="uuid-0c01307f-9e25-48e2-9f08-01b931ad44c1" d="M365.97,201.17c8.38,11.46,6.84,27.48-3.91,36.18-11.32,9.15-28.39,6.74-37.59-5.84-9.2-12.58-6.32-29.58,5.84-37.59,11.55-7.61,27.28-4.21,35.66,7.25Z"/><path class="uuid-1199b4f3-cd95-498d-b544-975a5a351337" d="M346.4,243.87c-1.17,0-2.35-.08-3.53-.23-7.67-1-14.49-5.1-19.2-11.54-4.71-6.44-6.55-14.18-5.17-21.8,1.29-7.17,5.3-13.28,11.27-17.22,11.94-7.87,28.2-4.57,37.02,7.49h0c8.82,12.07,7.03,28.56-4.09,37.54-4.65,3.76-10.34,5.75-16.29,5.75ZM344.06,190.82c-4.58,0-9.16,1.28-13.2,3.94-5.51,3.63-9.21,9.28-10.4,15.9-1.28,7.07.44,14.26,4.82,20.26,4.38,6,10.72,9.81,17.84,10.74,6.67.87,13.17-.94,18.31-5.09,10.28-8.32,11.92-23.61,3.73-34.81h0c-5.19-7.11-13.16-10.94-21.1-10.94Z"/><path class="uuid-1199b4f3-cd95-498d-b544-975a5a351337" d="M327.19,196.49c-12.15,8.01-15.03,25.01-5.84,37.59,9.2,12.58,26.27,14.99,37.59,5.84l3.13-2.57c-11.32,9.15-28.39,6.74-37.59-5.84-9.2-12.58-6.32-29.58,5.84-37.59l-3.13,2.57Z"/><path class="uuid-1199b4f3-cd95-498d-b544-975a5a351337" d="M343.27,246.45c-1.17,0-2.35-.08-3.53-.23-7.67-1-14.49-5.1-19.2-11.54-4.71-6.44-6.55-14.18-5.18-21.8,1.25-6.93,5.03-12.87,10.67-16.81,1.14-1.09,2.38-2.09,3.73-2.98.44-.29,1.04-.19,1.36.24.32.43.24,1.03-.17,1.37l-3.13,2.57s-.06.04-.08.06c-.14.09-.28.19-.42.28-3.55,3.46-5.94,7.97-6.85,13.05-1.28,7.07.44,14.26,4.82,20.26,4.38,6,10.72,9.81,17.84,10.74,6.67.87,13.17-.94,18.31-5.09.43-.35,1.06-.28,1.4.15.35.43.29,1.06-.14,1.4l-3.13,2.57c-4.66,3.77-10.34,5.75-16.3,5.75ZM319.27,207.12c-.89,1.91-1.55,3.96-1.93,6.11-1.28,7.07.44,14.26,4.82,20.26,4.38,6,10.72,9.81,17.84,10.74,3.11.41,6.18.23,9.09-.49-2.04.21-4.12.18-6.22-.1-7.67-1-14.49-5.1-19.2-11.54-4.71-6.44-6.55-14.18-5.17-21.8.2-1.09.46-2.15.77-3.19Z"/><path class="uuid-f046584f-a0d8-42f1-aac4-ace94d7ed176" d="M354.43,219.84c.09,2.04-.63,3.76-2.16,5.17-1.26,1.16-2.97,2.03-5.15,2.63l.18,4.05c.05,1.15-.49,1.76-1.63,1.81-.49.02-.89-.17-1.19-.56-.23-.32-.36-.69-.38-1.1l-.16-3.58c-.38.04-.76.07-1.13.08-1.99.09-3.55-.13-4.68-.67-1.02-.47-1.55-1.12-1.59-1.92-.07-1.54.68-2.35,2.24-2.42.41-.02,1.1.11,2.08.38.98.27,1.62.41,1.91.39.27-.01.59-.05.98-.12l-.32-7.14c-1.74-.04-3.23-.37-4.48-1-1.63-.81-2.48-2-2.55-3.57-.08-1.78.56-3.45,1.92-5.01,1.21-1.39,2.72-2.45,4.54-3.17l-.12-2.67c-.06-1.26.46-1.92,1.55-1.96,1.04-.05,1.59.56,1.64,1.82l.1,2.14c1.12.03,2.33.24,3.63.65,1.66.51,2.5,1.14,2.54,1.9.03.61-.15,1.15-.54,1.6-.39.45-.86.69-1.43.71-.48.02-1.14-.05-2-.22-.91-.17-1.58-.25-2-.25l.22,4.97c.14,0,.25,0,.33,0,2.2.08,3.95.68,5.27,1.78,1.48,1.23,2.28,3,2.38,5.29ZM343.07,208.64c-1.59.74-2.37,1.61-2.32,2.6.04.85.87,1.35,2.51,1.51l-.18-4.11ZM346.91,223.03c2.13-.92,3.17-1.98,3.11-3.2-.08-1.83-1.21-2.83-3.39-2.98l.28,6.18Z"/><path class="uuid-0c01307f-9e25-48e2-9f08-01b931ad44c1" d="M318.41,112.88c8.38,11.46,6.84,27.48-3.91,36.18-11.32,9.15-28.39,6.74-37.59-5.84-9.2-12.58-6.32-29.58,5.84-37.59,11.55-7.61,27.28-4.21,35.66,7.25Z"/><path class="uuid-1199b4f3-cd95-498d-b544-975a5a351337" d="M298.83,155.59c-1.17,0-2.35-.08-3.53-.23-7.67-1-14.49-5.1-19.2-11.54-4.71-6.44-6.55-14.18-5.18-21.8,1.29-7.17,5.3-13.28,11.27-17.22,11.94-7.86,28.19-4.57,37.02,7.49h0c8.82,12.07,7.03,28.56-4.09,37.54-4.65,3.76-10.33,5.75-16.29,5.75ZM296.5,102.53c-4.58,0-9.16,1.28-13.2,3.94-5.51,3.63-9.21,9.28-10.4,15.9-1.28,7.07.44,14.26,4.82,20.26,4.38,6,10.72,9.81,17.84,10.74,6.67.87,13.17-.94,18.31-5.09,10.28-8.32,11.92-23.61,3.73-34.81h0c-5.19-7.11-13.16-10.94-21.1-10.94Z"/><path class="uuid-1199b4f3-cd95-498d-b544-975a5a351337" d="M279.62,108.21c-12.15,8.01-15.03,25.01-5.84,37.59,9.2,12.58,26.27,14.99,37.59,5.84l3.13-2.57c-11.32,9.15-28.39,6.74-37.59-5.84-9.2-12.58-6.32-29.58,5.84-37.59l-3.13,2.57Z"/><path class="uuid-1199b4f3-cd95-498d-b544-975a5a351337" d="M295.71,158.16c-1.17,0-2.35-.08-3.53-.23-7.67-1-14.49-5.1-19.2-11.54-4.71-6.44-6.55-14.18-5.17-21.8,1.25-6.92,5.03-12.87,10.67-16.81,1.14-1.09,2.38-2.09,3.73-2.98.44-.29,1.04-.19,1.36.24.32.43.24,1.03-.17,1.37l-3.13,2.57s-.06.04-.08.06c-.14.09-.28.19-.42.28-3.55,3.46-5.94,7.97-6.85,13.05-1.28,7.07.44,14.26,4.82,20.26,4.38,6,10.72,9.81,17.84,10.74,6.67.87,13.17-.94,18.31-5.09.43-.35,1.06-.28,1.4.15.35.43.29,1.06-.14,1.4l-3.13,2.57c-4.66,3.77-10.34,5.75-16.3,5.75ZM271.7,118.83c-.89,1.91-1.54,3.96-1.93,6.11-1.28,7.07.44,14.26,4.82,20.26,4.38,6,10.72,9.81,17.84,10.74,3.11.41,6.18.23,9.09-.49-2.04.21-4.12.18-6.22-.09-7.67-1-14.49-5.1-19.2-11.54-4.71-6.44-6.55-14.18-5.18-21.8.2-1.09.45-2.15.77-3.18Z"/><path class="uuid-f046584f-a0d8-42f1-aac4-ace94d7ed176" d="M306.87,131.55c.09,2.04-.63,3.76-2.16,5.17-1.26,1.16-2.97,2.03-5.15,2.63l.18,4.05c.05,1.15-.49,1.76-1.63,1.81-.49.02-.89-.17-1.19-.56-.23-.32-.36-.69-.38-1.1l-.16-3.58c-.38.04-.76.07-1.13.08-1.99.09-3.55-.13-4.68-.67-1.02-.47-1.55-1.11-1.59-1.92-.07-1.54.68-2.35,2.24-2.42.41-.02,1.1.11,2.08.38.98.27,1.62.41,1.91.39.27-.01.59-.05.98-.12l-.32-7.14c-1.74-.04-3.23-.37-4.48-1-1.63-.81-2.48-2-2.55-3.57-.08-1.78.56-3.45,1.92-5.01,1.21-1.39,2.72-2.45,4.54-3.17l-.12-2.67c-.06-1.26.46-1.92,1.55-1.96,1.04-.05,1.59.56,1.64,1.82l.1,2.14c1.12.03,2.33.24,3.63.65,1.66.51,2.5,1.14,2.54,1.9.03.61-.15,1.15-.54,1.6-.39.45-.86.69-1.43.71-.48.02-1.14-.05-2-.22-.91-.17-1.58-.25-2-.25l.22,4.97c.14,0,.25,0,.33,0,2.2.08,3.95.68,5.27,1.78,1.48,1.23,2.28,3,2.38,5.29ZM295.51,120.35c-1.59.74-2.37,1.61-2.32,2.6.04.85.87,1.35,2.51,1.51l-.18-4.11ZM299.35,134.74c2.13-.92,3.17-1.98,3.11-3.2-.08-1.83-1.21-2.83-3.39-2.98l.28,6.18Z"/><path class="uuid-0c01307f-9e25-48e2-9f08-01b931ad44c1" d="M252.76,152.28c8.38,11.46,6.84,27.48-3.91,36.18-11.32,9.15-28.39,6.74-37.59-5.84-9.2-12.58-6.32-29.58,5.84-37.59,11.55-7.61,27.28-4.21,35.66,7.25Z"/><path class="uuid-1199b4f3-cd95-498d-b544-975a5a351337" d="M233.19,194.98c-1.17,0-2.35-.08-3.53-.23-7.67-1-14.49-5.1-19.2-11.54-4.71-6.44-6.55-14.18-5.17-21.8,1.29-7.17,5.3-13.28,11.27-17.22,11.94-7.86,28.19-4.57,37.02,7.49h0c8.82,12.07,7.03,28.56-4.09,37.55-4.65,3.76-10.33,5.75-16.29,5.75ZM230.86,141.93c-4.58,0-9.16,1.28-13.2,3.94-5.51,3.63-9.21,9.28-10.4,15.9-1.28,7.07.44,14.26,4.82,20.26,4.38,6,10.72,9.81,17.84,10.74,6.68.87,13.18-.94,18.31-5.09,10.28-8.32,11.92-23.61,3.73-34.81h0c-5.19-7.1-13.16-10.94-21.1-10.94Z"/><path class="uuid-1199b4f3-cd95-498d-b544-975a5a351337" d="M213.98,147.6c-12.15,8.01-15.03,25.01-5.84,37.59,9.2,12.58,26.27,14.99,37.59,5.84l3.13-2.57c-11.32,9.15-28.39,6.74-37.59-5.84-9.2-12.58-6.32-29.58,5.84-37.59l-3.13,2.57Z"/><path class="uuid-1199b4f3-cd95-498d-b544-975a5a351337" d="M230.06,197.55c-1.17,0-2.35-.08-3.53-.23-7.67-1-14.49-5.1-19.2-11.54-4.71-6.44-6.55-14.18-5.18-21.8,1.25-6.92,5.03-12.87,10.67-16.81,1.14-1.1,2.38-2.09,3.73-2.98.44-.29,1.04-.19,1.36.24.32.43.24,1.03-.17,1.37l-3.13,2.57s-.06.04-.08.06c-.14.09-.28.19-.42.28-3.55,3.46-5.94,7.97-6.85,13.05-1.28,7.07.44,14.26,4.82,20.26,4.38,6,10.72,9.81,17.84,10.74,6.68.87,13.18-.94,18.31-5.09.43-.35,1.06-.28,1.4.15.35.43.29,1.06-.14,1.4l-3.13,2.57c-4.66,3.77-10.34,5.75-16.3,5.75ZM206.06,158.23c-.89,1.91-1.54,3.96-1.93,6.11-1.28,7.07.44,14.26,4.82,20.26,4.38,6,10.72,9.81,17.84,10.74,3.11.41,6.18.23,9.09-.49-2.04.21-4.12.18-6.22-.1-7.67-1-14.49-5.1-19.2-11.54-4.71-6.44-6.55-14.18-5.17-21.8.2-1.09.45-2.15.77-3.18Z"/><path class="uuid-f046584f-a0d8-42f1-aac4-ace94d7ed176" d="M241.22,170.95c.09,2.04-.63,3.76-2.16,5.17-1.26,1.16-2.97,2.03-5.15,2.63l.18,4.05c.05,1.15-.49,1.76-1.63,1.81-.49.02-.89-.17-1.19-.56-.23-.32-.36-.69-.38-1.1l-.16-3.58c-.38.04-.76.07-1.13.08-1.99.09-3.55-.13-4.68-.67-1.02-.47-1.55-1.11-1.59-1.92-.07-1.54.68-2.35,2.24-2.42.41-.02,1.1.11,2.08.38.98.27,1.62.41,1.91.39.27-.01.59-.05.98-.12l-.32-7.14c-1.74-.04-3.23-.37-4.48-1-1.63-.81-2.48-2-2.55-3.57-.08-1.78.56-3.45,1.92-5.01,1.21-1.39,2.72-2.45,4.54-3.17l-.12-2.67c-.06-1.26.46-1.92,1.55-1.96,1.04-.05,1.59.56,1.64,1.82l.1,2.14c1.12.03,2.33.24,3.63.65,1.66.51,2.5,1.14,2.54,1.9.03.61-.15,1.15-.54,1.6-.39.45-.86.69-1.43.71-.48.02-1.14-.05-2-.22-.91-.17-1.58-.25-2-.25l.22,4.97c.14,0,.25,0,.33,0,2.2.08,3.95.68,5.27,1.78,1.48,1.23,2.28,3,2.38,5.29ZM229.86,159.75c-1.59.74-2.37,1.61-2.32,2.6.04.85.87,1.35,2.51,1.51l-.18-4.11ZM233.7,174.14c2.13-.92,3.17-1.98,3.11-3.2-.08-1.83-1.21-2.83-3.39-2.98l.28,6.18Z"/><path class="uuid-1199b4f3-cd95-498d-b544-975a5a351337" d="M231.65,406.75c-.11,0-.22,0-.33,0-9.43-.11-18.15-5.09-22.27-12.57-9.27,2.38-19.7,4-29.45,1.01-10.42-3.2-20.18-13.47-18.48-25.12.08-.55.59-.92,1.13-.85.55.08.93.59.85,1.13-1.55,10.59,7.47,19.97,17.09,22.92,9.16,2.81,19.08,1.32,27.97-.94-2.06-4.89-2.23-11.95,2.24-16.22,2.35-2.25,6.08-3.07,9.5-2.11,2.87.81,4.91,2.73,5.58,5.27,1.02,3.82-1.18,7.69-3.81,9.84-2.71,2.21-6.01,3.25-9.45,4.21-.38.11-.77.21-1.16.32,3.87,6.62,11.75,11,20.29,11.1,8.25.14,16.78-3.51,23.98-10.13,5.65-5.2,10.56-12.2,15.43-22.03.25-.5.85-.69,1.34-.45.49.24.7.85.45,1.34-4.99,10.06-10.03,17.25-15.87,22.61-7.49,6.88-16.36,10.66-25.03,10.66ZM217.05,375.62c-2,0-3.96.69-5.27,1.95-3.86,3.68-3.57,9.96-1.67,14.23,0,0,0,.02.01.03.52-.14,1.05-.28,1.56-.43,3.22-.9,6.32-1.87,8.72-3.83,2.13-1.74,3.93-4.81,3.14-7.77-.49-1.84-2.02-3.25-4.19-3.86-.75-.21-1.53-.32-2.3-.32Z"/><path class="uuid-1199b4f3-cd95-498d-b544-975a5a351337" d="M169.36,373.39l-13.08,1.64c-2.97.37-5.12-2.78-3.68-5.4l5.4-9.9c1.2-2.2,4.21-2.58,5.92-.74l7.68,8.26c2.04,2.19.74,5.77-2.23,6.15Z"/><path class="uuid-1199b4f3-cd95-498d-b544-975a5a351337" d="M358.12,157.4c-.42,0-.81-.26-.95-.68-.18-.52.1-1.09.62-1.27,11.45-3.9,16.66-16.38,17.64-25.87.59-5.72-.03-10.7-1.83-14.8-.14-.32-.29-.63-.44-.94-1.88,2.97-4.47,5.38-7.57,6.77-3.68,1.66-8.35,1.49-11.89-.45-2.62-1.42-4.28-3.67-4.68-6.32-.53-3.49,1.27-7.22,4.46-9.28,2.83-1.82,6.54-2.32,10.17-1.34,3.62.97,6.92,3.33,9.37,6.6,1.64-3.94,2.08-8.54.92-12.88-2.08-7.77-8.61-14.64-17.48-18.38-8.83-3.72-18.68-4.09-26.27-3.99h-.01c-.55,0-.99-.44-1-.99,0-.55.44-1.01.99-1.01,7.8-.09,17.9.28,27.07,4.15,9.43,3.97,16.4,11.34,18.63,19.7,1.39,5.19.68,10.74-1.56,15.34.41.7.79,1.44,1.12,2.2,1.94,4.42,2.61,9.74,1.99,15.81-1.04,10.08-6.64,23.35-18.99,27.56-.11.04-.22.05-.32.05ZM360.03,104.76c-2,0-3.92.51-5.46,1.5-2.5,1.61-3.97,4.61-3.57,7.29.39,2.58,2.2,4.07,3.65,4.86,2.97,1.62,7.03,1.77,10.11.38,3.05-1.38,5.55-3.85,7.26-6.9-2.23-3.36-5.4-5.79-8.89-6.72-1.03-.28-2.08-.41-3.11-.41Z"/><path class="uuid-1199b4f3-cd95-498d-b544-975a5a351337" d="M334.82,67.54l-4.02,12.55c-.91,2.85-4.67,3.47-6.45,1.06l-6.7-9.07c-1.49-2.02-.57-4.9,1.82-5.68l10.72-3.48c2.85-.93,5.55,1.76,4.63,4.62Z"/><path class="uuid-1199b4f3-cd95-498d-b544-975a5a351337" d="M190.05,40.3c-.45,9.27,2.07,17.9,6.68,25.07v12.19c0,3.79,3.43,6.67,7.16,6.01l11.94-2.1c5.78,2.46,12.2,3.67,18.96,3.3,21.09-1.15,38.34-18.04,39.92-39.09C276.64,19.85,255.42-1.55,229.65.09c-21.35,1.35-38.57,18.84-39.6,40.21Z"/><path class="uuid-84ab1277-c67d-4524-b9ec-f6575e7caf4c" d="M501.91,139.01c-.41,8.54,1.91,16.49,6.16,23.09v11.23c0,3.49,3.16,6.15,6.6,5.54l11-1.93c5.32,2.27,11.24,3.38,17.47,3.04,19.42-1.06,35.32-16.61,36.77-36.01,1.78-23.79-17.77-43.5-41.5-41.99-19.67,1.25-35.52,17.36-36.48,37.04Z"/><polygon class="uuid-f046584f-a0d8-42f1-aac4-ace94d7ed176" points="225.39 60.24 212.28 47.13 217.94 41.47 225.39 48.93 246.9 27.42 252.56 33.07 225.39 60.24"/><path class="uuid-f046584f-a0d8-42f1-aac4-ace94d7ed176" d="M549.41,163.79c-.33,0-.65-.12-.9-.35l-12.58-11.51c-.48-.44-.57-1.16-.22-1.71l10.3-15.97-17.87,11.12c-.4.25-.91.27-1.33.05l-12.91-6.82c-.47-.25-.74-.74-.71-1.27.04-.52.38-.98.87-1.16l44.27-16.23c.46-.17.97-.07,1.34.25.37.32.53.82.42,1.3l-9.39,41.27c-.11.46-.45.84-.9.98-.13.04-.26.06-.4.06ZM538.57,150.72l10.05,9.2,8.34-36.64-39.15,14.36,9.58,5.06,22.26-13.85c.53-.33,1.22-.25,1.66.2.44.44.51,1.13.17,1.66l-12.91,20.02Z"/><path class="uuid-f046584f-a0d8-42f1-aac4-ace94d7ed176" d="M527.45,161.85c-.17,0-.34-.03-.51-.1-.5-.21-.83-.69-.83-1.23v-16.29c0-.46.24-.89.63-1.13l22.91-14.26c.53-.33,1.22-.25,1.66.2.44.44.51,1.13.17,1.66l-13.68,21.23c-.05.09-.12.17-.19.24l-9.22,9.3c-.26.26-.6.39-.95.39ZM528.78,144.97v12.31l6.92-7.04,10.32-15.99-17.24,10.73Z"/><path class="uuid-0c01307f-9e25-48e2-9f08-01b931ad44c1" d="M543.53,242.2l-7.6,4.79c-3.57,2.23-8.26,1.16-10.49-2.39l-4.79-7.6c-2.23-3.55-1.16-8.23,2.38-10.46l7.61-4.81c3.54-2.23,8.23-1.16,10.49,2.39l4.78,7.63c2.23,3.54,1.16,8.23-2.38,10.46Z"/><path class="uuid-0c01307f-9e25-48e2-9f08-01b931ad44c1" d="M439.27,132.66l-5.55,3.49c-2.61,1.62-6.03.85-7.66-1.74l-3.49-5.55c-1.63-2.59-.85-6.01,1.74-7.64l5.56-3.51c2.59-1.63,6.01-.85,7.66,1.74l3.49,5.57c1.63,2.59.85,6.01-1.74,7.64Z"/><path class="uuid-0c01307f-9e25-48e2-9f08-01b931ad44c1" d="M243.09,339.63l-5.55,3.49c-2.61,1.62-6.03.85-7.66-1.74l-3.49-5.55c-1.63-2.59-.85-6.01,1.74-7.64l5.56-3.51c2.59-1.63,6.01-.85,7.66,1.74l3.49,5.57c1.63,2.59.85,6.01-1.74,7.64Z"/><path class="uuid-0c01307f-9e25-48e2-9f08-01b931ad44c1" d="M417.38,76.52l-4.32,2.72c-2.03,1.26-4.69.66-5.95-1.35l-2.72-4.32c-1.27-2.01-.66-4.67,1.35-5.94l4.32-2.73c2.01-1.27,4.67-.66,5.95,1.35l2.71,4.33c1.27,2.01.66,4.67-1.35,5.94Z"/><path class="uuid-0c01307f-9e25-48e2-9f08-01b931ad44c1" d="M156.68,25.05l-2.94,1.85c-1.38.86-3.2.45-4.06-.92l-1.85-2.94c-.86-1.37-.45-3.19.92-4.05l2.95-1.86c1.37-.86,3.19-.45,4.06.92l1.85,2.95c.86,1.37.45,3.19-.92,4.05Z"/></svg>