<svg id="uuid-753c1ff1-2f8f-4b29-bcca-49db1c5ffedb" xmlns="http://www.w3.org/2000/svg" viewBox="0 0 580 450.89"><defs><style>.uuid-d65e6c5c-e668-47d9-b88d-ac031d231d2c{fill:#0081ff;}.uuid-0260da13-7b2f-434b-b065-a877fea3b09a{fill:#d4e8e8;}.uuid-6fbfa5e2-186d-4832-ac68-3c3d9b9b01e6{fill:#fff;}.uuid-4bf86712-9ba0-41e3-b66a-0622e3dac9fc{fill:#0b135e;}.uuid-d40cf236-7636-47e9-92ec-b298c06c189e{fill:#ff452d;}.uuid-f5e97897-abb5-4a7e-9fc9-df9d60a1d2a0{fill:#c2f963;}.uuid-08b12468-72ba-4431-9ef1-20a8bdfcf8fe{fill:#ffcc3d;}.uuid-a8a95288-5023-488f-a6d9-eb2a96bae593{fill:#22ffaf;}</style></defs><path class="uuid-4bf86712-9ba0-41e3-b66a-0622e3dac9fc" d="M137.2,427.68c-25.94,0-47.18-4.86-59.18-17.96-15.89-17.34-23.91-54.74-21.46-100.04,1.39-25.67,6.06-50.77,13.5-72.58,8.11-23.79,19.22-42.35,32.13-53.69,16.41-14.42,60.61-23.7,107.53-22.56,33.04.8,94.68,7.56,136.31,43.86,34.45,30.04,36.6,80.34,27.11,117.39-4.74,18.53-12.48,35.27-22.39,48.39-10.37,13.75-22.39,22.45-34.76,25.17l-.19-.86.19.86c-10.72,2.35-22.26,5.07-34.47,7.95-47.45,11.18-102.11,24.06-144.32,24.06ZM202.42,162.47c-45.07,0-84.65,9.61-99.06,22.28-24.4,21.44-42.08,70.53-45.03,125.04-2.39,44.16,5.65,82,20.99,98.74,30.83,33.66,125.62,11.32,201.79-6.63,12.22-2.88,23.77-5.6,34.5-7.96h0c23.65-5.19,46.08-34.24,55.81-72.27,9.35-36.55,7.28-86.11-26.56-115.62-36.65-31.96-92.87-43.58-142.44-43.58Z"/><line class="uuid-6fbfa5e2-186d-4832-ac68-3c3d9b9b01e6" x1="211.31" y1="437.03" x2="219.25" y2="436.25"/><path class="uuid-4bf86712-9ba0-41e3-b66a-0622e3dac9fc" d="M211.31,437.92c-.45,0-.83-.34-.88-.8-.05-.49.31-.92.79-.97l7.94-.79c.49-.04.92.31.97.79.05.49-.31.92-.79.97l-7.94.79s-.06,0-.09,0Z"/><rect class="uuid-4bf86712-9ba0-41e3-b66a-0622e3dac9fc" x="198.26" y="443.17" width="61.29" height="7.72"/><path class="uuid-4bf86712-9ba0-41e3-b66a-0622e3dac9fc" d="M284.29,307.63s-1.33-3.12,8.48-3.9c7.86-.63,44.5,11.6,39.37,25.76-4.81,13.29-24.09,8.92-24.09,8.92l-14.83-13.94-8.93-16.84Z"/><path class="uuid-6fbfa5e2-186d-4832-ac68-3c3d9b9b01e6" d="M341.76,275.06c-2.22-4.03-6.75-.75-6.75-.75,0,0,1.12-5.53-3.52-6.64-3-.72-4.97,4.48-4.97,4.48,0,0,.5-2.16.9-4.53.35-2.06-.96-4.03-2.98-4.53-.02,0-.05-.01-.07-.02-1.99-.5-4.03.59-4.72,2.51-.77,2.13-1.39,4.11-1.39,4.11-.55-6.2-6.73-7.84-8.25-.67-1.01,4.76-10.17,23.38-10.17,23.38l-5.51,7.45c.63,5.14-7.25,22.13-7.25,22.13,9.5,10.92,21,15.06,34.5,12.39,0,0,9.8-19.53,12.36-24.84,3.58-7.41,10.03-30.44,7.81-34.47Z"/><path class="uuid-4bf86712-9ba0-41e3-b66a-0622e3dac9fc" d="M313.91,336.04c-10.48,0-19.7-4.51-27.5-13.47-.23-.26-.28-.64-.14-.95,2.16-4.66,7.67-17.64,7.18-21.65-.03-.22.03-.45.17-.63l5.46-7.38c.62-1.26,9.12-18.65,10.07-23.1.88-4.16,3.23-5.53,5.12-5.41,1.74.1,3.22,1.31,4.09,3.16.14-.42.3-.86.46-1.31.85-2.36,3.33-3.68,5.77-3.07,2.53.63,4.13,3.06,3.71,5.56,0,.03-.01.06-.02.09.92-.83,2.08-1.37,3.42-1.05,3.37.81,4.3,3.67,4.33,5.94.97-.41,2.27-.76,3.56-.48,1.24.28,2.23,1.07,2.94,2.36h0c2.53,4.6-4.33,28.11-7.79,35.28-2.54,5.25-12.27,24.65-12.37,24.85-.12.24-.35.42-.62.47-2.69.53-5.3.8-7.84.8ZM288.12,321.83c9.08,10.19,20.13,14.15,32.86,11.76,1.4-2.78,9.83-19.61,12.16-24.44,3.76-7.8,9.71-30.25,7.83-33.66h0c-.46-.83-1.04-1.32-1.77-1.48-1.69-.39-3.66,1.01-3.68,1.03-.3.21-.69.22-1,.02-.31-.2-.46-.56-.39-.92.04-.19.89-4.71-2.86-5.61-1.83-.44-3.5,2.77-3.94,3.93-.17.44-.64.67-1.08.53-.45-.14-.71-.59-.61-1.05,0-.02.5-2.16.89-4.47.27-1.59-.75-3.14-2.32-3.53-1.63-.41-3.2.43-3.74,1.94-.75,2.09-1.37,4.05-1.38,4.07-.13.4-.53.66-.94.61-.42-.05-.75-.38-.79-.8-.26-2.89-1.81-4.49-3.22-4.58-1.49-.1-2.74,1.45-3.28,4.01-1.02,4.81-9.87,22.83-10.24,23.59-.02.05-.05.09-.08.14l-5.31,7.18c.26,5.18-5.8,18.82-7.12,21.72Z"/><path class="uuid-6fbfa5e2-186d-4832-ac68-3c3d9b9b01e6" d="M318.26,269.69s-2.28,9.76-4.91,14.67"/><path class="uuid-4bf86712-9ba0-41e3-b66a-0622e3dac9fc" d="M313.35,285.25c-.14,0-.28-.03-.42-.1-.43-.23-.59-.77-.36-1.2,2.55-4.76,4.81-14.36,4.83-14.46.11-.48.59-.77,1.06-.66.48.11.77.59.66,1.06-.09.4-2.34,9.93-4.99,14.89-.16.3-.47.47-.78.47Z"/><path class="uuid-6fbfa5e2-186d-4832-ac68-3c3d9b9b01e6" d="M326.52,272.15s-1.29,6.82-5.23,13.76"/><path class="uuid-4bf86712-9ba0-41e3-b66a-0622e3dac9fc" d="M321.29,286.79c-.15,0-.3-.04-.44-.11-.43-.24-.57-.78-.33-1.21,3.81-6.72,5.11-13.42,5.13-13.49.09-.48.55-.8,1.03-.7.48.09.8.55.7,1.03-.05.28-1.36,7.04-5.32,14.03-.16.29-.46.45-.77.45Z"/><path class="uuid-6fbfa5e2-186d-4832-ac68-3c3d9b9b01e6" d="M335.01,274.31s-1.41,7.54-4.77,13.14"/><path class="uuid-4bf86712-9ba0-41e3-b66a-0622e3dac9fc" d="M330.24,288.34c-.15,0-.31-.04-.45-.13-.42-.25-.56-.79-.3-1.21,3.23-5.39,4.64-12.77,4.66-12.85.09-.48.55-.8,1.03-.71.48.09.8.55.71,1.03-.06.31-1.48,7.76-4.88,13.43-.17.28-.46.43-.76.43Z"/><path class="uuid-6fbfa5e2-186d-4832-ac68-3c3d9b9b01e6" d="M292.35,308.74c-.57-5.47-7.91-22.82-3.22-25.63,9.48-5.68,14.3,14.72,14.3,14.72"/><path class="uuid-4bf86712-9ba0-41e3-b66a-0622e3dac9fc" d="M292.35,309.63c-.45,0-.83-.34-.88-.79-.16-1.56-.96-4.32-1.8-7.24-2.28-7.93-4.87-16.92-1-19.24,2.09-1.25,4.15-1.46,6.13-.63,6.3,2.66,9.36,15.36,9.49,15.9.11.48-.18.95-.66,1.06-.48.11-.95-.18-1.06-.66-.03-.12-2.98-12.37-8.45-14.68-1.45-.61-2.93-.44-4.53.52-2.7,1.62,0,11.01,1.79,17.23.9,3.13,1.68,5.83,1.86,7.55.05.49-.3.92-.79.97-.03,0-.06,0-.09,0Z"/><path class="uuid-d65e6c5c-e668-47d9-b88d-ac031d231d2c" d="M203.79,288.63s15.13-3.04,28.28-2.59c16.77.56,38.22,63.14,38.22,63.14l14-41.55c8.15,17.62,29.09,27.47,47.85,21.86,0,0-23.62,80.4-55.04,89.14-31.42,8.74-60.95-99.62-60.95-99.62l-12.36-30.38Z"/><path class="uuid-d65e6c5c-e668-47d9-b88d-ac031d231d2c" d="M182.9,291.02l-41.64,5.13c-11.56,1.42-19.79,11.94-18.39,23.5l8.89,73.57c0,19.22,117.09,19.22,117.09,0l-16.28-88.07c-2.02-10.92-12.14-18.41-23.17-17.15l-26.48,3.02Z"/><path class="uuid-4bf86712-9ba0-41e3-b66a-0622e3dac9fc" d="M248.84,394.1c-.42,0-.79-.3-.87-.72l-16.28-88.07c-.09-.48.23-.94.71-1.03.48-.09.94.23,1.03.71l16.28,88.07c.09.48-.23.94-.71,1.03-.05.01-.11.01-.16.01Z"/><path class="uuid-6fbfa5e2-186d-4832-ac68-3c3d9b9b01e6" d="M200.83,394.81s42.65.28,48.43,1.97c5.78,1.69,15.97,38.93,13.9,41.94-2.07,3.01-7.53,1.1-10.17-2.95-2.64-4.05-5.46-10.57-5.46-10.57,0,0-2.26,6.61-7.3,6.23,0,0-1.41,5.64-6.94,5.18,0,0,.54,5.68-7.89,6.81-17,2.27-16.33-4.47-14.09-6.39,0,0-14.47.66-14.75.89s4.27-43.12,4.27-43.12Z"/><path class="uuid-4bf86712-9ba0-41e3-b66a-0622e3dac9fc" d="M219.18,444.77c-6.41,0-8.79-1.86-9.58-3.65-.47-1.06-.4-2.18-.02-3.12-5.09.24-11.84.6-12.71.76-.23.08-.5.07-.72-.05q-.6-.32.1-7.66c.39-4.05.93-9.44,1.48-14.82,1.1-10.76,2.22-21.51,2.22-21.51.05-.45.43-.79.88-.79h0c1.75.01,42.84.3,48.67,2.01,2.35.69,5.16,5.59,8.35,14.57,3.58,10.07,7.72,26.27,6.03,28.72-.84,1.22-2.17,1.85-3.83,1.86-2.77-.03-5.98-2.02-7.81-4.82-1.82-2.79-3.69-6.66-4.72-8.9-1.08,1.99-3.22,4.86-6.65,4.97-.76,2.1-2.86,5.08-6.76,5.19-.26,1.88-1.63,5.84-8.61,6.78-2.46.33-4.56.47-6.34.47ZM211.31,436.15c.36,0,.69.22.82.56.14.35.04.75-.25,1-.66.56-1.12,1.7-.67,2.7.4.89,2.59,3.68,14.07,2.14,7.43-.99,7.14-5.66,7.13-5.85-.02-.26.07-.52.26-.7.18-.18.43-.28.7-.26,4.7.39,5.96-4.31,6.01-4.51.11-.42.5-.69.93-.66,4.28.31,6.37-5.57,6.39-5.63.12-.34.44-.58.8-.6.36,0,.7.2.85.53.03.06,2.82,6.49,5.39,10.44,1.5,2.3,4.17,3.99,6.35,4.02,1.03,0,1.84-.35,2.35-1.09,1-1.84-3.03-19.82-8.13-32.06-3.08-7.38-4.83-8.4-5.29-8.53-5.16-1.51-41.5-1.88-47.39-1.93-1.57,15.03-3.77,36.45-4.14,41.22,1.67-.17,5.36-.39,13.78-.78.01,0,.03,0,.04,0Z"/><path class="uuid-6fbfa5e2-186d-4832-ac68-3c3d9b9b01e6" d="M233.29,436.61s1.62-5.53-1.16-8.24c-2.78-2.71-17.54-1.37-17.54-1.37"/><path class="uuid-4bf86712-9ba0-41e3-b66a-0622e3dac9fc" d="M233.29,437.5c-.08,0-.17-.01-.25-.04-.47-.14-.74-.63-.6-1.1.01-.05,1.43-5.06-.93-7.36-1.81-1.77-11.29-1.63-16.84-1.13-.49.05-.92-.31-.96-.8-.04-.49.32-.92.8-.96,1.55-.14,15.25-1.29,18.24,1.62,3.13,3.05,1.47,8.88,1.39,9.12-.11.39-.47.64-.85.64Z"/><path class="uuid-6fbfa5e2-186d-4832-ac68-3c3d9b9b01e6" d="M240.23,431.43s2-7.85-1.45-11.15c-3.45-3.3-16.03-2.52-16.03-2.52"/><path class="uuid-4bf86712-9ba0-41e3-b66a-0622e3dac9fc" d="M240.24,432.32c-.07,0-.15,0-.22-.03-.47-.12-.76-.6-.64-1.08.02-.07,1.83-7.39-1.2-10.29-2.6-2.48-11.97-2.49-15.36-2.28-.49.03-.91-.34-.94-.83-.03-.49.34-.91.83-.94,1.33-.08,13.07-.7,16.69,2.76,3.78,3.61,1.78,11.66,1.69,12.01-.1.4-.46.67-.86.67Z"/><path class="uuid-6fbfa5e2-186d-4832-ac68-3c3d9b9b01e6" d="M247.53,425.21s1.83-10.13-3.21-13.16"/><path class="uuid-4bf86712-9ba0-41e3-b66a-0622e3dac9fc" d="M247.54,426.09c-.05,0-.11,0-.16-.01-.48-.09-.8-.55-.71-1.03.02-.1,1.66-9.57-2.79-12.25-.42-.25-.55-.8-.3-1.21.25-.42.8-.55,1.21-.3,5.5,3.31,3.7,13.64,3.62,14.08-.08.43-.45.73-.87.73Z"/><path class="uuid-d65e6c5c-e668-47d9-b88d-ac031d231d2c" d="M143.4,296.06s-17.24.44-30.96,10.58c-13.71,10.14-61.8,80.37-33.06,111.55,28.74,31.19,123.99,21.98,123.99,21.98l3.88-50.71-89.36-3.95,29.1-48.33c3.02-5.02,3.92-11.03,2.5-16.72l-6.09-24.4Z"/><path class="uuid-4bf86712-9ba0-41e3-b66a-0622e3dac9fc" d="M203.38,441.06s-.05,0-.07,0c-.49-.04-.85-.46-.82-.95l3.81-49.8-88.45-3.91c-.31-.01-.59-.19-.74-.47-.15-.27-.14-.61.02-.87l29.1-48.33c.25-.42.8-.55,1.21-.3.42.25.55.8.3,1.21l-28.33,47.06,87.87,3.89c.24.01.46.12.62.3.16.18.24.42.22.65l-3.88,50.71c-.04.46-.42.82-.88.82Z"/><polygon class="uuid-4bf86712-9ba0-41e3-b66a-0622e3dac9fc" points="249.61 450.89 295.05 381.28 398.89 381.28 354.09 450.89 249.61 450.89"/><path class="uuid-6fbfa5e2-186d-4832-ac68-3c3d9b9b01e6" d="M159.96,294.35s2.93-25.92.09-44.24l38.35,14.92,2.96,38.54c-9.9,8.17-29,2.86-41.39-9.21Z"/><path class="uuid-4bf86712-9ba0-41e3-b66a-0622e3dac9fc" d="M189.24,308.34c-10.07,0-21.82-5.51-29.89-13.36-.2-.19-.29-.46-.26-.73.03-.26,2.88-26.02.09-44.01-.05-.31.07-.63.32-.83.25-.2.58-.25.88-.13l38.35,14.92c.32.12.54.42.56.76l2.96,38.54c.02.29-.1.57-.32.75-3.46,2.85-7.88,4.11-12.68,4.11ZM160.89,294.01c12.58,12.03,30.47,16.15,39.55,9.14l-2.88-37.51-36.41-14.16c2.27,16.79.1,39.14-.25,42.53Z"/><path class="uuid-6fbfa5e2-186d-4832-ac68-3c3d9b9b01e6" d="M189.19,275c8.7,1.6,17.74.79,24.69-5.67,27.51-25.58-16.52-73.75-16.52-73.75l-40.12,4.63s-11.96,22.27-12.45,21.72,14.98,40.1,14.98,40.1"/><path class="uuid-4bf86712-9ba0-41e3-b66a-0622e3dac9fc" d="M196.53,276.6c-2.37,0-4.88-.24-7.5-.72-.48-.09-.8-.55-.71-1.03.09-.48.55-.8,1.03-.71,10.01,1.84,18.07,0,23.93-5.45,25.37-23.59-12.48-67.86-16.27-72.17l-39.2,4.52c-8.11,15.09-10.9,19.69-12.03,21.12,1.09,3.29,9.29,24.99,14.83,39.56.17.46-.06.97-.51,1.14-.45.18-.97-.06-1.14-.51,0,0-3.8-9.99-7.58-20-1.89-5.01-3.77-10.02-5.16-13.79q-2.58-6.96-1.88-7.39s.06-.03.08-.04c1.27-1.56,7.99-13.77,12.05-21.34.14-.26.39-.43.68-.46l40.12-4.63c.28-.03.56.07.76.28.11.12,11.18,12.31,18.72,27.48,10.1,20.33,9.32,36.75-2.25,47.51-4.73,4.4-10.75,6.62-17.95,6.62Z"/><path class="uuid-4bf86712-9ba0-41e3-b66a-0622e3dac9fc" d="M210.89,200.88c-7.34,21.25-41.66,12.05-43.78,10.14,2.17,2.84,5.49,5.81,5.19,9.37-.39,4.35-2.51,6.97-6.25,9.22l6.91,15.26-5.85,2.13c-2.38-4.59-8.94-5.56-8.94-5.56l3.37,30.64c-3.13,1.71-54.65-33.07-27.5-55.42-3.42-5.85-5.2-15.3-.29-19.97,6.41-6.1,15.04-9.83,23.86-10.32,3.51-.2,7.19-.38,10.03-2.47,40.89-30.01,45.77,9.66,43.24,16.98Z"/><path class="uuid-6fbfa5e2-186d-4832-ac68-3c3d9b9b01e6" d="M208.15,222.54c-1.24-.19-2.55.03-3.63.6s-1.94,1.5-2.38,2.59"/><path class="uuid-4bf86712-9ba0-41e3-b66a-0622e3dac9fc" d="M202.14,226.61c-.11,0-.23-.02-.34-.07-.45-.19-.67-.7-.48-1.16.53-1.28,1.52-2.36,2.79-3.03,1.26-.67,2.74-.91,4.18-.69.48.07.82.53.74,1.01-.07.48-.53.82-1.01.74-1.05-.16-2.17.03-3.08.51-.89.47-1.61,1.25-1.98,2.14-.14.34-.47.55-.82.55Z"/><path class="uuid-4bf86712-9ba0-41e3-b66a-0622e3dac9fc" d="M209.55,232.15c-1.19.58-2.82-.32-3.65-2.02-.83-1.7-.55-3.55.64-4.13,1.19-.58,2.82.32,3.65,2.02.83,1.7.54,3.55-.64,4.13Z"/><path class="uuid-6fbfa5e2-186d-4832-ac68-3c3d9b9b01e6" d="M187.18,232.1c-1.25-.14-2.54.13-3.6.74-1.06.62-1.88,1.58-2.28,2.68"/><path class="uuid-4bf86712-9ba0-41e3-b66a-0622e3dac9fc" d="M181.3,236.41c-.1,0-.2-.02-.3-.05-.46-.17-.7-.68-.53-1.14.48-1.3,1.42-2.42,2.66-3.14,1.23-.71,2.7-1.02,4.14-.86.49.05.84.49.78.98-.05.49-.49.83-.98.78-1.05-.12-2.17.11-3.06.63-.89.52-1.56,1.3-1.89,2.22-.13.36-.47.58-.83.58Z"/><path class="uuid-4bf86712-9ba0-41e3-b66a-0622e3dac9fc" d="M188.96,241.65c-1.16.63-2.84-.21-3.73-1.88-.9-1.66-.69-3.52.47-4.15s2.83.22,3.73,1.88c.9,1.66.68,3.52-.47,4.15Z"/><path class="uuid-6fbfa5e2-186d-4832-ac68-3c3d9b9b01e6" d="M205.91,259.48c-.86,1.75-2.67,2.99-4.62,3.17-1.94.18-3.95-.72-5.12-2.28"/><path class="uuid-4bf86712-9ba0-41e3-b66a-0622e3dac9fc" d="M200.8,263.56c-2.06,0-4.11-1.01-5.34-2.66-.29-.39-.21-.95.18-1.24.39-.29.95-.21,1.24.18.99,1.32,2.68,2.08,4.33,1.93,1.64-.15,3.17-1.2,3.9-2.68.22-.44.75-.62,1.19-.4.44.22.62.75.4,1.19-1,2.02-3.09,3.46-5.33,3.66-.19.02-.38.03-.57.03Z"/><path class="uuid-4bf86712-9ba0-41e3-b66a-0622e3dac9fc" d="M203.33,252.94c-.24,0-.47-.09-.64-.28-.33-.36-.32-.92.04-1.25.88-.83,1.79-1.68,2.39-2.68.61-1.01.83-2.1.58-2.98-.3-1.08-1.24-1.89-2.24-2.76-.49-.43-1-.87-1.46-1.36-.45-.49-.84-1.03-1.16-1.48-2.27-3.26-3.97-6.88-5.61-10.38-.21-.44-.02-.97.42-1.18.44-.21.97-.02,1.18.42,1.61,3.43,3.28,6.97,5.46,10.12.28.41.62.88,1.01,1.29.39.42.84.81,1.32,1.23,1.15,1,2.34,2.03,2.78,3.62.38,1.35.1,2.94-.77,4.37-.73,1.21-1.73,2.14-2.69,3.05-.17.16-.39.24-.61.24Z"/><path class="uuid-f5e97897-abb5-4a7e-9fc9-df9d60a1d2a0" d="M211.03,238.88c-6.14,0-11.94-5.09-13.14-11.68-.64-3.52.15-7.02,2.15-9.58,1.82-2.33,4.47-3.72,7.46-3.91,6.41-.43,12.62,4.81,13.86,11.65.64,3.52-.15,7.02-2.15,9.58-1.82,2.33-4.47,3.72-7.46,3.91-.24.02-.48.02-.72.02ZM208.25,216.34c-.19,0-.38,0-.57.02-2.23.15-4.2,1.18-5.54,2.9-1.54,1.97-2.13,4.7-1.63,7.48,1.01,5.56,5.97,9.83,11.07,9.48,2.23-.15,4.2-1.18,5.54-2.9,1.54-1.97,2.13-4.7,1.63-7.48h0c-.97-5.36-5.61-9.5-10.51-9.5Z"/><path class="uuid-f5e97897-abb5-4a7e-9fc9-df9d60a1d2a0" d="M187.04,250.68c-6.14,0-11.95-5.09-13.14-11.68-.64-3.52.15-7.02,2.15-9.58,1.82-2.33,4.47-3.72,7.46-3.91,6.41-.43,12.62,4.81,13.86,11.66h0c.64,3.52-.15,7.01-2.15,9.58-1.82,2.33-4.47,3.72-7.46,3.92-.24.02-.48.02-.72.02ZM184.26,228.13c-.19,0-.38,0-.57.02-2.23.15-4.2,1.18-5.54,2.9-1.54,1.97-2.13,4.7-1.63,7.48,1.01,5.56,5.97,9.83,11.07,9.48,2.23-.15,4.2-1.18,5.54-2.9,1.54-1.97,2.13-4.7,1.63-7.47h0c-.97-5.36-5.61-9.5-10.51-9.5Z"/><path class="uuid-f5e97897-abb5-4a7e-9fc9-df9d60a1d2a0" d="M195.16,235.75c-.25,0-.5-.07-.72-.22-.61-.4-.79-1.22-.39-1.84,2.55-3.92,6.01-3.85,7.48-3.28.68.27,1.02,1.04.75,1.72-.27.68-1.03,1.01-1.7.76-.25-.09-2.36-.72-4.3,2.25-.25.39-.68.6-1.11.6Z"/><path class="uuid-f5e97897-abb5-4a7e-9fc9-df9d60a1d2a0" d="M157.47,245.17c-.51,0-.99-.29-1.21-.78-.3-.67,0-1.45.66-1.76,11.93-5.38,19.63-1.87,19.95-1.72.66.31.95,1.1.63,1.77-.31.66-1.1.95-1.76.64-.11-.05-7.03-3.09-17.73,1.74-.18.08-.36.12-.55.12Z"/><path class="uuid-6fbfa5e2-186d-4832-ac68-3c3d9b9b01e6" d="M164.28,243.86s-13.85-8.67-17,2.8c-3.15,11.47,7.48,18.71,18.44,15.54"/><path class="uuid-4bf86712-9ba0-41e3-b66a-0622e3dac9fc" d="M160.51,263.84c-4.25,0-8.2-1.46-10.99-4.21-3.42-3.37-4.52-8.06-3.11-13.2.84-3.06,2.48-5.08,4.87-6.02,5.57-2.17,13.13,2.5,13.45,2.7.41.26.54.8.28,1.22-.26.41-.81.54-1.22.28-.07-.04-7.14-4.4-11.87-2.55-1.84.72-3.12,2.35-3.81,4.83-1.24,4.5-.3,8.57,2.64,11.47,3.5,3.45,9.13,4.6,14.7,2.99.47-.13.96.13,1.1.6.14.47-.13.96-.6,1.1-1.83.53-3.67.79-5.45.79Z"/><path class="uuid-6fbfa5e2-186d-4832-ac68-3c3d9b9b01e6" d="M157.47,247.33c-1.38,1.28-2.04,3.29-1.69,5.14.35,1.85,1.71,3.47,3.46,4.15"/><path class="uuid-4bf86712-9ba0-41e3-b66a-0622e3dac9fc" d="M159.25,257.5c-.11,0-.21-.02-.32-.06-2.03-.78-3.61-2.67-4.01-4.81-.41-2.14.36-4.47,1.96-5.95.36-.33.92-.31,1.25.05.33.36.31.92-.05,1.25-1.16,1.07-1.72,2.77-1.42,4.32.3,1.55,1.44,2.92,2.91,3.49.46.18.68.69.51,1.14-.14.35-.47.57-.83.57Z"/><path class="uuid-6fbfa5e2-186d-4832-ac68-3c3d9b9b01e6" d="M578.02,174.14s-9.59,77.45-68.7,85.95c-2.03.29-4.1.57-6.21.84-35.79,4.58-82.5,5.87-123.39,1.39-37.74-4.13-70.53-13.18-85.22-29.11-31.55-34.2-75.7-152.08-28.61-186.28,47.09-34.2,209.86-54.12,270.46-1.63,53.49,46.33,41.68,128.85,41.68,128.85Z"/><path class="uuid-4bf86712-9ba0-41e3-b66a-0622e3dac9fc" d="M434.31,265.98c-18.98,0-37.66-.93-54.7-2.8-29.77-3.26-68.82-11-85.78-29.39-22.79-24.71-53.91-95.59-48.9-146.14,1.89-19.03,8.76-32.98,20.42-41.45,23.86-17.33,76.36-30.79,130.64-33.49,62.55-3.11,113.92,8.52,140.92,31.9,27.84,24.11,37.77,58.09,41.2,82.34,3.68,26.04.86,46.78.78,47.29-.06.5-2.6,19.89-12.26,40.05-12.94,27-32.72,43.13-57.19,46.65-2.04.29-4.12.57-6.23.84-21.73,2.78-45.54,4.18-68.9,4.18ZM415.74,13.94c-60.65,0-123.29,14.77-149.35,33.7-11.24,8.16-17.87,21.69-19.7,40.2-4.96,50.07,25.87,120.29,48.44,144.77,13.13,14.24,42.41,24.21,84.67,28.83,37.87,4.15,83.92,3.64,123.18-1.38,2.11-.27,4.17-.55,6.2-.84,30.15-4.33,47.01-27.23,55.85-45.67,9.61-20.06,12.08-39.32,12.1-39.51,0,0,0-.01,0-.02.03-.21,2.89-20.85-.79-46.85-3.39-23.94-13.19-57.46-40.59-81.2-26.58-23.02-72.7-32.01-120.01-32.01Z"/><path class="uuid-6fbfa5e2-186d-4832-ac68-3c3d9b9b01e6" d="M321.25,120.75s-14.64-19.9-17-25.39c-3.54-8.27-10.6-4.82-9.77,2.79,0,0-4.49-5.58-7.8-3.43-3.69,2.39-1.56,8.37-1.56,8.37,0,0-4.59-5.48-7.97-3.74-3.37,1.74-1.75,8.38-1.75,8.38,0,0-7.8-1.65-9.5,3.74s13.13,30.37,19.22,38.44c4.36,5.78,15.15,17.08,15.15,17.08l38.61-23.19s-7.87-8.69-8.35-15.04"/><path class="uuid-4bf86712-9ba0-41e3-b66a-0622e3dac9fc" d="M300.27,167.87c-.24,0-.47-.09-.64-.27-.44-.46-10.88-11.4-15.22-17.16-5.4-7.16-21.27-33.18-19.35-39.24,1.34-4.24,6.09-4.86,9.25-4.54-.32-2.19-.54-6.57,2.44-8.11,2.38-1.23,5.09.36,6.92,1.87-.2-2.13.11-4.89,2.53-6.46,2.6-1.68,5.59.32,7.38,1.95.29-3.09,1.88-5.47,4.27-6.09,2.18-.57,5.22.49,7.22,5.18,2.29,5.34,16.75,25.02,16.9,25.22.29.39.2.95-.19,1.24-.39.29-.95.2-1.24-.19-.6-.82-14.73-20.04-17.1-25.57-1.31-3.06-3.28-4.65-5.15-4.16-1.76.46-3.33,2.84-2.93,6.5.04.39-.18.76-.54.91-.36.15-.78.04-1.03-.26-.04-.05-4.07-4.9-6.63-3.24-3.05,1.98-1.23,7.27-1.21,7.33.14.4-.02.85-.4,1.06-.37.21-.84.13-1.12-.2-1.15-1.37-4.64-4.68-6.88-3.52-2.25,1.16-1.7,5.73-1.29,7.39.07.3-.01.61-.22.82-.21.22-.52.31-.82.25-.07-.02-7.03-1.41-8.47,3.14-1.45,4.58,12.08,28.36,19.08,37.64,3.75,4.98,12.45,14.22,14.6,16.49l37.09-22.28c-1.99-2.35-7.46-9.27-7.87-14.76-.04-.49.33-.91.82-.95.48-.03.91.33.95.82.45,5.97,8.05,14.43,8.12,14.51.18.2.26.46.22.72-.04.26-.19.49-.42.63l-38.61,23.19c-.14.08-.3.13-.46.13Z"/><path class="uuid-6fbfa5e2-186d-4832-ac68-3c3d9b9b01e6" d="M294.48,98.15s5.08,11.21,9.43,16.51"/><path class="uuid-4bf86712-9ba0-41e3-b66a-0622e3dac9fc" d="M303.91,115.54c-.26,0-.51-.11-.68-.32-4.37-5.33-9.34-16.24-9.55-16.7-.2-.45,0-.97.44-1.17.45-.2.97,0,1.17.44.05.11,5.08,11.16,9.31,16.31.31.38.26.94-.12,1.25-.16.14-.36.2-.56.2Z"/><path class="uuid-6fbfa5e2-186d-4832-ac68-3c3d9b9b01e6" d="M285.11,103.08s3.19,7.91,9.59,15.32"/><path class="uuid-4bf86712-9ba0-41e3-b66a-0622e3dac9fc" d="M294.7,119.29c-.25,0-.5-.1-.67-.31-6.42-7.44-9.61-15.24-9.74-15.57-.18-.45.04-.97.49-1.15.46-.18.97.04,1.15.49.03.08,3.22,7.86,9.44,15.08.32.37.28.93-.09,1.25-.17.14-.37.21-.58.21Z"/><path class="uuid-6fbfa5e2-186d-4832-ac68-3c3d9b9b01e6" d="M275.4,107.72s3.51,8.75,8.89,14.69"/><path class="uuid-4bf86712-9ba0-41e3-b66a-0622e3dac9fc" d="M284.29,123.3c-.24,0-.48-.1-.66-.29-5.43-5.99-8.91-14.59-9.06-14.95-.18-.45.04-.97.49-1.15.46-.18.97.04,1.15.49.03.09,3.51,8.67,8.72,14.42.33.36.3.92-.06,1.25-.17.15-.38.23-.59.23Z"/><path class="uuid-6fbfa5e2-186d-4832-ac68-3c3d9b9b01e6" d="M333.22,138.62c-.47-6.35,5.16-28.96-.77-31.2-11.98-4.53-13.27,19.72-13.27,19.72"/><path class="uuid-4bf86712-9ba0-41e3-b66a-0622e3dac9fc" d="M333.22,139.51c-.46,0-.85-.35-.88-.82-.15-2.06.29-5.61.8-9.73.97-7.73,2.43-19.42-1-20.71-2.07-.78-3.83-.67-5.39.36-5.83,3.8-6.68,18.43-6.68,18.58-.03.49-.45.86-.93.84-.49-.03-.86-.44-.84-.93.03-.64.91-15.68,7.48-19.97,2.04-1.33,4.39-1.51,6.99-.53,4.73,1.79,3.35,12.84,2.14,22.59-.48,3.85-.94,7.49-.79,9.37.04.49-.33.91-.82.95-.02,0-.04,0-.07,0Z"/><path class="uuid-08b12468-72ba-4431-9ef1-20a8bdfcf8fe" d="M429.83,127.66s-13.91-2.58-32.47-.38c-31.26,3.71-46.97,63.76-46.97,63.76l-12.79-52.87-44.04,34.47s13.05,64.75,50.86,68.9c44.46,4.88,79.42-76.24,79.42-76.24l5.99-37.64Z"/><path class="uuid-4bf86712-9ba0-41e3-b66a-0622e3dac9fc" d="M350.39,191.94c-.4,0-.76-.27-.86-.68l-12.47-51.54-42.96,33.62c-.38.3-.94.23-1.24-.15-.3-.38-.23-.94.15-1.24l44.04-34.47c.24-.19.55-.24.84-.14.28.1.5.33.57.63l12.8,52.87c.11.48-.18.95-.65,1.07-.07.02-.14.02-.21.02Z"/><path class="uuid-08b12468-72ba-4431-9ef1-20a8bdfcf8fe" d="M510.79,156.02c-2.28,29.96-5.9,83.93-8.95,103.93-35.79,4.58-82.5,5.87-123.39,1.39,2.17-26.37,13.13-88.89,19.69-119.72,2.04-9.57,10.94-16.09,20.68-15.16l24.58,2.34,50.68,6.66c10.15,1.34,17.49,10.37,16.71,20.58Z"/><path class="uuid-4bf86712-9ba0-41e3-b66a-0622e3dac9fc" d="M379.61,251.04s-.07,0-.11,0c-.48-.06-.83-.5-.77-.99,3.53-29.32,12.61-80.78,18.54-108.62.1-.48.57-.78,1.05-.68.48.1.78.57.68,1.05-5.93,27.8-14.99,79.19-18.52,108.46-.05.45-.44.78-.88.78Z"/><path class="uuid-6fbfa5e2-186d-4832-ac68-3c3d9b9b01e6" d="M447.39,224.01c-7.56-2.32-17.72,1.02-16.03,7.91,0,0,3.67,6.16,12.35,5.94"/><path class="uuid-4bf86712-9ba0-41e3-b66a-0622e3dac9fc" d="M443.25,238.75c-8.75,0-12.49-6.11-12.65-6.38-.04-.08-.08-.16-.1-.24-.6-2.45.07-4.69,1.94-6.45,3.28-3.09,9.81-4.17,15.21-2.52.47.14.73.64.59,1.11-.14.47-.64.73-1.11.59-4.75-1.46-10.67-.53-13.47,2.11-1.37,1.29-1.86,2.84-1.47,4.61.53.8,4.01,5.61,11.5,5.4h.02c.48,0,.87.38.89.86.01.49-.37.89-.86.91-.16,0-.32,0-.48,0Z"/><rect class="uuid-4bf86712-9ba0-41e3-b66a-0622e3dac9fc" x="391.63" y="203.61" width="47.12" height="72.98" rx="4.26" ry="4.26" transform="translate(-38.93 85.81) rotate(-11.27)"/><path class="uuid-6fbfa5e2-186d-4832-ac68-3c3d9b9b01e6" d="M447.39,224.01c7.35,2.25,19.86,8.38,19.86,8.38l-2.22,32.47s-15.57,4.11-23.88,3.81c-8.31-.32-6.76-6.61-6.76-6.61,0,0-5.91-1.84-7.05-4.5-1.16-2.68,1.14-4.92,1.14-4.92,0,0-4.73-1.15-5.99-4.59-1.25-3.45,2.46-5.05,2.46-5.05-1.91-.08-8.94-3.72-6.51-8.79,2.41-5.07,22.72-3.63,22.72-3.63"/><path class="uuid-4bf86712-9ba0-41e3-b66a-0622e3dac9fc" d="M442.05,269.58c-.32,0-.63,0-.93-.02-3.09-.12-5.31-1.04-6.58-2.73-1.12-1.49-1.2-3.18-1.12-4.16-1.73-.62-5.84-2.31-6.89-4.76-.86-1.99-.18-3.74.49-4.81-1.63-.63-4.37-2.05-5.36-4.74-.82-2.24.09-3.95,1.23-5.03-1.7-.72-3.81-2.12-4.98-4.06-1.05-1.74-1.14-3.62-.27-5.43,2.6-5.46,21.44-4.29,23.58-4.13.49.03.85.46.82.95-.03.49-.47.85-.94.82-7.62-.54-20.29-.17-21.86,3.13-.62,1.29-.55,2.52.19,3.76,1.36,2.26,4.53,3.72,5.56,3.77.41.02.76.32.83.72.08.41-.14.81-.52.97-.3.13-2.91,1.37-1.98,3.94,1.08,2.95,5.32,4.03,5.37,4.04.31.08.56.32.64.63.08.31,0,.64-.23.87-.07.07-1.84,1.86-.94,3.93.8,1.87,5.07,3.56,6.5,4.01.45.14.71.6.6,1.06,0,.02-.45,1.98.71,3.5.94,1.24,2.7,1.92,5.22,2.01,7.14.24,20.05-2.88,23-3.63l2.14-31.24c-2.46-1.19-12.85-6.13-19.19-8.07-.47-.14-.73-.64-.59-1.11.14-.47.64-.73,1.1-.59,7.33,2.24,19.48,8.18,19.99,8.43.32.16.52.5.49.86l-2.22,32.47c-.03.38-.29.7-.66.8-.62.16-14.71,3.86-23.21,3.86Z"/><path class="uuid-6fbfa5e2-186d-4832-ac68-3c3d9b9b01e6" d="M434.82,261.97s3.48.09,6.76-.74"/><path class="uuid-4bf86712-9ba0-41e3-b66a-0622e3dac9fc" d="M435.13,262.85c-.2,0-.31,0-.34,0-.49-.01-.87-.42-.86-.91.01-.49.41-.85.91-.86.03,0,3.41.07,6.52-.71.47-.12.96.17,1.08.64.12.47-.17.96-.64,1.08-2.8.71-5.69.77-6.66.77Z"/><path class="uuid-6fbfa5e2-186d-4832-ac68-3c3d9b9b01e6" d="M424.94,243s4.36,1.08,8.62-.09"/><path class="uuid-4bf86712-9ba0-41e3-b66a-0622e3dac9fc" d="M429.23,244.34c-2.5,0-4.38-.46-4.5-.49-.47-.12-.76-.6-.64-1.07.12-.47.6-.76,1.07-.65.04.01,4.19,1.01,8.17-.08.47-.13.96.15,1.09.62.13.47-.15.96-.62,1.09-1.59.44-3.18.58-4.57.58Z"/><path class="uuid-6fbfa5e2-186d-4832-ac68-3c3d9b9b01e6" d="M428.48,252.64s2.7,1.75,7.51-.73"/><path class="uuid-4bf86712-9ba0-41e3-b66a-0622e3dac9fc" d="M431.14,254.12c-1.97,0-3.07-.69-3.14-.74-.41-.27-.53-.81-.26-1.22.26-.41.81-.52,1.22-.27.11.07,2.42,1.4,6.63-.77.43-.22.97-.05,1.19.38.22.43.05.97-.38,1.19-2.13,1.1-3.9,1.43-5.26,1.43Z"/><path class="uuid-08b12468-72ba-4431-9ef1-20a8bdfcf8fe" d="M495.96,136h0c16.9,1.72,32.14,10.86,41.68,24.91,13.88,20.45,30.21,50.59,23.3,71.41-12.17,36.69-95.78,35.53-95.78,35.53l-4.87-44.01,60.94-7.93s-27.77-30.32-30.9-45.73c-1.9-9.36,5.63-34.18,5.63-34.18Z"/><path class="uuid-6fbfa5e2-186d-4832-ac68-3c3d9b9b01e6" d="M436.19,110.1l-2.63,20.04s-6.81,15.29,7.3,19.36c14.11,4.07,27.31-17.47,27.31-17.47l3.62-44.91-35.6,22.97Z"/><path class="uuid-4bf86712-9ba0-41e3-b66a-0622e3dac9fc" d="M444.52,150.91c-1.29,0-2.59-.17-3.91-.55-4.1-1.18-6.94-3.4-8.42-6.58-2.71-5.82.06-12.83.5-13.87l2.61-19.92c.03-.26.18-.49.4-.63l35.6-22.97c.28-.18.65-.19.93-.02.29.17.45.5.43.83l-3.62,44.91c-.01.14-.06.27-.13.39-.5.82-11.44,18.41-24.4,18.41ZM437.01,110.62l-2.58,19.63c-.01.08-.03.17-.07.24-.03.07-3.09,7.11-.56,12.54,1.26,2.69,3.71,4.58,7.3,5.62,1.13.33,2.25.47,3.36.47,11.38,0,21.66-15.55,22.83-17.38l3.46-42.91-33.75,21.78ZM433.56,130.14h0,0Z"/><path class="uuid-6fbfa5e2-186d-4832-ac68-3c3d9b9b01e6" d="M456.25,110.65c-5.27,3.27-15.49,6.37-21.66,6.2-20.77-.56-30.54-17.83-30.37-37.03.17-19.2,15.29-42.06,34-41.89,18.71.16,36.72,21.74,36.56,40.94-.04,4.76-1.12,9.45-3.01,13.79"/><path class="uuid-4bf86712-9ba0-41e3-b66a-0622e3dac9fc" d="M435.07,117.74c-.17,0-.33,0-.5,0-23.29-.63-31.38-20.82-31.23-37.92.17-19.44,15.66-42.77,34.69-42.77.07,0,.13,0,.2,0,18.72.16,37.61,21.27,37.44,41.83-.04,4.77-1.08,9.52-3.09,14.14-.2.45-.72.65-1.17.46-.45-.2-.65-.72-.46-1.16,1.91-4.39,2.9-8.92,2.94-13.45.17-19.31-18.17-39.89-35.68-40.04-.06,0-.13,0-.19,0-18.05,0-32.75,22.38-32.91,41.02-.14,16.3,7.5,35.54,29.51,36.13,5.69.16,15.8-2.74,21.16-6.07.42-.26.96-.13,1.22.29.26.42.13.96-.29,1.22-5.55,3.45-15.5,6.34-21.65,6.34Z"/><path class="uuid-6fbfa5e2-186d-4832-ac68-3c3d9b9b01e6" d="M423.53,77.97c-.87,5.5-2.85,10.83-5.77,15.58-.45.74-.95,1.62-.62,2.42.27.66,1.01.99,1.69,1.2,1.64.49,3.37.63,5.07.42"/><path class="uuid-4bf86712-9ba0-41e3-b66a-0622e3dac9fc" d="M422.36,98.56c-1.28,0-2.56-.19-3.78-.55-.44-.13-1.78-.54-2.26-1.71-.52-1.26.24-2.49.69-3.22,2.85-4.62,4.8-9.89,5.65-15.25.08-.48.53-.81,1.01-.74.48.08.81.53.74,1.01-.89,5.59-2.92,11.09-5.89,15.9-.35.57-.72,1.22-.56,1.62.11.26.49.5,1.13.69,1.51.45,3.14.59,4.7.39.5-.07.93.28.99.77.06.48-.28.93-.77.99-.55.07-1.1.11-1.66.11Z"/><path class="uuid-4bf86712-9ba0-41e3-b66a-0622e3dac9fc" d="M431.99,104.32c-.41,0-.78-.29-.87-.71-.1-.48.22-.95.7-1.04,1.22-.24,2.36-.88,3.21-1.79.85-.91,1.41-2.09,1.57-3.32.06-.48.5-.83.99-.76.48.06.83.51.76.99-.21,1.6-.93,3.13-2.03,4.31-1.1,1.18-2.58,2-4.16,2.31-.06.01-.12.02-.17.02Z"/><path class="uuid-6fbfa5e2-186d-4832-ac68-3c3d9b9b01e6" d="M430.43,76.79c.92-.7,2.07-1.1,3.19-1.12,1.13-.01,2.23.36,3.07,1.04"/><path class="uuid-4bf86712-9ba0-41e3-b66a-0622e3dac9fc" d="M430.43,77.68c-.27,0-.53-.12-.7-.35-.3-.39-.22-.94.17-1.24,1.08-.82,2.4-1.28,3.72-1.3,1.3-.02,2.63.42,3.63,1.23.38.31.44.86.13,1.25-.31.38-.87.44-1.24.13-.67-.55-1.56-.85-2.5-.84-.93.01-1.9.35-2.67.94-.16.12-.35.18-.54.18Z"/><path class="uuid-4bf86712-9ba0-41e3-b66a-0622e3dac9fc" d="M435.6,81.92c.08,1.74-.84,3.19-2.06,3.25-1.21.05-2.26-1.31-2.34-3.05s.84-3.19,2.06-3.25c1.21-.05,2.26,1.31,2.34,3.05Z"/><path class="uuid-6fbfa5e2-186d-4832-ac68-3c3d9b9b01e6" d="M413.77,74.9c1-.59,2.18-.85,3.3-.73s2.17.62,2.92,1.4"/><path class="uuid-4bf86712-9ba0-41e3-b66a-0622e3dac9fc" d="M420,76.45c-.23,0-.46-.09-.64-.27-.6-.62-1.47-1.03-2.38-1.13-.93-.1-1.93.12-2.76.61-.42.25-.96.11-1.21-.31-.25-.42-.11-.96.31-1.21,1.17-.69,2.54-.99,3.85-.85,1.33.14,2.56.73,3.46,1.66.34.35.33.91-.02,1.25-.17.17-.39.25-.62.25Z"/><path class="uuid-4bf86712-9ba0-41e3-b66a-0622e3dac9fc" d="M418.3,80.61c-.13,1.74-1.22,3.07-2.43,2.98-1.21-.09-2.09-1.57-1.96-3.31.13-1.74,1.22-3.07,2.43-2.98,1.21.09,2.09,1.57,1.96,3.31Z"/><path class="uuid-4bf86712-9ba0-41e3-b66a-0622e3dac9fc" d="M541.52,123.43c-.79,4.85-7.51,23.42-12.25,24.73-4.74,1.29-27.4-12.3-32.23-11.4-2.25.42-9.65,6.84-12.66,8.06-7.41,3.02-14.3,1.99-18.04-5.74-2.1-4.35-2.92-9.23-1.98-13.97.95-4.74,1.07-9.68,2.35-14.34,3.2-11.71,3.79-24.53-1.91-35.31-.65-1.22-1.45-2.17-2.4-2.85-1.75-1.26-3.98-1.6-6.51-1.07-6.39,1.33-18.84.15-17.96-9.21.21-2.24,1.27-4.28,2.68-6.06-9.2,2.97-13.78,7.07-23.23,5.01-5.12-1.12-10.37-3.19-13.44-7.43-3.56-4.93-7.54-42.71,36.81-29.46,4.95,1.48,8.37-3.37,19.93-2.67,13.04.78,20.99,8.8,24.62,19.86,1.48,4.52,2.32,9.7,3.29,14.36,1.14,5.48,2.91,10.81,4.54,16.18,1.71,5.66,3.45,11.4,6.49,16.48,3.84,6.41,9.72,11.58,16.57,14.56,3.61,1.57,7.45,2.54,11.17,3.84,3.71,1.31,7.39,3.01,10.18,5.78,2.8,2.77,4.62,6.76,3.99,10.65Z"/><path class="uuid-6fbfa5e2-186d-4832-ac68-3c3d9b9b01e6" d="M458.62,72.14s5.54-14.16,14.26-7.34c8.72,6.82,4.79,18.13-5.16,21.84"/><path class="uuid-4bf86712-9ba0-41e3-b66a-0622e3dac9fc" d="M467.72,87.53c-.36,0-.7-.22-.83-.58-.17-.46.06-.97.52-1.14,5.03-1.88,8.59-5.84,9.29-10.34.58-3.77-.97-7.32-4.36-9.98-1.9-1.49-3.69-1.97-5.47-1.49-4.53,1.24-7.39,8.39-7.42,8.46-.18.46-.69.68-1.15.5-.45-.18-.68-.69-.5-1.15.13-.33,3.2-8.04,8.6-9.52,2.33-.63,4.69-.03,7.03,1.8,3.93,3.07,5.71,7.21,5.02,11.64-.79,5.13-4.79,9.63-10.42,11.73-.1.04-.21.06-.31.06Z"/><path class="uuid-6fbfa5e2-186d-4832-ac68-3c3d9b9b01e6" d="M465.63,70.96c1.74.19,3.35,1.32,4.11,2.9.76,1.58.65,3.54-.29,5.02"/><path class="uuid-4bf86712-9ba0-41e3-b66a-0622e3dac9fc" d="M469.45,79.77c-.16,0-.33-.04-.47-.14-.41-.26-.54-.81-.27-1.22.77-1.22.87-2.86.24-4.17-.63-1.31-1.97-2.25-3.41-2.41-.49-.05-.84-.49-.78-.98s.49-.84.98-.78c2.03.22,3.92,1.55,4.81,3.4.89,1.84.76,4.15-.34,5.88-.17.27-.46.41-.75.41Z"/><path class="uuid-4bf86712-9ba0-41e3-b66a-0622e3dac9fc" d="M465.88,268.74c-.46,0-.71,0-.73,0-.45,0-.82-.34-.87-.79l-4.87-44.01c-.05-.49.3-.92.78-.98.5-.05.92.3.98.78l4.78,43.23c8.48-.02,82.95-1.14,94.15-34.93.15-.46.66-.72,1.12-.56.46.15.72.66.56,1.12-5.15,15.54-23.03,26.35-53.13,32.12-19.92,3.82-38.87,4.03-42.78,4.03Z"/><path class="uuid-4bf86712-9ba0-41e3-b66a-0622e3dac9fc" d="M460.29,224.72c-.44,0-.82-.33-.88-.77-.06-.48.28-.93.76-.99l59.26-7.72c-5.33-5.96-27.17-31.03-29.98-44.89-.1-.48.21-.95.69-1.04.48-.1.95.21,1.04.69,3.05,14.99,30.41,45.01,30.69,45.31.22.24.29.59.18.9-.11.31-.39.53-.72.57l-60.94,7.93s-.08,0-.11,0Z"/><path class="uuid-a8a95288-5023-488f-a6d9-eb2a96bae593" d="M384.14,58.75l-5.12-48.15c-.64-6.03-5.73-10.61-11.79-10.61h-85.21c-7.05,0-12.54,6.11-11.79,13.11l5.12,48.15c.64,6.03,5.73,10.61,11.79,10.61h85.21c7.05,0,12.54-6.11,11.79-13.12Z"/><polyline class="uuid-a8a95288-5023-488f-a6d9-eb2a96bae593" points="365.91 69.89 370.7 93.09 333.74 69.58"/><path class="uuid-4bf86712-9ba0-41e3-b66a-0622e3dac9fc" d="M286.91,19.16c-.48,0-.88-.39-.88-.87,0-.49.38-.89.87-.9l73.11-1.17c.46,0,.89.38.9.87,0,.49-.38.89-.87.9l-73.11,1.17h-.01Z"/><path class="uuid-4bf86712-9ba0-41e3-b66a-0622e3dac9fc" d="M289.91,31.3c-.48,0-.88-.39-.88-.87,0-.49.38-.89.87-.9l73.11-1.17c.47-.02.89.38.9.87,0,.49-.38.89-.87.9l-73.11,1.17h-.01Z"/><path class="uuid-4bf86712-9ba0-41e3-b66a-0622e3dac9fc" d="M292.91,43.44c-.48,0-.88-.39-.88-.87,0-.49.38-.89.87-.9l73.11-1.17c.49-.04.89.38.9.87,0,.49-.38.89-.87.9l-73.11,1.17h-.01Z"/><path class="uuid-08b12468-72ba-4431-9ef1-20a8bdfcf8fe" d="M113.99,262.31l-5.12-48.15c-.64-6.03-5.73-10.61-11.79-10.61H11.86c-7.05,0-12.54,6.11-11.79,13.12l5.12,48.15c.64,6.03,5.73,10.61,11.79,10.61h85.21c7.05,0,12.54-6.11,11.79-13.12Z"/><polyline class="uuid-08b12468-72ba-4431-9ef1-20a8bdfcf8fe" points="95.76 273.45 100.55 296.65 63.59 273.14"/><path class="uuid-4bf86712-9ba0-41e3-b66a-0622e3dac9fc" d="M16.76,222.72c-.48,0-.88-.39-.88-.87,0-.49.38-.89.87-.9l73.11-1.17c.5.01.89.38.9.87,0,.49-.38.89-.87.9l-73.11,1.17h-.01Z"/><path class="uuid-4bf86712-9ba0-41e3-b66a-0622e3dac9fc" d="M19.76,234.86c-.48,0-.88-.39-.88-.87,0-.49.38-.89.87-.9l73.11-1.17c.5,0,.89.38.9.87,0,.49-.38.89-.87.9l-73.11,1.17h-.01Z"/><path class="uuid-4bf86712-9ba0-41e3-b66a-0622e3dac9fc" d="M22.76,247c-.48,0-.88-.39-.88-.87,0-.49.38-.89.87-.9l73.11-1.17c.51,0,.89.38.9.87,0,.49-.38.89-.87.9l-73.11,1.17h-.01Z"/><path class="uuid-a8a95288-5023-488f-a6d9-eb2a96bae593" d="M468.73,364.09l-62.84-9.89c-6.79-1.07-10.32-7.68-8.02-14.51l10.83-32.24c1.8-5.37,7.88-9.02,13.66-8.31l53.15,6.51c6.2.76,10.91,5.93,10.45,11.74l-2.74,35.05c-.58,7.47-7.11,12.82-14.49,11.66Z"/><path class="uuid-4bf86712-9ba0-41e3-b66a-0622e3dac9fc" d="M442.85,334.44c-1.95,0-3.85-.85-5.02-2.46l-19.27-26.44c-.29-.4-.2-.95.19-1.24.4-.29.95-.2,1.24.19l19.27,26.44c1.4,1.92,4.28,2.31,6.41.86l29.96-20.33c.4-.28.96-.17,1.23.24.27.4.17.96-.24,1.23l-29.96,20.33c-1.17.79-2.51,1.18-3.82,1.18Z"/><path class="uuid-4bf86712-9ba0-41e3-b66a-0622e3dac9fc" d="M471.29,356.53c-.24,0-.49-.1-.66-.3l-22.22-25.08c-.32-.37-.29-.92.08-1.25.36-.33.92-.29,1.25.08l22.22,25.08c.32.37.29.92-.08,1.25-.17.15-.38.22-.59.22Z"/><path class="uuid-4bf86712-9ba0-41e3-b66a-0622e3dac9fc" d="M406.89,346.73c-.31,0-.61-.16-.77-.45-.24-.42-.1-.96.33-1.21l29.74-17.01c.42-.24.97-.1,1.21.33.24.42.1.96-.33,1.21l-29.74,17.01c-.14.08-.29.12-.44.12Z"/><polygon class="uuid-d40cf236-7636-47e9-92ec-b298c06c189e" points="206.59 119.69 110.22 72.73 159.72 21.6 206.59 119.69"/><polygon class="uuid-0260da13-7b2f-434b-b065-a877fea3b09a" points="210.55 104.45 193.01 66.72 211.44 66.08 210.55 104.45"/><polygon class="uuid-6fbfa5e2-186d-4832-ac68-3c3d9b9b01e6" points="138.34 147.03 190.55 131.69 143.25 103.06 138.34 147.03"/><path class="uuid-4bf86712-9ba0-41e3-b66a-0622e3dac9fc" d="M138.34,147.92c-.21,0-.41-.07-.57-.21-.23-.19-.34-.48-.31-.78l4.91-43.97c.03-.3.22-.56.49-.7.27-.13.59-.12.85.04l47.3,28.63c.3.18.46.52.42.87-.05.35-.29.64-.63.74l-52.21,15.34c-.08.02-.17.04-.25.04ZM143.97,104.53l-4.61,41.28,49.01-14.4-44.4-26.87Z"/><path class="uuid-4bf86712-9ba0-41e3-b66a-0622e3dac9fc" d="M451.33,411.3c-.36,0-.7-.22-.83-.58-.17-.46.07-.97.53-1.13,12.08-4.37,24.57-8.89,35.91-15.33,12.7-7.21,22.21-15.94,28.29-25.94.08-.13.15-.26.23-.38-2.99-.19-5.81-1.22-8-3-3.3-2.67-5.14-6.66-4.81-10.43.38-4.25,3.76-7.92,7.69-8.36,5.28-.58,9.68,4.43,10.32,9.3.43,3.26-.26,6.69-2.18,10.61.47-.06.94-.15,1.41-.26,4.16-.97,7.58-3.61,9.15-7.04,2.15-4.69,1.46-10.14.56-15.32-2.57-14.92-6.56-29.68-11.84-43.87-.17-.46.06-.97.52-1.14.45-.17.97.06,1.14.52,5.32,14.29,9.34,29.16,11.93,44.19.9,5.22,1.66,11.21-.7,16.36-1.8,3.93-5.67,6.93-10.35,8.03-.93.22-1.87.36-2.8.41-.24.43-.49.86-.76,1.3-6.23,10.26-15.96,19.19-28.92,26.55-11.47,6.52-24.03,11.06-36.18,15.45-.1.04-.2.05-.3.05ZM511.2,347.88c-.22,0-.44.01-.66.04-3.13.35-5.82,3.31-6.12,6.76-.28,3.18,1.31,6.59,4.16,8.9,2.12,1.71,4.91,2.63,7.86,2.64,2.1-3.99,2.89-7.38,2.48-10.52-.51-3.84-3.75-7.81-7.71-7.81Z"/></svg>