<?xml version="1.0" encoding="UTF-8"?><svg id="uuid-c6ee004a-5ce5-401f-93c5-607da3029b2a" xmlns="http://www.w3.org/2000/svg" viewBox="0 0 564 580"><defs><style>.uuid-8c47b348-47fc-4aa0-8a7a-5593749e5688{fill:#0081ff;}.uuid-d2d1169b-cb33-4e5d-b806-5ed1a51435a2{fill:#ff73ed;}.uuid-5108b527-bb84-4b32-9abe-386b1c0654f9{fill:#f7b094;}.uuid-48fd74e1-c603-41d3-8eef-83369492ea78{fill:#ffd400;}.uuid-433f5d56-147f-45e7-8070-cbeedbd3daf5{fill:#4a4ddc;}.uuid-cefb87c3-3fdd-47b4-926b-1159cac72713{fill:#00c09a;}.uuid-bc08ff23-8d45-4e30-9cfc-bd217693aa5c{fill:#fff;}.uuid-aa86ded2-32cc-4015-9bb6-b70fcee99532{fill:#0b135e;}.uuid-3fddf7bb-b570-4c34-9af2-28b9bd88cd66{fill:#ff452d;}.uuid-d0325fb6-708a-4f72-bea1-b0d141ab8d71{fill:#ffc1a4;}</style></defs><polyline class="uuid-d0325fb6-708a-4f72-bea1-b0d141ab8d71" points="398.06 485.06 365.16 471.43 348.86 516.06 389.93 527.06"/><polygon class="uuid-aa86ded2-32cc-4015-9bb6-b70fcee99532" points="365.84 520.14 390.04 481.74 380.4 477.86 365.84 520.14"/><path class="uuid-3fddf7bb-b570-4c34-9af2-28b9bd88cd66" d="M415.67,575.5c.07.03.15.05.22.07l8.29,2.3,22.46-80.8-8.09-2.24-2.59-.72c-16.37-3.83-39.22-12.09-39.22-12.09l-12.91,47.49,5.35,2.39c4.34,1.94,7.8,5.17,10.04,9.09,2.24,3.94,3.27,8.56,2.72,13.28-1.36,9.52,4.52,18.57,13.72,21.24Z"/><path class="uuid-aa86ded2-32cc-4015-9bb6-b70fcee99532" d="M415.67,575.5c.07.03.15.05.22.07l8.29,2.3,22.46-80.8-8.08-2.26h0s-22.88,80.69-22.88,80.69Z"/><path class="uuid-aa86ded2-32cc-4015-9bb6-b70fcee99532" d="M398.11,540.26c-.24,0-.48-.08-.68-.23-.4-.31-.54-.84-.35-1.3l4.77-11.62-8.27,5.71c-.4.28-.94.26-1.32-.05-.38-.31-.52-.83-.34-1.28l5.9-14.7c.23-.57.87-.84,1.44-.62.57.23.85.87.62,1.44l-4.53,11.28,8.32-5.74c.41-.28.94-.26,1.33.05.38.31.52.83.33,1.29l-4.66,11.35,8.48-6.37c.49-.37,1.19-.27,1.55.22.37.49.27,1.19-.22,1.55l-11.71,8.79c-.2.15-.43.22-.67.22Z"/><path class="uuid-aa86ded2-32cc-4015-9bb6-b70fcee99532" d="M402.89,551.89s-.03,0-.04,0c-.61-.02-1.09-.54-1.07-1.15,0-.09.48-9.05,11.9-9.9.62-.05,1.14.41,1.19,1.02.05.61-.41,1.14-1.02,1.19-9.47.7-9.84,7.48-9.85,7.77-.02.6-.51,1.07-1.11,1.07Z"/><path class="uuid-433f5d56-147f-45e7-8070-cbeedbd3daf5" d="M388.74,456.4l-26.33,73.78-98.64-53.62-14.59-7.93-64.72-35.17c-10.08-4.38-18.39-11.53-24.17-20.35-5.78-8.81-9.05-19.29-9.05-30.28,0-13.83,5.2-27.16,14.56-37.35l92.56-100.45,95.16,20.24-119.83,107.23,37.62,20.35.62.34,116.83,63.21Z"/><polygon class="uuid-aa86ded2-32cc-4015-9bb6-b70fcee99532" points="281.18 471.43 263.76 476.56 249.17 468.63 271.29 392.85 271.7 391.43 271.91 393.19 281.18 471.43"/><path class="uuid-bc08ff23-8d45-4e30-9cfc-bd217693aa5c" d="M343.19,487.04c-.16,0-.33-.04-.48-.13l-139.49-80.24c-7.99-3.47-13.84-10.29-16.03-18.72-2.2-8.45-.42-17.28,4.89-24.21.02-.03.05-.06.08-.09l44.74-45.44c10.63-13.84,29.01-19.8,45.74-14.84l4.42,1.31c.51.15.81.69.65,1.21-.15.51-.69.81-1.21.65l-4.42-1.31c-15.99-4.75-33.55.96-43.69,14.2-.02.03-.05.06-.08.09l-44.74,45.44c-4.92,6.45-6.56,14.64-4.52,22.49,2.05,7.87,7.51,14.23,14.98,17.45.03.01.07.03.1.05l139.54,80.27c.46.27.62.86.36,1.33-.18.31-.51.49-.84.49Z"/><path class="uuid-bc08ff23-8d45-4e30-9cfc-bd217693aa5c" d="M345.35,511.12c-.13,0-.26-.03-.38-.08-.49-.21-.72-.78-.51-1.27l17.86-41.67c.21-.49.79-.72,1.28-.51.49.21.72.78.51,1.27l-17.86,41.67c-.16.37-.52.59-.89.59Z"/><polyline class="uuid-d0325fb6-708a-4f72-bea1-b0d141ab8d71" points="322.8 529.97 327.71 494.69 280.41 490.15 280.11 532.67"/><polygon class="uuid-aa86ded2-32cc-4015-9bb6-b70fcee99532" points="280.74 507.62 324 521.36 325.32 511.06 280.74 507.62"/><path class="uuid-3fddf7bb-b570-4c34-9af2-28b9bd88cd66" d="M239.72,569.78c-.01.07-.01.16-.01.23l-.14,8.6,83.85,1.38.14-8.39.05-2.69c-.42-16.8,1.83-41,1.83-41l-49.21-.54-.96,5.78c-.78,4.69-3.03,8.85-6.27,12.01-3.25,3.16-7.46,5.32-12.17,5.97-9.55,1.08-16.84,9.05-17.1,18.63Z"/><path class="uuid-aa86ded2-32cc-4015-9bb6-b70fcee99532" d="M239.72,569.78c-.01.07-.01.16-.01.23l-.14,8.6,83.85,1.38.15-8.39h-.01s-83.84-1.83-83.84-1.83Z"/><path class="uuid-aa86ded2-32cc-4015-9bb6-b70fcee99532" d="M281.93,553.86c-.24,0-.49-.08-.69-.24l-11.46-9.11c-.39-.31-.53-.84-.33-1.3.2-.46.66-.73,1.17-.66l12.45,1.69-7.61-6.57c-.37-.32-.49-.85-.29-1.29.2-.45.66-.71,1.15-.65l15.72,2.01c.61.08,1.04.63.96,1.24-.08.61-.62,1.04-1.24.96l-12.06-1.54,7.65,6.6c.37.32.49.85.29,1.3-.2.45-.66.71-1.16.64l-12.16-1.65,8.3,6.6c.48.38.56,1.08.18,1.56-.22.28-.54.42-.87.42Z"/><path class="uuid-aa86ded2-32cc-4015-9bb6-b70fcee99532" d="M271.7,560.6c-.46,0-.89-.29-1.05-.75-3.04-8.92-9.72-7.64-10-7.58-.6.13-1.19-.26-1.32-.85-.13-.6.25-1.18.84-1.32.09-.02,8.87-1.82,12.57,9.03.2.58-.11,1.21-.69,1.41-.12.04-.24.06-.36.06Z"/><polygon class="uuid-433f5d56-147f-45e7-8070-cbeedbd3daf5" points="333.69 514.49 376.43 253.91 298.58 241.37 253.79 503.66 333.69 514.49"/><path class="uuid-bc08ff23-8d45-4e30-9cfc-bd217693aa5c" d="M355.51,307.19c-.06,0-.13,0-.19-.02-3.93-.78-7.31-4.06-8.61-8.35-1.36-4.48-.33-8.96.77-11.94,1.38-3.73,3.52-7.08,5.6-10.31.29-.45.89-.58,1.34-.29.45.29.58.89.29,1.34-2.02,3.15-4.11,6.41-5.41,9.94-1,2.7-1.93,6.74-.73,10.7,1.08,3.56,3.95,6.37,7.13,7,.53.1.87.62.76,1.14-.09.46-.5.78-.95.78Z"/><path class="uuid-bc08ff23-8d45-4e30-9cfc-bd217693aa5c" d="M299.27,480.82c-.06,0-.12,0-.18-.02-.53-.1-.88-.61-.78-1.13,15.33-82.07,33.77-180.12,34.6-181.17.33-.42.94-.49,1.36-.16.36.29.47.78.28,1.17-1.19,3.74-22.96,119.59-34.33,180.51-.09.47-.5.79-.95.79Z"/><path class="uuid-bc08ff23-8d45-4e30-9cfc-bd217693aa5c" d="M282.15,338.54s-.09,0-.14-.01c-.53-.08-.9-.57-.82-1.1l7.19-49.74c.08-.53.57-.9,1.1-.82.53.08.9.57.82,1.1l-7.19,49.74c-.07.48-.49.83-.96.83Z"/><path class="uuid-bc08ff23-8d45-4e30-9cfc-bd217693aa5c" d="M318.75,491.12s-.06,0-.09,0l-43.83-4.08c-.53-.05-.93-.52-.88-1.06.05-.53.53-.93,1.06-.88l43.83,4.08c.53.05.93.52.88,1.06-.05.5-.47.88-.97.88Z"/><path class="uuid-aa86ded2-32cc-4015-9bb6-b70fcee99532" d="M425.27,164.05c.58,8.97-5.98,17.3-14.17,20.97-8.19,3.67-17.63,3.43-26.45,1.77-16.76-3.12-30.82-13.33-44.96-22.82-58.59-39.33-10.19-105.74,2.2-106.69,15.76-1.19,15.14-7.57,15.14-7.57,10.03,5.32,22.65,17.08,29.4,25.97,6.74,8.9,11.39,19.77,11.05,30.93-.15,5.11-1.32,10.24-.45,15.29,1.48,8.52,8.37,14.9,14.72,20.77,6.35,5.87,12.96,12.75,13.53,21.38Z"/><path class="uuid-bc08ff23-8d45-4e30-9cfc-bd217693aa5c" d="M386.92,127.47c-.18,0-.35-.05-.51-.15-2.26-1.42-3.59-4.29-3.57-7.7.01-1.74.33-3.45.64-5.09.17-.93.35-1.88.47-2.82.74-5.9-.91-11.99-4.54-16.71-.33-.43-.25-1.03.18-1.36.43-.33,1.03-.25,1.36.18,3.93,5.12,5.73,11.73,4.92,18.13-.12.99-.31,1.98-.49,2.93-.31,1.63-.6,3.18-.61,4.75-.02,2.73.98,4.98,2.66,6.04.45.28.59.88.31,1.34-.18.29-.5.46-.82.46Z"/><path class="uuid-d0325fb6-708a-4f72-bea1-b0d141ab8d71" d="M257.06,144.7l-20.31,15.52-4.61-50.54-36.72,10.75,6.51,74c1.45,16.49,20.01,25.44,33.81,16.29l40.94-27.11-19.62-38.9Z"/><polygon class="uuid-5108b527-bb84-4b32-9abe-386b1c0654f9" points="271.71 187.11 256.58 196.91 245.79 153.3 271.71 187.11"/><path class="uuid-8c47b348-47fc-4aa0-8a7a-5593749e5688" d="M310.43,134.12l-26.68-3.77c-8.83-1.69-17.95.92-24.54,7.04l-14.66,13.61,24.74,49.59,25.29-32.19,15.85-34.28Z"/><path class="uuid-3fddf7bb-b570-4c34-9af2-28b9bd88cd66" d="M229.79,83.57l-18.11,53.44c-1.6,4.71-5.99,7.69-10.71,7.69-1.17,0-2.37-.19-3.54-.58-6.55-2.15-9.66-9.6-6.6-15.78l8.11-16.35h.01s1.25-2.53,1.25-2.53l1.01-2.05,13.38-26.93,13.17,2.68,2.03.41Z"/><path class="uuid-aa86ded2-32cc-4015-9bb6-b70fcee99532" d="M227.8,86.37c.67.03-15.13,7.52-26.58,21.05l13.38-26.93,13.17,2.68c.02,1.91.03,3.2.03,3.2Z"/><path class="uuid-3fddf7bb-b570-4c34-9af2-28b9bd88cd66" d="M150.92,94.33s34.11-8.76,44.27-9.51c11.92-.89,22.44.24,35.31,1.9.89.11,1.81.22,2.72.35,5.13.68,10.08-.7,14.02-3.51,3.94-2.81,6.83-7.05,7.87-12.14,1.96-9.65-3.5-19.27-12.81-22.54-1.65-.58-3.36-1.18-5.1-1.81-9.26-3.33-19.36-7.21-25.42-10.26-13.47-6.78-33.88-26.67-33.88-26.67l-26.98,84.19Z"/><path class="uuid-48fd74e1-c603-41d3-8eef-83369492ea78" d="M230.5,86.72c.89.11,1.81.22,2.72.35,5.13.68,10.08-.7,14.02-3.51,3.94-2.81,6.83-7.05,7.87-12.14,1.96-9.65-3.5-19.27-12.81-22.54-1.65-.58-3.36-1.18-5.1-1.81,2.25,5.02,8.03,22.01-6.7,39.65Z"/><path class="uuid-48fd74e1-c603-41d3-8eef-83369492ea78" d="M129.96,44.38c-7.57,24.03-1.34,46.29,13.91,49.73,15.25,3.44,33.75-13.25,41.32-37.28,7.57-24.03,1.34-46.29-13.91-49.73-15.25-3.44-33.75,13.25-41.32,37.28Z"/><path class="uuid-aa86ded2-32cc-4015-9bb6-b70fcee99532" d="M146.84,88.98c8.57,1.86,18.57-4.43,26.16-15.28,3.53-5.03,6.53-11.04,8.65-17.67.81-2.54,1.45-5.06,1.91-7.51,3.47-17.82-1.58-32.91-12.61-35.29-12.56-2.73-28.15,12.02-34.81,32.94-6.66,20.92-1.87,40.09,10.69,42.82Z"/><path class="uuid-aa86ded2-32cc-4015-9bb6-b70fcee99532" d="M198.96,111.99l1.25-2.52c-.03.08-.06.14-.1.21-.4.91-.78,1.67-1.15,2.31Z"/><path class="uuid-d0325fb6-708a-4f72-bea1-b0d141ab8d71" d="M232.14,109.68l.39-6.96c.18-3.13-1.56-6.05-4.39-7.39l-7.48-3.54c-2.43-1.15-5.32-.5-7.03,1.57h0c-2.57,3.12-1.29,7.85,2.52,9.24l6.41,2.34-2.84,8.38,12.42-3.64Z"/><path class="uuid-d0325fb6-708a-4f72-bea1-b0d141ab8d71" d="M205.73,116.78c-1.39,1.58-3.97,1.69-5.28,1.63l-.37.52c.41.67.91,1.87.46,3.39-.7,2.37-4.35,1.96-4.35,1.96,0,0,2.63,3.62-.57,5.48-1.86,1.09-8.01-1.79-9.23-7.28-1.22-5.48,3.75-5.55,3.75-5.55,0,0-1.24-2.34-.76-4.25s3.36-2.72,3.36-2.72c0,0-1.86-2.91-.53-5,1.33-2.09,3.78-1.31,3.78-1.31,0,0-3.01-3.96.34-7.29,4.93-4.89,12.11,1.99,14.56,7.68.86,2.01,1.14,3.88.5,5.03-1.14,2.06-4.5,2.29-5.83,2.3l-.27.38c.63.92,1.96,3.29.45,5.02Z"/><path class="uuid-aa86ded2-32cc-4015-9bb6-b70fcee99532" d="M194.6,130.96c-.79,0-1.72-.22-2.7-.65-2.55-1.11-5.59-3.7-6.46-7.62-.45-2.03-.2-3.68.76-4.89.74-.94,1.76-1.4,2.57-1.63-.34-.98-.67-2.42-.34-3.73.39-1.58,1.88-2.52,2.95-3.01-.52-1.22-1.09-3.27,0-5,.77-1.22,1.89-1.72,2.9-1.86-.76-1.9-.96-4.61,1.35-6.91,1.63-1.61,3.64-2.24,5.83-1.82,4.32.84,8.54,5.68,10.31,9.81.74,1.73,1.42,4.15.46,5.89-.26.47-.85.64-1.32.38-.47-.26-.64-.85-.38-1.32.44-.8.24-2.36-.54-4.18-1.6-3.72-5.36-7.98-8.9-8.67-1.57-.3-2.91.12-4.09,1.29-2.72,2.7-.35,5.88-.25,6.01.26.34.27.8.02,1.15-.25.35-.69.49-1.09.36-.17-.05-1.78-.49-2.66.9-.81,1.27.11,3.29.53,3.96.16.26.2.58.09.87s-.35.5-.64.59c-.61.18-2.41.92-2.68,2.02-.31,1.26.39,3,.68,3.56.16.3.15.66-.03.95-.17.29-.48.47-.82.47-.01,0-1.6.05-2.44,1.12-.57.73-.7,1.82-.38,3.25.72,3.21,3.33,5.38,5.34,6.26,1.31.57,2.18.55,2.45.39.46-.27,1.06-.11,1.33.35.27.46.11,1.06-.35,1.33-.41.24-.92.36-1.51.36Z"/><path class="uuid-aa86ded2-32cc-4015-9bb6-b70fcee99532" d="M200.53,123.29c-.09,0-.19-.01-.28-.04-.51-.15-.81-.69-.65-1.21.27-.9.15-1.78-.36-2.61-.2-.33-.19-.75.04-1.07l.37-.52c.19-.27.48-.42.84-.41.97.04,3.36,0,4.51-1.3.35-.4.97-.44,1.37-.09.4.35.44.97.09,1.37-1.34,1.53-3.5,1.92-5.09,1.97.32.85.47,1.95.09,3.22-.13.42-.51.69-.93.69Z"/><path class="uuid-aa86ded2-32cc-4015-9bb6-b70fcee99532" d="M193.64,121.84c-.21,0-.43-.07-.6-.21-1.84-1.47-3.66-4.1-3.74-4.21-.3-.44-.19-1.05.25-1.35.44-.3,1.05-.19,1.35.25.02.02,1.73,2.5,3.35,3.79.42.33.49.95.15,1.36-.19.24-.47.37-.76.37Z"/><path class="uuid-aa86ded2-32cc-4015-9bb6-b70fcee99532" d="M198.03,116.2c-.2,0-.41-.06-.58-.2-1.95-1.47-5.3-5.24-5.45-5.4-.36-.4-.32-1.01.08-1.37.4-.36,1.01-.32,1.37.08.03.04,3.36,3.78,5.16,5.14.43.32.51.93.19,1.36-.19.25-.48.39-.78.39Z"/><path class="uuid-aa86ded2-32cc-4015-9bb6-b70fcee99532" d="M201.41,109.36c-.14,0-.28-.03-.41-.09-2.05-.95-5.37-4.55-5.74-4.95-.36-.4-.33-1.01.06-1.37.4-.36,1.01-.33,1.37.06.94,1.02,3.68,3.83,5.12,4.5.49.23.7.8.47,1.29-.16.35-.52.56-.88.56Z"/><path class="uuid-3fddf7bb-b570-4c34-9af2-28b9bd88cd66" d="M154.28,52.38c-1.13,5.58,1.33,11.34,6.25,14.16l12.47,7.16c3.53-5.03,6.53-11.04,8.65-17.67.81-2.54,1.45-5.06,1.91-7.51l-11.22-5.48c-6.93-3.39-15.23.28-17.68,7.84-.16.49-.29,1-.39,1.51Z"/><path class="uuid-aa86ded2-32cc-4015-9bb6-b70fcee99532" d="M161.67,64.95c-.41,0-.79-.26-.92-.67-.17-.51.11-1.06.62-1.22,4.07-1.33,6.9-3.54,8.41-6.57,2.48-5,.56-10.66.54-10.71-.18-.51.09-1.06.6-1.24.5-.18,1.06.09,1.24.59.09.26,2.22,6.46-.62,12.2-1.74,3.53-4.96,6.08-9.55,7.58-.1.03-.2.05-.3.05Z"/><path class="uuid-3fddf7bb-b570-4c34-9af2-28b9bd88cd66" d="M126.91,17.96c-2.67-2.76-5.33-5.53-7.95-8.34l-7.9-8.38,1.28-.65c1.45,5.76,2.81,11.53,4.22,17.3l4.09,17.32c.18.75-.29,1.51-1.04,1.68-.3.07-.61.04-.87-.08h-.03c-7.44-3.2-14.9-6.34-22.33-9.57l1.95-2.4,12.04,16.83c.53.74.36,1.78-.38,2.31-.22.16-.47.25-.72.29l-15.56,2.3c-5.19.78-10.38,1.5-15.57,2.24l.35-2.87c5.11,2.16,10.22,4.31,15.31,6.52l15.27,6.61.04.02c.51.22.74.81.52,1.32-.02.05-.05.11-.08.15l-5.76,8.74-5.82,8.7-.47-.73c4.65-.51,9.31-1,13.97-1.44-4.61.84-9.22,1.63-13.84,2.39-.26.04-.5-.13-.55-.39-.02-.11,0-.22.06-.32v-.02s5.31-9.03,5.31-9.03l5.36-8.99.48,1.49-15.49-6.08c-5.17-2.02-10.31-4.1-15.46-6.17-.77-.31-1.14-1.18-.83-1.95.2-.51.65-.84,1.15-.92h.03c5.18-.83,10.36-1.67,15.54-2.46l15.55-2.39-1.1,2.6-11.95-16.89h0c-.51-.73-.34-1.73.38-2.24.48-.34,1.08-.38,1.57-.16,7.41,3.26,14.78,6.61,22.17,9.91l-1.94,1.59-3.56-17.44c-1.14-5.82-2.33-11.64-3.43-17.47v-.04c-.08-.4.18-.78.58-.86.27-.05.53.05.7.25l7.4,8.83c2.48,2.93,4.91,5.9,7.35,8.87Z"/><path class="uuid-3fddf7bb-b570-4c34-9af2-28b9bd88cd66" d="M85.8,58.29c-.52,1.04-1.13,2-1.75,2.94-.63.93-1.27,1.86-1.95,2.75-1.35,1.78-2.8,3.47-4.32,5.1l-1.13-2.8c2.51.08,5.01.25,7.51.61,1.25.16,2.49.4,3.74.65,1.24.28,2.49.56,3.72,1-1.27.34-2.53.52-3.79.7-1.26.15-2.52.29-3.78.35-2.52.15-5.02.12-7.53,0h-.04c-.91-.05-1.61-.82-1.56-1.73.02-.42.2-.79.47-1.07,1.56-1.59,3.18-3.11,4.89-4.55.86-.72,1.75-1.4,2.66-2.08.92-.66,1.85-1.31,2.86-1.88Z"/><path class="uuid-3fddf7bb-b570-4c34-9af2-28b9bd88cd66" d="M84.59,37.26c-1.14-1.36-2.25-2.74-3.34-4.14-1.07-1.41-2.17-2.79-3.21-4.22-1.05-1.42-2.12-2.83-3.13-4.27-1.02-1.44-2.07-2.86-3.07-4.32-.44-.65-.28-1.53.37-1.97.29-.2.63-.28.96-.24h.07s4.89.57,4.89.57c1.63.18,3.25.42,4.88.63l-1.65,2.41-1.74-3.03c-.59-1-1.13-2.03-1.7-3.05-1.12-2.04-2.28-4.06-3.35-6.13l-.04-.08c-.39-.75-.1-1.68.65-2.07.39-.2.83-.22,1.21-.09,4.01,1.38,8.01,2.81,11.98,4.33,3.97,1.52,7.91,3.11,11.8,4.88-4.19-.81-8.33-1.8-12.45-2.86-4.11-1.06-8.2-2.2-12.27-3.4l1.82-2.24c1.21,1.99,2.34,4.03,3.51,6.04.58,1.01,1.18,2.01,1.73,3.03l1.69,3.06.02.03c.43.78.15,1.76-.63,2.19-.33.18-.69.24-1.03.18-1.62-.26-3.24-.47-4.86-.76l-4.85-.82,1.4-2.2c.93,1.5,1.8,3.03,2.71,4.55.91,1.51,1.77,3.06,2.65,4.59.88,1.53,1.71,3.09,2.57,4.64.83,1.56,1.65,3.13,2.44,4.73Z"/><polygon class="uuid-8c47b348-47fc-4aa0-8a7a-5593749e5688" points="405.17 138.43 290.22 133.2 245.28 255.13 380.09 269.59 405.17 138.43"/><path class="uuid-8c47b348-47fc-4aa0-8a7a-5593749e5688" d="M405.17,138.43h5.13c8.7,0,17.2,2.56,24.45,7.35l32.6,21.56s-37.45,46.59-37.97,45.98c-.37-.44-24.07-12.46-37.66-19.33-6-3.03-10.66-8.16-13.12-14.42h0c-5.19-13.21.57-28.2,13.28-34.52l13.29-6.62Z"/><path class="uuid-bc08ff23-8d45-4e30-9cfc-bd217693aa5c" d="M394.75,196.49c-.15,0-.3-.03-.44-.1l-3.02-1.53c-6.21-3.14-11.04-8.45-13.59-14.93-.2-.5.05-1.06.55-1.26.5-.2,1.06.05,1.26.55,2.37,6.04,6.87,10.98,12.66,13.91l3.02,1.53c.48.24.67.83.43,1.3-.17.34-.51.53-.87.53Z"/><path class="uuid-bc08ff23-8d45-4e30-9cfc-bd217693aa5c" d="M264.75,203.44c-.11,0-.23-.02-.34-.06-.5-.19-.76-.74-.58-1.25l11-29.84c.19-.5.75-.76,1.25-.58.5.19.76.74.58,1.25l-11,29.84c-.15.39-.52.64-.91.64Z"/><path class="uuid-bc08ff23-8d45-4e30-9cfc-bd217693aa5c" d="M429.05,198.87c-.21,0-.42-.07-.6-.21-.42-.33-.5-.94-.16-1.36l22.05-28.14c.33-.42.94-.5,1.36-.17.42.33.5.94.16,1.36l-22.05,28.14c-.19.24-.48.37-.77.37Z"/><path class="uuid-bc08ff23-8d45-4e30-9cfc-bd217693aa5c" d="M563.03,269.59c0,11.83-4.79,22.54-12.55,30.3-7.76,7.75-18.46,12.55-30.3,12.55H152.01c-23.78,0-43.86-19.46-43.63-43.26.1-11.68,4.88-22.23,12.55-29.89,7.76-7.76,18.47-12.55,30.3-12.55h39.45c.97,0,1.96.02,2.97.05-.72-.03-1.44-.05-2.17-.05h328.72c23.67,0,42.85,19.18,42.85,42.85Z"/><path class="uuid-bc08ff23-8d45-4e30-9cfc-bd217693aa5c" d="M520.18,312.99H152.01c-11.74,0-23.26-4.83-31.61-13.26-8.22-8.3-12.69-19.15-12.58-30.55.1-11.43,4.61-22.18,12.71-30.28,8.2-8.19,19.1-12.71,30.69-12.71h39.45c.26,0,.53,0,.8,0h0s328.72,0,328.72,0c23.93,0,43.4,19.47,43.4,43.4,0,11.6-4.51,22.5-12.71,30.69-8.21,8.2-19.11,12.71-30.69,12.71ZM151.22,227.3c-11.3,0-21.92,4.4-29.91,12.38-7.89,7.89-12.28,18.37-12.38,29.5-.11,11.11,4.25,21.67,12.26,29.76,8.14,8.22,19.38,12.93,30.82,12.93h368.17c11.29,0,21.91-4.4,29.91-12.38,7.99-7.99,12.38-18.61,12.38-29.91,0-23.32-18.97-42.29-42.29-42.29H193.62v.05c-1-.03-1.99-.05-2.95-.05h-39.45Z"/><path class="uuid-aa86ded2-32cc-4015-9bb6-b70fcee99532" d="M520.18,313.41H152.01c-11.85,0-23.48-4.88-31.9-13.39-8.3-8.38-12.81-19.33-12.7-30.85.1-11.54,4.66-22.4,12.83-30.57,8.28-8.27,19.28-12.83,30.99-12.83h39.45c.24,0,.48,0,.72,0,.03,0,.05,0,.08,0h328.72c24.16,0,43.82,19.66,43.82,43.82,0,11.71-4.56,22.71-12.83,30.99-8.29,8.27-19.29,12.83-30.99,12.83ZM151.22,227.71c-11.19,0-21.71,4.35-29.61,12.26-7.81,7.81-12.16,18.19-12.26,29.21-.1,10.99,4.21,21.46,12.14,29.46,8.06,8.14,19.19,12.81,30.52,12.81h368.17c11.18,0,21.7-4.35,29.61-12.26,7.91-7.91,12.26-18.42,12.26-29.61,0-23.09-18.78-41.87-41.88-41.87H193.95c-.11.04-.24.05-.34.05-.99-.03-1.98-.05-2.94-.05h-39.45Z"/><path class="uuid-aa86ded2-32cc-4015-9bb6-b70fcee99532" d="M170.48,254.7c-6.8-6.8-17.86-6.8-24.66,0-6.8,6.8-6.8,17.86,0,24.66,6.02,6.02,15.38,6.7,22.16,2.06l8.88,8.88c1.26,1.26,3.3,1.26,4.56,0s1.26-3.3,0-4.56l-8.88-8.88c4.64-6.78,3.95-16.14-2.06-22.16ZM165.92,274.79c-4.28,4.28-11.25,4.28-15.54,0s-4.28-11.25,0-15.54c4.28-4.28,11.25-4.28,15.54,0s4.28,11.25,0,15.54Z"/><path class="uuid-d0325fb6-708a-4f72-bea1-b0d141ab8d71" d="M512.45,206.3c-.58,5.81-3.33,10.92-7.38,14.58-4.04,3.65-9.4,5.86-15.24,5.86h-48.25s.74,28.35.55,30.5c-.2,2.17-2.24,4.89-4.38,5.07-3.76.31-4.52-5.35-4.52-5.35,0,0,.6,6.84-4.01,7.01-4.62.17-5.22-6.75-5.22-6.75,0,0-.46,8.67-6.21,8.15-5.18-.47-6.01-6.65-5.94-7.86-.18,1.25-1.67,6.71-8.13,6.33-5.56-.33-5.33-24.81-5.33-24.81l-9.36,7.54c-2,1.61-4.85,1.57-6.8-.1-1.23-1.05-1.86-2.55-1.86-4.05,0-1.16.38-2.31,1.15-3.3l18.96-24c3.12-3.95,6.94-7.3,11.26-9.87l48.3-28.8,7.34-9.11,32.64,16.32c8.45,4.23,13.42,13.24,12.45,22.64Z"/><path class="uuid-aa86ded2-32cc-4015-9bb6-b70fcee99532" d="M418.28,266.36c-.19,0-.39,0-.58-.03-3.61-.33-5.38-2.96-6.19-5.31-1.34,2.1-3.79,4.02-7.85,3.78-5.44-.32-6.19-16.3-6.25-23.75l-7.78,6.27c-2.36,1.9-5.74,1.85-8.04-.12-1.4-1.2-2.2-2.95-2.2-4.79,0-1.41.47-2.76,1.35-3.89l18.96-24c.33-.42.94-.49,1.36-.16.42.33.49.94.16,1.36l-18.96,24c-.61.78-.94,1.72-.94,2.69,0,1.28.56,2.48,1.52,3.32,1.59,1.36,3.93,1.4,5.56.08l9.36-7.54c.29-.24.69-.28,1.03-.12.34.16.55.51.55.88-.1,11.33,1.55,23.66,4.42,23.83,6.17.36,7.07-5.26,7.11-5.5.07-.51.55-.88,1.06-.82.52.05.9.5.87,1.02,0,.06.2,6.39,5.06,6.84,1.06.1,1.92-.17,2.67-.81,2.22-1.91,2.49-6.37,2.49-6.42.03-.51.44-.91.95-.92.47,0,.94.38.98.88,0,.06.57,6,4.21,5.87.79-.03,1.41-.31,1.89-.85,1.22-1.38,1.27-4.15,1.19-5.1-.05-.52.33-.99.86-1.05.51-.06,1,.31,1.07.83,0,.05.67,4.74,3.48,4.52,1.65-.13,3.33-2.45,3.5-4.19.15-1.71-.35-22.52-.55-30.39-.01-.54.41-.98.95-1,0,0,.02,0,.02,0,.52,0,.96.42.97.95.03,1.16.74,28.44.54,30.62-.24,2.57-2.6,5.73-5.27,5.95-1.96.16-3.24-.87-4.08-2.13-.25.82-.64,1.63-1.22,2.28-.84.95-1.94,1.46-3.28,1.51-2.67.1-4.26-1.69-5.13-3.57-.47,1.33-1.19,2.71-2.31,3.68-1,.87-2.19,1.31-3.53,1.31Z"/><path class="uuid-aa86ded2-32cc-4015-9bb6-b70fcee99532" d="M433.22,257.93c-.51,0-.94-.4-.97-.92l-.88-15.59c-.03-.54.38-.99.92-1.02.52-.03.99.38,1.02.91l.88,15.59c.03.54-.38.99-.92,1.02-.02,0-.04,0-.06,0Z"/><path class="uuid-aa86ded2-32cc-4015-9bb6-b70fcee99532" d="M423.99,258.19h0c-.54,0-.97-.43-.97-.97v-15.85c0-.54.44-.97.97-.97h0c.54,0,.97.43.97.97v15.85c0,.54-.44.97-.97.97Z"/><path class="uuid-aa86ded2-32cc-4015-9bb6-b70fcee99532" d="M411.84,258.47c-.54,0-.97-.43-.97-.97v-16.13c0-.54.43-.97.97-.97s.97.43.97.97v16.13c0,.54-.43.97-.97.97Z"/><polygon class="uuid-5108b527-bb84-4b32-9abe-386b1c0654f9" points="460.01 176.45 488.13 189.6 465.58 169.76 460.01 176.45"/><path class="uuid-aa86ded2-32cc-4015-9bb6-b70fcee99532" d="M358.3,49.15c-1.62-7.11,2.41-15.1,9.09-18.03,6.68-2.93,15.28-.49,19.42,5.52,3.19,4.62,3.64,10.99,1.13,16.02-3.04,6.07-10.03,9.64-16.81,9.46-6.79-.19-13.21-3.75-17.74-8.81"/><path class="uuid-d0325fb6-708a-4f72-bea1-b0d141ab8d71" d="M328.73,158.15c-14.08-4.33-5.73-17.5-2.02-20.62l6.11-24.99,25.78-5.85-1.83,32.14s-3.37,26.91-28.05,19.32Z"/><path class="uuid-aa86ded2-32cc-4015-9bb6-b70fcee99532" d="M328.1,131.86s16.67-11.64,21.3-18.3l-17.52,3.14-3.77,15.16Z"/><circle class="uuid-d0325fb6-708a-4f72-bea1-b0d141ab8d71" cx="333.96" cy="82.85" r="35.81" transform="translate(39.23 260.41) rotate(-45)"/><path class="uuid-aa86ded2-32cc-4015-9bb6-b70fcee99532" d="M352.26,75.53s1.24,12.73,7,15.16c0,0,1.22-7.5,6.33-10.29,5.11-2.79-9.7-9.16-9.7-9.16"/><path class="uuid-aa86ded2-32cc-4015-9bb6-b70fcee99532" d="M317.09,96.19s-.02,0-.03,0c-.99-.03-2.11-.07-3.17-.55-1.29-.58-2.18-1.72-2.4-3.06-.34-2.12.97-3.98,2.3-5.51l5.85-6.73c.35-.41.97-.45,1.37-.1.4.35.45.97.1,1.37l-5.85,6.73c-1.04,1.19-2.07,2.59-1.85,3.93.11.69.59,1.29,1.28,1.6.71.32,1.59.35,2.44.38.54.02.96.47.94,1-.02.53-.45.94-.97.94Z"/><path class="uuid-aa86ded2-32cc-4015-9bb6-b70fcee99532" d="M329.03,104.94c-.81,0-1.61-.08-2.41-.24-.53-.11-.87-.62-.76-1.14.11-.53.62-.87,1.14-.76,3.35.67,7.08-.44,9.51-2.83.38-.38,1-.37,1.37.01.38.38.37,1-.01,1.37-2.35,2.31-5.59,3.59-8.85,3.59Z"/><path class="uuid-aa86ded2-32cc-4015-9bb6-b70fcee99532" d="M369.73,83.2s-49.55-1.65-63.13-27.51c-6.76-12.86,6.5-18.9,14.31-21.21,9.12-2.69,30.83.3,43.89,10.24,16.64,12.66,4.92,38.48,4.92,38.48Z"/><path class="uuid-aa86ded2-32cc-4015-9bb6-b70fcee99532" d="M331.21,86c-.81,1.72-2.44,2.66-3.63,2.1-1.19-.57-1.52-2.41-.72-4.13.81-1.73,2.43-2.67,3.63-2.1,1.19.55,1.52,2.4.72,4.13Z"/><path class="uuid-aa86ded2-32cc-4015-9bb6-b70fcee99532" d="M315.92,75.58c-.81,1.72-2.44,2.66-3.63,2.1-1.19-.57-1.52-2.41-.72-4.13.81-1.73,2.43-2.67,3.63-2.1,1.19.55,1.52,2.4.72,4.13Z"/><circle class="uuid-d0325fb6-708a-4f72-bea1-b0d141ab8d71" cx="367.95" cy="89.14" r="9.83" transform="translate(90.68 346.92) rotate(-56.53)"/><path class="uuid-aa86ded2-32cc-4015-9bb6-b70fcee99532" d="M360.07,47.9c-2.07-2.7-2.89-6.37-2.45-9.89.22-1.76.77-3.5,1.59-5.11.83-1.61,1.96-3.06,3.27-4.31,2.6-2.54,6-4.19,9.57-4.91,3.58-.7,7.29-.38,10.74.6,3.43,1.06,6.65,2.77,9.39,5.12,2.69,2.37,4.92,5.45,5.96,8.93,2.19,6.92.24,14.6-4.3,19.63,3.39-5.84,4.16-12.9,1.85-18.76-1.17-2.9-3.08-5.43-5.54-7.38-2.43-1.98-5.29-3.47-8.3-4.34-5.98-1.87-12.79-.99-17.64,3.05-2.41,1.97-4.23,4.67-4.98,7.79-.81,3.09-.57,6.52.85,9.59Z"/><path class="uuid-bc08ff23-8d45-4e30-9cfc-bd217693aa5c" d="M349.4,72.72s-.05,0-.07,0c-7.36-.54-14.49-2.32-21.18-5.31-5.05-2.25-8.87-4.8-11.68-7.81-3.49-3.73-5.41-8.34-5.26-12.65.02-.54.52-.95,1-.94.54.02.96.47.94,1-.13,3.79,1.59,7.89,4.74,11.25,2.63,2.81,6.25,5.22,11.05,7.36,6.48,2.89,13.39,4.62,20.53,5.14.54.04.94.5.9,1.04-.04.51-.46.9-.97.9Z"/><path class="uuid-bc08ff23-8d45-4e30-9cfc-bd217693aa5c" d="M334.24,62.5c-.17,0-.33-.04-.49-.13-3.81-2.21-7.11-5.01-9.83-8.32-.34-.41-.28-1.03.13-1.37.42-.34,1.03-.28,1.37.13,2.57,3.13,5.7,5.78,9.3,7.87.46.27.62.86.35,1.33-.18.31-.51.48-.84.48Z"/><path class="uuid-bc08ff23-8d45-4e30-9cfc-bd217693aa5c" d="M267.5,180.54c-.35,0-.7-.19-.87-.53l-11.63-22.97c-.24-.48-.05-1.06.43-1.3.48-.24,1.06-.05,1.3.43l11.63,22.97c.24.48.05,1.06-.43,1.3-.14.07-.29.1-.44.1Z"/><path class="uuid-bc08ff23-8d45-4e30-9cfc-bd217693aa5c" d="M88.5,125.58l12.82,65.84-87.27,17L1.22,142.58c-1.43-7.36,3.36-14.47,10.72-15.91l60.65-11.81c7.36-1.43,14.47,3.36,15.91,10.72Z"/><path class="uuid-aa86ded2-32cc-4015-9bb6-b70fcee99532" d="M14.05,209.4c-.19,0-.38-.06-.54-.17-.21-.14-.36-.37-.41-.62L.27,142.77c-1.53-7.87,3.62-15.51,11.49-17.05l60.65-11.81c7.86-1.53,15.51,3.62,17.05,11.49l12.82,65.84c.1.53-.24,1.04-.77,1.14l-87.28,17c-.06.01-.12.02-.19.02ZM75.19,115.58c-.8,0-1.6.08-2.41.23l-60.65,11.81c-6.82,1.33-11.28,7.95-9.95,14.77l12.64,64.89,85.37-16.63-12.64-64.89c-1.17-6.01-6.45-10.19-12.36-10.19Z"/><path class="uuid-433f5d56-147f-45e7-8070-cbeedbd3daf5" d="M13.13,203.75l2.68,13.74c1.59,8.19,9.52,13.53,17.71,11.94l57.63-11.23c8.19-1.59,13.53-9.52,11.94-17.71l-2.68-13.74-87.28,17Z"/><path class="uuid-aa86ded2-32cc-4015-9bb6-b70fcee99532" d="M30.63,230.67c-7.54,0-14.28-5.34-15.77-13l-2.68-13.74c-.05-.25,0-.51.15-.73.14-.21.37-.36.62-.41l87.28-17c.52-.1,1.04.24,1.14.77l2.68,13.74c1.69,8.7-4,17.15-12.7,18.85l-57.63,11.23c-1.03.2-2.06.3-3.08.3ZM14.27,204.52l2.49,12.78c1.49,7.65,8.93,12.66,16.57,11.17l57.63-11.23c7.65-1.49,12.66-8.92,11.17-16.57l-2.49-12.78-85.37,16.63Z"/><polygon class="uuid-cefb87c3-3fdd-47b4-926b-1159cac72713" points="86.79 178.75 24.35 190.91 35.19 166.39 45.19 173.91 57.37 150.23 86.79 178.75"/><path class="uuid-aa86ded2-32cc-4015-9bb6-b70fcee99532" d="M24.35,191.89c-.29,0-.57-.13-.76-.37-.23-.28-.28-.67-.13-1l10.84-24.52c.12-.27.36-.47.64-.55.28-.07.59-.01.83.16l9.08,6.82,11.65-22.65c.14-.27.4-.46.71-.51.3-.05.61.05.83.26l29.43,28.52c.26.25.36.63.25.97-.1.35-.39.61-.75.68l-62.45,12.16c-.06.01-.12.02-.19.02ZM35.58,167.9l-9.59,21.7,58.8-11.45-27.15-26.31-11.58,22.51c-.13.25-.37.44-.65.5-.28.06-.57,0-.8-.17l-9.03-6.78Z"/><circle class="uuid-48fd74e1-c603-41d3-8eef-83369492ea78" cx="38.6" cy="151.01" r="7.84" transform="translate(-116.15 132.42) rotate(-68.81)"/><path class="uuid-aa86ded2-32cc-4015-9bb6-b70fcee99532" d="M38.59,159.83c-1.74,0-3.44-.52-4.91-1.51-1.95-1.32-3.27-3.31-3.72-5.62-.93-4.77,2.2-9.41,6.97-10.34,2.31-.45,4.66.03,6.61,1.34,1.95,1.32,3.27,3.31,3.72,5.62.93,4.77-2.2,9.41-6.96,10.34-.57.11-1.14.17-1.7.17ZM38.62,144.14c-.44,0-.89.04-1.33.13-3.72.72-6.16,4.34-5.43,8.06.35,1.8,1.38,3.36,2.91,4.38,1.52,1.03,3.35,1.4,5.15,1.05,3.72-.72,6.15-4.34,5.43-8.06-.35-1.8-1.38-3.36-2.9-4.38-1.15-.77-2.47-1.18-3.83-1.18Z"/><rect class="uuid-bc08ff23-8d45-4e30-9cfc-bd217693aa5c" x="23.88" y="207" width="33.62" height="3.23" transform="translate(-39.13 11.63) rotate(-11.02)"/><rect class="uuid-bc08ff23-8d45-4e30-9cfc-bd217693aa5c" x="25.35" y="215.07" width="22.43" height="3.23" transform="translate(-40.75 10.99) rotate(-11.02)"/><path class="uuid-bc08ff23-8d45-4e30-9cfc-bd217693aa5c" d="M503.29,367.69l-19.75,60.1-79.66-26.18,19.75-60.1c2.21-6.71,9.43-10.36,16.15-8.16l55.35,18.19c6.71,2.21,10.36,9.43,8.16,16.15Z"/><path class="uuid-aa86ded2-32cc-4015-9bb6-b70fcee99532" d="M483.54,428.76c-.1,0-.2-.02-.3-.05l-79.66-26.18c-.24-.08-.45-.25-.56-.48-.12-.23-.14-.5-.06-.74l19.75-60.1c2.37-7.21,10.16-11.15,17.37-8.78l55.35,18.19c7.21,2.37,11.15,10.16,8.78,17.37l-19.75,60.1c-.08.24-.25.45-.48.56-.14.07-.29.1-.44.1ZM405.11,400.99l77.81,25.57,19.45-59.18.92.3-.92-.3c2.03-6.19-1.35-12.88-7.54-14.92l-55.35-18.19c-6.19-2.03-12.88,1.35-14.92,7.54l-19.45,59.18Z"/><path class="uuid-d2d1169b-cb33-4e5d-b806-5ed1a51435a2" d="M405.29,397.34l-4.12,12.54c-2.46,7.47,1.61,15.52,9.08,17.98l52.6,17.29c7.47,2.46,15.52-1.61,17.98-9.08l4.12-12.54-79.66-26.18Z"/><path class="uuid-aa86ded2-32cc-4015-9bb6-b70fcee99532" d="M467.29,446.82c-1.57,0-3.17-.25-4.74-.76l-52.6-17.29c-3.86-1.27-7-3.96-8.83-7.59-1.83-3.63-2.14-7.75-.87-11.61l4.12-12.54c.08-.24.25-.45.48-.56.23-.12.5-.14.74-.06l79.66,26.18c.51.17.79.72.62,1.23l-4.12,12.54c-2.1,6.4-8.07,10.46-14.46,10.46ZM405.9,398.56l-3.82,11.62c-1.11,3.37-.84,6.96.76,10.13,1.6,3.16,4.33,5.52,7.7,6.62l52.6,17.29c6.95,2.28,14.46-1.51,16.75-8.46l3.82-11.62-77.82-25.57Z"/><path class="uuid-3fddf7bb-b570-4c34-9af2-28b9bd88cd66" d="M468.23,378.63l-16.64,5.43c-3.98,1.3-7.77-2.43-6.54-6.43l5.92-19.26c1.23-4,6.46-4.96,9.02-1.65l10.72,13.84c2.19,2.83.92,6.97-2.48,8.08Z"/><path class="uuid-aa86ded2-32cc-4015-9bb6-b70fcee99532" d="M449.98,385.29c-1.58,0-3.13-.61-4.29-1.76-1.64-1.61-2.24-3.98-1.56-6.18l5.92-19.26c.68-2.2,2.5-3.82,4.76-4.23,2.26-.41,4.55.46,5.95,2.28l10.72,13.84c1.24,1.6,1.61,3.63,1.02,5.56-.59,1.93-2.04,3.4-3.96,4.03h0l-16.64,5.43c-.63.21-1.27.31-1.91.31ZM455.94,355.68c-.26,0-.52.02-.79.07-1.57.29-2.79,1.37-3.26,2.89l-5.92,19.26c-.47,1.53-.07,3.11,1.07,4.22,1.14,1.12,2.72,1.49,4.24,1l16.64-5.43c1.32-.43,2.3-1.43,2.71-2.76.41-1.32.15-2.71-.69-3.8l-10.72-13.84c-.81-1.05-2-1.63-3.29-1.63ZM468.23,378.63h.01-.01Z"/><rect class="uuid-bc08ff23-8d45-4e30-9cfc-bd217693aa5c" x="409.05" y="412.22" width="31.7" height="3.05" transform="translate(150.41 -111.97) rotate(18.19)"/><rect class="uuid-bc08ff23-8d45-4e30-9cfc-bd217693aa5c" x="407.22" y="416.95" width="21.15" height="3.05" transform="translate(151.53 -109.52) rotate(18.19)"/><line class="uuid-3fddf7bb-b570-4c34-9af2-28b9bd88cd66" x1="423.39" y1="387.93" x2="477.63" y2="405.76"/><path class="uuid-aa86ded2-32cc-4015-9bb6-b70fcee99532" d="M477.63,406.73c-.1,0-.2-.02-.3-.05l-54.24-17.82c-.51-.17-.79-.72-.62-1.23.17-.51.72-.79,1.23-.62l54.24,17.82c.51.17.79.72.62,1.23-.13.41-.51.67-.92.67Z"/><circle class="uuid-48fd74e1-c603-41d3-8eef-83369492ea78" cx="463.11" cy="400.98" r="5.61" transform="translate(-127.01 565.34) rotate(-56.45)"/><path class="uuid-aa86ded2-32cc-4015-9bb6-b70fcee99532" d="M463.1,407.56c-.68,0-1.37-.11-2.05-.33-3.45-1.13-5.33-4.86-4.2-8.3,1.13-3.45,4.86-5.33,8.3-4.2,3.45,1.13,5.33,4.86,4.19,8.3h0c-.91,2.77-3.49,4.52-6.25,4.52ZM463.11,396.35c-1.95,0-3.77,1.24-4.41,3.19-.8,2.43.53,5.05,2.96,5.85,2.43.8,5.05-.53,5.85-2.96l.92.3-.92-.3c.8-2.43-.53-5.05-2.96-5.85-.48-.16-.97-.23-1.44-.23Z"/><path class="uuid-48fd74e1-c603-41d3-8eef-83369492ea78" d="M552.47,58.34l-14.01,72.63c-1.53,7.94-9.21,13.13-17.14,11.6l-55.88-10.78c-7.94-1.53-13.13-9.21-11.6-17.14l14.01-72.63c1.38-7.13,8.26-11.79,15.39-10.42l58.8,11.34c7.14,1.38,11.8,8.27,10.42,15.4Z"/><path class="uuid-aa86ded2-32cc-4015-9bb6-b70fcee99532" d="M524.12,143.81c-.99,0-1.99-.09-2.99-.29l-55.88-10.78c-8.45-1.63-14-9.83-12.37-18.28l14.01-72.63c1.47-7.64,8.88-12.66,16.53-11.19l58.8,11.34c7.65,1.47,12.67,8.89,11.19,16.53h0s-14.01,72.63-14.01,72.63c-.79,4.09-3.13,7.64-6.58,9.97-2.61,1.77-5.63,2.69-8.71,2.69ZM480.75,32.33c-5.71,0-10.82,4.05-11.95,9.87l-14.01,72.63c-1.43,7.4,3.43,14.58,10.83,16.01l55.88,10.78c3.58.69,7.22-.05,10.25-2.1,3.02-2.05,5.07-5.15,5.76-8.73l14.01-72.63c1.27-6.59-3.06-12.99-9.66-14.26l-58.8-11.34c-.77-.15-1.55-.22-2.31-.22ZM552.47,58.34h.01-.01Z"/><rect class="uuid-bc08ff23-8d45-4e30-9cfc-bd217693aa5c" x="470.02" y="99.52" width="13.86" height="21.83" transform="translate(29.54 -88.33) rotate(10.92)"/><rect class="uuid-bc08ff23-8d45-4e30-9cfc-bd217693aa5c" x="492.28" y="88.34" width="13.86" height="37.15" transform="translate(29.28 -92.61) rotate(10.92)"/><rect class="uuid-bc08ff23-8d45-4e30-9cfc-bd217693aa5c" x="514.19" y="80.88" width="13.86" height="48.73" transform="translate(29.36 -96.79) rotate(10.92)"/><path class="uuid-bc08ff23-8d45-4e30-9cfc-bd217693aa5c" d="M493.55,65.32c-.19.97-.53,1.84-1.03,2.61-.5.78-1.16,1.42-1.98,1.92-.82.5-1.8.86-2.93,1.06-1.13.2-2.42.22-3.87.04l-1.75,3.32c-.08.17-.22.28-.44.33-.22.06-.6.03-1.16-.08-.35-.07-.63-.14-.83-.21-.2-.07-.35-.15-.44-.23-.09-.08-.14-.17-.14-.27,0-.1.03-.21.09-.32l1.69-3.18c-.63-.22-1.19-.47-1.69-.75-.5-.27-.9-.55-1.21-.84-.24-.23-.39-.43-.45-.59-.06-.17-.06-.38-.01-.64.02-.08.05-.19.1-.35.05-.16.11-.33.18-.52.07-.19.16-.38.26-.57.1-.19.2-.37.31-.52.1-.16.21-.28.32-.37.11-.09.22-.13.33-.11.14.03.31.14.51.33.2.19.46.42.8.68.34.26.77.52,1.3.77.53.26,1.19.46,1.98.61.91.18,1.69.23,2.34.15.65-.07,1.18-.23,1.61-.46.43-.23.76-.52.99-.87.23-.35.38-.71.46-1.08.08-.42.04-.79-.13-1.12-.17-.33-.42-.64-.74-.95-.32-.3-.7-.59-1.13-.88-.43-.28-.87-.58-1.31-.9-.45-.31-.88-.65-1.29-1.01-.42-.36-.77-.76-1.07-1.21-.29-.44-.51-.95-.63-1.51-.13-.56-.12-1.19.01-1.9.16-.83.46-1.61.89-2.33.43-.72,1.01-1.33,1.73-1.83.72-.5,1.58-.87,2.58-1.1,1-.23,2.15-.28,3.45-.15l1.62-3.11c.05-.08.11-.15.17-.2.06-.05.15-.09.27-.12.12-.03.27-.04.46-.02.19.01.42.05.71.1.34.07.62.14.83.21.21.08.37.15.47.24.1.08.15.17.14.28,0,.1-.04.21-.11.32l-1.55,3c.54.21,1.05.45,1.52.73.47.28.83.56,1.08.85.15.15.25.29.28.41.03.12.04.25.01.38-.01.07-.05.18-.1.34-.05.16-.11.34-.18.54-.07.2-.15.4-.24.6-.1.2-.19.39-.29.55-.1.16-.2.29-.31.39-.1.1-.2.14-.3.12-.13-.03-.3-.13-.51-.31-.2-.18-.47-.39-.8-.63-.33-.24-.74-.48-1.24-.73-.5-.24-1.1-.43-1.81-.57-.66-.13-1.23-.15-1.72-.08-.49.08-.9.22-1.24.43-.34.21-.6.47-.79.79-.19.32-.32.66-.39,1.02-.07.38-.03.74.14,1.07.17.33.42.64.75.94.33.3.71.59,1.14.89.43.29.87.6,1.32.91.45.32.89.66,1.3,1.03.42.37.78.79,1.07,1.24.29.46.5.96.63,1.52.13.56.12,1.19-.01,1.88Z"/><rect class="uuid-bc08ff23-8d45-4e30-9cfc-bd217693aa5c" x="503.51" y="55.51" width="35.71" height="5.42" transform="translate(20.46 -97.68) rotate(10.92)"/><rect class="uuid-bc08ff23-8d45-4e30-9cfc-bd217693aa5c" x="502" y="62.24" width="12.96" height="5.42" transform="translate(21.5 -95.12) rotate(10.92)"/><path class="uuid-bc08ff23-8d45-4e30-9cfc-bd217693aa5c" d="M476.08,552.6s3.42-3.36,3.02-4.99c-.38-1.63.24-9.91,5.15-8.54,4.93,1.37,4.77,6.75,8.73,5.58,3.95-1.18,5.23-9.27,6.28-11.61,2.53-5.65,7.44-9.32,11.79-6.23,4.34,3.09.35,17.18,3.8,17.8,3.45.62,8.95-6.45,12.56-4.3,3.6,2.15-.78,7.1.88,7.88,1.67.79,4,0,3.42,4.4"/><path class="uuid-aa86ded2-32cc-4015-9bb6-b70fcee99532" d="M531.7,553.57s-.09,0-.13,0c-.53-.07-.9-.56-.83-1.09.33-2.53-.23-2.66-1.48-2.96-.43-.1-.92-.22-1.39-.44-1.43-.67-.92-2.33-.5-3.66.63-2.03.94-3.43-.46-4.26-1.5-.89-3.83.6-6.08,2.05-2.18,1.4-4.24,2.71-6.15,2.37-2.43-.43-2.4-4.05-2.37-8.24.03-3.73.06-8.38-1.82-9.72-1.25-.89-2.6-1.16-3.99-.78-2.37.64-4.8,3.18-6.35,6.61-.22.5-.48,1.37-.78,2.37-1.03,3.47-2.59,8.72-6.1,9.77-2.73.81-4.06-.9-5.23-2.41-.99-1.28-2.02-2.6-4.03-3.16-.91-.25-1.61-.1-2.21.48-1.74,1.67-1.95,5.99-1.74,6.91.48,2-2.4,5.02-3.29,5.9-.38.38-1,.37-1.37-.01-.38-.38-.37-1,.01-1.37,1.58-1.56,2.9-3.5,2.76-4.07-.29-1.25-.15-6.42,2.28-8.76,1.1-1.06,2.51-1.38,4.08-.95,2.63.73,3.97,2.46,5.05,3.84,1.2,1.54,1.74,2.15,3.14,1.74,2.5-.75,3.88-5.39,4.8-8.46.32-1.07.59-1.99.87-2.61,1.8-4.01,4.64-6.89,7.61-7.69,1.95-.53,3.9-.16,5.63,1.07,2.7,1.93,2.67,6.92,2.63,11.32-.02,2.31-.05,6.17.77,6.31,1.15.21,2.99-.96,4.76-2.1,2.63-1.68,5.6-3.58,8.12-2.08,2.81,1.68,1.88,4.7,1.32,6.5-.14.45-.34,1.09-.36,1.4.25.1.54.17.85.24,1.78.42,3.48,1.16,2.96,5.1-.06.49-.48.84-.96.84Z"/><path class="uuid-aa86ded2-32cc-4015-9bb6-b70fcee99532" d="M521.08,553.38c-.06,0-.13,0-.19-.02-.53-.11-.86-.62-.76-1.14.24-1.17.65-2.31,1.22-3.37.26-.47.84-.65,1.32-.39.47.26.65.84.39,1.32-.48.89-.83,1.84-1.03,2.83-.09.46-.5.78-.95.78Z"/><path class="uuid-aa86ded2-32cc-4015-9bb6-b70fcee99532" d="M505.34,553.12c-.49,0-.9-.36-.96-.86-.45-3.79-.41-7.64.12-11.44.07-.53.57-.9,1.1-.83.53.07.9.57.83,1.1-.51,3.64-.55,7.32-.12,10.94.06.53-.32,1.02-.85,1.08-.04,0-.08,0-.12,0Z"/><path class="uuid-aa86ded2-32cc-4015-9bb6-b70fcee99532" d="M490.05,552.39c-.24,0-.48-.09-.67-.27-.87-.83-1.68-1.73-2.4-2.68-.33-.43-.24-1.04.18-1.36.43-.33,1.04-.24,1.36.18.66.87,1.4,1.7,2.2,2.45.39.37.4.98.03,1.37-.19.2-.45.3-.7.3Z"/><path class="uuid-aa86ded2-32cc-4015-9bb6-b70fcee99532" d="M102.65,558.09c-.1,0-.21-.02-.31-.05-.17-.06-4.13-1.48-5.36-7.91-.66-3.48,1.33-7.15,4.63-8.54,2.41-1.01,4.86-.55,6.87,1.2.33-2.7,1.21-7.2,3.58-10.49,3.92-5.44,7.84-6.63,12.68-3.86,3.83,2.19,4.15,9.77,4.03,13.86,2.02-1.68,5.41-3.67,8.92-2.01,3.45,1.62,4.76,4.64,5.26,6.6,2.08-1.66,6.25-4.11,10.8-1.88,6.23,3.06,6.3,11.19,6.3,11.53,0,.54-.43.97-.97.97h0c-.54,0-.97-.43-.97-.97,0-.07-.08-7.27-5.21-9.79-5.03-2.47-9.7,2.5-9.9,2.71-.27.29-.69.39-1.05.25-.37-.14-.62-.48-.63-.88,0-.19-.25-4.82-4.44-6.8-4.07-1.91-8.42,3.27-8.46,3.32-.27.33-.73.44-1.12.28-.39-.16-.64-.56-.59-.99.32-3.4.43-12.63-2.91-14.54-3.91-2.23-6.85-1.27-10.15,3.31-3.18,4.41-3.4,11.65-3.4,11.72-.01.42-.29.79-.69.91-.41.12-.84-.03-1.08-.38-1.66-2.4-3.89-3.24-6.1-2.31-2.13.9-4.02,3.53-3.47,6.39,1.02,5.33,4.05,6.42,4.08,6.43.51.17.78.73.6,1.23-.14.4-.51.66-.92.66Z"/><path class="uuid-aa86ded2-32cc-4015-9bb6-b70fcee99532" d="M153.79,555.78c-.12,0-.24-.02-.36-.07-.5-.2-.74-.76-.55-1.26.23-.59.19-1.3-.11-1.87-.3-.56-.87-.99-1.49-1.13-.52-.12-.86-.63-.74-1.16.11-.52.63-.85,1.16-.74,1.18.26,2.22,1.05,2.78,2.11.57,1.06.64,2.37.2,3.49-.15.38-.52.61-.9.61Z"/><path class="uuid-aa86ded2-32cc-4015-9bb6-b70fcee99532" d="M105.38,555.97c-.14,0-.28-.03-.41-.09-1.14-.53-2.02-1.58-2.35-2.8-.33-1.22-.09-2.56.63-3.6.31-.44.91-.55,1.35-.24.44.31.55.91.24,1.35-.39.56-.53,1.32-.35,1.98.18.66.67,1.25,1.3,1.54.49.23.7.8.47,1.29-.16.35-.51.56-.88.56Z"/><path class="uuid-aa86ded2-32cc-4015-9bb6-b70fcee99532" d="M171.01,558.77c-.1,0-.19-.01-.29-.04-.51-.16-.8-.71-.64-1.22.76-2.41,1.54-4.91,1.72-7.42.2-2.69-.38-5.13-1.61-6.86-2.01-2.81-5.74-5.62-8.99-5.54-2.36.06-4.19.89-6.31,1.85-.96.44-1.95.89-3.05,1.29-.27.1-.57.07-.82-.07-.25-.15-.42-.4-.47-.68-.42-2.57-2.13-4.27-3.49-5.24-2.65-1.89-6.3-2.72-9.51-2.16-1.78.31-3.49,1.17-4.94,2.49-.39.36-1.01.33-1.37-.06-.36-.4-.33-1.01.06-1.37,1.72-1.57,3.77-2.59,5.91-2.96,3.7-.64,7.91.32,10.97,2.5,2.02,1.44,3.39,3.27,4.01,5.35.65-.27,1.28-.55,1.89-.83,2.22-1.01,4.31-1.96,7.06-2.03,4.09-.1,8.38,3.22,10.62,6.35,1.92,2.69,2.13,5.91,1.97,8.13-.2,2.74-1.02,5.34-1.81,7.86-.13.42-.51.68-.93.68Z"/><path class="uuid-aa86ded2-32cc-4015-9bb6-b70fcee99532" d="M166.62,551.84c-.05,0-.11,0-.16-.01-.53-.09-.88-.59-.79-1.12.28-1.65.13-3.36-.44-4.94-.18-.5.08-1.06.58-1.24.51-.18,1.06.08,1.24.58.68,1.89.87,3.95.53,5.93-.08.47-.49.81-.96.81Z"/></svg>