<?xml version="1.0" encoding="UTF-8"?><svg id="uuid-f94c60f6-3973-412a-befe-1891c0082eae" xmlns="http://www.w3.org/2000/svg" viewBox="0 0 580 541.32"><defs><style>.uuid-c03fa09d-c456-49a1-a8f1-1dc5c029e428{fill:#0081ff;}.uuid-8a22e34d-f04d-4543-a17d-210ab36d2739{fill:#d2d2d2;}.uuid-fb6874bf-5ccc-4d58-9253-27b8e1c88ffb{fill:#fff;}.uuid-6b9c7e92-0588-45d6-9f52-e248294e826c{fill:#0b135e;}.uuid-14259b2c-6d93-4b64-bfe3-ba4b2025eee5{fill:#ff452d;}.uuid-c36f266d-8732-48ed-bde1-2d2b74b3da33{fill:#ffcc3d;}</style></defs><path class="uuid-fb6874bf-5ccc-4d58-9253-27b8e1c88ffb" d="M235.89,20.85c-4.15,5.83-8.32,12.09-9.01,19.22-.69,7.04,2.38,14.34,7.9,18.78,5.51,4.44,13.3,5.87,20.03,3.69l19.48-7.2-1.45-36.19-21.25-5.7-15.7,7.4Z"/><path class="uuid-6b9c7e92-0588-45d6-9f52-e248294e826c" d="M248.4,64.66c-5.16,0-10.34-1.72-14.33-4.92-5.77-4.64-9.03-12.4-8.31-19.77.71-7.3,4.76-13.52,9.21-19.77.11-.16.26-.28.44-.37l15.7-7.4c.24-.11.52-.14.77-.07l21.25,5.7c.48.13.81.55.83,1.04l1.45,36.19c.02.49-.28.93-.74,1.1l-19.48,7.2c-2.19.71-4.49,1.05-6.8,1.05ZM236.63,21.75c-4.2,5.91-7.99,11.78-8.64,18.44-.65,6.63,2.29,13.61,7.48,17.79,5.19,4.18,12.64,5.55,18.98,3.5l18.67-6.9-1.39-34.54-20.05-5.38-15.06,7.1Z"/><path class="uuid-fb6874bf-5ccc-4d58-9253-27b8e1c88ffb" d="M370.56,272.88l-38.4-79.52h-34l-39.94,39.67,43.48,82.39c8.71,16.5,21.94,30.18,38.15,39.43l106.5,60.77,53.3-73.56-121.27-61.23c-3.41-1.72-6.16-4.52-7.82-7.96Z"/><path class="uuid-6b9c7e92-0588-45d6-9f52-e248294e826c" d="M446.35,416.75c-.19,0-.38-.05-.56-.15l-106.5-60.77c-16.42-9.37-29.77-23.16-38.59-39.89l-43.48-82.39c-.23-.44-.15-.98.2-1.33l39.94-39.67c.21-.21.5-.33.8-.33h34c.43,0,.83.25,1.02.64l38.4,79.52c1.54,3.2,4.14,5.84,7.31,7.44l121.27,61.23c.3.15.51.42.59.74.08.32.01.66-.18.93l-53.3,73.56c-.22.3-.56.47-.91.47ZM259.61,233.24l43.09,81.66c8.62,16.34,21.66,29.82,37.71,38.98l105.62,60.27,51.93-71.66-120.09-60.64c-3.61-1.82-6.57-4.83-8.33-8.47h0l-38.1-78.88h-32.82l-39.02,38.75Z"/><path class="uuid-14259b2c-6d93-4b64-bfe3-ba4b2025eee5" d="M545.72,360.21l-58.44,118.91-5.66-2.78c-7.08-3.48-11.03-11.21-9.73-18.98v-.11s5.1-30.22,5.1-30.22l-6.51-13.58c-1.16-2.39-1.13-5.17.03-7.55,1.07-2.18,2.97-3.79,5.28-4.47,7.06-2.09,22.63-7.84,28.46-19.08,7.64-14.73-2.45-27.3-2.45-27.3,20.17-15.19,43.92,5.17,43.92,5.17Z"/><path class="uuid-6b9c7e92-0588-45d6-9f52-e248294e826c" d="M487.27,480.25c-.17,0-.34-.04-.5-.12l-5.66-2.78c-7.46-3.67-11.71-11.96-10.35-20.18l5.04-29.98-6.35-13.26c-1.31-2.7-1.3-5.82.04-8.54,1.2-2.44,3.38-4.29,5.97-5.06,6.45-1.91,22.08-7.53,27.78-18.52,7.2-13.88-1.93-25.58-2.33-26.07-.19-.24-.28-.54-.24-.85.04-.3.2-.58.44-.76,20.65-15.55,45.09,5,45.33,5.21.39.34.51.89.28,1.35l-58.45,118.91c-.13.27-.37.47-.65.57-.12.04-.24.06-.36.06ZM503.36,355.3c2.2,3.31,8.55,14.71,1.88,27.56-6.1,11.76-22.41,17.65-29.14,19.64-1.99.59-3.67,2.01-4.59,3.89-1.03,2.09-1.04,4.48-.03,6.56l6.51,13.59c.1.21.13.45.1.67l-5.08,30.22c-1.22,7.35,2.53,14.66,9.1,17.89l4.65,2.29,57.55-117.08c-3.89-3.02-23.79-17.15-40.94-5.22Z"/><path class="uuid-6b9c7e92-0588-45d6-9f52-e248294e826c" d="M534.04,385.09c-.17,0-.34-.04-.5-.12-13.33-6.55-19.51-21.99-14.38-35.9.22-.58.87-.88,1.45-.67.58.22.88.86.67,1.45-4.74,12.82.96,27.05,13.25,33.09.56.27.79.95.52,1.51-.2.4-.6.63-1.01.63Z"/><path class="uuid-6b9c7e92-0588-45d6-9f52-e248294e826c" d="M487.27,480.25c-.17,0-.34-.04-.5-.12l-5.66-2.78c-7.46-3.67-11.71-11.96-10.35-20.18.06-.37.32-.8.67-.95,5.73-2.55,12.24-2.42,17.87.34h0c2.7,1.33,5.02,3.16,6.91,5.44.28.34.34.82.14,1.22l-8.06,16.4c-.13.27-.37.47-.65.57-.12.04-.24.06-.36.06ZM472.91,458.04c-.95,7.07,2.77,14.13,9.19,17.28l4.65,2.29,7.24-14.72c-1.59-1.78-3.5-3.23-5.69-4.3h0c-4.84-2.38-10.41-2.57-15.39-.54Z"/><path class="uuid-6b9c7e92-0588-45d6-9f52-e248294e826c" d="M483.76,440.74h0l-8.9-.04c-.62,0-1.13-.51-1.12-1.13,0-.62.51-1.12,1.13-1.12h0l8.9.04c.62,0,1.13.51,1.12,1.13,0,.62-.51,1.12-1.13,1.12Z"/><path class="uuid-6b9c7e92-0588-45d6-9f52-e248294e826c" d="M484.92,434.61h0l-8.9-.04c-.62,0-1.13-.51-1.12-1.13,0-.62.54-1.14,1.13-1.12l8.9.04c.62,0,1.13.51,1.12,1.13,0,.62-.51,1.12-1.13,1.12Z"/><path class="uuid-6b9c7e92-0588-45d6-9f52-e248294e826c" d="M486.08,428.47h0l-8.9-.04c-.62,0-1.13-.51-1.12-1.13,0-.62.51-1.12,1.13-1.12h0l8.9.04c.62,0,1.13.51,1.12,1.13,0,.62-.51,1.12-1.13,1.12Z"/><path class="uuid-6b9c7e92-0588-45d6-9f52-e248294e826c" d="M472.92,431.25c-2.28,0-5-.76-7.06-1.77-2-.98-3.41-2.17-4.19-3.54-.79-1.39-.87-2.88-.22-4.21.65-1.33,1.88-2.18,3.47-2.4,1.56-.22,3.36.17,5.36,1.15h0c3.77,1.85,8.21,5.98,6.77,8.91-.65,1.33-2.24,1.85-4.14,1.85ZM465.78,421.53c-.2,0-.39.01-.54.04-.84.12-1.43.51-1.75,1.16-.32.65-.27,1.36.15,2.1.38.67,1.25,1.67,3.22,2.63,3.71,1.82,7.72,1.88,8.17.94.46-.93-2.04-4.07-5.74-5.89h0c-1.57-.77-2.72-.98-3.51-.98Z"/><path class="uuid-6b9c7e92-0588-45d6-9f52-e248294e826c" d="M464.89,438.89c-3.05,0-4.68-1.6-5.17-3.29-.64-2.22.46-5.35,5.69-6.86,4.03-1.16,10.1-1.1,11.01,2.04.41,1.43-.43,3.08-2.38,4.63-1.59,1.27-3.72,2.35-5.84,2.96-1.25.36-2.35.52-3.3.52ZM470.32,430.3c-1.3,0-2.79.18-4.28.61h0c-2.98.86-4.61,2.46-4.15,4.07.46,1.61,2.69,2.09,5.68,1.23,1.83-.53,3.72-1.48,5.06-2.56,1.27-1.01,1.73-1.87,1.62-2.24-.18-.62-1.78-1.11-3.93-1.11ZM465.72,429.82h.01-.01Z"/><path class="uuid-fb6874bf-5ccc-4d58-9253-27b8e1c88ffb" d="M502.15,355.5c1.71,2.41,8.88,13.77,2.1,26.84-5.83,11.24-21.4,16.99-28.46,19.08-2.31.68-4.21,2.3-5.28,4.47-.49,1-.78,2.09-.85,3.18l-13.1-7.52,34.9-47.78,10.7,1.73Z"/><path class="uuid-6b9c7e92-0588-45d6-9f52-e248294e826c" d="M469.65,410.2c-.19,0-.39-.05-.56-.15l-13.1-7.52c-.28-.16-.47-.43-.54-.74-.07-.31,0-.64.19-.9l34.9-47.78c.25-.34.67-.52,1.09-.45l10.7,1.73c.3.05.57.21.74.46,1.61,2.27,9.29,14.32,2.18,28.01-6.1,11.76-22.41,17.65-29.14,19.64-1.99.59-3.67,2.01-4.59,3.89-.42.86-.67,1.79-.74,2.76-.03.39-.25.73-.6.92-.17.09-.35.13-.53.13ZM458.2,401.2l10.59,6.08c.16-.65.4-1.28.69-1.89,1.2-2.44,3.38-4.29,5.97-5.06,6.45-1.91,22.08-7.53,27.78-18.52,6.18-11.9.14-22.46-1.75-25.28l-9.54-1.55-33.75,46.21Z"/><path class="uuid-fb6874bf-5ccc-4d58-9253-27b8e1c88ffb" d="M307.02,193.36h-92.88l-33.77,86.9c-5.83,15-7.88,31.19-5.97,47.17l12.24,102.6h90.84l-21.55-122.42c-.63-3.57-.12-7.25,1.44-10.52l49.66-103.73Z"/><path class="uuid-6b9c7e92-0588-45d6-9f52-e248294e826c" d="M277.47,431.15h-90.84c-.57,0-1.05-.43-1.12-.99l-12.24-102.6c-1.92-16.1.17-32.6,6.04-47.71l33.77-86.9c.17-.43.59-.72,1.05-.72h92.88c.39,0,.75.2.95.53.21.33.23.74.06,1.09l-49.66,103.73c-1.47,3.08-1.94,6.48-1.35,9.84l21.55,122.42c.06.33-.03.67-.25.92-.21.26-.53.4-.86.4ZM187.63,428.89h88.49l-21.31-121.09c-.67-3.83-.14-7.7,1.53-11.2l48.88-102.11h-90.32l-33.49,86.18c-5.74,14.77-7.78,30.89-5.9,46.63l12.12,101.6Z"/><path class="uuid-14259b2c-6d93-4b64-bfe3-ba4b2025eee5" d="M289.84,481.57h-132.5v-6.31c0-7.89,5.19-14.84,12.74-17.11l.1-.03,29.37-8.77,9.32-11.83c1.63-2.1,4.14-3.3,6.79-3.3,2.42,0,4.71,1,6.34,2.77,4.99,5.42,17.02,16.85,29.68,17.13,16.59.36,23.42-14.24,23.42-14.24,22.52,11.4,14.74,41.7,14.74,41.7Z"/><path class="uuid-6b9c7e92-0588-45d6-9f52-e248294e826c" d="M289.84,482.7h-132.5c-.62,0-1.13-.51-1.13-1.13v-6.31c0-8.31,5.57-15.79,13.54-18.19l29.13-8.7,9.1-11.55c1.85-2.37,4.65-3.73,7.68-3.73,2.72,0,5.34,1.14,7.17,3.13,4.56,4.95,16.49,16.49,28.87,16.76,15.68.34,22.31-13.45,22.37-13.59.13-.28.37-.49.65-.59.29-.1.6-.08.88.06,23.07,11.67,15.4,42.67,15.32,42.98-.13.5-.58.85-1.09.85ZM158.47,480.44h130.46c.99-4.83,4.9-28.92-13.37-39.05-2,3.43-9.4,14.16-23.9,13.85-13.25-.29-25.73-12.33-30.48-17.49-1.41-1.53-3.42-2.4-5.51-2.4-2.33,0-4.48,1.04-5.9,2.87l-9.32,11.83c-.14.18-.34.32-.56.38l-29.37,8.77c-7.13,2.15-12.04,8.74-12.04,16.06v5.18Z"/><path class="uuid-6b9c7e92-0588-45d6-9f52-e248294e826c" d="M263.38,482.7c-.62,0-1.13-.51-1.13-1.13,0-14.86,11.12-27.21,25.88-28.74.62-.06,1.17.39,1.24,1.01.06.62-.39,1.17-1.01,1.24-13.6,1.4-23.85,12.79-23.85,26.49,0,.62-.51,1.13-1.13,1.13Z"/><path class="uuid-6b9c7e92-0588-45d6-9f52-e248294e826c" d="M175.62,482.7h-18.28c-.62,0-1.13-.51-1.13-1.13v-6.31c0-8.31,5.57-15.79,13.54-18.19.36-.11.86-.06,1.15.18,4.81,4.02,7.57,9.92,7.57,16.19,0,3.01-.62,5.9-1.84,8.6-.18.4-.59.66-1.03.66ZM158.47,480.44h16.4c.9-2.21,1.35-4.57,1.35-7,0-5.39-2.29-10.48-6.3-14.05-6.77,2.26-11.46,8.72-11.46,15.88v5.18Z"/><path class="uuid-6b9c7e92-0588-45d6-9f52-e248294e826c" d="M191.25,462.12c-.42,0-.82-.23-1.02-.64l-3.89-8.01c-.27-.56-.04-1.24.52-1.51.56-.27,1.23-.04,1.51.52l3.89,8.01c.27.56.04,1.24-.52,1.51-.16.08-.33.11-.49.11Z"/><path class="uuid-6b9c7e92-0588-45d6-9f52-e248294e826c" d="M197.27,460.46c-.42,0-.82-.23-1.02-.64l-3.89-8.01c-.27-.56-.04-1.24.52-1.51.56-.27,1.23-.04,1.51.52l3.89,8.01c.27.56.04,1.24-.52,1.51-.16.08-.33.11-.49.11Z"/><path class="uuid-6b9c7e92-0588-45d6-9f52-e248294e826c" d="M203.28,458.79c-.42,0-.82-.23-1.02-.64l-3.89-8.01c-.27-.56-.04-1.24.52-1.51.56-.27,1.23-.04,1.51.52l3.89,8.01c.27.56.04,1.24-.52,1.51-.16.08-.33.11-.49.11Z"/><path class="uuid-6b9c7e92-0588-45d6-9f52-e248294e826c" d="M197.45,450.47c-3.27,0-5.01-5.81-5.01-10.01,0-5.44,2.7-7.37,5.01-7.37s5.01,1.93,5.01,7.37c0,4.2-1.74,10.01-5.01,10.01ZM197.45,435.35c-1.67,0-2.76,2.01-2.76,5.11,0,4.13,1.72,7.75,2.76,7.75s2.76-3.62,2.76-7.75c0-3.11-1.08-5.11-2.76-5.11Z"/><path class="uuid-6b9c7e92-0588-45d6-9f52-e248294e826c" d="M193.84,451.23c-.9,0-1.95-.27-3.11-.82-1.84-.87-3.75-2.3-5.24-3.94-1.5-1.65-2.37-3.27-2.59-4.83-.23-1.58.25-3,1.34-4,1.09-1,2.55-1.34,4.11-.96,1.53.37,3.07,1.39,4.56,3.04h0c1.49,1.64,2.74,3.67,3.43,5.58.84,2.35.7,4.19-.4,5.19-.53.49-1.25.73-2.09.73ZM187.13,438.79c-.53,0-.99.17-1.37.52-.54.49-.75,1.16-.63,2.01.11.76.55,2.01,2.03,3.63,1.28,1.41,2.97,2.68,4.53,3.42,1.47.69,2.44.72,2.73.46.29-.26.35-1.24-.2-2.76-.58-1.62-1.69-3.43-2.97-4.83h0c-1.48-1.63-2.68-2.18-3.43-2.36-.24-.06-.47-.09-.68-.09Z"/><path class="uuid-fb6874bf-5ccc-4d58-9253-27b8e1c88ffb" d="M274.84,440.39c-1.41,2.6-8.44,14.05-23.16,13.72-12.65-.28-24.69-11.71-29.68-17.13-1.63-1.77-3.92-2.77-6.34-2.77-1.12,0-2.22.22-3.23.64l-.21-4.83h59.46l3.16,10.37Z"/><path class="uuid-6b9c7e92-0588-45d6-9f52-e248294e826c" d="M252.29,455.25c-.21,0-.42,0-.63,0-13.25-.29-25.73-12.33-30.48-17.49-2.05-2.23-5.45-3.02-8.32-1.85-.34.14-.73.1-1.04-.1-.31-.2-.5-.53-.52-.9l-.21-4.83c-.01-.31.1-.61.31-.83.21-.22.51-.35.81-.35h59.46c.5,0,.93.32,1.08.8l3.16,10.37c.09.29.06.6-.09.87-1.31,2.42-8.55,14.32-23.54,14.32ZM215.66,433.09c2.72,0,5.34,1.14,7.17,3.13,4.56,4.95,16.49,16.49,28.87,16.76,13.37.3,20.22-9.78,21.92-12.72l-2.78-9.11h-57.44l.09,2.19c.71-.16,1.44-.25,2.17-.25Z"/><path class="uuid-6b9c7e92-0588-45d6-9f52-e248294e826c" d="M346.95,121.49v71.87h-132.81v-46.06l-17.9,30.91c-9.23,15.96-31.98,16.73-42.28,1.46l-49.85-73.92,44.27-30.11,28.37,47.27,31.72-43.58c3.56-4.89,9.24-7.78,15.28-7.78h79.34c6.27,0,12.13,3.11,15.65,8.3l28.2,41.63Z"/><path class="uuid-6b9c7e92-0588-45d6-9f52-e248294e826c" d="M346.95,194.49h-132.81c-.62,0-1.13-.51-1.13-1.13v-41.86l-15.79,27.28c-4.53,7.83-12.63,12.69-21.68,13-9.01.31-17.46-3.98-22.52-11.48l-49.85-73.92c-.35-.52-.21-1.21.3-1.56l44.27-30.11c.26-.17.57-.24.88-.17.3.07.57.26.73.52l27.49,45.8,30.72-42.2c3.76-5.16,9.81-8.24,16.19-8.24h79.34c6.65,0,12.85,3.29,16.58,8.8l28.2,41.63c.13.19.19.41.19.63v71.87c0,.62-.51,1.13-1.13,1.13ZM215.28,192.24h130.55v-70.4l-28-41.34c-3.31-4.89-8.81-7.81-14.71-7.81h-79.34c-5.66,0-11.04,2.73-14.37,7.31l-31.72,43.58c-.22.31-.58.48-.96.46-.38-.02-.72-.22-.92-.55l-27.76-46.24-42.36,28.8,49.22,72.98c4.62,6.85,12.31,10.77,20.57,10.48,8.26-.28,15.66-4.72,19.8-11.88l17.9-30.91c.26-.44.78-.66,1.27-.52.49.13.84.58.84,1.09v44.93Z"/><rect class="uuid-c03fa09d-c456-49a1-a8f1-1dc5c029e428" x="225.97" y="112.82" width="214.14" height="157.46" rx="7.62" ry="7.62"/><path class="uuid-6b9c7e92-0588-45d6-9f52-e248294e826c" d="M432.48,271.41h-198.9c-4.82,0-8.75-3.93-8.75-8.75V120.44c0-4.82,3.93-8.75,8.75-8.75h198.9c4.82,0,8.75,3.93,8.75,8.75v142.22c0,4.82-3.93,8.75-8.75,8.75ZM233.59,113.95c-3.58,0-6.49,2.91-6.49,6.49v142.22c0,3.58,2.91,6.49,6.49,6.49h198.9c3.58,0,6.49-2.91,6.49-6.49V120.44c0-3.58-2.91-6.49-6.49-6.49h-198.9Z"/><path class="uuid-fb6874bf-5ccc-4d58-9253-27b8e1c88ffb" d="M274.21,52.96c.17,5.79.39,8.01.58,12.81.13,3.19,2.72,5.73,5.91,5.79h0c0,9.12-8.26,16.52-18.46,16.52s-18.46-7.4-18.46-16.52l3.72-.06c1.78-.03,3.38-1.28,3.66-3.05,0-.01,0-.02,0-.03.33-2.14.17-2.72-.46-5.01"/><path class="uuid-6b9c7e92-0588-45d6-9f52-e248294e826c" d="M262.26,89.21c-10.8,0-19.58-7.92-19.58-17.65,0-.62.49-1.12,1.11-1.13l3.72-.06c1.28-.02,2.38-.92,2.56-2.1.3-1.91.19-2.31-.41-4.53l2.17-.63c.64,2.34.85,3.12.48,5.48-.37,2.31-2.37,3.99-4.76,4.03l-2.57.04c.64,7.97,8.15,14.28,17.28,14.28s16.7-6.36,17.29-14.38c-3.24-.59-5.74-3.37-5.88-6.76-.08-1.92-.16-3.43-.24-4.91-.12-2.28-.24-4.43-.34-7.91-.02-.62.47-1.14,1.1-1.16.61-.01,1.14.47,1.16,1.1.1,3.45.22,5.59.34,7.85.08,1.5.16,3.01.24,4.95.11,2.59,2.22,4.66,4.81,4.71.62.01,1.11.51,1.11,1.13,0,9.73-8.79,17.65-19.58,17.65Z"/><path class="uuid-6b9c7e92-0588-45d6-9f52-e248294e826c" d="M304.12,21.05c-.65,1.85-1.69,3.62-3.3,4.7-2.1,1.41-4.92,1.44-7.28.54-.69-.27-1.36-.61-1.98-1-1.52-.93-2.84-2.18-4.02-3.52l-6.61-12.92c.13-.74.27-1.49.41-2.23.02-.1.03-.19.05-.29.28-1.5.59-3.07,1.57-4.22,1.13-1.34,2.96-1.87,4.69-2.03,5.27-.51,10.72,1.83,13.98,5.98,3.28,4.16,4.24,10,2.5,15Z"/><path class="uuid-c03fa09d-c456-49a1-a8f1-1dc5c029e428" d="M295,17.3c0,3.15-1.33,5.99-3.45,7.99-1.52-.93-2.84-2.18-4.02-3.52l-6.61-12.92c.13-.74.27-1.49.41-2.23.85-.22,1.75-.33,2.66-.33,6.08,0,11.02,4.93,11.02,11.02Z"/><path class="uuid-6b9c7e92-0588-45d6-9f52-e248294e826c" d="M261.38,13.46c.68-1.49.3-3.3-.63-4.64s-2.33-2.29-3.78-3.04c-4.4-2.3-9.65-3.16-14.42-1.8-4.77,1.36-8.94,5.09-10.3,9.86s.41,10.42,4.56,13.14c4.15,2.72,10.41,1.88,13.32-2.13.6,3.78,1.99,7.49,4.44,10.42,2.46,2.93,6.05,5,9.87,5.17,3.82.17,7.77-1.77,9.59-5.13,5.29,1.43,8.97,7.27,7.97,12.66,3.26-3.45,6.23-7.25,8.27-11.53s3.14-9.11,2.58-13.83c-.56-4.72-2.81-9.21-6.25-12.49-3.44-3.28-8.03-5.32-12.77-5.66-4.2-.31-10.83.57-14.05,3.27"/><path class="uuid-6b9c7e92-0588-45d6-9f52-e248294e826c" d="M251.59,43.28c-.38,0-.75-.19-.97-.54-.86-1.41-1.59-2.55-2.64-3.32-.85-.62-2.21-1.03-3.2-.46-.54.31-1.23.12-1.54-.42-.31-.54-.12-1.23.42-1.54,1.64-.94,3.86-.71,5.65.6,1.5,1.09,2.47,2.69,3.24,3.97.32.53.15,1.23-.38,1.55-.18.11-.38.16-.58.16Z"/><path class="uuid-6b9c7e92-0588-45d6-9f52-e248294e826c" d="M234.12,37.55c0,1-.81,1.82-1.82,1.82s-1.82-.81-1.82-1.82.81-1.82,1.82-1.82,1.82.81,1.82,1.82Z"/><path class="uuid-6b9c7e92-0588-45d6-9f52-e248294e826c" d="M246.61,44.01c0,1-.81,1.82-1.82,1.82s-1.82-.81-1.82-1.82.81-1.82,1.82-1.82,1.82.81,1.82,1.82Z"/><path class="uuid-6b9c7e92-0588-45d6-9f52-e248294e826c" d="M241.03,56.47c-.88,0-1.75-.24-2.52-.7-.53-.32-.71-1.01-.39-1.55.32-.53,1.01-.71,1.55-.39.62.37,1.32.48,2.02.3.95-.24,1.83-.96,2.46-2.03.32-.54,1.01-.71,1.55-.39.54.32.71,1.01.39,1.55-.94,1.59-2.31,2.68-3.85,3.07-.4.1-.81.15-1.21.15Z"/><path class="uuid-6b9c7e92-0588-45d6-9f52-e248294e826c" d="M233.87,49.87c-.22,0-.45-.01-.67-.04-1.34-.18-2.33-.95-2.59-2.01-.2-.83.09-1.58.37-2.15.66-1.32,1.74-2.26,2.79-3.16.36-.32.73-.63,1.06-.96,1-.97,1.48-2.17,1.43-3.55-.06-1.91-1.08-3.55-1.62-4-.99-.85-2.53-1.84-4.2-1.79-.66.02-1.14-.47-1.16-1.09-.02-.62.47-1.14,1.09-1.16,1.9-.06,3.88.75,5.73,2.33,1.11.95,2.33,3.24,2.41,5.64.07,2.02-.67,3.83-2.12,5.24-.37.36-.76.7-1.16,1.05-.92.79-1.79,1.54-2.25,2.47-.22.45-.21.58-.2.6.02.07.27.25.69.31,1.2.16,2.52-.53,3.08-1.61.28-.55.96-.77,1.52-.49.55.28.77.96.49,1.52-.9,1.75-2.77,2.86-4.72,2.86Z"/><path class="uuid-fb6874bf-5ccc-4d58-9253-27b8e1c88ffb" d="M263.91,41.75c1.25-4.86,6.2-7.78,11.05-6.52,4.86,1.25,7.78,6.2,6.52,11.05-1.25,4.85-6.2,7.77-11.05,6.52"/><path class="uuid-6b9c7e92-0588-45d6-9f52-e248294e826c" d="M272.69,54.22c-.84,0-1.69-.1-2.54-.32-.6-.16-.97-.77-.81-1.37.16-.6.77-.97,1.37-.81,4.24,1.09,8.58-1.47,9.68-5.71.53-2.06.23-4.2-.85-6.02s-2.8-3.12-4.86-3.65c-4.24-1.09-8.58,1.47-9.68,5.71-.16.6-.77.97-1.37.81-.6-.16-.97-.77-.81-1.37,1.4-5.45,6.98-8.74,12.43-7.34,2.64.68,4.86,2.35,6.24,4.69,1.39,2.35,1.77,5.09,1.09,7.73-1.18,4.6-5.34,7.66-9.88,7.66Z"/><path class="uuid-fb6874bf-5ccc-4d58-9253-27b8e1c88ffb" d="M269.66,43.23c.43-1.68,2.14-2.69,3.82-2.25s2.69,2.14,2.25,3.82c-.43,1.67-2.14,2.69-3.82,2.25"/><path class="uuid-6b9c7e92-0588-45d6-9f52-e248294e826c" d="M272.7,48.28c-.36,0-.72-.05-1.07-.14-.6-.16-.97-.77-.81-1.37.16-.6.77-.97,1.37-.81.52.13,1.06.06,1.52-.22.46-.27.79-.71.92-1.23.13-.52.06-1.06-.21-1.52-.27-.46-.71-.79-1.23-.92-1.07-.28-2.17.37-2.45,1.44-.16.6-.77.97-1.37.81-.6-.16-.97-.77-.81-1.37.59-2.28,2.92-3.65,5.19-3.07,1.1.28,2.03.98,2.61,1.96.58.98.74,2.13.46,3.23-.28,1.1-.98,2.03-1.96,2.61-.67.39-1.41.6-2.16.6Z"/><line class="uuid-fb6874bf-5ccc-4d58-9253-27b8e1c88ffb" x1="476.2" y1="330.22" x2="440.85" y2="383.96"/><path class="uuid-6b9c7e92-0588-45d6-9f52-e248294e826c" d="M440.84,385.09c-.21,0-.43-.06-.62-.19-.52-.34-.66-1.04-.32-1.56l35.35-53.73c.34-.52,1.04-.67,1.56-.32.52.34.67,1.04.32,1.56l-35.35,53.73c-.22.33-.58.51-.94.51Z"/><path class="uuid-6b9c7e92-0588-45d6-9f52-e248294e826c" d="M273.42,408.13h-64.24c-.62,0-1.13-.51-1.13-1.13s.51-1.13,1.13-1.13h64.24c.62,0,1.13.51,1.13,1.13s-.51,1.13-1.13,1.13Z"/><path class="uuid-fb6874bf-5ccc-4d58-9253-27b8e1c88ffb" d="M343.23,108.09s-1.77,16.61,4.87,14.89c4.98-1.29,6.34-12.6,6.34-12.6.91-15.2-26.4-14.22-32.53-13.85-4.57.27-9.27,1.07-13.28,3.67s-7.23,7.36-7.21,12.47l7.73.15"/><path class="uuid-6b9c7e92-0588-45d6-9f52-e248294e826c" d="M347.18,124.24c-.95,0-1.8-.32-2.53-.94-3.72-3.2-2.67-14.09-2.54-15.32.07-.62.63-1.07,1.24-1,.62.07,1.07.62,1,1.24-.45,4.2-.36,11.54,1.77,13.37.31.27.78.54,1.69.3,3.45-.9,5.17-8.91,5.5-11.65.16-2.7-.67-4.95-2.55-6.83-6.55-6.55-23.7-6.06-28.79-5.76-3.77.23-8.63.83-12.73,3.5-3.74,2.43-6.26,6.42-6.64,10.42l6.57.13c.62.01,1.12.53,1.11,1.15-.01.62-.52,1.12-1.15,1.11l-7.73-.15c-.61-.01-1.1-.51-1.11-1.13-.01-5.1,3.02-10.36,7.73-13.42,4.55-2.95,9.78-3.61,13.83-3.85,6.84-.41,23.5-.61,30.52,6.42,2.33,2.33,3.4,5.23,3.2,8.63-.15,1.3-1.62,12.19-7.18,13.63-.41.11-.81.16-1.2.16Z"/><path class="uuid-fb6874bf-5ccc-4d58-9253-27b8e1c88ffb" d="M319.34,108.89s.27,11.39-5.66,12.93c-5.93,1.54-4.35-13.3-4.35-13.3"/><path class="uuid-6b9c7e92-0588-45d6-9f52-e248294e826c" d="M312.86,123.06c-.87,0-1.67-.29-2.33-.87-3.37-2.9-2.43-12.68-2.31-13.79.07-.62.63-1.07,1.24-1,.62.07,1.07.62,1,1.24-.4,3.72-.33,10.23,1.54,11.84.25.22.64.44,1.4.25,4.14-1.07,4.88-8.89,4.81-11.81-.01-.62.48-1.14,1.1-1.15.63,0,1.14.48,1.15,1.1.01.5.21,12.31-6.5,14.05-.38.1-.75.15-1.11.15Z"/><path class="uuid-fb6874bf-5ccc-4d58-9253-27b8e1c88ffb" d="M330.6,108.73s.3,12.58-6.25,14.28c-6.54,1.7-4.8-14.69-4.8-14.69"/><path class="uuid-6b9c7e92-0588-45d6-9f52-e248294e826c" d="M323.44,124.27c-.94,0-1.79-.31-2.5-.93-3.67-3.17-2.64-13.91-2.51-15.13.07-.62.63-1.07,1.24-1,.62.07,1.07.62,1,1.24-.44,4.14-.35,11.37,1.74,13.18.3.26.76.53,1.65.3,4.65-1.21,5.48-9.91,5.4-13.16-.01-.62.48-1.14,1.1-1.15.6,0,1.14.48,1.15,1.1.01.55.23,13.5-7.09,15.4-.41.11-.81.16-1.19.16Z"/><path class="uuid-fb6874bf-5ccc-4d58-9253-27b8e1c88ffb" d="M343.01,108.46s.33,13.81-6.86,15.67c-7.18,1.86-5.27-16.12-5.27-16.12"/><path class="uuid-6b9c7e92-0588-45d6-9f52-e248294e826c" d="M335.16,125.4c-1,0-1.91-.34-2.68-.99-3.99-3.44-2.86-15.18-2.72-16.51.07-.62.63-1.07,1.24-1,.62.07,1.07.62,1,1.24-.48,4.56-.38,12.55,1.95,14.56.32.28.87.62,1.91.35,5.18-1.34,6.1-10.96,6.01-14.56-.01-.62.48-1.14,1.1-1.15.63-.01,1.14.48,1.15,1.1.01.6.26,14.73-7.7,16.79-.44.11-.86.17-1.28.17Z"/><path class="uuid-6b9c7e92-0588-45d6-9f52-e248294e826c" d="M440.1,134.41h-213.82c-.62,0-1.13-.51-1.13-1.13s.51-1.13,1.13-1.13h213.82c.62,0,1.13.51,1.13,1.13s-.51,1.13-1.13,1.13Z"/><path class="uuid-6b9c7e92-0588-45d6-9f52-e248294e826c" d="M242.17,123.11c0,1.74-1.41,3.15-3.15,3.15s-3.15-1.41-3.15-3.15,1.41-3.15,3.15-3.15,3.15,1.41,3.15,3.15Z"/><path class="uuid-6b9c7e92-0588-45d6-9f52-e248294e826c" d="M253.49,123.11c0,1.74-1.41,3.15-3.15,3.15s-3.15-1.41-3.15-3.15,1.41-3.15,3.15-3.15,3.15,1.41,3.15,3.15Z"/><path class="uuid-6b9c7e92-0588-45d6-9f52-e248294e826c" d="M264.82,123.11c0,1.74-1.41,3.15-3.15,3.15s-3.15-1.41-3.15-3.15,1.41-3.15,3.15-3.15,3.15,1.41,3.15,3.15Z"/><path class="uuid-fb6874bf-5ccc-4d58-9253-27b8e1c88ffb" d="M380.82,233.82h-105.76c-3.22,0-5.25-3.46-3.68-6.27l28.2-50.53c1.54-2.76,5.46-2.9,7.2-.27l26.64,40.36,20.99-30.99c1.76-2.6,5.64-2.43,7.17.31l22.93,41.12c1.57,2.81-.46,6.27-3.68,6.27Z"/><path class="uuid-6b9c7e92-0588-45d6-9f52-e248294e826c" d="M380.82,234.95h-105.76c-1.91,0-3.64-.99-4.61-2.64-.97-1.65-.99-3.64-.06-5.31l28.2-50.53c.92-1.64,2.59-2.67,4.47-2.74,1.87-.07,3.62.83,4.66,2.4l25.71,38.95,20.04-29.59c1.05-1.55,2.79-2.42,4.65-2.34,1.87.08,3.52,1.1,4.43,2.73l22.93,41.12c.93,1.67.91,3.66-.06,5.31-.97,1.65-2.69,2.64-4.61,2.64ZM303.26,176s-.08,0-.12,0c-1.09.04-2.05.63-2.58,1.58l-28.2,50.53c-.54.97-.53,2.11.03,3.07.56.95,1.55,1.52,2.66,1.52h105.76c1.11,0,2.1-.57,2.66-1.52.56-.95.57-2.1.03-3.06l-22.93-41.12c-.53-.94-1.48-1.53-2.56-1.58-1.08-.05-2.08.46-2.69,1.35l-20.99,30.99c-.21.31-.55.5-.94.5-.38,0-.73-.19-.94-.51l-26.64-40.36c-.58-.87-1.53-1.39-2.57-1.39Z"/><circle class="uuid-fb6874bf-5ccc-4d58-9253-27b8e1c88ffb" cx="334.92" cy="166.6" r="11.6"/><path class="uuid-6b9c7e92-0588-45d6-9f52-e248294e826c" d="M334.92,179.33c-7.02,0-12.73-5.71-12.73-12.73s5.71-12.73,12.73-12.73,12.73,5.71,12.73,12.73-5.71,12.73-12.73,12.73ZM334.92,156.12c-5.78,0-10.47,4.7-10.47,10.47s4.7,10.47,10.47,10.47,10.47-4.7,10.47-10.47-4.7-10.47-10.47-10.47Z"/><rect class="uuid-8a22e34d-f04d-4543-a17d-210ab36d2739" x="1.13" y="2.37" width="118.24" height="153.28" rx="5.51" ry="5.51"/><path class="uuid-6b9c7e92-0588-45d6-9f52-e248294e826c" d="M113.85,156.78H6.64c-3.66,0-6.64-2.98-6.64-6.64V7.89C0,4.22,2.98,1.24,6.64,1.24h107.21c3.66,0,6.64,2.98,6.64,6.64v142.25c0,3.66-2.98,6.64-6.64,6.64ZM6.64,3.5c-2.42,0-4.39,1.97-4.39,4.39v142.25c0,2.42,1.97,4.39,4.39,4.39h107.21c2.42,0,4.39-1.97,4.39-4.39V7.89c0-2.42-1.97-4.39-4.39-4.39H6.64Z"/><path class="uuid-fb6874bf-5ccc-4d58-9253-27b8e1c88ffb" d="M146.47,76.96l-.29.2-26.81,18.24v-11.97l.78-2.56c-6.83-6.31.09-14.22.09-14.22,0,0-17.89-10.28-11.49-16.58,5.54-5.43,24.55,4.21,29.73,10.11,3.08,3.49,7.99,16.78,7.99,16.78Z"/><path class="uuid-6b9c7e92-0588-45d6-9f52-e248294e826c" d="M119.37,96.53c-.18,0-.36-.04-.53-.13-.37-.2-.6-.58-.6-1v-11.97c0-.11.02-.22.05-.33l.58-1.91c-4.76-4.92-2.64-10.92-.31-14.23-3.2-1.98-11.58-7.64-12.28-13.07-.22-1.73.36-3.33,1.67-4.62,1.4-1.38,3.52-2.02,6.29-1.91,8.54.32,21.11,7.55,25.08,12.08,3.18,3.6,8,16.58,8.2,17.13.18.48,0,1.03-.42,1.32l-.29.2-26.82,18.24c-.19.13-.41.2-.63.2ZM120.49,83.59v9.67l24.61-16.74c-1.12-2.92-4.99-12.8-7.47-15.6-3.74-4.26-15.74-11.03-23.48-11.32-2.13-.08-3.68.35-4.62,1.27-.83.81-1.15,1.68-1.01,2.72.57,4.43,9.05,10.21,12.28,12.07.29.17.49.46.55.79.06.33-.04.67-.26.93-.25.29-6.1,7.17-.18,12.65.32.29.44.74.31,1.16l-.73,2.4Z"/><rect class="uuid-fb6874bf-5ccc-4d58-9253-27b8e1c88ffb" x="382.65" y="141.03" width="196.22" height="53.64" rx="6.34" ry="6.34"/><path class="uuid-6b9c7e92-0588-45d6-9f52-e248294e826c" d="M572.54,195.8h-183.55c-4.12,0-7.46-3.35-7.46-7.46v-40.97c0-4.12,3.35-7.46,7.46-7.46h183.55c4.12,0,7.46,3.35,7.46,7.46v40.97c0,4.12-3.35,7.46-7.46,7.46ZM388.99,142.16c-2.87,0-5.21,2.34-5.21,5.21v40.97c0,2.87,2.34,5.21,5.21,5.21h183.55c2.87,0,5.21-2.34,5.21-5.21v-40.97c0-2.87-2.34-5.21-5.21-5.21h-183.55Z"/><path class="uuid-8a22e34d-f04d-4543-a17d-210ab36d2739" d="M437,141.03h-48.01c-3.5,0-6.34,2.84-6.34,6.34v40.97c0,3.5,2.84,6.34,6.34,6.34h48.01v-53.64Z"/><path class="uuid-6b9c7e92-0588-45d6-9f52-e248294e826c" d="M437,195.8h-48.01c-4.12,0-7.46-3.35-7.46-7.46v-40.97c0-4.12,3.35-7.46,7.46-7.46h48.01c.62,0,1.13.51,1.13,1.13v53.64c0,.62-.51,1.13-1.13,1.13ZM388.99,142.16c-2.87,0-5.21,2.34-5.21,5.21v40.97c0,2.87,2.34,5.21,5.21,5.21h46.89v-51.38h-46.89Z"/><path class="uuid-c03fa09d-c456-49a1-a8f1-1dc5c029e428" d="M415.35,157.53c4.37,4.37,4.37,11.46,0,15.84-4.37,4.37-11.46,4.37-15.83,0s-4.38-11.46,0-15.83c4.37-4.37,11.46-4.37,15.84,0Z"/><path class="uuid-6b9c7e92-0588-45d6-9f52-e248294e826c" d="M407.44,177.78h0c-3.29,0-6.38-1.28-8.71-3.61-2.33-2.33-3.61-5.42-3.61-8.71,0-3.29,1.28-6.39,3.61-8.71,4.81-4.81,12.63-4.81,17.43,0h0c4.81,4.81,4.81,12.63,0,17.43-2.33,2.33-5.42,3.61-8.71,3.61ZM407.43,155.39c-2.58,0-5.16.98-7.12,2.94-1.9,1.9-2.95,4.43-2.95,7.12,0,2.69,1.05,5.22,2.95,7.12,1.9,1.9,4.43,2.95,7.12,2.95h0c2.69,0,5.21-1.05,7.11-2.95,3.93-3.93,3.93-10.31,0-14.24-1.96-1.96-4.54-2.94-7.12-2.94Z"/><line class="uuid-fb6874bf-5ccc-4d58-9253-27b8e1c88ffb" x1="415.35" y1="173.37" x2="423.42" y2="181.45"/><path class="uuid-6b9c7e92-0588-45d6-9f52-e248294e826c" d="M423.42,182.57c-.29,0-.58-.11-.8-.33l-8.07-8.07c-.44-.44-.44-1.16,0-1.6.44-.44,1.15-.44,1.6,0l8.07,8.07c.44.44.44,1.16,0,1.6-.22.22-.51.33-.8.33Z"/><path class="uuid-6b9c7e92-0588-45d6-9f52-e248294e826c" d="M460.92,185.72c-.62,0-1.13-.51-1.13-1.13v-33.49c0-.62.51-1.13,1.13-1.13s1.13.51,1.13,1.13v33.49c0,.62-.51,1.13-1.13,1.13Z"/><path class="uuid-6b9c7e92-0588-45d6-9f52-e248294e826c" d="M464.52,152.24h-7.19c-.62,0-1.13-.51-1.13-1.13s.51-1.13,1.13-1.13h7.19c.62,0,1.13.51,1.13,1.13s-.51,1.13-1.13,1.13Z"/><path class="uuid-6b9c7e92-0588-45d6-9f52-e248294e826c" d="M464.52,185.72h-7.19c-.62,0-1.13-.51-1.13-1.13s.51-1.13,1.13-1.13h7.19c.62,0,1.13.51,1.13,1.13s-.51,1.13-1.13,1.13Z"/><rect class="uuid-14259b2c-6d93-4b64-bfe3-ba4b2025eee5" x="160.57" y="217.08" width="87.42" height="87.41" rx="5.35" ry="5.35"/><path class="uuid-6b9c7e92-0588-45d6-9f52-e248294e826c" d="M242.64,305.62h-76.72c-3.57,0-6.48-2.91-6.48-6.48v-76.71c0-3.57,2.91-6.48,6.48-6.48h76.72c3.57,0,6.48,2.91,6.48,6.48v76.71c0,3.57-2.91,6.48-6.48,6.48ZM165.92,218.21c-2.33,0-4.22,1.89-4.22,4.22v76.71c0,2.33,1.89,4.22,4.22,4.22h76.72c2.33,0,4.22-1.89,4.22-4.22v-76.71c0-2.33-1.89-4.22-4.22-4.22h-76.72Z"/><path class="uuid-fb6874bf-5ccc-4d58-9253-27b8e1c88ffb" d="M222.54,263.37l-26.18,18.49c-2.09,1.48-4.98-.02-4.98-2.58v-36.98c0-2.56,2.89-4.06,4.98-2.58l26.18,18.49c1.78,1.26,1.78,3.9,0,5.16Z"/><path class="uuid-6b9c7e92-0588-45d6-9f52-e248294e826c" d="M194.54,283.57c-.67,0-1.35-.16-1.97-.48-1.43-.74-2.31-2.2-2.31-3.8v-36.98c0-1.61.89-3.07,2.31-3.8,1.43-.74,3.13-.62,4.44.31l26.18,18.49c1.14.8,1.81,2.11,1.81,3.5s-.68,2.7-1.81,3.5h0l-26.18,18.49c-.74.52-1.6.79-2.47.79ZM194.55,240.26c-.32,0-.64.08-.94.23-.69.36-1.1,1.03-1.1,1.8v36.98c0,.77.41,1.45,1.1,1.8.69.36,1.47.3,2.1-.14l26.18-18.49c.55-.39.86-.99.86-1.66s-.31-1.27-.86-1.66l-26.18-18.49c-.35-.25-.76-.38-1.16-.38ZM222.54,263.37h.01-.01Z"/><path class="uuid-c36f266d-8732-48ed-bde1-2d2b74b3da33" d="M545.72,489.5v42.77c0,4.38-3.55,7.93-7.93,7.93H95.35c-2,0-3.99-.42-5.82-1.24l-55.92-24.96c-2.69-1.2-2.69-5.03,0-6.23l55.92-24.96c1.83-.82,3.81-1.24,5.82-1.24h442.44c4.38,0,7.93,3.55,7.93,7.93Z"/><path class="uuid-6b9c7e92-0588-45d6-9f52-e248294e826c" d="M537.79,541.32H95.35c-2.18,0-4.29-.45-6.28-1.34l-55.92-24.96c-1.66-.74-2.69-2.33-2.69-4.14s1.03-3.4,2.69-4.14l55.92-24.96c1.99-.89,4.1-1.34,6.28-1.34h442.44c4.99,0,9.06,4.06,9.06,9.06v42.77c0,4.99-4.06,9.06-9.06,9.06ZM95.35,482.7c-1.86,0-3.66.38-5.36,1.14l-55.92,24.96c-.85.38-1.35,1.16-1.35,2.08s.51,1.71,1.35,2.08l55.92,24.96c1.7.76,3.5,1.14,5.36,1.14h442.44c3.75,0,6.8-3.05,6.8-6.8v-42.77c0-3.75-3.05-6.8-6.8-6.8H95.35Z"/><path class="uuid-fb6874bf-5ccc-4d58-9253-27b8e1c88ffb" d="M93.76,481.67v58.43c-1.45-.17-2.88-.54-4.23-1.14l-42.19-18.83-13.73-6.13c-2.69-1.2-2.69-5.03,0-6.23l14.31-6.39,41.61-18.57c1.35-.6,2.77-.98,4.23-1.15Z"/><path class="uuid-6b9c7e92-0588-45d6-9f52-e248294e826c" d="M93.76,541.23s-.08,0-.13,0c-1.6-.18-3.13-.6-4.56-1.24l-55.92-24.95c-1.66-.74-2.69-2.33-2.69-4.15s1.03-3.41,2.69-4.15l55.92-24.96c1.43-.64,2.96-1.05,4.56-1.24.32-.04.64.07.88.28.24.21.38.52.38.84v58.43c0,.32-.14.63-.38.84-.21.19-.48.29-.75.29ZM92.63,482.99c-.92.19-1.8.48-2.64.85l-55.92,24.96c-.85.38-1.35,1.16-1.35,2.09s.51,1.71,1.35,2.09l55.92,24.95c.84.38,1.72.66,2.64.85v-55.79Z"/><path class="uuid-fb6874bf-5ccc-4d58-9253-27b8e1c88ffb" d="M537.79,481.57h-49.24v58.62h49.24c4.38,0,7.93-3.55,7.93-7.93v-42.77c0-4.38-3.55-7.93-7.93-7.93Z"/><path class="uuid-6b9c7e92-0588-45d6-9f52-e248294e826c" d="M537.79,541.32h-49.24c-.62,0-1.13-.51-1.13-1.13v-58.62c0-.62.51-1.13,1.13-1.13h49.24c4.99,0,9.06,4.06,9.06,9.06v42.77c0,4.99-4.06,9.06-9.06,9.06ZM489.68,539.07h48.11c3.75,0,6.8-3.05,6.8-6.8v-42.77c0-3.75-3.05-6.8-6.8-6.8h-48.11v56.37Z"/><rect class="uuid-fb6874bf-5ccc-4d58-9253-27b8e1c88ffb" x="488.55" y="481.57" width="12.04" height="58.62"/><path class="uuid-6b9c7e92-0588-45d6-9f52-e248294e826c" d="M500.59,541.32h-12.04c-.62,0-1.13-.51-1.13-1.13v-58.62c0-.62.51-1.13,1.13-1.13h12.04c.62,0,1.13.51,1.13,1.13v58.62c0,.62-.51,1.13-1.13,1.13ZM489.68,539.07h9.79v-56.37h-9.79v56.37Z"/><path class="uuid-6b9c7e92-0588-45d6-9f52-e248294e826c" d="M49.98,510.2c0,3.61-.96,7-2.63,9.93l-13.73-6.13c-2.69-1.2-2.69-5.03,0-6.23l14.31-6.39c1.32,2.66,2.05,5.65,2.05,8.82Z"/><path class="uuid-6b9c7e92-0588-45d6-9f52-e248294e826c" d="M488.55,512.01H199.4c-.62,0-1.13-.51-1.13-1.13s.51-1.13,1.13-1.13h289.15c.62,0,1.13.51,1.13,1.13s-.51,1.13-1.13,1.13Z"/><path class="uuid-6b9c7e92-0588-45d6-9f52-e248294e826c" d="M28.19,509.79c-.19,0-.38-.05-.56-.15-12.7-7.28-21.9-20.12-24.6-34.34-2.71-14.24,1.2-29.25,10.46-40.16,8.19-9.65,19.75-15.49,30.92-21.13,4.63-2.34,9.42-4.76,13.88-7.41,31.43-18.66,51.98-53.04,53.65-89.72,1.02-22.45-6.67-40.78-20.56-49.04-1.11-.66-2.23-1.25-3.37-1.76-2.87,14.18-7.71,27.74-14.46,40.28-4.05,7.53-9.89,16.92-19.12,22.67-7.89,4.91-20.04,7.13-29.42,1.01-10.47-6.83-12.78-20.75-9.64-30.97,2.84-9.26,9.83-17.88,20.79-25.64,13.52-9.57,33.01-16.66,50.03-10.52,7.65-42.38-2.42-88.83-28.85-123.59-.38-.5-.28-1.2.22-1.58.5-.38,1.2-.28,1.58.22,17.89,23.53,28.73,52.14,31.35,82.73,1.26,14.72.56,29.22-2.03,43.13,1.38.6,2.75,1.3,4.09,2.1,14.62,8.69,22.72,27.79,21.66,51.08-1.7,37.44-22.68,72.52-54.75,91.56-4.53,2.69-9.35,5.12-14.02,7.48-10.97,5.54-22.32,11.27-30.22,20.57-8.82,10.39-12.54,24.7-9.96,38.28,2.58,13.59,11.37,25.86,23.51,32.81.54.31.73,1,.42,1.54-.21.36-.59.57-.98.57ZM72.56,262.86c-12.61,0-25.43,5.55-35.11,12.41-10.54,7.46-17.25,15.69-19.93,24.46-2.82,9.18-.72,22.26,8.72,28.42,8.55,5.58,19.72,3.5,27-1.03,8.78-5.47,14.4-14.53,18.33-21.82,6.73-12.51,11.45-26.08,14.2-40.14-4.27-1.59-8.72-2.29-13.2-2.29Z"/><path class="uuid-fb6874bf-5ccc-4d58-9253-27b8e1c88ffb" d="M72.58,56.07c0,11.99-9.71,21.71-21.7,21.71s-21.71-9.72-21.71-21.71,9.72-21.71,21.71-21.71,21.7,9.72,21.7,21.71Z"/><path class="uuid-6b9c7e92-0588-45d6-9f52-e248294e826c" d="M50.88,78.91c-12.59,0-22.84-10.25-22.84-22.84s10.25-22.84,22.84-22.84,22.83,10.25,22.83,22.84-10.24,22.84-22.83,22.84ZM50.88,35.49c-11.35,0-20.58,9.23-20.58,20.58s9.23,20.58,20.58,20.58,20.57-9.23,20.57-20.58-9.23-20.58-20.57-20.58Z"/><rect class="uuid-c36f266d-8732-48ed-bde1-2d2b74b3da33" x="61.09" y="53.86" width="35.4" height="35.4"/><path class="uuid-6b9c7e92-0588-45d6-9f52-e248294e826c" d="M96.5,90.39h-35.4c-.62,0-1.13-.51-1.13-1.13v-35.4c0-.62.51-1.13,1.13-1.13h35.4c.62,0,1.13.51,1.13,1.13v35.4c0,.62-.51,1.13-1.13,1.13ZM62.22,88.14h33.15v-33.15h-33.15v33.15Z"/><polygon class="uuid-c03fa09d-c456-49a1-a8f1-1dc5c029e428" points="66.96 105.45 23.21 105.45 45.08 73.1 66.96 105.45"/><path class="uuid-6b9c7e92-0588-45d6-9f52-e248294e826c" d="M66.96,106.57H23.21c-.42,0-.8-.23-1-.6-.2-.37-.17-.82.06-1.16l21.87-32.34c.42-.62,1.45-.62,1.87,0l21.87,32.34c.23.35.26.79.06,1.16-.2.37-.58.6-1,.6ZM25.33,104.32h39.5l-19.75-29.2-19.75,29.2Z"/><line class="uuid-c36f266d-8732-48ed-bde1-2d2b74b3da33" x1="354.39" y1="186.13" x2="328.15" y2="224.88"/><path class="uuid-6b9c7e92-0588-45d6-9f52-e248294e826c" d="M328.15,226.01c-.22,0-.44-.06-.63-.19-.52-.35-.65-1.05-.3-1.57l26.25-38.75c.35-.52,1.05-.65,1.57-.3.52.35.65,1.05.3,1.57l-26.25,38.75c-.22.32-.57.5-.94.5Z"/></svg>