<svg width="100%" height="100%" viewBox="0 0 24 24" fill="none" xmlns="http://www.w3.org/2000/svg" aria-hidden="true"><path d="M6 4.75C6 4.02275 6.02275 3.84175 6.10675 3.66975C6.21569 3.44841 6.40159 3.27016 6.62975 3.16121C6.80175 3.07721 6.98275 3.07721 7.75 3.07721C8.51725 3.07721 8.69825 3.07721 8.87025 3.16121C9.09841 3.27016 9.28431 3.44841 9.39325 3.66975C9.47725 3.84175 9.5 4.02275 9.5 4.75V19.25C9.5 19.9773 9.47725 20.1583 9.39325 20.3303C9.28431 20.5516 9.09841 20.7298 8.87025 20.8388C8.69825 20.9228 8.51725 20.9228 7.75 20.9228C6.98275 20.9228 6.80175 20.9228 6.62975 20.8388C6.40159 20.7298 6.21569 20.5516 6.10675 20.3303C6.02275 20.1583 6 19.9773 6 19.25V4.75ZM14.5 4.75C14.5 4.02275 14.5228 3.84175 14.6068 3.66975C14.7157 3.44841 14.9016 3.27016 15.1298 3.16121C15.3018 3.07721 15.4828 3.07721 16.25 3.07721C17.0173 3.07721 17.1982 3.07721 17.3703 3.16121C17.5984 3.27016 17.7843 3.44841 17.8933 3.66975C17.9772 3.84175 18 4.02275 18 4.75V19.25C18 19.9773 17.9772 20.1583 17.8933 20.3303C17.7843 20.5516 17.5984 20.7298 17.3703 20.8388C17.1982 20.9228 17.0173 20.9228 16.25 20.9228C15.4828 20.9228 15.3018 20.9228 15.1298 20.8388C14.9016 20.7298 14.7157 20.5516 14.6068 20.3303C14.5228 20.1583 14.5 19.9773 14.5 19.25V4.75Z" stroke="currentColor" stroke-width="2" stroke-linecap="round" stroke-linejoin="round"></path></svg>